%TF.GenerationSoftware,KiCad,Pcbnew,10.0.3*%
%TF.CreationDate,2026-07-15T16:52:05-07:00*%
%TF.ProjectId,LR_P3A_DualNCE,4c525f50-3341-45f4-9475-616c4e43452e,rev?*%
%TF.SameCoordinates,Original*%
%TF.FileFunction,AssemblyDrawing,Top*%
%FSLAX46Y46*%
G04 Gerber Fmt 4.6, Leading zero omitted, Abs format (unit mm)*
G04 Created by KiCad (PCBNEW 10.0.3) date 2026-07-15 16:52:05*
%MOMM*%
%LPD*%
G01*
G04 APERTURE LIST*
%ADD10C,0.158750*%
G04 APERTURE END LIST*
D10*
X60414523Y-119309271D02*
X61140237Y-119309271D01*
X60777380Y-120579271D02*
X60777380Y-119309271D01*
X61986904Y-119914033D02*
X61563570Y-119914033D01*
X61563570Y-120579271D02*
X61563570Y-119309271D01*
X61563570Y-119309271D02*
X62168332Y-119309271D01*
X63256903Y-120579271D02*
X62652141Y-120579271D01*
X62652141Y-120579271D02*
X62652141Y-119309271D01*
X63680236Y-120579271D02*
X63680236Y-119309271D01*
X63680236Y-119309271D02*
X64405951Y-120579271D01*
X64405951Y-120579271D02*
X64405951Y-119309271D01*
X65010712Y-120095461D02*
X65978332Y-120095461D01*
X66583093Y-120579271D02*
X66583093Y-119309271D01*
X66583093Y-119309271D02*
X67006427Y-120216414D01*
X67006427Y-120216414D02*
X67429760Y-119309271D01*
X67429760Y-119309271D02*
X67429760Y-120579271D01*
X67913570Y-119309271D02*
X68760237Y-119309271D01*
X68760237Y-119309271D02*
X67913570Y-120579271D01*
X67913570Y-120579271D02*
X68760237Y-120579271D01*
X69244046Y-120579271D02*
X69244046Y-119309271D01*
X69244046Y-119309271D02*
X69667380Y-120216414D01*
X69667380Y-120216414D02*
X70090713Y-119309271D01*
X70090713Y-119309271D02*
X70090713Y-120579271D01*
X70695475Y-120095461D02*
X71663095Y-120095461D01*
X72812142Y-119732604D02*
X72812142Y-120579271D01*
X72509761Y-119248795D02*
X72207380Y-120155937D01*
X72207380Y-120155937D02*
X72993571Y-120155937D01*
X73719285Y-119309271D02*
X73840238Y-119309271D01*
X73840238Y-119309271D02*
X73961190Y-119369747D01*
X73961190Y-119369747D02*
X74021666Y-119430223D01*
X74021666Y-119430223D02*
X74082142Y-119551175D01*
X74082142Y-119551175D02*
X74142619Y-119793080D01*
X74142619Y-119793080D02*
X74142619Y-120095461D01*
X74142619Y-120095461D02*
X74082142Y-120337366D01*
X74082142Y-120337366D02*
X74021666Y-120458318D01*
X74021666Y-120458318D02*
X73961190Y-120518795D01*
X73961190Y-120518795D02*
X73840238Y-120579271D01*
X73840238Y-120579271D02*
X73719285Y-120579271D01*
X73719285Y-120579271D02*
X73598333Y-120518795D01*
X73598333Y-120518795D02*
X73537857Y-120458318D01*
X73537857Y-120458318D02*
X73477380Y-120337366D01*
X73477380Y-120337366D02*
X73416904Y-120095461D01*
X73416904Y-120095461D02*
X73416904Y-119793080D01*
X73416904Y-119793080D02*
X73477380Y-119551175D01*
X73477380Y-119551175D02*
X73537857Y-119430223D01*
X73537857Y-119430223D02*
X73598333Y-119369747D01*
X73598333Y-119369747D02*
X73719285Y-119309271D01*
X74928809Y-119309271D02*
X75049762Y-119309271D01*
X75049762Y-119309271D02*
X75170714Y-119369747D01*
X75170714Y-119369747D02*
X75231190Y-119430223D01*
X75231190Y-119430223D02*
X75291666Y-119551175D01*
X75291666Y-119551175D02*
X75352143Y-119793080D01*
X75352143Y-119793080D02*
X75352143Y-120095461D01*
X75352143Y-120095461D02*
X75291666Y-120337366D01*
X75291666Y-120337366D02*
X75231190Y-120458318D01*
X75231190Y-120458318D02*
X75170714Y-120518795D01*
X75170714Y-120518795D02*
X75049762Y-120579271D01*
X75049762Y-120579271D02*
X74928809Y-120579271D01*
X74928809Y-120579271D02*
X74807857Y-120518795D01*
X74807857Y-120518795D02*
X74747381Y-120458318D01*
X74747381Y-120458318D02*
X74686904Y-120337366D01*
X74686904Y-120337366D02*
X74626428Y-120095461D01*
X74626428Y-120095461D02*
X74626428Y-119793080D01*
X74626428Y-119793080D02*
X74686904Y-119551175D01*
X74686904Y-119551175D02*
X74747381Y-119430223D01*
X74747381Y-119430223D02*
X74807857Y-119369747D01*
X74807857Y-119369747D02*
X74928809Y-119309271D01*
X76561667Y-119369747D02*
X76440714Y-119309271D01*
X76440714Y-119309271D02*
X76259286Y-119309271D01*
X76259286Y-119309271D02*
X76077857Y-119369747D01*
X76077857Y-119369747D02*
X75956905Y-119490699D01*
X75956905Y-119490699D02*
X75896428Y-119611652D01*
X75896428Y-119611652D02*
X75835952Y-119853556D01*
X75835952Y-119853556D02*
X75835952Y-120034985D01*
X75835952Y-120034985D02*
X75896428Y-120276890D01*
X75896428Y-120276890D02*
X75956905Y-120397842D01*
X75956905Y-120397842D02*
X76077857Y-120518795D01*
X76077857Y-120518795D02*
X76259286Y-120579271D01*
X76259286Y-120579271D02*
X76380238Y-120579271D01*
X76380238Y-120579271D02*
X76561667Y-120518795D01*
X76561667Y-120518795D02*
X76622143Y-120458318D01*
X76622143Y-120458318D02*
X76622143Y-120034985D01*
X76622143Y-120034985D02*
X76380238Y-120034985D01*
X77166428Y-120095461D02*
X78134048Y-120095461D01*
X79464524Y-120458318D02*
X79404048Y-120518795D01*
X79404048Y-120518795D02*
X79222619Y-120579271D01*
X79222619Y-120579271D02*
X79101667Y-120579271D01*
X79101667Y-120579271D02*
X78920238Y-120518795D01*
X78920238Y-120518795D02*
X78799286Y-120397842D01*
X78799286Y-120397842D02*
X78738809Y-120276890D01*
X78738809Y-120276890D02*
X78678333Y-120034985D01*
X78678333Y-120034985D02*
X78678333Y-119853556D01*
X78678333Y-119853556D02*
X78738809Y-119611652D01*
X78738809Y-119611652D02*
X78799286Y-119490699D01*
X78799286Y-119490699D02*
X78920238Y-119369747D01*
X78920238Y-119369747D02*
X79101667Y-119309271D01*
X79101667Y-119309271D02*
X79222619Y-119309271D01*
X79222619Y-119309271D02*
X79404048Y-119369747D01*
X79404048Y-119369747D02*
X79464524Y-119430223D01*
X150414523Y-119309271D02*
X151140237Y-119309271D01*
X150777380Y-120579271D02*
X150777380Y-119309271D01*
X151986904Y-119914033D02*
X151563570Y-119914033D01*
X151563570Y-120579271D02*
X151563570Y-119309271D01*
X151563570Y-119309271D02*
X152168332Y-119309271D01*
X153256903Y-120579271D02*
X152652141Y-120579271D01*
X152652141Y-120579271D02*
X152652141Y-119309271D01*
X153680236Y-120579271D02*
X153680236Y-119309271D01*
X153680236Y-119309271D02*
X154405951Y-120579271D01*
X154405951Y-120579271D02*
X154405951Y-119309271D01*
X155010712Y-120095461D02*
X155978332Y-120095461D01*
X156583093Y-120579271D02*
X156583093Y-119309271D01*
X156583093Y-119309271D02*
X157006427Y-120216414D01*
X157006427Y-120216414D02*
X157429760Y-119309271D01*
X157429760Y-119309271D02*
X157429760Y-120579271D01*
X157913570Y-119309271D02*
X158760237Y-119309271D01*
X158760237Y-119309271D02*
X157913570Y-120579271D01*
X157913570Y-120579271D02*
X158760237Y-120579271D01*
X159244046Y-120579271D02*
X159244046Y-119309271D01*
X159244046Y-119309271D02*
X159667380Y-120216414D01*
X159667380Y-120216414D02*
X160090713Y-119309271D01*
X160090713Y-119309271D02*
X160090713Y-120579271D01*
X160695475Y-120095461D02*
X161663095Y-120095461D01*
X162812142Y-119732604D02*
X162812142Y-120579271D01*
X162509761Y-119248795D02*
X162207380Y-120155937D01*
X162207380Y-120155937D02*
X162993571Y-120155937D01*
X163719285Y-119309271D02*
X163840238Y-119309271D01*
X163840238Y-119309271D02*
X163961190Y-119369747D01*
X163961190Y-119369747D02*
X164021666Y-119430223D01*
X164021666Y-119430223D02*
X164082142Y-119551175D01*
X164082142Y-119551175D02*
X164142619Y-119793080D01*
X164142619Y-119793080D02*
X164142619Y-120095461D01*
X164142619Y-120095461D02*
X164082142Y-120337366D01*
X164082142Y-120337366D02*
X164021666Y-120458318D01*
X164021666Y-120458318D02*
X163961190Y-120518795D01*
X163961190Y-120518795D02*
X163840238Y-120579271D01*
X163840238Y-120579271D02*
X163719285Y-120579271D01*
X163719285Y-120579271D02*
X163598333Y-120518795D01*
X163598333Y-120518795D02*
X163537857Y-120458318D01*
X163537857Y-120458318D02*
X163477380Y-120337366D01*
X163477380Y-120337366D02*
X163416904Y-120095461D01*
X163416904Y-120095461D02*
X163416904Y-119793080D01*
X163416904Y-119793080D02*
X163477380Y-119551175D01*
X163477380Y-119551175D02*
X163537857Y-119430223D01*
X163537857Y-119430223D02*
X163598333Y-119369747D01*
X163598333Y-119369747D02*
X163719285Y-119309271D01*
X164928809Y-119309271D02*
X165049762Y-119309271D01*
X165049762Y-119309271D02*
X165170714Y-119369747D01*
X165170714Y-119369747D02*
X165231190Y-119430223D01*
X165231190Y-119430223D02*
X165291666Y-119551175D01*
X165291666Y-119551175D02*
X165352143Y-119793080D01*
X165352143Y-119793080D02*
X165352143Y-120095461D01*
X165352143Y-120095461D02*
X165291666Y-120337366D01*
X165291666Y-120337366D02*
X165231190Y-120458318D01*
X165231190Y-120458318D02*
X165170714Y-120518795D01*
X165170714Y-120518795D02*
X165049762Y-120579271D01*
X165049762Y-120579271D02*
X164928809Y-120579271D01*
X164928809Y-120579271D02*
X164807857Y-120518795D01*
X164807857Y-120518795D02*
X164747381Y-120458318D01*
X164747381Y-120458318D02*
X164686904Y-120337366D01*
X164686904Y-120337366D02*
X164626428Y-120095461D01*
X164626428Y-120095461D02*
X164626428Y-119793080D01*
X164626428Y-119793080D02*
X164686904Y-119551175D01*
X164686904Y-119551175D02*
X164747381Y-119430223D01*
X164747381Y-119430223D02*
X164807857Y-119369747D01*
X164807857Y-119369747D02*
X164928809Y-119309271D01*
X166561667Y-119369747D02*
X166440714Y-119309271D01*
X166440714Y-119309271D02*
X166259286Y-119309271D01*
X166259286Y-119309271D02*
X166077857Y-119369747D01*
X166077857Y-119369747D02*
X165956905Y-119490699D01*
X165956905Y-119490699D02*
X165896428Y-119611652D01*
X165896428Y-119611652D02*
X165835952Y-119853556D01*
X165835952Y-119853556D02*
X165835952Y-120034985D01*
X165835952Y-120034985D02*
X165896428Y-120276890D01*
X165896428Y-120276890D02*
X165956905Y-120397842D01*
X165956905Y-120397842D02*
X166077857Y-120518795D01*
X166077857Y-120518795D02*
X166259286Y-120579271D01*
X166259286Y-120579271D02*
X166380238Y-120579271D01*
X166380238Y-120579271D02*
X166561667Y-120518795D01*
X166561667Y-120518795D02*
X166622143Y-120458318D01*
X166622143Y-120458318D02*
X166622143Y-120034985D01*
X166622143Y-120034985D02*
X166380238Y-120034985D01*
X167166428Y-120095461D02*
X168134048Y-120095461D01*
X169464524Y-120458318D02*
X169404048Y-120518795D01*
X169404048Y-120518795D02*
X169222619Y-120579271D01*
X169222619Y-120579271D02*
X169101667Y-120579271D01*
X169101667Y-120579271D02*
X168920238Y-120518795D01*
X168920238Y-120518795D02*
X168799286Y-120397842D01*
X168799286Y-120397842D02*
X168738809Y-120276890D01*
X168738809Y-120276890D02*
X168678333Y-120034985D01*
X168678333Y-120034985D02*
X168678333Y-119853556D01*
X168678333Y-119853556D02*
X168738809Y-119611652D01*
X168738809Y-119611652D02*
X168799286Y-119490699D01*
X168799286Y-119490699D02*
X168920238Y-119369747D01*
X168920238Y-119369747D02*
X169101667Y-119309271D01*
X169101667Y-119309271D02*
X169222619Y-119309271D01*
X169222619Y-119309271D02*
X169404048Y-119369747D01*
X169404048Y-119369747D02*
X169464524Y-119430223D01*
M02*
