%TF.GenerationSoftware,KiCad,Pcbnew,10.0.3*%
%TF.CreationDate,2026-07-15T16:52:03-07:00*%
%TF.ProjectId,LR_P3A_DualNCE,4c525f50-3341-45f4-9475-616c4e43452e,rev?*%
%TF.SameCoordinates,Original*%
%TF.FileFunction,Copper,L6,Inr*%
%TF.FilePolarity,Positive*%
%FSLAX46Y46*%
G04 Gerber Fmt 4.6, Leading zero omitted, Abs format (unit mm)*
G04 Created by KiCad (PCBNEW 10.0.3) date 2026-07-15 16:52:03*
%MOMM*%
%LPD*%
G01*
G04 APERTURE LIST*
%TA.AperFunction,ViaPad*%
%ADD10C,0.500000*%
%TD*%
%TA.AperFunction,ViaPad*%
%ADD11C,0.600000*%
%TD*%
%TA.AperFunction,Conductor*%
%ADD12C,0.150000*%
%TD*%
%TA.AperFunction,Conductor*%
%ADD13C,0.300000*%
%TD*%
G04 APERTURE END LIST*
D10*
%TO.N,TFLN_RF_A*%
X67937500Y-118000000D03*
X63062500Y-118000000D03*
%TO.N,+0V9*%
X165437500Y-33000000D03*
X75437500Y-33000000D03*
%TO.N,+3V3*%
X166937500Y-87000000D03*
X76937500Y-87000000D03*
%TO.N,GND*%
X64800000Y-46800000D03*
X73187500Y-122000000D03*
X175600000Y-64400000D03*
X84000000Y-64400000D03*
X154000000Y-70000000D03*
X179600000Y-71600000D03*
X62400000Y-68400000D03*
X64000000Y-65200000D03*
X142800000Y-46000000D03*
D11*
X130000000Y-115000000D03*
D10*
X59200000Y-68400000D03*
X72000000Y-70000000D03*
X87200000Y-74000000D03*
X52000000Y-54800000D03*
X70187500Y-122000000D03*
X162800000Y-46800000D03*
X159437500Y-122000000D03*
X154800000Y-70800000D03*
X145200000Y-59600000D03*
X50400000Y-64400000D03*
X68800000Y-71600000D03*
X69437500Y-122000000D03*
X161200000Y-74000000D03*
D11*
X115000000Y-55000000D03*
D10*
X171600000Y-74800000D03*
X178000000Y-66800000D03*
X150800000Y-66800000D03*
X155312500Y-122000000D03*
X62400000Y-63600000D03*
X170000000Y-74800000D03*
X156400000Y-75600000D03*
X83200000Y-65200000D03*
X149200000Y-65200000D03*
D11*
X10000000Y-130000000D03*
D10*
X167600000Y-74000000D03*
X89600000Y-66800000D03*
X161200000Y-66000000D03*
D11*
X205000000Y-40000000D03*
D10*
X50400000Y-69200000D03*
X155600000Y-70000000D03*
X57600000Y-46000000D03*
D11*
X115000000Y-115000000D03*
X145000000Y-115000000D03*
D10*
X68800000Y-70000000D03*
X163600000Y-65200000D03*
D11*
X175000000Y-25000000D03*
D10*
X145200000Y-75600000D03*
X151600000Y-45200000D03*
X150800000Y-73200000D03*
X67200000Y-65200000D03*
X174000000Y-72400000D03*
D11*
X190000000Y-55000000D03*
D10*
X83200000Y-70000000D03*
X84000000Y-56400000D03*
X88800000Y-69200000D03*
X142800000Y-73200000D03*
X151600000Y-64400000D03*
X50400000Y-48400000D03*
X55200000Y-59600000D03*
X76000000Y-75600000D03*
X52000000Y-51600000D03*
X162000000Y-44400000D03*
X154800000Y-69200000D03*
D11*
X190000000Y-10000000D03*
D10*
X79200000Y-75600000D03*
X64562500Y-122000000D03*
X152400000Y-74800000D03*
X82400000Y-62800000D03*
X76000000Y-70800000D03*
X159600000Y-66000000D03*
X53600000Y-46800000D03*
X169200000Y-72400000D03*
X51200000Y-60400000D03*
X158800000Y-70000000D03*
X143600000Y-56400000D03*
X57600000Y-55600000D03*
X171600000Y-44400000D03*
X142000000Y-61200000D03*
X56800000Y-58000000D03*
X142000000Y-58000000D03*
X72800000Y-45200000D03*
X144400000Y-65200000D03*
D11*
X25000000Y-55000000D03*
D10*
X174800000Y-52400000D03*
X142000000Y-59600000D03*
X64800000Y-45200000D03*
X66400000Y-67600000D03*
X147600000Y-54000000D03*
X154800000Y-75600000D03*
X142000000Y-62800000D03*
X68000000Y-74000000D03*
D11*
X85000000Y-115000000D03*
D10*
X148400000Y-45200000D03*
X151600000Y-75600000D03*
X66400000Y-72400000D03*
D11*
X40000000Y-100000000D03*
D10*
X142000000Y-46800000D03*
X166000000Y-67600000D03*
X89600000Y-74800000D03*
X162800000Y-69200000D03*
X58400000Y-70800000D03*
X153200000Y-72400000D03*
D11*
X40000000Y-55000000D03*
D10*
X165200000Y-44400000D03*
X66400000Y-70800000D03*
X174800000Y-71600000D03*
X84000000Y-66000000D03*
X78400000Y-68400000D03*
X75200000Y-65200000D03*
X144400000Y-60400000D03*
X75200000Y-44400000D03*
X174000000Y-69200000D03*
X140400000Y-69200000D03*
X146000000Y-70000000D03*
X74400000Y-45200000D03*
X64800000Y-66000000D03*
X163600000Y-44400000D03*
X79200000Y-66000000D03*
X166000000Y-75600000D03*
X80000000Y-65200000D03*
X70400000Y-70000000D03*
X89600000Y-73200000D03*
X147600000Y-52400000D03*
X160400000Y-68400000D03*
X156400000Y-45200000D03*
X83200000Y-52400000D03*
X56800000Y-61200000D03*
X149200000Y-63600000D03*
X150000000Y-74000000D03*
X170000000Y-70000000D03*
X147600000Y-63600000D03*
X63200000Y-74000000D03*
X162800000Y-72400000D03*
X164400000Y-72400000D03*
X157200000Y-65200000D03*
X55200000Y-54800000D03*
X67200000Y-46000000D03*
X154000000Y-63600000D03*
X142000000Y-51600000D03*
D11*
X115000000Y-130000000D03*
D10*
X68800000Y-63600000D03*
X150000000Y-70800000D03*
X141200000Y-57200000D03*
X163600000Y-68400000D03*
X63200000Y-70800000D03*
X174000000Y-67600000D03*
X65600000Y-71600000D03*
X154800000Y-46800000D03*
X64000000Y-46000000D03*
X55200000Y-46800000D03*
X64000000Y-74800000D03*
X76800000Y-63600000D03*
X52000000Y-45200000D03*
X66400000Y-74000000D03*
X142000000Y-54800000D03*
X154800000Y-45200000D03*
X146000000Y-73200000D03*
X84800000Y-65200000D03*
X175600000Y-74000000D03*
X153200000Y-64400000D03*
X146000000Y-62000000D03*
X146800000Y-50000000D03*
X153062500Y-122000000D03*
X79200000Y-69200000D03*
X68000000Y-66000000D03*
X173200000Y-68400000D03*
X64800000Y-75600000D03*
X174000000Y-70800000D03*
X170800000Y-74000000D03*
X168400000Y-65200000D03*
X69600000Y-46800000D03*
D11*
X160000000Y-25000000D03*
D10*
X170000000Y-71600000D03*
D11*
X40000000Y-40000000D03*
X145000000Y-100000000D03*
D10*
X179600000Y-68400000D03*
X177200000Y-67600000D03*
X65600000Y-44400000D03*
X169200000Y-70800000D03*
X69600000Y-45200000D03*
X144400000Y-44400000D03*
X82400000Y-45200000D03*
X177200000Y-72400000D03*
X165200000Y-66800000D03*
X78400000Y-71600000D03*
X61600000Y-74000000D03*
X81600000Y-46000000D03*
X179600000Y-66800000D03*
X65600000Y-46000000D03*
D11*
X115000000Y-40000000D03*
D10*
X172400000Y-45200000D03*
X173200000Y-50800000D03*
X52800000Y-44400000D03*
X51200000Y-74800000D03*
D11*
X25000000Y-130000000D03*
D10*
X53600000Y-54800000D03*
X56000000Y-62000000D03*
X50400000Y-61200000D03*
X156400000Y-72400000D03*
X141200000Y-74800000D03*
X58400000Y-46800000D03*
X67200000Y-66800000D03*
X176400000Y-73200000D03*
X141200000Y-71600000D03*
X173200000Y-71600000D03*
X85600000Y-67600000D03*
X178000000Y-71600000D03*
X146800000Y-59600000D03*
X66437500Y-122000000D03*
X55200000Y-70800000D03*
X149200000Y-74800000D03*
X71200000Y-72400000D03*
D11*
X10000000Y-70000000D03*
D10*
X147600000Y-74800000D03*
X63200000Y-46800000D03*
X174000000Y-56400000D03*
X167600000Y-75600000D03*
X54400000Y-58800000D03*
X155600000Y-44400000D03*
X63200000Y-69200000D03*
X75200000Y-68400000D03*
X158000000Y-64400000D03*
X72800000Y-46800000D03*
X140400000Y-58000000D03*
X76000000Y-45200000D03*
X56000000Y-65200000D03*
X140400000Y-53200000D03*
X174000000Y-50000000D03*
X152400000Y-65200000D03*
D11*
X130000000Y-70000000D03*
D10*
X166187500Y-122000000D03*
X76000000Y-64400000D03*
X85600000Y-74000000D03*
X77600000Y-67600000D03*
X151600000Y-66000000D03*
X161200000Y-69200000D03*
X52000000Y-56400000D03*
X79200000Y-70800000D03*
X57600000Y-74800000D03*
X142000000Y-70800000D03*
X84000000Y-59600000D03*
X157200000Y-70000000D03*
X78400000Y-46000000D03*
X55200000Y-56400000D03*
X166800000Y-46000000D03*
X166800000Y-66800000D03*
X84800000Y-71600000D03*
X86400000Y-71600000D03*
X83200000Y-54000000D03*
X86400000Y-68400000D03*
X147600000Y-73200000D03*
X70400000Y-68400000D03*
X50400000Y-62800000D03*
X168400000Y-74800000D03*
X82400000Y-75600000D03*
X66062500Y-122000000D03*
X53600000Y-67600000D03*
X80000000Y-70000000D03*
X68000000Y-75600000D03*
D11*
X205000000Y-85000000D03*
D10*
X178000000Y-78000000D03*
X145200000Y-66000000D03*
X55200000Y-75600000D03*
X85600000Y-69200000D03*
X83200000Y-73200000D03*
X71200000Y-75600000D03*
X84000000Y-48400000D03*
X178000000Y-68400000D03*
X57600000Y-50800000D03*
X143600000Y-54800000D03*
X174800000Y-49200000D03*
X146800000Y-45200000D03*
X68800000Y-68400000D03*
X65600000Y-70000000D03*
X55200000Y-69200000D03*
X53600000Y-61200000D03*
X173200000Y-74800000D03*
X142000000Y-56400000D03*
X52000000Y-61200000D03*
X64800000Y-69200000D03*
X143600000Y-69200000D03*
D11*
X25000000Y-25000000D03*
D10*
X83200000Y-57200000D03*
X75200000Y-66800000D03*
X83200000Y-46000000D03*
X71200000Y-66000000D03*
X142800000Y-71600000D03*
X58400000Y-69200000D03*
X144400000Y-62000000D03*
X171600000Y-68400000D03*
X82400000Y-74000000D03*
X73600000Y-71600000D03*
X64000000Y-70000000D03*
X64800000Y-70800000D03*
X84800000Y-52400000D03*
X159600000Y-46800000D03*
X54400000Y-50800000D03*
X153437500Y-122000000D03*
X150000000Y-72400000D03*
X84000000Y-53200000D03*
X176400000Y-66800000D03*
X167600000Y-70800000D03*
X162000000Y-70000000D03*
X170800000Y-69200000D03*
X88000000Y-74800000D03*
X143600000Y-48400000D03*
X52800000Y-46000000D03*
X64800000Y-72400000D03*
X172400000Y-75600000D03*
X52800000Y-71600000D03*
X70400000Y-44400000D03*
X142800000Y-74800000D03*
X141200000Y-70000000D03*
X158000000Y-75600000D03*
X166800000Y-73200000D03*
X64800000Y-67600000D03*
X165062500Y-122000000D03*
X158000000Y-46800000D03*
X162800000Y-64400000D03*
X51200000Y-73200000D03*
X157200000Y-63600000D03*
X53600000Y-48400000D03*
X166800000Y-65200000D03*
X148400000Y-67600000D03*
X52800000Y-70000000D03*
X53600000Y-72400000D03*
X144400000Y-58800000D03*
X52000000Y-46800000D03*
X69600000Y-69200000D03*
X78400000Y-65200000D03*
X144400000Y-54000000D03*
X67200000Y-44400000D03*
X84000000Y-72400000D03*
X151600000Y-72400000D03*
X62400000Y-44400000D03*
X81600000Y-63600000D03*
X54400000Y-57200000D03*
X165200000Y-68400000D03*
X76800000Y-71600000D03*
X144400000Y-63600000D03*
X80800000Y-74000000D03*
X154937500Y-122000000D03*
X170800000Y-45200000D03*
X145200000Y-56400000D03*
X164400000Y-64400000D03*
X150000000Y-67600000D03*
X83200000Y-47600000D03*
X143600000Y-70800000D03*
X145200000Y-58000000D03*
X142800000Y-54000000D03*
X166000000Y-45200000D03*
X177200000Y-75600000D03*
X140400000Y-74000000D03*
X54400000Y-47600000D03*
X50400000Y-67600000D03*
X166000000Y-64400000D03*
X160187500Y-122000000D03*
X78400000Y-73200000D03*
X84000000Y-69200000D03*
X84800000Y-63600000D03*
X174800000Y-62000000D03*
X50400000Y-46800000D03*
X56000000Y-55600000D03*
X176400000Y-78000000D03*
D11*
X130000000Y-85000000D03*
D10*
X89600000Y-68400000D03*
X84800000Y-54000000D03*
X169200000Y-67600000D03*
X52800000Y-57200000D03*
D11*
X190000000Y-25000000D03*
D10*
X86400000Y-73200000D03*
X175600000Y-70800000D03*
X166000000Y-69200000D03*
X140400000Y-46800000D03*
X80000000Y-73200000D03*
X158800000Y-63600000D03*
X170000000Y-66800000D03*
X171600000Y-66800000D03*
D11*
X100000000Y-100000000D03*
D10*
X142800000Y-57200000D03*
X56800000Y-59600000D03*
X53600000Y-69200000D03*
X168400000Y-71600000D03*
X84000000Y-67600000D03*
X173200000Y-65200000D03*
X160400000Y-46000000D03*
X55200000Y-53200000D03*
X157200000Y-73200000D03*
X162812500Y-122000000D03*
X61600000Y-66000000D03*
X74400000Y-66000000D03*
X83200000Y-71600000D03*
X170000000Y-68400000D03*
X68800000Y-66800000D03*
X146000000Y-66800000D03*
X146800000Y-70800000D03*
X82400000Y-66000000D03*
X76800000Y-68400000D03*
X174800000Y-65200000D03*
X146000000Y-60400000D03*
D11*
X190000000Y-130000000D03*
D10*
X56800000Y-56400000D03*
D11*
X85000000Y-130000000D03*
D10*
X52000000Y-64400000D03*
X55200000Y-61200000D03*
X140400000Y-72400000D03*
D11*
X10000000Y-25000000D03*
D10*
X73937500Y-122000000D03*
D11*
X205000000Y-10000000D03*
D10*
X56000000Y-68400000D03*
X174000000Y-64400000D03*
X56000000Y-63600000D03*
X85600000Y-62800000D03*
X64000000Y-44400000D03*
X56000000Y-70000000D03*
X157937500Y-122000000D03*
X87200000Y-66000000D03*
X72000000Y-71600000D03*
X162800000Y-67600000D03*
X65600000Y-73200000D03*
D11*
X145000000Y-10000000D03*
D10*
X77312500Y-122000000D03*
X143600000Y-62800000D03*
D11*
X100000000Y-10000000D03*
D10*
X56800000Y-54800000D03*
X147600000Y-47600000D03*
X68000000Y-72400000D03*
X67200000Y-63600000D03*
X152400000Y-70000000D03*
X173200000Y-57200000D03*
X81600000Y-71600000D03*
X164400000Y-75600000D03*
X165812500Y-122000000D03*
X68000000Y-46800000D03*
X146000000Y-44400000D03*
X173200000Y-73200000D03*
D11*
X115000000Y-10000000D03*
X55000000Y-100000000D03*
D10*
X72800000Y-74000000D03*
X174800000Y-73200000D03*
X66400000Y-66000000D03*
X57600000Y-65200000D03*
X72000000Y-44400000D03*
X174800000Y-66800000D03*
X175600000Y-66000000D03*
D11*
X205000000Y-25000000D03*
D10*
X165200000Y-63600000D03*
X141200000Y-46000000D03*
X160937500Y-122000000D03*
X162000000Y-74800000D03*
X79200000Y-64400000D03*
X166800000Y-74800000D03*
X60800000Y-63600000D03*
X140400000Y-50000000D03*
X84800000Y-47600000D03*
X81600000Y-66800000D03*
X58400000Y-74000000D03*
X166800000Y-70000000D03*
X176400000Y-62000000D03*
X72000000Y-68400000D03*
X84800000Y-44400000D03*
X74400000Y-64400000D03*
X80800000Y-67600000D03*
X50400000Y-59600000D03*
X80800000Y-62800000D03*
D11*
X40000000Y-70000000D03*
D10*
X73600000Y-46000000D03*
X161200000Y-70800000D03*
X150800000Y-71600000D03*
X146800000Y-53200000D03*
X79200000Y-72400000D03*
X170000000Y-63600000D03*
X54400000Y-62000000D03*
X84000000Y-74000000D03*
X60000000Y-75600000D03*
X69600000Y-66000000D03*
X145200000Y-48400000D03*
X150800000Y-46000000D03*
X55200000Y-62800000D03*
X64000000Y-63600000D03*
X84000000Y-46800000D03*
X171600000Y-71600000D03*
X146000000Y-46000000D03*
X154000000Y-71600000D03*
X146800000Y-48400000D03*
X52000000Y-66000000D03*
X150800000Y-68400000D03*
X161200000Y-46800000D03*
X145200000Y-54800000D03*
D11*
X25000000Y-70000000D03*
D10*
X68000000Y-64400000D03*
X84800000Y-70000000D03*
X83200000Y-68400000D03*
X63200000Y-75600000D03*
X149200000Y-46000000D03*
X173200000Y-44400000D03*
X78400000Y-66800000D03*
X159600000Y-75600000D03*
X148400000Y-70800000D03*
X149200000Y-71600000D03*
X76800000Y-73200000D03*
X173200000Y-49200000D03*
X67562500Y-122000000D03*
X142800000Y-60400000D03*
X178800000Y-75600000D03*
X141200000Y-65200000D03*
X82400000Y-70800000D03*
X169200000Y-64400000D03*
X81600000Y-70000000D03*
X60000000Y-70800000D03*
X71312500Y-122000000D03*
D11*
X175000000Y-100000000D03*
D10*
X63812500Y-122000000D03*
X142000000Y-64400000D03*
X140400000Y-51600000D03*
X87200000Y-70800000D03*
X168400000Y-66800000D03*
X84800000Y-74800000D03*
X177200000Y-70800000D03*
D11*
X25000000Y-115000000D03*
D10*
X165200000Y-73200000D03*
X145200000Y-64400000D03*
X167600000Y-64400000D03*
X52000000Y-70800000D03*
X88000000Y-73200000D03*
X146000000Y-55600000D03*
X174800000Y-44400000D03*
X161200000Y-75600000D03*
X84000000Y-51600000D03*
X84000000Y-58000000D03*
X86400000Y-78000000D03*
X51200000Y-57200000D03*
X63200000Y-72400000D03*
X56800000Y-64400000D03*
X158800000Y-65200000D03*
X173200000Y-54000000D03*
X144400000Y-71600000D03*
X173200000Y-70000000D03*
X163600000Y-46000000D03*
X154000000Y-68400000D03*
X145200000Y-46800000D03*
X153200000Y-46800000D03*
X79200000Y-67600000D03*
X78400000Y-70000000D03*
X76800000Y-65200000D03*
D11*
X115000000Y-100000000D03*
D10*
X56800000Y-69200000D03*
X146000000Y-63600000D03*
X173200000Y-47600000D03*
X152400000Y-44400000D03*
X176400000Y-70000000D03*
X66400000Y-64400000D03*
X65600000Y-68400000D03*
X169200000Y-46800000D03*
X56000000Y-46000000D03*
D11*
X175000000Y-130000000D03*
D10*
X174800000Y-57200000D03*
X65687500Y-122000000D03*
X170800000Y-67600000D03*
X168400000Y-63600000D03*
X73600000Y-70000000D03*
X154187500Y-122000000D03*
X64800000Y-64400000D03*
X85600000Y-64400000D03*
X155600000Y-74800000D03*
X72800000Y-70800000D03*
X171600000Y-46000000D03*
X141200000Y-63600000D03*
X154800000Y-72400000D03*
X70400000Y-46000000D03*
X169200000Y-43600000D03*
X58400000Y-75600000D03*
X170800000Y-43600000D03*
X146000000Y-57200000D03*
X68800000Y-44400000D03*
X156400000Y-66000000D03*
X174000000Y-66000000D03*
X86400000Y-74800000D03*
X164400000Y-66000000D03*
X163600000Y-66800000D03*
X56000000Y-71600000D03*
X57600000Y-70000000D03*
X60000000Y-72400000D03*
X162000000Y-46000000D03*
X143600000Y-74000000D03*
X71200000Y-67600000D03*
X145200000Y-69200000D03*
X76562500Y-122000000D03*
X141200000Y-73200000D03*
X164400000Y-74000000D03*
X57600000Y-73200000D03*
D11*
X205000000Y-130000000D03*
D10*
X81600000Y-68400000D03*
X72437500Y-122000000D03*
X61600000Y-46800000D03*
X166000000Y-72400000D03*
X85600000Y-66000000D03*
X57600000Y-58800000D03*
X52800000Y-63600000D03*
X68800000Y-73200000D03*
D11*
X100000000Y-85000000D03*
D10*
X174000000Y-46800000D03*
X77600000Y-43600000D03*
X147600000Y-60400000D03*
X154800000Y-74000000D03*
X174800000Y-58800000D03*
X51200000Y-68400000D03*
X70400000Y-65200000D03*
X59200000Y-73200000D03*
X84000000Y-43600000D03*
X165200000Y-71600000D03*
X146800000Y-61200000D03*
X72800000Y-75600000D03*
X56000000Y-57200000D03*
X52000000Y-72400000D03*
X54400000Y-66800000D03*
X155687500Y-122000000D03*
X54400000Y-63600000D03*
D11*
X100000000Y-55000000D03*
D10*
X50400000Y-50000000D03*
X73600000Y-44400000D03*
X150800000Y-65200000D03*
X60000000Y-45200000D03*
X51200000Y-65200000D03*
X163600000Y-71600000D03*
X147600000Y-49200000D03*
D11*
X25000000Y-100000000D03*
D10*
X56000000Y-47600000D03*
X170000000Y-65200000D03*
X76000000Y-72400000D03*
X56000000Y-54000000D03*
X60000000Y-46800000D03*
X162000000Y-68400000D03*
D11*
X10000000Y-10000000D03*
D10*
X85600000Y-61200000D03*
X66812500Y-122000000D03*
X52800000Y-65200000D03*
X77600000Y-74000000D03*
X87200000Y-75600000D03*
X174000000Y-51600000D03*
X76800000Y-66800000D03*
X67200000Y-68400000D03*
X69812500Y-122000000D03*
X174800000Y-74800000D03*
X140400000Y-70800000D03*
X52800000Y-52400000D03*
X57600000Y-66800000D03*
X69062500Y-122000000D03*
X156812500Y-122000000D03*
X79200000Y-43600000D03*
X161200000Y-72400000D03*
D11*
X130000000Y-55000000D03*
D10*
X78400000Y-63600000D03*
X143600000Y-58000000D03*
X178000000Y-74800000D03*
X72800000Y-64400000D03*
X147600000Y-68400000D03*
X146800000Y-46800000D03*
X145200000Y-45200000D03*
X50400000Y-56400000D03*
D11*
X40000000Y-25000000D03*
D10*
X51200000Y-58800000D03*
X62400000Y-70000000D03*
X52800000Y-74800000D03*
X159600000Y-70800000D03*
X51200000Y-49200000D03*
X77600000Y-75600000D03*
X53600000Y-59600000D03*
X161200000Y-64400000D03*
X145200000Y-51600000D03*
X53600000Y-75600000D03*
X75200000Y-73200000D03*
X146800000Y-67600000D03*
X153200000Y-45200000D03*
D11*
X40000000Y-10000000D03*
D10*
X89600000Y-71600000D03*
D11*
X190000000Y-115000000D03*
D10*
X148400000Y-69200000D03*
X62400000Y-46000000D03*
X55200000Y-64400000D03*
X88000000Y-66800000D03*
X142000000Y-53200000D03*
X50400000Y-53200000D03*
X75200000Y-63600000D03*
X66400000Y-75600000D03*
X60800000Y-65200000D03*
X54400000Y-55600000D03*
X73600000Y-66800000D03*
X82400000Y-43600000D03*
D11*
X100000000Y-70000000D03*
D10*
X147600000Y-65200000D03*
X89600000Y-70000000D03*
X88000000Y-68400000D03*
X168400000Y-46000000D03*
X142800000Y-47600000D03*
X158800000Y-68400000D03*
X50400000Y-66000000D03*
X81600000Y-73200000D03*
X156437500Y-122000000D03*
X61600000Y-72400000D03*
X88800000Y-66000000D03*
X144400000Y-70000000D03*
X57600000Y-57200000D03*
X158000000Y-70800000D03*
X80800000Y-75600000D03*
X174000000Y-45200000D03*
X157200000Y-71600000D03*
X52800000Y-60400000D03*
X71200000Y-74000000D03*
X66400000Y-46800000D03*
X145200000Y-67600000D03*
X80800000Y-64400000D03*
X171600000Y-73200000D03*
X159600000Y-45200000D03*
X154562500Y-122000000D03*
X72062500Y-122000000D03*
X74687500Y-122000000D03*
X83200000Y-74800000D03*
X147600000Y-66800000D03*
X174000000Y-48400000D03*
X149200000Y-68400000D03*
X84000000Y-75600000D03*
X142000000Y-75600000D03*
X60800000Y-44400000D03*
X68687500Y-122000000D03*
X146800000Y-66000000D03*
X54400000Y-68400000D03*
X88800000Y-70800000D03*
X152400000Y-68400000D03*
D11*
X130000000Y-25000000D03*
D10*
X154000000Y-73200000D03*
X153200000Y-74000000D03*
X143600000Y-46800000D03*
X67200000Y-74800000D03*
X56000000Y-44400000D03*
X77600000Y-64400000D03*
X172400000Y-43600000D03*
D11*
X130000000Y-40000000D03*
D10*
X163187500Y-122000000D03*
X150000000Y-75600000D03*
X158000000Y-74000000D03*
X171600000Y-63600000D03*
X60000000Y-66000000D03*
X57600000Y-44400000D03*
X64000000Y-71600000D03*
X178000000Y-70000000D03*
X146000000Y-71600000D03*
X54400000Y-65200000D03*
X51200000Y-62000000D03*
X158800000Y-46000000D03*
X142800000Y-55600000D03*
D11*
X10000000Y-115000000D03*
D10*
X165200000Y-65200000D03*
X166562500Y-122000000D03*
X56000000Y-49200000D03*
X151600000Y-74000000D03*
X176400000Y-65200000D03*
X65312500Y-122000000D03*
X55200000Y-48400000D03*
X83200000Y-55600000D03*
X170800000Y-62800000D03*
X142000000Y-67600000D03*
X51200000Y-70000000D03*
X81600000Y-44400000D03*
X87200000Y-67600000D03*
X175600000Y-61200000D03*
D11*
X100000000Y-40000000D03*
D10*
X170800000Y-70800000D03*
D11*
X100000000Y-115000000D03*
D10*
X170800000Y-46800000D03*
X80000000Y-66800000D03*
X52800000Y-55600000D03*
X141200000Y-50800000D03*
X167600000Y-72400000D03*
X73600000Y-63600000D03*
X154800000Y-64400000D03*
X162000000Y-66800000D03*
X169200000Y-75600000D03*
X60800000Y-70000000D03*
X59200000Y-65200000D03*
X50400000Y-51600000D03*
X64800000Y-74000000D03*
X73600000Y-65200000D03*
X170000000Y-46000000D03*
X166800000Y-68400000D03*
X170800000Y-66000000D03*
X158312500Y-122000000D03*
X174000000Y-61200000D03*
X174800000Y-50800000D03*
X149200000Y-66800000D03*
X71200000Y-46800000D03*
X77600000Y-70800000D03*
X56000000Y-73200000D03*
X56000000Y-50800000D03*
X144400000Y-57200000D03*
X86400000Y-66800000D03*
X143600000Y-64400000D03*
X172400000Y-69200000D03*
D11*
X85000000Y-100000000D03*
D10*
X80000000Y-63600000D03*
X157200000Y-68400000D03*
X141200000Y-66800000D03*
X75200000Y-70000000D03*
X146800000Y-56400000D03*
D11*
X10000000Y-100000000D03*
D10*
X59200000Y-63600000D03*
X51200000Y-63600000D03*
X52000000Y-48400000D03*
X68312500Y-122000000D03*
X142800000Y-50800000D03*
X88800000Y-75600000D03*
X171600000Y-65200000D03*
X62400000Y-71600000D03*
X84800000Y-55600000D03*
D11*
X85000000Y-10000000D03*
D10*
X52800000Y-66800000D03*
X74312500Y-122000000D03*
X76187500Y-122000000D03*
X142800000Y-68400000D03*
X162800000Y-75600000D03*
X140400000Y-45200000D03*
X168400000Y-68400000D03*
X79200000Y-46800000D03*
X157562500Y-122000000D03*
X152400000Y-63600000D03*
X145200000Y-74000000D03*
X152400000Y-73200000D03*
X174000000Y-62800000D03*
X68000000Y-45200000D03*
X150800000Y-63600000D03*
X69600000Y-74000000D03*
X167600000Y-43600000D03*
X146000000Y-58800000D03*
X58400000Y-66000000D03*
X142000000Y-72400000D03*
X52000000Y-59600000D03*
D11*
X100000000Y-25000000D03*
D10*
X82400000Y-67600000D03*
X143600000Y-50000000D03*
X147600000Y-55600000D03*
D11*
X70000000Y-10000000D03*
D10*
X53600000Y-66000000D03*
X84800000Y-66800000D03*
X162000000Y-63600000D03*
X61600000Y-64400000D03*
X88000000Y-71600000D03*
X150800000Y-70000000D03*
X53600000Y-45200000D03*
X174000000Y-75600000D03*
D11*
X55000000Y-25000000D03*
D10*
X59200000Y-44400000D03*
X146000000Y-68400000D03*
X80000000Y-74800000D03*
X152687500Y-122000000D03*
X52000000Y-50000000D03*
X56800000Y-72400000D03*
X59200000Y-71600000D03*
X76000000Y-69200000D03*
X88000000Y-78000000D03*
X158000000Y-69200000D03*
X60800000Y-46000000D03*
X160400000Y-71600000D03*
X160400000Y-65200000D03*
X141200000Y-52400000D03*
X172400000Y-64400000D03*
X157200000Y-66800000D03*
X56800000Y-50000000D03*
X159600000Y-74000000D03*
X177200000Y-66000000D03*
X146800000Y-75600000D03*
X83200000Y-44400000D03*
X173200000Y-55600000D03*
X149200000Y-70000000D03*
X72000000Y-66800000D03*
X174800000Y-60400000D03*
X175600000Y-62800000D03*
X173200000Y-58800000D03*
X80800000Y-66000000D03*
X177200000Y-69200000D03*
X148400000Y-75600000D03*
X57600000Y-49200000D03*
X141200000Y-55600000D03*
X172400000Y-74000000D03*
X68800000Y-46000000D03*
X82400000Y-72400000D03*
X158000000Y-66000000D03*
X57600000Y-52400000D03*
X51200000Y-50800000D03*
X74400000Y-70800000D03*
D11*
X130000000Y-10000000D03*
D10*
X160562500Y-122000000D03*
X146000000Y-54000000D03*
X155600000Y-63600000D03*
X75200000Y-71600000D03*
X54400000Y-60400000D03*
X61600000Y-70800000D03*
X154000000Y-65200000D03*
D11*
X10000000Y-85000000D03*
D10*
X56000000Y-52400000D03*
X56800000Y-48400000D03*
X154000000Y-46000000D03*
X56800000Y-66000000D03*
D11*
X55000000Y-130000000D03*
D10*
X83200000Y-62000000D03*
X54400000Y-70000000D03*
X70400000Y-63600000D03*
X57600000Y-71600000D03*
X54400000Y-52400000D03*
X147600000Y-57200000D03*
X150000000Y-66000000D03*
X156400000Y-69200000D03*
X60000000Y-67600000D03*
X167600000Y-46800000D03*
X83200000Y-49200000D03*
X143600000Y-59600000D03*
X146000000Y-49200000D03*
X175600000Y-69200000D03*
X147600000Y-58800000D03*
X159812500Y-122000000D03*
X74400000Y-72400000D03*
X75062500Y-122000000D03*
X76800000Y-74800000D03*
X148400000Y-46800000D03*
X172400000Y-72400000D03*
X80000000Y-46000000D03*
X172400000Y-62800000D03*
X63062500Y-122000000D03*
X78400000Y-74800000D03*
X144400000Y-68400000D03*
X88800000Y-72400000D03*
X145200000Y-50000000D03*
X75812500Y-122000000D03*
X56800000Y-51600000D03*
X155600000Y-66800000D03*
X143600000Y-61200000D03*
X71200000Y-45200000D03*
X80800000Y-69200000D03*
X145200000Y-70800000D03*
X166800000Y-71600000D03*
X52000000Y-62800000D03*
X64000000Y-68400000D03*
D11*
X160000000Y-100000000D03*
D10*
X150800000Y-44400000D03*
X146800000Y-54800000D03*
X156400000Y-46800000D03*
X80800000Y-72400000D03*
X144400000Y-52400000D03*
X53600000Y-70800000D03*
X146800000Y-69200000D03*
X54400000Y-73200000D03*
D11*
X70000000Y-100000000D03*
D10*
X170000000Y-73200000D03*
X74400000Y-75600000D03*
X141200000Y-68400000D03*
X144400000Y-47600000D03*
X140400000Y-59600000D03*
X84800000Y-68400000D03*
X81600000Y-65200000D03*
X67187500Y-122000000D03*
X63200000Y-64400000D03*
X167600000Y-69200000D03*
X158000000Y-72400000D03*
X163600000Y-74800000D03*
X77600000Y-72400000D03*
X62400000Y-65200000D03*
X148400000Y-66000000D03*
X50400000Y-72400000D03*
X143600000Y-45200000D03*
X56800000Y-67600000D03*
X72000000Y-74800000D03*
X179600000Y-70000000D03*
X151600000Y-67600000D03*
X161200000Y-67600000D03*
X72800000Y-72400000D03*
X75437500Y-122000000D03*
X147600000Y-71600000D03*
X68000000Y-67600000D03*
X152400000Y-71600000D03*
X51200000Y-71600000D03*
X65600000Y-74800000D03*
X178800000Y-70800000D03*
X52800000Y-50800000D03*
X50400000Y-58000000D03*
X58400000Y-64400000D03*
X147600000Y-44400000D03*
X164687500Y-122000000D03*
X53600000Y-58000000D03*
X154800000Y-66000000D03*
X87200000Y-72400000D03*
X67937500Y-122000000D03*
X57600000Y-54000000D03*
X79200000Y-45200000D03*
X179600000Y-78000000D03*
X67200000Y-71600000D03*
X88800000Y-67600000D03*
X75200000Y-74800000D03*
X169200000Y-66000000D03*
X86400000Y-65200000D03*
X148400000Y-64400000D03*
X165437500Y-122000000D03*
X160400000Y-70000000D03*
X145200000Y-72400000D03*
X76000000Y-67600000D03*
X51200000Y-47600000D03*
X51200000Y-54000000D03*
X61600000Y-69200000D03*
X84800000Y-58800000D03*
X177200000Y-74000000D03*
X167600000Y-66000000D03*
D11*
X55000000Y-115000000D03*
D10*
X164400000Y-69200000D03*
X72800000Y-69200000D03*
X55200000Y-50000000D03*
X54400000Y-46000000D03*
X70400000Y-66800000D03*
X69600000Y-70800000D03*
X57600000Y-60400000D03*
X72812500Y-122000000D03*
X175600000Y-67600000D03*
D11*
X130000000Y-100000000D03*
D10*
X179600000Y-74800000D03*
X51200000Y-52400000D03*
X80800000Y-43600000D03*
X55200000Y-67600000D03*
X77600000Y-46800000D03*
X167600000Y-45200000D03*
X164400000Y-45200000D03*
X144400000Y-73200000D03*
X142000000Y-45200000D03*
D11*
X40000000Y-85000000D03*
D10*
X155600000Y-73200000D03*
X166800000Y-44400000D03*
X171600000Y-70000000D03*
X143600000Y-53200000D03*
X140400000Y-64400000D03*
X142800000Y-49200000D03*
X146800000Y-62800000D03*
X71200000Y-69200000D03*
X173200000Y-66800000D03*
X71200000Y-70800000D03*
X56800000Y-45200000D03*
X153200000Y-70800000D03*
X84800000Y-57200000D03*
X146000000Y-50800000D03*
X168400000Y-44400000D03*
X166800000Y-63600000D03*
X152400000Y-46000000D03*
X55200000Y-51600000D03*
X154000000Y-74800000D03*
X52800000Y-58800000D03*
X154800000Y-67600000D03*
X162800000Y-66000000D03*
X73562500Y-122000000D03*
X65600000Y-63600000D03*
D11*
X190000000Y-40000000D03*
X175000000Y-115000000D03*
D10*
X176400000Y-71600000D03*
X146800000Y-72400000D03*
X55200000Y-66000000D03*
X80800000Y-45200000D03*
X64000000Y-66800000D03*
X161687500Y-122000000D03*
X178800000Y-74000000D03*
X73600000Y-73200000D03*
X74400000Y-67600000D03*
X145200000Y-53200000D03*
X68000000Y-70800000D03*
X52000000Y-53200000D03*
X56000000Y-58800000D03*
X174000000Y-53200000D03*
X52000000Y-75600000D03*
X155600000Y-68400000D03*
X54400000Y-44400000D03*
X83200000Y-66800000D03*
X162800000Y-70800000D03*
X75200000Y-46000000D03*
X143600000Y-67600000D03*
X142000000Y-74000000D03*
X56800000Y-62800000D03*
X164400000Y-67600000D03*
X163600000Y-70000000D03*
X69600000Y-64400000D03*
X59200000Y-70000000D03*
D11*
X205000000Y-100000000D03*
D10*
X76800000Y-70000000D03*
X147600000Y-62000000D03*
X58400000Y-67600000D03*
X63200000Y-45200000D03*
X160400000Y-66800000D03*
X52800000Y-54000000D03*
X53600000Y-53200000D03*
X168400000Y-70000000D03*
X174000000Y-74000000D03*
X69600000Y-67600000D03*
X144400000Y-66800000D03*
X160400000Y-63600000D03*
X63437500Y-122000000D03*
X84800000Y-73200000D03*
X88800000Y-74000000D03*
X163562500Y-122000000D03*
X84800000Y-46000000D03*
D11*
X205000000Y-55000000D03*
D10*
X142800000Y-44400000D03*
X178800000Y-69200000D03*
X53600000Y-74000000D03*
D11*
X85000000Y-25000000D03*
D10*
X86400000Y-62000000D03*
X57600000Y-63600000D03*
X178800000Y-67600000D03*
X146000000Y-74800000D03*
X56800000Y-75600000D03*
X145200000Y-62800000D03*
X141200000Y-47600000D03*
X140400000Y-62800000D03*
X50400000Y-75600000D03*
X60800000Y-73200000D03*
X76000000Y-66000000D03*
X72800000Y-67600000D03*
X154000000Y-66800000D03*
X174800000Y-47600000D03*
X144400000Y-74800000D03*
X142800000Y-63600000D03*
X76800000Y-46000000D03*
X77600000Y-45200000D03*
X158800000Y-74800000D03*
D11*
X130000000Y-130000000D03*
D10*
X165200000Y-46000000D03*
X174800000Y-63600000D03*
X142000000Y-50000000D03*
X162437500Y-122000000D03*
X72000000Y-46000000D03*
X51200000Y-46000000D03*
X74400000Y-69200000D03*
X55200000Y-58000000D03*
X53600000Y-50000000D03*
X143600000Y-72400000D03*
X69600000Y-72400000D03*
X56800000Y-74000000D03*
X150000000Y-64400000D03*
X141200000Y-54000000D03*
X140400000Y-48400000D03*
X59200000Y-74800000D03*
X152400000Y-66800000D03*
D11*
X115000000Y-25000000D03*
D10*
X55200000Y-72400000D03*
X50400000Y-54800000D03*
X59200000Y-46000000D03*
X157200000Y-46000000D03*
X141200000Y-58800000D03*
X156062500Y-122000000D03*
X80000000Y-68400000D03*
X84000000Y-70800000D03*
X172400000Y-66000000D03*
X51200000Y-66800000D03*
X72000000Y-65200000D03*
X162800000Y-74000000D03*
X67200000Y-73200000D03*
X52800000Y-47600000D03*
D11*
X190000000Y-100000000D03*
D10*
X65600000Y-65200000D03*
X70937500Y-122000000D03*
X54400000Y-54000000D03*
X144400000Y-55600000D03*
D11*
X175000000Y-10000000D03*
D10*
X58400000Y-45200000D03*
D11*
X25000000Y-10000000D03*
D10*
X153812500Y-122000000D03*
X83200000Y-63600000D03*
X174000000Y-59600000D03*
X85600000Y-70800000D03*
X146800000Y-58000000D03*
X86400000Y-70000000D03*
X170000000Y-44400000D03*
X166000000Y-74000000D03*
X160400000Y-73200000D03*
X151600000Y-69200000D03*
X69600000Y-75600000D03*
X162000000Y-65200000D03*
X163600000Y-73200000D03*
X63200000Y-66000000D03*
X80800000Y-46800000D03*
X142800000Y-62000000D03*
X175600000Y-75600000D03*
X166000000Y-66000000D03*
D11*
X10000000Y-55000000D03*
D10*
X153200000Y-66000000D03*
X60000000Y-69200000D03*
X72000000Y-63600000D03*
X146800000Y-64400000D03*
X68000000Y-69200000D03*
D11*
X205000000Y-115000000D03*
D10*
X173200000Y-63600000D03*
D11*
X160000000Y-10000000D03*
D10*
X140400000Y-67600000D03*
X148400000Y-72400000D03*
X165200000Y-70000000D03*
X157200000Y-74800000D03*
X52000000Y-74000000D03*
X56800000Y-53200000D03*
X84000000Y-45200000D03*
X64000000Y-73200000D03*
X146800000Y-51600000D03*
X81600000Y-74800000D03*
X149200000Y-73200000D03*
X143600000Y-51600000D03*
X162000000Y-73200000D03*
X60800000Y-74800000D03*
X52800000Y-49200000D03*
X145200000Y-61200000D03*
X174000000Y-54800000D03*
X83200000Y-58800000D03*
X84800000Y-50800000D03*
X175600000Y-72400000D03*
X84800000Y-62000000D03*
X174800000Y-55600000D03*
X76937500Y-122000000D03*
X170800000Y-72400000D03*
X150000000Y-45200000D03*
X150000000Y-69200000D03*
D11*
X40000000Y-130000000D03*
D10*
X66400000Y-45200000D03*
X76000000Y-46800000D03*
X60800000Y-68400000D03*
X164400000Y-46800000D03*
X163937500Y-122000000D03*
X56800000Y-70800000D03*
X53600000Y-64400000D03*
X68800000Y-74800000D03*
X58400000Y-72400000D03*
X158000000Y-67600000D03*
X166000000Y-70800000D03*
X82400000Y-64400000D03*
X50400000Y-45200000D03*
X172400000Y-70800000D03*
X176400000Y-74800000D03*
X174800000Y-68400000D03*
D11*
X25000000Y-40000000D03*
D10*
X159600000Y-72400000D03*
X174800000Y-70000000D03*
X142800000Y-58800000D03*
X70400000Y-73200000D03*
X84000000Y-62800000D03*
X65600000Y-66800000D03*
X144400000Y-46000000D03*
D11*
X145000000Y-25000000D03*
D10*
X158800000Y-44400000D03*
X52000000Y-58000000D03*
X153200000Y-69200000D03*
X76000000Y-74000000D03*
X155600000Y-46000000D03*
X54400000Y-49200000D03*
X74400000Y-74000000D03*
X142800000Y-52400000D03*
X87200000Y-69200000D03*
X142000000Y-48400000D03*
X52000000Y-67600000D03*
X56000000Y-60400000D03*
X169200000Y-69200000D03*
X159600000Y-64400000D03*
X157200000Y-44400000D03*
X71687500Y-122000000D03*
X72000000Y-73200000D03*
X156400000Y-70800000D03*
X159600000Y-67600000D03*
X170800000Y-64400000D03*
X172400000Y-46800000D03*
X162000000Y-71600000D03*
X83200000Y-60400000D03*
X85600000Y-75600000D03*
X68800000Y-65200000D03*
X66400000Y-69200000D03*
X146000000Y-47600000D03*
X84800000Y-49200000D03*
X84000000Y-61200000D03*
D11*
X25000000Y-85000000D03*
D10*
X63200000Y-67600000D03*
X62400000Y-66800000D03*
D11*
X115000000Y-70000000D03*
D10*
X70400000Y-71600000D03*
X147600000Y-70000000D03*
X84000000Y-54800000D03*
X174800000Y-54000000D03*
X169200000Y-45200000D03*
X52800000Y-68400000D03*
X83200000Y-50800000D03*
X52800000Y-73200000D03*
X142800000Y-66800000D03*
X79200000Y-74000000D03*
X151600000Y-46800000D03*
X60800000Y-66800000D03*
X164312500Y-122000000D03*
X174000000Y-58000000D03*
X148400000Y-74000000D03*
X142800000Y-70000000D03*
X162062500Y-122000000D03*
X55200000Y-74000000D03*
D11*
X115000000Y-85000000D03*
D10*
X52000000Y-69200000D03*
X158000000Y-45200000D03*
X80000000Y-44400000D03*
X53600000Y-62800000D03*
X51200000Y-55600000D03*
X154000000Y-44400000D03*
X80000000Y-71600000D03*
X53600000Y-51600000D03*
X144400000Y-50800000D03*
X147600000Y-50800000D03*
X76800000Y-44400000D03*
X59200000Y-66800000D03*
X70562500Y-122000000D03*
X50400000Y-70800000D03*
X140400000Y-54800000D03*
X174000000Y-43600000D03*
X150800000Y-74800000D03*
X155600000Y-71600000D03*
X85600000Y-72400000D03*
X143600000Y-66000000D03*
X141200000Y-49200000D03*
X55200000Y-45200000D03*
X178800000Y-66000000D03*
D11*
X100000000Y-130000000D03*
D10*
X173200000Y-52400000D03*
X53600000Y-56400000D03*
X142000000Y-66000000D03*
X140400000Y-75600000D03*
X153200000Y-67600000D03*
X158687500Y-122000000D03*
X61600000Y-75600000D03*
X170800000Y-75600000D03*
X174800000Y-46000000D03*
D11*
X145000000Y-130000000D03*
D10*
X54400000Y-71600000D03*
X144400000Y-49200000D03*
X64187500Y-122000000D03*
X149200000Y-44400000D03*
X56800000Y-46800000D03*
X84800000Y-60400000D03*
D11*
X40000000Y-115000000D03*
X55000000Y-10000000D03*
D10*
X169200000Y-74000000D03*
X71200000Y-64400000D03*
X140400000Y-61200000D03*
X173200000Y-46000000D03*
X142000000Y-69200000D03*
X155600000Y-65200000D03*
X161312500Y-122000000D03*
X167312500Y-122000000D03*
X158800000Y-66800000D03*
X167600000Y-67600000D03*
X78400000Y-44400000D03*
X60000000Y-64400000D03*
X159600000Y-69200000D03*
X166937500Y-122000000D03*
X141200000Y-62000000D03*
X73600000Y-74800000D03*
X56000000Y-74800000D03*
X160400000Y-44400000D03*
X57600000Y-68400000D03*
X156400000Y-74000000D03*
X60800000Y-71600000D03*
X140400000Y-66000000D03*
X57600000Y-62000000D03*
X176400000Y-68400000D03*
X57600000Y-47600000D03*
X61600000Y-67600000D03*
X82400000Y-69200000D03*
X150000000Y-46800000D03*
X178000000Y-73200000D03*
X88000000Y-70000000D03*
X162800000Y-45200000D03*
X166000000Y-46800000D03*
X72800000Y-66000000D03*
X60000000Y-74000000D03*
X179600000Y-73200000D03*
X50400000Y-74000000D03*
X173200000Y-60400000D03*
X141200000Y-60400000D03*
X160400000Y-74800000D03*
X156400000Y-67600000D03*
X77600000Y-66000000D03*
X54400000Y-74800000D03*
X74400000Y-46800000D03*
X176400000Y-63600000D03*
X61600000Y-45200000D03*
X52800000Y-62000000D03*
X168400000Y-73200000D03*
D11*
X205000000Y-70000000D03*
D10*
X163600000Y-63600000D03*
X80800000Y-70800000D03*
X146000000Y-52400000D03*
X159062500Y-122000000D03*
X70400000Y-74800000D03*
X164400000Y-70800000D03*
D11*
X70000000Y-25000000D03*
D10*
X156400000Y-64400000D03*
X158800000Y-71600000D03*
X146000000Y-65200000D03*
D11*
X10000000Y-40000000D03*
D10*
X161200000Y-45200000D03*
X172400000Y-67600000D03*
X56000000Y-66800000D03*
X165200000Y-74800000D03*
X62400000Y-73200000D03*
X77600000Y-69200000D03*
X147600000Y-46000000D03*
X62687500Y-122000000D03*
X62400000Y-74800000D03*
X157187500Y-122000000D03*
X73600000Y-68400000D03*
X140400000Y-56400000D03*
X89600000Y-78000000D03*
X67200000Y-70000000D03*
D11*
X190000000Y-85000000D03*
D10*
X153200000Y-75600000D03*
X86400000Y-63600000D03*
X173200000Y-62000000D03*
X82400000Y-46800000D03*
X143600000Y-75600000D03*
X146800000Y-74000000D03*
X158800000Y-73200000D03*
X64937500Y-122000000D03*
X84000000Y-50000000D03*
X151600000Y-70800000D03*
X142800000Y-65200000D03*
D11*
X190000000Y-70000000D03*
D10*
X178800000Y-72400000D03*
%TO.N,TFLN_RF_B*%
X153062500Y-118000000D03*
X157937500Y-118000000D03*
%TO.N,MGMT_B*%
X144400000Y-43600000D03*
X141200000Y-44400000D03*
%TO.N,SERDES_200G_B*%
X174800000Y-41200000D03*
X147600000Y-42000000D03*
X155600000Y-41200000D03*
X156400000Y-40400000D03*
X146800000Y-40400000D03*
X157200000Y-40400000D03*
X169200000Y-40400000D03*
X168400000Y-40400000D03*
X164400000Y-40400000D03*
X163600000Y-41200000D03*
X171600000Y-41200000D03*
X153200000Y-40400000D03*
X172400000Y-41200000D03*
X149200000Y-41200000D03*
X150000000Y-42000000D03*
X147600000Y-41200000D03*
X171600000Y-40400000D03*
X161200000Y-41200000D03*
X177200000Y-41200000D03*
X166000000Y-41200000D03*
X151600000Y-40400000D03*
X156400000Y-41200000D03*
X146000000Y-42000000D03*
X160400000Y-40400000D03*
X148400000Y-42000000D03*
X167600000Y-41200000D03*
X174800000Y-40400000D03*
X162000000Y-40400000D03*
X150800000Y-41200000D03*
X176400000Y-40400000D03*
X170800000Y-40400000D03*
X174000000Y-41200000D03*
X162800000Y-41200000D03*
X150000000Y-40400000D03*
X166800000Y-41200000D03*
X146800000Y-42000000D03*
X173200000Y-41200000D03*
X148400000Y-40400000D03*
X154000000Y-40400000D03*
X154800000Y-40400000D03*
X172400000Y-40400000D03*
X146800000Y-41200000D03*
X145200000Y-42000000D03*
X174000000Y-40400000D03*
X177200000Y-40400000D03*
X155600000Y-40400000D03*
X166800000Y-40400000D03*
X162800000Y-40400000D03*
X163600000Y-40400000D03*
X175600000Y-41200000D03*
X149200000Y-42000000D03*
X153200000Y-41200000D03*
X157200000Y-41200000D03*
X170800000Y-41200000D03*
X162000000Y-41200000D03*
X166000000Y-40400000D03*
X178000000Y-41200000D03*
X175600000Y-40400000D03*
X148400000Y-41200000D03*
X154800000Y-41200000D03*
X159600000Y-41200000D03*
X178800000Y-41200000D03*
X150800000Y-42000000D03*
X168400000Y-41200000D03*
X176400000Y-41200000D03*
X170000000Y-41200000D03*
X146000000Y-40400000D03*
X158000000Y-41200000D03*
X167600000Y-40400000D03*
X169200000Y-41200000D03*
X150800000Y-40400000D03*
X161200000Y-40400000D03*
X152400000Y-40400000D03*
X165200000Y-41200000D03*
X154000000Y-41200000D03*
X150000000Y-41200000D03*
X151600000Y-41200000D03*
X179600000Y-41200000D03*
X160400000Y-41200000D03*
X145200000Y-40400000D03*
X158000000Y-40400000D03*
X147600000Y-40400000D03*
X159600000Y-40400000D03*
X152400000Y-41200000D03*
X164400000Y-41200000D03*
X178800000Y-40400000D03*
X146000000Y-41200000D03*
X165200000Y-40400000D03*
X145200000Y-41200000D03*
X158800000Y-41200000D03*
X158800000Y-40400000D03*
X178000000Y-40400000D03*
X170000000Y-40400000D03*
X149200000Y-40400000D03*
X179600000Y-40400000D03*
X173200000Y-40400000D03*
%TO.N,PWR_CORE*%
X82400000Y-54000000D03*
X72000000Y-60400000D03*
X163600000Y-50000000D03*
X58400000Y-62800000D03*
X158800000Y-50000000D03*
X170800000Y-56400000D03*
X69600000Y-58800000D03*
X158000000Y-54800000D03*
X68800000Y-49200000D03*
X164400000Y-56400000D03*
X68000000Y-53200000D03*
X60000000Y-48400000D03*
X81600000Y-60400000D03*
X60800000Y-60400000D03*
X170000000Y-61200000D03*
X63200000Y-47600000D03*
X64000000Y-61200000D03*
X68000000Y-60400000D03*
X82400000Y-49200000D03*
X166800000Y-53200000D03*
X170000000Y-53200000D03*
X170000000Y-47600000D03*
X154000000Y-49200000D03*
X168400000Y-58000000D03*
X171600000Y-62000000D03*
X59200000Y-53200000D03*
X170000000Y-49200000D03*
X72000000Y-53200000D03*
X156400000Y-56400000D03*
X77600000Y-58000000D03*
X60800000Y-59600000D03*
X160400000Y-60400000D03*
X72800000Y-57200000D03*
X78400000Y-53200000D03*
X167600000Y-58000000D03*
X163600000Y-54800000D03*
X150000000Y-57200000D03*
X159600000Y-58000000D03*
X64800000Y-55600000D03*
X166800000Y-54000000D03*
X166800000Y-62800000D03*
X68000000Y-49200000D03*
X72800000Y-48400000D03*
X170000000Y-60400000D03*
X68800000Y-48400000D03*
X161200000Y-53200000D03*
X159600000Y-62000000D03*
X162800000Y-61200000D03*
X77600000Y-55600000D03*
X149200000Y-49200000D03*
X62400000Y-59600000D03*
X71200000Y-58000000D03*
X68800000Y-56400000D03*
X68000000Y-47600000D03*
X76000000Y-58800000D03*
X76800000Y-50000000D03*
X81600000Y-59600000D03*
X81600000Y-49200000D03*
X58400000Y-59600000D03*
X80800000Y-50000000D03*
X67200000Y-49200000D03*
X76800000Y-54800000D03*
X79200000Y-58000000D03*
X77600000Y-61200000D03*
X72000000Y-50000000D03*
X65600000Y-62000000D03*
X58400000Y-50800000D03*
X154000000Y-56400000D03*
X165200000Y-59600000D03*
X166000000Y-57200000D03*
X166000000Y-48400000D03*
X168400000Y-56400000D03*
X78400000Y-58000000D03*
X60800000Y-52400000D03*
X156400000Y-51600000D03*
X77600000Y-50800000D03*
X163600000Y-57200000D03*
X161200000Y-50000000D03*
X74400000Y-61200000D03*
X62400000Y-54800000D03*
X167600000Y-47600000D03*
X67200000Y-53200000D03*
X74400000Y-60400000D03*
X160400000Y-62000000D03*
X166000000Y-62800000D03*
X69600000Y-61200000D03*
X155600000Y-54000000D03*
X70400000Y-62000000D03*
X171600000Y-58000000D03*
X71200000Y-54800000D03*
X150800000Y-58000000D03*
X72800000Y-58800000D03*
X168400000Y-53200000D03*
X76000000Y-62000000D03*
X165200000Y-48400000D03*
X152400000Y-61200000D03*
X158000000Y-62000000D03*
X162800000Y-54800000D03*
X59200000Y-60400000D03*
X154800000Y-62000000D03*
X170800000Y-57200000D03*
X74400000Y-50000000D03*
X161200000Y-49200000D03*
X67200000Y-61200000D03*
X155600000Y-48400000D03*
X72800000Y-60400000D03*
X77600000Y-54800000D03*
X60000000Y-47600000D03*
X79200000Y-47600000D03*
X159600000Y-51600000D03*
X154800000Y-61200000D03*
X157200000Y-54000000D03*
X170000000Y-62000000D03*
X149200000Y-48400000D03*
X76000000Y-51600000D03*
X163600000Y-53200000D03*
X62400000Y-50000000D03*
X60800000Y-58800000D03*
X163600000Y-62000000D03*
X167600000Y-56400000D03*
X168400000Y-49200000D03*
X82400000Y-58800000D03*
X162000000Y-58000000D03*
X156400000Y-60400000D03*
X157200000Y-60400000D03*
X72000000Y-48400000D03*
X163600000Y-49200000D03*
X68800000Y-57200000D03*
X60000000Y-53200000D03*
X172400000Y-52400000D03*
X82400000Y-59600000D03*
X169200000Y-50000000D03*
X168400000Y-52400000D03*
X149200000Y-61200000D03*
X161200000Y-47600000D03*
X75200000Y-51600000D03*
X64000000Y-50000000D03*
X166800000Y-51600000D03*
X156400000Y-55600000D03*
X158000000Y-56400000D03*
X159600000Y-54000000D03*
X63200000Y-62000000D03*
X67200000Y-62000000D03*
X64000000Y-47600000D03*
X62400000Y-55600000D03*
X154000000Y-54800000D03*
X81600000Y-58000000D03*
X170800000Y-58800000D03*
X61600000Y-54000000D03*
X72000000Y-58800000D03*
X60000000Y-56400000D03*
X155600000Y-50000000D03*
X158000000Y-58000000D03*
X78400000Y-47600000D03*
X154000000Y-52400000D03*
X165200000Y-55600000D03*
X74400000Y-58000000D03*
X151600000Y-54800000D03*
X60800000Y-48400000D03*
X76800000Y-47600000D03*
X159600000Y-52400000D03*
X69600000Y-57200000D03*
X160400000Y-54000000D03*
X171600000Y-52400000D03*
X67200000Y-62800000D03*
X152400000Y-59600000D03*
X150800000Y-55600000D03*
X164400000Y-62000000D03*
X158800000Y-48400000D03*
X158000000Y-50000000D03*
X153200000Y-50000000D03*
X68800000Y-52400000D03*
X165200000Y-53200000D03*
X60000000Y-61200000D03*
X149200000Y-47600000D03*
X81600000Y-56400000D03*
X72800000Y-49200000D03*
X168400000Y-54000000D03*
X148400000Y-59600000D03*
X62400000Y-53200000D03*
X159600000Y-61200000D03*
X81600000Y-51600000D03*
X80000000Y-50800000D03*
X60800000Y-50800000D03*
X162800000Y-53200000D03*
X59200000Y-58000000D03*
X79200000Y-50800000D03*
X67200000Y-56400000D03*
X155600000Y-58000000D03*
X158800000Y-61200000D03*
X162000000Y-62800000D03*
X76800000Y-56400000D03*
X150000000Y-47600000D03*
X71200000Y-57200000D03*
X82400000Y-52400000D03*
X59200000Y-51600000D03*
X164400000Y-47600000D03*
X70400000Y-48400000D03*
X150000000Y-50800000D03*
X72000000Y-59600000D03*
X78400000Y-50800000D03*
X66400000Y-57200000D03*
X81600000Y-53200000D03*
X65600000Y-54800000D03*
X77600000Y-51600000D03*
X166800000Y-54800000D03*
X166000000Y-49200000D03*
X150800000Y-57200000D03*
X60000000Y-58800000D03*
X59200000Y-47600000D03*
X149200000Y-56400000D03*
X161200000Y-60400000D03*
X70400000Y-53200000D03*
X64000000Y-62000000D03*
X80800000Y-59600000D03*
X80800000Y-62000000D03*
X62400000Y-52400000D03*
X149200000Y-58000000D03*
X165200000Y-51600000D03*
X59200000Y-55600000D03*
X63200000Y-49200000D03*
X172400000Y-49200000D03*
X150800000Y-48400000D03*
X61600000Y-51600000D03*
X77600000Y-60400000D03*
X58400000Y-50000000D03*
X154800000Y-50800000D03*
X150800000Y-49200000D03*
X149200000Y-53200000D03*
X168400000Y-50000000D03*
X153200000Y-59600000D03*
X65600000Y-50800000D03*
X155600000Y-53200000D03*
X168400000Y-62800000D03*
X150000000Y-49200000D03*
X172400000Y-59600000D03*
X152400000Y-58000000D03*
X170800000Y-55600000D03*
X74400000Y-52400000D03*
X72000000Y-50800000D03*
X80800000Y-54000000D03*
X80800000Y-53200000D03*
X162800000Y-57200000D03*
X70400000Y-52400000D03*
X76000000Y-53200000D03*
X70400000Y-55600000D03*
X151600000Y-62800000D03*
X58400000Y-54000000D03*
X60800000Y-54000000D03*
X71200000Y-49200000D03*
X157200000Y-54800000D03*
X69600000Y-58000000D03*
X66400000Y-49200000D03*
X68000000Y-58800000D03*
X62400000Y-62000000D03*
X68000000Y-48400000D03*
X166800000Y-57200000D03*
X168400000Y-60400000D03*
X154800000Y-58000000D03*
X61600000Y-49200000D03*
X159600000Y-60400000D03*
X75200000Y-50000000D03*
X170800000Y-54000000D03*
X68800000Y-54000000D03*
X154800000Y-62800000D03*
X155600000Y-60400000D03*
X78400000Y-51600000D03*
X72800000Y-62800000D03*
X59200000Y-50000000D03*
X81600000Y-54000000D03*
X164400000Y-51600000D03*
X64800000Y-48400000D03*
X68000000Y-50800000D03*
X76000000Y-59600000D03*
X65600000Y-59600000D03*
X82400000Y-57200000D03*
X150000000Y-58800000D03*
X157200000Y-48400000D03*
X71200000Y-62800000D03*
X170000000Y-50800000D03*
X159600000Y-56400000D03*
X70400000Y-49200000D03*
X78400000Y-62800000D03*
X154800000Y-47600000D03*
X64000000Y-48400000D03*
X80000000Y-54800000D03*
X171600000Y-51600000D03*
X148400000Y-56400000D03*
X162800000Y-55600000D03*
X68000000Y-62000000D03*
X148400000Y-54000000D03*
X150000000Y-48400000D03*
X71200000Y-62000000D03*
X172400000Y-56400000D03*
X157200000Y-47600000D03*
X68800000Y-62800000D03*
X157200000Y-49200000D03*
X72000000Y-54800000D03*
X61600000Y-57200000D03*
X79200000Y-60400000D03*
X162000000Y-61200000D03*
X156400000Y-59600000D03*
X82400000Y-56400000D03*
X68000000Y-59600000D03*
X155600000Y-50800000D03*
X72000000Y-49200000D03*
X158000000Y-60400000D03*
X158800000Y-58000000D03*
X82400000Y-47600000D03*
X71200000Y-50000000D03*
X60000000Y-60400000D03*
X156400000Y-58800000D03*
X61600000Y-61200000D03*
X74400000Y-62000000D03*
X80800000Y-60400000D03*
X62400000Y-58000000D03*
X158000000Y-52400000D03*
X67200000Y-51600000D03*
X68000000Y-55600000D03*
X79200000Y-55600000D03*
X71200000Y-60400000D03*
X158800000Y-47600000D03*
X70400000Y-54800000D03*
X158800000Y-62000000D03*
X150800000Y-59600000D03*
X71200000Y-58800000D03*
X64000000Y-56400000D03*
X158800000Y-49200000D03*
X152400000Y-55600000D03*
X160400000Y-48400000D03*
X160400000Y-50800000D03*
X82400000Y-48400000D03*
X172400000Y-61200000D03*
X80000000Y-58800000D03*
X68800000Y-51600000D03*
X80800000Y-47600000D03*
X69600000Y-62000000D03*
X158000000Y-55600000D03*
X166000000Y-51600000D03*
X60800000Y-54800000D03*
X162800000Y-58800000D03*
X149200000Y-54800000D03*
X71200000Y-54000000D03*
X68800000Y-47600000D03*
X59200000Y-54800000D03*
X158000000Y-53200000D03*
X152400000Y-52400000D03*
X76000000Y-57200000D03*
X58400000Y-57200000D03*
X154000000Y-48400000D03*
X165200000Y-56400000D03*
X76000000Y-56400000D03*
X150000000Y-62000000D03*
X166800000Y-58800000D03*
X68800000Y-55600000D03*
X167600000Y-53200000D03*
X165200000Y-49200000D03*
X79200000Y-62800000D03*
X80000000Y-48400000D03*
X60000000Y-54000000D03*
X61600000Y-48400000D03*
X64000000Y-57200000D03*
X76000000Y-48400000D03*
X60000000Y-51600000D03*
X163600000Y-51600000D03*
X79200000Y-59600000D03*
X154000000Y-58800000D03*
X60000000Y-55600000D03*
X63200000Y-62800000D03*
X163600000Y-50800000D03*
X148400000Y-61200000D03*
X162000000Y-62000000D03*
X150000000Y-56400000D03*
X61600000Y-50000000D03*
X72800000Y-50000000D03*
X167600000Y-55600000D03*
X154000000Y-53200000D03*
X164400000Y-61200000D03*
X59200000Y-62000000D03*
X76000000Y-54000000D03*
X72800000Y-54800000D03*
X72800000Y-50800000D03*
X168400000Y-54800000D03*
X71200000Y-56400000D03*
X167600000Y-50800000D03*
X72000000Y-51600000D03*
X153200000Y-50800000D03*
X64800000Y-52400000D03*
X76000000Y-49200000D03*
X71200000Y-61200000D03*
X74400000Y-51600000D03*
X78400000Y-61200000D03*
X156400000Y-58000000D03*
X70400000Y-57200000D03*
X70400000Y-58000000D03*
X170800000Y-60400000D03*
X69600000Y-54000000D03*
X77600000Y-47600000D03*
X157200000Y-50000000D03*
X170800000Y-47600000D03*
X166000000Y-60400000D03*
X149200000Y-51600000D03*
X78400000Y-55600000D03*
X172400000Y-60400000D03*
X155600000Y-62800000D03*
X148400000Y-62000000D03*
X59200000Y-49200000D03*
X64800000Y-50800000D03*
X162800000Y-62000000D03*
X159600000Y-58800000D03*
X157200000Y-56400000D03*
X74400000Y-57200000D03*
X167600000Y-57200000D03*
X159600000Y-53200000D03*
X154000000Y-50000000D03*
X70400000Y-50800000D03*
X60000000Y-52400000D03*
X80000000Y-55600000D03*
X160400000Y-58000000D03*
X58400000Y-60400000D03*
X68000000Y-57200000D03*
X65600000Y-54000000D03*
X82400000Y-50800000D03*
X149200000Y-50800000D03*
X71200000Y-53200000D03*
X166000000Y-59600000D03*
X152400000Y-53200000D03*
X165200000Y-54000000D03*
X161200000Y-52400000D03*
X60000000Y-57200000D03*
X166800000Y-47600000D03*
X150000000Y-55600000D03*
X169200000Y-54000000D03*
X76000000Y-50000000D03*
X166000000Y-58000000D03*
X172400000Y-54800000D03*
X151600000Y-51600000D03*
X150000000Y-58000000D03*
X60800000Y-51600000D03*
X59200000Y-62800000D03*
X58400000Y-58800000D03*
X172400000Y-58800000D03*
X153200000Y-53200000D03*
X73600000Y-50800000D03*
X148400000Y-51600000D03*
X170000000Y-59600000D03*
X64000000Y-50800000D03*
X79200000Y-48400000D03*
X76000000Y-47600000D03*
X75200000Y-55600000D03*
X62400000Y-58800000D03*
X68000000Y-52400000D03*
X170000000Y-50000000D03*
X64000000Y-54000000D03*
X76800000Y-55600000D03*
X76800000Y-59600000D03*
X78400000Y-54000000D03*
X58400000Y-51600000D03*
X148400000Y-60400000D03*
X150000000Y-61200000D03*
X61600000Y-58000000D03*
X165200000Y-61200000D03*
X160400000Y-58800000D03*
X61600000Y-53200000D03*
X158800000Y-51600000D03*
X160400000Y-55600000D03*
X66400000Y-52400000D03*
X170800000Y-52400000D03*
X149200000Y-58800000D03*
X152400000Y-62000000D03*
X166800000Y-58000000D03*
X152400000Y-51600000D03*
X170000000Y-55600000D03*
X160400000Y-56400000D03*
X149200000Y-62000000D03*
X69600000Y-54800000D03*
X73600000Y-53200000D03*
X152400000Y-54000000D03*
X78400000Y-62000000D03*
X166800000Y-60400000D03*
X72000000Y-54000000D03*
X157200000Y-59600000D03*
X61600000Y-62000000D03*
X74400000Y-50800000D03*
X66400000Y-50000000D03*
X63200000Y-53200000D03*
X60000000Y-50800000D03*
X72000000Y-62000000D03*
X72000000Y-57200000D03*
X172400000Y-48400000D03*
X167600000Y-62800000D03*
X158800000Y-54000000D03*
X170000000Y-58800000D03*
X158000000Y-50800000D03*
X80800000Y-49200000D03*
X154800000Y-51600000D03*
X72800000Y-47600000D03*
X160400000Y-61200000D03*
X77600000Y-53200000D03*
X168400000Y-47600000D03*
X150000000Y-54800000D03*
X75200000Y-61200000D03*
X62400000Y-50800000D03*
X64800000Y-49200000D03*
X152400000Y-62800000D03*
X64000000Y-58800000D03*
X152400000Y-57200000D03*
X58400000Y-58000000D03*
X68000000Y-50000000D03*
X73600000Y-50000000D03*
X162800000Y-60400000D03*
X63200000Y-60400000D03*
X168400000Y-48400000D03*
X166000000Y-56400000D03*
X157200000Y-61200000D03*
X80800000Y-48400000D03*
X160400000Y-62800000D03*
X162000000Y-60400000D03*
X166800000Y-55600000D03*
X165200000Y-47600000D03*
X79200000Y-52400000D03*
X169200000Y-48400000D03*
X152400000Y-47600000D03*
X68800000Y-58000000D03*
X158000000Y-57200000D03*
X158000000Y-58800000D03*
X159600000Y-50000000D03*
X67200000Y-50000000D03*
X171600000Y-53200000D03*
X152400000Y-48400000D03*
X79200000Y-61200000D03*
X151600000Y-50800000D03*
X166000000Y-50000000D03*
X73600000Y-61200000D03*
X159600000Y-62800000D03*
X162800000Y-59600000D03*
X69600000Y-47600000D03*
X76800000Y-57200000D03*
X67200000Y-48400000D03*
X81600000Y-54800000D03*
X154800000Y-49200000D03*
X64000000Y-55600000D03*
X154000000Y-57200000D03*
X65600000Y-49200000D03*
X150800000Y-62800000D03*
X64800000Y-58800000D03*
X60000000Y-54800000D03*
X64000000Y-51600000D03*
X61600000Y-50800000D03*
X64800000Y-62000000D03*
X77600000Y-62800000D03*
X65600000Y-50000000D03*
X78400000Y-52400000D03*
X165200000Y-58800000D03*
X162800000Y-62800000D03*
X154000000Y-60400000D03*
X78400000Y-54800000D03*
X161200000Y-55600000D03*
X66400000Y-50800000D03*
X66400000Y-58800000D03*
X70400000Y-61200000D03*
X154000000Y-47600000D03*
X150000000Y-54000000D03*
X74400000Y-49200000D03*
X149200000Y-55600000D03*
X77600000Y-57200000D03*
X63200000Y-58800000D03*
X169200000Y-47600000D03*
X58400000Y-55600000D03*
X156400000Y-52400000D03*
X70400000Y-50000000D03*
X58400000Y-49200000D03*
X76800000Y-49200000D03*
X74400000Y-59600000D03*
X148400000Y-53200000D03*
X82400000Y-60400000D03*
X159600000Y-48400000D03*
X69600000Y-50000000D03*
X63200000Y-59600000D03*
X64800000Y-58000000D03*
X82400000Y-55600000D03*
X162000000Y-51600000D03*
X170800000Y-61200000D03*
X78400000Y-50000000D03*
X158000000Y-51600000D03*
X79200000Y-54000000D03*
X153200000Y-58800000D03*
X62400000Y-48400000D03*
X79200000Y-51600000D03*
X150800000Y-60400000D03*
X63200000Y-50000000D03*
X162800000Y-49200000D03*
X161200000Y-61200000D03*
X73600000Y-54000000D03*
X170800000Y-59600000D03*
X65600000Y-58000000D03*
X82400000Y-61200000D03*
X161200000Y-58800000D03*
X64800000Y-60400000D03*
X167600000Y-52400000D03*
X170000000Y-48400000D03*
X159600000Y-50800000D03*
X162000000Y-48400000D03*
X66400000Y-47600000D03*
X61600000Y-47600000D03*
X66400000Y-58000000D03*
X162000000Y-52400000D03*
X74400000Y-54000000D03*
X73600000Y-60400000D03*
X163600000Y-61200000D03*
X168400000Y-59600000D03*
X166800000Y-61200000D03*
X72800000Y-62000000D03*
X162000000Y-55600000D03*
X156400000Y-54800000D03*
X170800000Y-54800000D03*
X63200000Y-54800000D03*
X154800000Y-54800000D03*
X167600000Y-59600000D03*
X79200000Y-54800000D03*
X65600000Y-51600000D03*
X64000000Y-53200000D03*
X61600000Y-60400000D03*
X76800000Y-61200000D03*
X163600000Y-60400000D03*
X64800000Y-57200000D03*
X161200000Y-62800000D03*
X158800000Y-53200000D03*
X153200000Y-51600000D03*
X78400000Y-59600000D03*
X80000000Y-50000000D03*
X64800000Y-54000000D03*
X74400000Y-58800000D03*
X69600000Y-49200000D03*
X76800000Y-62000000D03*
X64800000Y-62800000D03*
X166000000Y-54000000D03*
X76000000Y-62800000D03*
X166800000Y-50800000D03*
X154800000Y-60400000D03*
X80000000Y-61200000D03*
X77600000Y-50000000D03*
X162000000Y-49200000D03*
X150000000Y-62800000D03*
X81600000Y-48400000D03*
X62400000Y-56400000D03*
X75200000Y-59600000D03*
X170800000Y-50000000D03*
X63200000Y-61200000D03*
X166000000Y-58800000D03*
X160400000Y-49200000D03*
X76800000Y-58800000D03*
X64800000Y-56400000D03*
X153200000Y-54000000D03*
X171600000Y-48400000D03*
X60800000Y-56400000D03*
X72800000Y-59600000D03*
X150800000Y-52400000D03*
X71200000Y-50800000D03*
X77600000Y-49200000D03*
X163600000Y-47600000D03*
X163600000Y-55600000D03*
X77600000Y-59600000D03*
X171600000Y-57200000D03*
X157200000Y-58800000D03*
X164400000Y-55600000D03*
X161200000Y-58000000D03*
X80800000Y-51600000D03*
X60800000Y-62000000D03*
X165200000Y-60400000D03*
X60800000Y-58000000D03*
X76800000Y-51600000D03*
X170800000Y-50800000D03*
X158800000Y-62800000D03*
X169200000Y-62000000D03*
X82400000Y-54800000D03*
X158800000Y-50800000D03*
X148400000Y-62800000D03*
X65600000Y-61200000D03*
X82400000Y-53200000D03*
X166800000Y-49200000D03*
X66400000Y-48400000D03*
X69600000Y-50800000D03*
X59200000Y-52400000D03*
X156400000Y-62000000D03*
X66400000Y-60400000D03*
X66400000Y-62800000D03*
X150800000Y-53200000D03*
X163600000Y-48400000D03*
X159600000Y-49200000D03*
X68800000Y-53200000D03*
X164400000Y-59600000D03*
X79200000Y-62000000D03*
X154000000Y-62800000D03*
X162000000Y-57200000D03*
X164400000Y-50000000D03*
X150800000Y-50000000D03*
X158000000Y-54000000D03*
X161200000Y-54800000D03*
X59200000Y-58800000D03*
X75200000Y-57200000D03*
X166000000Y-53200000D03*
X169200000Y-55600000D03*
X63200000Y-48400000D03*
X150800000Y-56400000D03*
X58400000Y-53200000D03*
X149200000Y-54000000D03*
X72800000Y-54000000D03*
X150000000Y-52400000D03*
X82400000Y-50000000D03*
X69600000Y-60400000D03*
X64800000Y-51600000D03*
X170800000Y-51600000D03*
X69600000Y-48400000D03*
X75200000Y-50800000D03*
X166000000Y-54800000D03*
X63200000Y-51600000D03*
X63200000Y-55600000D03*
X79200000Y-49200000D03*
X64000000Y-62800000D03*
X159600000Y-55600000D03*
X153200000Y-49200000D03*
X168400000Y-51600000D03*
X67200000Y-58800000D03*
X61600000Y-62800000D03*
X80000000Y-47600000D03*
X166000000Y-55600000D03*
X67200000Y-59600000D03*
X150000000Y-51600000D03*
X152400000Y-50800000D03*
X165200000Y-58000000D03*
X154800000Y-53200000D03*
X62400000Y-54000000D03*
X66400000Y-51600000D03*
X164400000Y-52400000D03*
X70400000Y-56400000D03*
X153200000Y-52400000D03*
X64800000Y-54800000D03*
X82400000Y-51600000D03*
X158000000Y-62800000D03*
X62400000Y-51600000D03*
X161200000Y-57200000D03*
X151600000Y-48400000D03*
X163600000Y-58000000D03*
X68800000Y-60400000D03*
X80800000Y-52400000D03*
X82400000Y-58000000D03*
X150000000Y-53200000D03*
X65600000Y-47600000D03*
X165200000Y-62000000D03*
X74400000Y-56400000D03*
X68000000Y-54800000D03*
X162000000Y-58800000D03*
X80000000Y-60400000D03*
X71200000Y-51600000D03*
X72800000Y-52400000D03*
X81600000Y-55600000D03*
X64800000Y-59600000D03*
X71200000Y-55600000D03*
X75200000Y-56400000D03*
X81600000Y-50000000D03*
X73600000Y-48400000D03*
X164400000Y-54800000D03*
X152400000Y-49200000D03*
X150000000Y-50000000D03*
X73600000Y-62000000D03*
X73600000Y-58000000D03*
X60800000Y-47600000D03*
X151600000Y-55600000D03*
X67200000Y-47600000D03*
X157200000Y-53200000D03*
X154000000Y-59600000D03*
X153200000Y-58000000D03*
X148400000Y-55600000D03*
X157200000Y-57200000D03*
X80000000Y-52400000D03*
X66400000Y-61200000D03*
X72000000Y-62800000D03*
X60000000Y-62000000D03*
X73600000Y-57200000D03*
X162800000Y-52400000D03*
X80800000Y-58000000D03*
X162000000Y-54800000D03*
X60800000Y-50000000D03*
X65600000Y-53200000D03*
X163600000Y-54000000D03*
X150800000Y-62000000D03*
X171600000Y-50000000D03*
X154800000Y-52400000D03*
X79200000Y-58800000D03*
X60800000Y-61200000D03*
X163600000Y-52400000D03*
X64000000Y-49200000D03*
X163600000Y-62800000D03*
X163600000Y-56400000D03*
X58400000Y-52400000D03*
X63200000Y-58000000D03*
X58400000Y-56400000D03*
X165200000Y-62800000D03*
X60800000Y-49200000D03*
X80800000Y-56400000D03*
X169200000Y-58800000D03*
X67200000Y-60400000D03*
X65600000Y-57200000D03*
X160400000Y-47600000D03*
X151600000Y-54000000D03*
X74400000Y-48400000D03*
X77600000Y-58800000D03*
X59200000Y-50800000D03*
X172400000Y-53200000D03*
X164400000Y-53200000D03*
X165200000Y-57200000D03*
X171600000Y-60400000D03*
X157200000Y-50800000D03*
X170000000Y-56400000D03*
X154800000Y-54000000D03*
X166000000Y-52400000D03*
X171600000Y-47600000D03*
X160400000Y-50000000D03*
X162800000Y-50000000D03*
X63200000Y-50800000D03*
X60800000Y-62800000D03*
X148400000Y-54800000D03*
X61600000Y-56400000D03*
X169200000Y-50800000D03*
X78400000Y-60400000D03*
X73600000Y-47600000D03*
X168400000Y-62000000D03*
X167600000Y-54800000D03*
X68000000Y-58000000D03*
X168400000Y-50800000D03*
X64000000Y-52400000D03*
X72000000Y-47600000D03*
X60000000Y-49200000D03*
X67200000Y-54800000D03*
X72000000Y-56400000D03*
X78400000Y-49200000D03*
X169200000Y-54800000D03*
X153200000Y-55600000D03*
X172400000Y-50800000D03*
X154800000Y-58800000D03*
X80800000Y-50800000D03*
X153200000Y-57200000D03*
X151600000Y-53200000D03*
X158000000Y-48400000D03*
X154800000Y-55600000D03*
X79200000Y-57200000D03*
X61600000Y-55600000D03*
X151600000Y-62000000D03*
X158800000Y-56400000D03*
X76800000Y-58000000D03*
X71200000Y-48400000D03*
X72000000Y-55600000D03*
X153200000Y-62800000D03*
X154800000Y-48400000D03*
X75200000Y-58000000D03*
X68800000Y-50000000D03*
X75200000Y-48400000D03*
X74400000Y-47600000D03*
X64000000Y-59600000D03*
X82400000Y-62000000D03*
X81600000Y-57200000D03*
X171600000Y-49200000D03*
X65600000Y-52400000D03*
X164400000Y-60400000D03*
X75200000Y-53200000D03*
X149200000Y-50000000D03*
X150800000Y-54000000D03*
X159600000Y-54800000D03*
X72800000Y-53200000D03*
X75200000Y-52400000D03*
X74400000Y-53200000D03*
X75200000Y-60400000D03*
X171600000Y-58800000D03*
X170000000Y-58000000D03*
X162800000Y-48400000D03*
X151600000Y-61200000D03*
X66400000Y-55600000D03*
X76800000Y-48400000D03*
X72800000Y-56400000D03*
X161200000Y-62000000D03*
X169200000Y-59600000D03*
X164400000Y-58000000D03*
X72000000Y-58000000D03*
X73600000Y-54800000D03*
X170800000Y-49200000D03*
X71200000Y-52400000D03*
X150800000Y-58800000D03*
X172400000Y-58000000D03*
X64000000Y-58000000D03*
X59200000Y-48400000D03*
X171600000Y-50800000D03*
X65600000Y-56400000D03*
X77600000Y-56400000D03*
X64800000Y-53200000D03*
X75200000Y-58800000D03*
X171600000Y-54800000D03*
X172400000Y-47600000D03*
X151600000Y-60400000D03*
X79200000Y-50000000D03*
X59200000Y-61200000D03*
X158800000Y-55600000D03*
X150000000Y-59600000D03*
X158800000Y-54800000D03*
X172400000Y-57200000D03*
X167600000Y-50000000D03*
X151600000Y-58000000D03*
X152400000Y-50000000D03*
X76000000Y-55600000D03*
X164400000Y-62800000D03*
X75200000Y-47600000D03*
X161200000Y-51600000D03*
X58400000Y-61200000D03*
X166000000Y-47600000D03*
X156400000Y-62800000D03*
X76000000Y-50800000D03*
X151600000Y-50000000D03*
X156400000Y-47600000D03*
X169200000Y-52400000D03*
X65600000Y-58800000D03*
X158800000Y-52400000D03*
X169200000Y-62800000D03*
X151600000Y-58800000D03*
X160400000Y-53200000D03*
X169200000Y-53200000D03*
X80800000Y-61200000D03*
X62400000Y-62800000D03*
X78400000Y-58800000D03*
X156400000Y-53200000D03*
X73600000Y-52400000D03*
X60000000Y-58000000D03*
X166800000Y-62000000D03*
X162800000Y-56400000D03*
X157200000Y-62800000D03*
X80800000Y-57200000D03*
X171600000Y-56400000D03*
X161200000Y-54000000D03*
X73600000Y-59600000D03*
X80000000Y-53200000D03*
X154000000Y-50800000D03*
X150800000Y-51600000D03*
X153200000Y-56400000D03*
X155600000Y-52400000D03*
X154000000Y-54000000D03*
X68000000Y-54000000D03*
X81600000Y-52400000D03*
X155600000Y-62000000D03*
X169200000Y-56400000D03*
X151600000Y-47600000D03*
X76000000Y-60400000D03*
X59200000Y-56400000D03*
X68000000Y-62800000D03*
X59200000Y-59600000D03*
X162800000Y-47600000D03*
X66400000Y-54800000D03*
X170800000Y-48400000D03*
X158000000Y-49200000D03*
X153200000Y-60400000D03*
X153200000Y-61200000D03*
X67200000Y-52400000D03*
X165200000Y-50800000D03*
X80000000Y-51600000D03*
X69600000Y-52400000D03*
X152400000Y-60400000D03*
X68000000Y-51600000D03*
X167600000Y-54000000D03*
X149200000Y-60400000D03*
X160400000Y-54800000D03*
X165200000Y-54800000D03*
X151600000Y-52400000D03*
X169200000Y-57200000D03*
X68800000Y-54800000D03*
X68000000Y-56400000D03*
X150800000Y-47600000D03*
X169200000Y-60400000D03*
X170000000Y-54000000D03*
X75200000Y-54800000D03*
X69600000Y-56400000D03*
X157200000Y-52400000D03*
X170800000Y-53200000D03*
X78400000Y-48400000D03*
X154000000Y-61200000D03*
X63200000Y-57200000D03*
X168400000Y-58800000D03*
X167600000Y-58800000D03*
X68800000Y-58800000D03*
X74400000Y-54800000D03*
X154000000Y-62000000D03*
X58400000Y-47600000D03*
X150800000Y-61200000D03*
X80800000Y-58800000D03*
X154800000Y-59600000D03*
X166000000Y-61200000D03*
X61600000Y-58800000D03*
X156400000Y-50800000D03*
X162800000Y-50800000D03*
X67200000Y-50800000D03*
X155600000Y-56400000D03*
X75200000Y-62800000D03*
X76000000Y-58000000D03*
X162800000Y-54000000D03*
X74400000Y-55600000D03*
X158800000Y-60400000D03*
X72800000Y-58000000D03*
X80800000Y-54800000D03*
X80000000Y-49200000D03*
X172400000Y-51600000D03*
X64800000Y-61200000D03*
X167600000Y-51600000D03*
X81600000Y-50800000D03*
X162000000Y-56400000D03*
X154800000Y-50000000D03*
X60000000Y-62800000D03*
X155600000Y-55600000D03*
X169200000Y-58000000D03*
X154000000Y-51600000D03*
X155600000Y-49200000D03*
X155600000Y-58800000D03*
X81600000Y-62000000D03*
X72800000Y-51600000D03*
X81600000Y-61200000D03*
X155600000Y-47600000D03*
X72000000Y-61200000D03*
X162000000Y-59600000D03*
X154800000Y-57200000D03*
X150800000Y-50800000D03*
X170800000Y-62000000D03*
X66400000Y-56400000D03*
X168400000Y-55600000D03*
X171600000Y-54000000D03*
X158000000Y-47600000D03*
X152400000Y-54800000D03*
X73600000Y-51600000D03*
X157200000Y-62000000D03*
X72000000Y-52400000D03*
X165200000Y-50000000D03*
X170000000Y-57200000D03*
X62400000Y-60400000D03*
X154800000Y-56400000D03*
X157200000Y-58000000D03*
X172400000Y-55600000D03*
X151600000Y-56400000D03*
X65600000Y-60400000D03*
X63200000Y-56400000D03*
X158000000Y-59600000D03*
X80000000Y-57200000D03*
X155600000Y-57200000D03*
X76000000Y-54800000D03*
X156400000Y-61200000D03*
X70400000Y-51600000D03*
X148400000Y-52400000D03*
X167600000Y-61200000D03*
X66400000Y-62000000D03*
X59200000Y-57200000D03*
X171600000Y-55600000D03*
X73600000Y-56400000D03*
X69600000Y-53200000D03*
X151600000Y-59600000D03*
X160400000Y-51600000D03*
X80000000Y-56400000D03*
X60800000Y-55600000D03*
X64000000Y-54800000D03*
X76800000Y-52400000D03*
X73600000Y-58800000D03*
X164400000Y-48400000D03*
X69600000Y-62800000D03*
X77600000Y-48400000D03*
X73600000Y-62800000D03*
X156400000Y-49200000D03*
X58400000Y-48400000D03*
X70400000Y-60400000D03*
X80800000Y-55600000D03*
X65600000Y-62800000D03*
X58400000Y-62000000D03*
X157200000Y-51600000D03*
X151600000Y-49200000D03*
X72800000Y-61200000D03*
X76800000Y-54000000D03*
X171600000Y-61200000D03*
X153200000Y-48400000D03*
X164400000Y-58800000D03*
X80000000Y-59600000D03*
X149200000Y-57200000D03*
X161200000Y-48400000D03*
X168400000Y-61200000D03*
X67200000Y-58000000D03*
X73600000Y-55600000D03*
X163600000Y-59600000D03*
X170800000Y-58000000D03*
X65600000Y-55600000D03*
X77600000Y-54000000D03*
X171600000Y-59600000D03*
X75200000Y-62000000D03*
X72800000Y-55600000D03*
X68800000Y-50800000D03*
X169200000Y-49200000D03*
X156400000Y-50000000D03*
X166800000Y-50000000D03*
X158800000Y-58800000D03*
X152400000Y-56400000D03*
X70400000Y-58800000D03*
X153200000Y-47600000D03*
X162000000Y-50000000D03*
X150800000Y-54800000D03*
X71200000Y-47600000D03*
X79200000Y-56400000D03*
X162000000Y-50800000D03*
X150000000Y-60400000D03*
X64000000Y-60400000D03*
X155600000Y-51600000D03*
X81600000Y-58800000D03*
X166800000Y-48400000D03*
X169200000Y-51600000D03*
X148400000Y-47600000D03*
X164400000Y-57200000D03*
X62400000Y-47600000D03*
X155600000Y-59600000D03*
X148400000Y-58000000D03*
X172400000Y-50000000D03*
X148400000Y-57200000D03*
X148400000Y-50000000D03*
X155600000Y-54800000D03*
X151600000Y-57200000D03*
X80000000Y-62000000D03*
X70400000Y-62800000D03*
X66400000Y-53200000D03*
X154000000Y-58000000D03*
X68800000Y-62000000D03*
X172400000Y-62000000D03*
X148400000Y-58800000D03*
X60000000Y-59600000D03*
X156400000Y-57200000D03*
X63200000Y-52400000D03*
X164400000Y-54000000D03*
X78400000Y-56400000D03*
X61600000Y-59600000D03*
X161200000Y-56400000D03*
X80000000Y-58000000D03*
X62400000Y-57200000D03*
X68000000Y-61200000D03*
X67200000Y-55600000D03*
X149200000Y-62800000D03*
X65600000Y-48400000D03*
X58400000Y-54800000D03*
X78400000Y-57200000D03*
X160400000Y-57200000D03*
X148400000Y-49200000D03*
X61600000Y-52400000D03*
X170000000Y-51600000D03*
X166000000Y-62000000D03*
X77600000Y-52400000D03*
X76800000Y-60400000D03*
X165200000Y-52400000D03*
X167600000Y-60400000D03*
X74400000Y-62800000D03*
X157200000Y-55600000D03*
X168400000Y-57200000D03*
X163600000Y-58800000D03*
X166800000Y-56400000D03*
X60000000Y-50000000D03*
X73600000Y-49200000D03*
X79200000Y-53200000D03*
X76800000Y-62800000D03*
X164400000Y-50800000D03*
X148400000Y-48400000D03*
X70400000Y-47600000D03*
X166000000Y-50800000D03*
X60800000Y-57200000D03*
X160400000Y-52400000D03*
X158800000Y-57200000D03*
X69600000Y-51600000D03*
X75200000Y-49200000D03*
X162000000Y-54000000D03*
X170000000Y-52400000D03*
X152400000Y-58800000D03*
X159600000Y-57200000D03*
X153200000Y-54800000D03*
X161200000Y-50800000D03*
X76800000Y-50800000D03*
X154000000Y-55600000D03*
X76800000Y-53200000D03*
X167600000Y-62000000D03*
X66400000Y-59600000D03*
X149200000Y-52400000D03*
X69600000Y-55600000D03*
X162800000Y-51600000D03*
X164400000Y-49200000D03*
X59200000Y-54000000D03*
X80000000Y-54000000D03*
X162000000Y-47600000D03*
X77600000Y-62000000D03*
X148400000Y-50800000D03*
X81600000Y-47600000D03*
X158000000Y-61200000D03*
X153200000Y-62000000D03*
X167600000Y-48400000D03*
X76000000Y-52400000D03*
X64800000Y-47600000D03*
X60800000Y-53200000D03*
X66400000Y-54000000D03*
X70400000Y-54000000D03*
X67200000Y-54000000D03*
X167600000Y-49200000D03*
X76000000Y-61200000D03*
X166800000Y-52400000D03*
X159600000Y-47600000D03*
X172400000Y-54000000D03*
X61600000Y-54800000D03*
X67200000Y-57200000D03*
X156400000Y-54000000D03*
X68800000Y-61200000D03*
X162800000Y-58000000D03*
X62400000Y-61200000D03*
X169200000Y-61200000D03*
X162000000Y-53200000D03*
X170000000Y-54800000D03*
X156400000Y-48400000D03*
X166800000Y-59600000D03*
X149200000Y-59600000D03*
X63200000Y-54000000D03*
X64800000Y-50000000D03*
X155600000Y-61200000D03*
X62400000Y-49200000D03*
X75200000Y-54000000D03*
D11*
%TO.N,HBM4_VDDQL*%
X177200000Y-12000000D03*
X87200000Y-12000000D03*
%TO.N,HBM4_VDDQ*%
X87200000Y-15000000D03*
X177200000Y-15000000D03*
D10*
%TO.N,THERMAL*%
X158800000Y-90000000D03*
X68800000Y-90000000D03*
%TO.N,PCIE_G6_B*%
X155600000Y-76400000D03*
X170000000Y-78000000D03*
X162000000Y-78000000D03*
X151600000Y-76400000D03*
X150800000Y-78000000D03*
X143600000Y-77200000D03*
X143600000Y-78000000D03*
X158000000Y-78000000D03*
X160400000Y-77200000D03*
X141200000Y-77200000D03*
X166800000Y-77200000D03*
X144400000Y-78000000D03*
X162000000Y-77200000D03*
X161200000Y-78000000D03*
X153200000Y-78000000D03*
X174000000Y-77200000D03*
X148400000Y-78000000D03*
X151600000Y-78000000D03*
X178000000Y-77200000D03*
X158000000Y-77200000D03*
X158800000Y-77200000D03*
X168400000Y-77200000D03*
X166000000Y-77200000D03*
X147600000Y-78000000D03*
X155600000Y-77200000D03*
X152400000Y-77200000D03*
X179600000Y-76400000D03*
X166800000Y-78000000D03*
X169200000Y-77200000D03*
X148400000Y-76400000D03*
X158800000Y-78000000D03*
X166000000Y-76400000D03*
X146000000Y-76400000D03*
X173200000Y-77200000D03*
X170800000Y-78000000D03*
X152400000Y-78000000D03*
X169200000Y-78000000D03*
X166800000Y-76400000D03*
X154000000Y-76400000D03*
X142800000Y-76400000D03*
X154800000Y-78000000D03*
X165200000Y-78000000D03*
X147600000Y-76400000D03*
X156400000Y-78000000D03*
X144400000Y-77200000D03*
X177200000Y-77200000D03*
X172400000Y-78000000D03*
X174800000Y-76400000D03*
X169200000Y-76400000D03*
X173200000Y-78000000D03*
X167600000Y-76400000D03*
X157200000Y-76400000D03*
X163600000Y-77200000D03*
X170800000Y-76400000D03*
X170800000Y-77200000D03*
X164400000Y-77200000D03*
X144400000Y-76400000D03*
X140400000Y-76400000D03*
X162800000Y-77200000D03*
X150000000Y-77200000D03*
X171600000Y-77200000D03*
X155600000Y-78000000D03*
X178000000Y-76400000D03*
X154000000Y-77200000D03*
X157200000Y-77200000D03*
X140400000Y-78000000D03*
X142000000Y-78000000D03*
X164400000Y-78000000D03*
X149200000Y-78000000D03*
X161200000Y-76400000D03*
X160400000Y-76400000D03*
X142800000Y-78000000D03*
X159600000Y-78000000D03*
X142800000Y-77200000D03*
X149200000Y-76400000D03*
X142000000Y-77200000D03*
X150800000Y-76400000D03*
X152400000Y-76400000D03*
X170000000Y-76400000D03*
X164400000Y-76400000D03*
X156400000Y-77200000D03*
X151600000Y-77200000D03*
X147600000Y-77200000D03*
X140400000Y-77200000D03*
X145200000Y-76400000D03*
X159600000Y-76400000D03*
X160400000Y-78000000D03*
X141200000Y-78000000D03*
X174000000Y-76400000D03*
X159600000Y-77200000D03*
X146800000Y-78000000D03*
X142000000Y-76400000D03*
X158800000Y-76400000D03*
X156400000Y-76400000D03*
X166000000Y-78000000D03*
X175600000Y-77200000D03*
X146800000Y-76400000D03*
X145200000Y-78000000D03*
X168400000Y-78000000D03*
X165200000Y-76400000D03*
X145200000Y-77200000D03*
X150800000Y-77200000D03*
X153200000Y-77200000D03*
X154800000Y-77200000D03*
X174000000Y-78000000D03*
X162800000Y-76400000D03*
X158000000Y-76400000D03*
X168400000Y-76400000D03*
X176400000Y-76400000D03*
X175600000Y-76400000D03*
X161200000Y-77200000D03*
X157200000Y-78000000D03*
X167600000Y-78000000D03*
X170000000Y-77200000D03*
X146800000Y-77200000D03*
X149200000Y-77200000D03*
X167600000Y-77200000D03*
X148400000Y-77200000D03*
X172400000Y-76400000D03*
X165200000Y-77200000D03*
X178800000Y-76400000D03*
X162800000Y-78000000D03*
X146000000Y-78000000D03*
X173200000Y-76400000D03*
X146000000Y-77200000D03*
X153200000Y-76400000D03*
X162000000Y-76400000D03*
X163600000Y-76400000D03*
X172400000Y-77200000D03*
X163600000Y-78000000D03*
X150000000Y-76400000D03*
X143600000Y-76400000D03*
X179600000Y-77200000D03*
X141200000Y-76400000D03*
X177200000Y-76400000D03*
X154800000Y-76400000D03*
X171600000Y-78000000D03*
X150000000Y-78000000D03*
X174800000Y-77200000D03*
X171600000Y-76400000D03*
X178800000Y-77200000D03*
X154000000Y-78000000D03*
X174800000Y-78000000D03*
X176400000Y-77200000D03*
D11*
%TO.N,VDD_IO*%
X61600000Y-21000000D03*
X57600000Y-43600000D03*
X151600000Y-21000000D03*
X160400000Y-42800000D03*
X145200000Y-43600000D03*
X159600000Y-42800000D03*
X158800000Y-42800000D03*
X69600000Y-42800000D03*
X55200000Y-43600000D03*
X148400000Y-43600000D03*
X147600000Y-43600000D03*
X166800000Y-43600000D03*
X70400000Y-42800000D03*
X68800000Y-42800000D03*
X58400000Y-43600000D03*
X69600000Y-42800000D03*
X159600000Y-42800000D03*
X76800000Y-43600000D03*
%TO.N,HBM4_VPP*%
X86400000Y-18000000D03*
X176400000Y-18000000D03*
%TO.N,HBM4_VDDC*%
X178000000Y-24000000D03*
X88000000Y-24000000D03*
D10*
%TO.N,MGMT_A*%
X54400000Y-43600000D03*
X51200000Y-44400000D03*
%TO.N,SERDES_200G_A*%
X76800000Y-40400000D03*
X85600000Y-41200000D03*
X64000000Y-40400000D03*
X55200000Y-40400000D03*
X68000000Y-40400000D03*
X78400000Y-40400000D03*
X63200000Y-40400000D03*
X87200000Y-40400000D03*
X68800000Y-41200000D03*
X68800000Y-40400000D03*
X77600000Y-40400000D03*
X59200000Y-42000000D03*
X60800000Y-40400000D03*
X59200000Y-40400000D03*
X70400000Y-40400000D03*
X84000000Y-41200000D03*
X79200000Y-41200000D03*
X83200000Y-40400000D03*
X89600000Y-40400000D03*
X56800000Y-41200000D03*
X80800000Y-41200000D03*
X60800000Y-41200000D03*
X67200000Y-41200000D03*
X56000000Y-42000000D03*
X73600000Y-40400000D03*
X85600000Y-40400000D03*
X57600000Y-40400000D03*
X86400000Y-40400000D03*
X65600000Y-41200000D03*
X84800000Y-41200000D03*
X66400000Y-40400000D03*
X76800000Y-41200000D03*
X80800000Y-40400000D03*
X64000000Y-41200000D03*
X56800000Y-40400000D03*
X88000000Y-40400000D03*
X71200000Y-41200000D03*
X84000000Y-40400000D03*
X80000000Y-40400000D03*
X76000000Y-41200000D03*
X57600000Y-41200000D03*
X78400000Y-41200000D03*
X74400000Y-41200000D03*
X68000000Y-41200000D03*
X89600000Y-41200000D03*
X76000000Y-40400000D03*
X87200000Y-41200000D03*
X55200000Y-42000000D03*
X88800000Y-40400000D03*
X82400000Y-41200000D03*
X63200000Y-41200000D03*
X62400000Y-40400000D03*
X58400000Y-41200000D03*
X69600000Y-40400000D03*
X82400000Y-40400000D03*
X72000000Y-41200000D03*
X57600000Y-42000000D03*
X58400000Y-42000000D03*
X84800000Y-40400000D03*
X74400000Y-40400000D03*
X77600000Y-41200000D03*
X56800000Y-42000000D03*
X60800000Y-42000000D03*
X86400000Y-41200000D03*
X81600000Y-40400000D03*
X80000000Y-41200000D03*
X64800000Y-40400000D03*
X55200000Y-41200000D03*
X60000000Y-40400000D03*
X65600000Y-40400000D03*
X88800000Y-41200000D03*
X69600000Y-41200000D03*
X70400000Y-41200000D03*
X75200000Y-41200000D03*
X72800000Y-41200000D03*
X62400000Y-41200000D03*
X88000000Y-41200000D03*
X60000000Y-42000000D03*
X75200000Y-40400000D03*
X67200000Y-40400000D03*
X56000000Y-40400000D03*
X79200000Y-40400000D03*
X60000000Y-41200000D03*
X59200000Y-41200000D03*
X61600000Y-40400000D03*
X56000000Y-41200000D03*
X72800000Y-40400000D03*
X58400000Y-40400000D03*
X73600000Y-41200000D03*
X64800000Y-41200000D03*
X81600000Y-41200000D03*
X61600000Y-41200000D03*
X71200000Y-40400000D03*
X83200000Y-41200000D03*
X66400000Y-41200000D03*
X72000000Y-40400000D03*
%TO.N,PCIE_G6_A*%
X82400000Y-77200000D03*
X78400000Y-76400000D03*
X56000000Y-77200000D03*
X53600000Y-77200000D03*
X59200000Y-76400000D03*
X84800000Y-77200000D03*
X84800000Y-78000000D03*
X80000000Y-78000000D03*
X51200000Y-76400000D03*
X80800000Y-77200000D03*
X56800000Y-76400000D03*
X70400000Y-76400000D03*
X64000000Y-78000000D03*
X56000000Y-76400000D03*
X74400000Y-78000000D03*
X71200000Y-76400000D03*
X74400000Y-77200000D03*
X58400000Y-77200000D03*
X52000000Y-76400000D03*
X66400000Y-78000000D03*
X81600000Y-77200000D03*
X63200000Y-77200000D03*
X60000000Y-78000000D03*
X83200000Y-77200000D03*
X50400000Y-76400000D03*
X81600000Y-78000000D03*
X50400000Y-77200000D03*
X87200000Y-77200000D03*
X64000000Y-76400000D03*
X79200000Y-76400000D03*
X56000000Y-78000000D03*
X64800000Y-78000000D03*
X72800000Y-78000000D03*
X88000000Y-76400000D03*
X68800000Y-77200000D03*
X68000000Y-77200000D03*
X76800000Y-76400000D03*
X73600000Y-76400000D03*
X63200000Y-78000000D03*
X84800000Y-76400000D03*
X66400000Y-77200000D03*
X82400000Y-76400000D03*
X64000000Y-77200000D03*
X61600000Y-76400000D03*
X76000000Y-76400000D03*
X84000000Y-76400000D03*
X75200000Y-77200000D03*
X85600000Y-76400000D03*
X71200000Y-77200000D03*
X76800000Y-78000000D03*
X76000000Y-77200000D03*
X67200000Y-77200000D03*
X72000000Y-77200000D03*
X72000000Y-76400000D03*
X54400000Y-76400000D03*
X83200000Y-76400000D03*
X51200000Y-78000000D03*
X59200000Y-78000000D03*
X62400000Y-78000000D03*
X80800000Y-78000000D03*
X65600000Y-76400000D03*
X76800000Y-77200000D03*
X83200000Y-78000000D03*
X57600000Y-76400000D03*
X77600000Y-76400000D03*
X65600000Y-77200000D03*
X64800000Y-77200000D03*
X58400000Y-78000000D03*
X56800000Y-78000000D03*
X70400000Y-77200000D03*
X58400000Y-76400000D03*
X79200000Y-78000000D03*
X72800000Y-76400000D03*
X89600000Y-77200000D03*
X76000000Y-78000000D03*
X88000000Y-77200000D03*
X53600000Y-78000000D03*
X80000000Y-77200000D03*
X78400000Y-77200000D03*
X66400000Y-76400000D03*
X74400000Y-76400000D03*
X63200000Y-76400000D03*
X61600000Y-78000000D03*
X65600000Y-78000000D03*
X54400000Y-78000000D03*
X73600000Y-77200000D03*
X64800000Y-76400000D03*
X84000000Y-78000000D03*
X55200000Y-77200000D03*
X60800000Y-77200000D03*
X85600000Y-77200000D03*
X80800000Y-76400000D03*
X68800000Y-76400000D03*
X70400000Y-78000000D03*
X69600000Y-77200000D03*
X82400000Y-78000000D03*
X56800000Y-77200000D03*
X50400000Y-78000000D03*
X67200000Y-78000000D03*
X69600000Y-76400000D03*
X72000000Y-78000000D03*
X77600000Y-77200000D03*
X61600000Y-77200000D03*
X54400000Y-77200000D03*
X67200000Y-76400000D03*
X75200000Y-76400000D03*
X88800000Y-76400000D03*
X86400000Y-76400000D03*
X89600000Y-76400000D03*
X84000000Y-77200000D03*
X59200000Y-77200000D03*
X75200000Y-78000000D03*
X53600000Y-76400000D03*
X60000000Y-77200000D03*
X88800000Y-77200000D03*
X79200000Y-77200000D03*
X62400000Y-77200000D03*
X80000000Y-76400000D03*
X51200000Y-77200000D03*
X77600000Y-78000000D03*
X52000000Y-77200000D03*
X72800000Y-77200000D03*
X69600000Y-78000000D03*
X60000000Y-76400000D03*
X57600000Y-78000000D03*
X55200000Y-76400000D03*
X52800000Y-76400000D03*
X60800000Y-76400000D03*
X78400000Y-78000000D03*
X86400000Y-77200000D03*
X81600000Y-76400000D03*
X60800000Y-78000000D03*
X71200000Y-78000000D03*
X52000000Y-78000000D03*
X68000000Y-78000000D03*
X62400000Y-76400000D03*
X68000000Y-76400000D03*
X52800000Y-78000000D03*
X73600000Y-78000000D03*
X87200000Y-76400000D03*
X57600000Y-77200000D03*
X68800000Y-78000000D03*
X52800000Y-77200000D03*
X55200000Y-78000000D03*
%TD*%
%TO.N,TFLN_RF_A*%
D12*
X63062500Y-118000000D02*
X67937500Y-118000000D01*
%TO.N,+0V9*%
D13*
X75437500Y-33000000D02*
X165437500Y-33000000D01*
%TO.N,TFLN_RF_B*%
D12*
X153062500Y-118000000D02*
X157937500Y-118000000D01*
%TD*%
M02*
