%TF.GenerationSoftware,KiCad,Pcbnew,10.0.3*%
%TF.CreationDate,2026-07-15T16:52:04-07:00*%
%TF.ProjectId,LR_P3A_DualNCE,4c525f50-3341-45f4-9475-616c4e43452e,rev?*%
%TF.SameCoordinates,Original*%
%TF.FileFunction,Legend,Top*%
%TF.FilePolarity,Positive*%
%FSLAX46Y46*%
G04 Gerber Fmt 4.6, Leading zero omitted, Abs format (unit mm)*
G04 Created by KiCad (PCBNEW 10.0.3) date 2026-07-15 16:52:04*
%MOMM*%
%LPD*%
G01*
G04 APERTURE LIST*
%ADD10C,0.158750*%
G04 APERTURE END LIST*
D10*
X183820714Y-34914033D02*
X184002142Y-34974509D01*
X184002142Y-34974509D02*
X184062619Y-35034985D01*
X184062619Y-35034985D02*
X184123095Y-35155937D01*
X184123095Y-35155937D02*
X184123095Y-35337366D01*
X184123095Y-35337366D02*
X184062619Y-35458318D01*
X184062619Y-35458318D02*
X184002142Y-35518795D01*
X184002142Y-35518795D02*
X183881190Y-35579271D01*
X183881190Y-35579271D02*
X183397380Y-35579271D01*
X183397380Y-35579271D02*
X183397380Y-34309271D01*
X183397380Y-34309271D02*
X183820714Y-34309271D01*
X183820714Y-34309271D02*
X183941666Y-34369747D01*
X183941666Y-34369747D02*
X184002142Y-34430223D01*
X184002142Y-34430223D02*
X184062619Y-34551175D01*
X184062619Y-34551175D02*
X184062619Y-34672128D01*
X184062619Y-34672128D02*
X184002142Y-34793080D01*
X184002142Y-34793080D02*
X183941666Y-34853556D01*
X183941666Y-34853556D02*
X183820714Y-34914033D01*
X183820714Y-34914033D02*
X183397380Y-34914033D01*
X184667380Y-35579271D02*
X184667380Y-34309271D01*
X184667380Y-34914033D02*
X185393095Y-34914033D01*
X185393095Y-35579271D02*
X185393095Y-34309271D01*
X186542142Y-34309271D02*
X186300237Y-34309271D01*
X186300237Y-34309271D02*
X186179285Y-34369747D01*
X186179285Y-34369747D02*
X186118809Y-34430223D01*
X186118809Y-34430223D02*
X185997856Y-34611652D01*
X185997856Y-34611652D02*
X185937380Y-34853556D01*
X185937380Y-34853556D02*
X185937380Y-35337366D01*
X185937380Y-35337366D02*
X185997856Y-35458318D01*
X185997856Y-35458318D02*
X186058333Y-35518795D01*
X186058333Y-35518795D02*
X186179285Y-35579271D01*
X186179285Y-35579271D02*
X186421190Y-35579271D01*
X186421190Y-35579271D02*
X186542142Y-35518795D01*
X186542142Y-35518795D02*
X186602618Y-35458318D01*
X186602618Y-35458318D02*
X186663095Y-35337366D01*
X186663095Y-35337366D02*
X186663095Y-35034985D01*
X186663095Y-35034985D02*
X186602618Y-34914033D01*
X186602618Y-34914033D02*
X186542142Y-34853556D01*
X186542142Y-34853556D02*
X186421190Y-34793080D01*
X186421190Y-34793080D02*
X186179285Y-34793080D01*
X186179285Y-34793080D02*
X186058333Y-34853556D01*
X186058333Y-34853556D02*
X185997856Y-34914033D01*
X185997856Y-34914033D02*
X185937380Y-35034985D01*
X67822856Y-119309271D02*
X67822856Y-120337366D01*
X67822856Y-120337366D02*
X67883333Y-120458318D01*
X67883333Y-120458318D02*
X67943809Y-120518795D01*
X67943809Y-120518795D02*
X68064761Y-120579271D01*
X68064761Y-120579271D02*
X68306666Y-120579271D01*
X68306666Y-120579271D02*
X68427618Y-120518795D01*
X68427618Y-120518795D02*
X68488095Y-120458318D01*
X68488095Y-120458318D02*
X68548571Y-120337366D01*
X68548571Y-120337366D02*
X68548571Y-119309271D01*
X69818571Y-120579271D02*
X69092856Y-120579271D01*
X69455713Y-120579271D02*
X69455713Y-119309271D01*
X69455713Y-119309271D02*
X69334761Y-119490699D01*
X69334761Y-119490699D02*
X69213809Y-119611652D01*
X69213809Y-119611652D02*
X69092856Y-119672128D01*
X70604761Y-119309271D02*
X70725714Y-119309271D01*
X70725714Y-119309271D02*
X70846666Y-119369747D01*
X70846666Y-119369747D02*
X70907142Y-119430223D01*
X70907142Y-119430223D02*
X70967618Y-119551175D01*
X70967618Y-119551175D02*
X71028095Y-119793080D01*
X71028095Y-119793080D02*
X71028095Y-120095461D01*
X71028095Y-120095461D02*
X70967618Y-120337366D01*
X70967618Y-120337366D02*
X70907142Y-120458318D01*
X70907142Y-120458318D02*
X70846666Y-120518795D01*
X70846666Y-120518795D02*
X70725714Y-120579271D01*
X70725714Y-120579271D02*
X70604761Y-120579271D01*
X70604761Y-120579271D02*
X70483809Y-120518795D01*
X70483809Y-120518795D02*
X70423333Y-120458318D01*
X70423333Y-120458318D02*
X70362856Y-120337366D01*
X70362856Y-120337366D02*
X70302380Y-120095461D01*
X70302380Y-120095461D02*
X70302380Y-119793080D01*
X70302380Y-119793080D02*
X70362856Y-119551175D01*
X70362856Y-119551175D02*
X70423333Y-119430223D01*
X70423333Y-119430223D02*
X70483809Y-119369747D01*
X70483809Y-119369747D02*
X70604761Y-119309271D01*
X71511904Y-119430223D02*
X71572380Y-119369747D01*
X71572380Y-119369747D02*
X71693333Y-119309271D01*
X71693333Y-119309271D02*
X71995714Y-119309271D01*
X71995714Y-119309271D02*
X72116666Y-119369747D01*
X72116666Y-119369747D02*
X72177142Y-119430223D01*
X72177142Y-119430223D02*
X72237619Y-119551175D01*
X72237619Y-119551175D02*
X72237619Y-119672128D01*
X72237619Y-119672128D02*
X72177142Y-119853556D01*
X72177142Y-119853556D02*
X71451428Y-120579271D01*
X71451428Y-120579271D02*
X72237619Y-120579271D01*
X183820714Y-84914033D02*
X184002142Y-84974509D01*
X184002142Y-84974509D02*
X184062619Y-85034985D01*
X184062619Y-85034985D02*
X184123095Y-85155937D01*
X184123095Y-85155937D02*
X184123095Y-85337366D01*
X184123095Y-85337366D02*
X184062619Y-85458318D01*
X184062619Y-85458318D02*
X184002142Y-85518795D01*
X184002142Y-85518795D02*
X183881190Y-85579271D01*
X183881190Y-85579271D02*
X183397380Y-85579271D01*
X183397380Y-85579271D02*
X183397380Y-84309271D01*
X183397380Y-84309271D02*
X183820714Y-84309271D01*
X183820714Y-84309271D02*
X183941666Y-84369747D01*
X183941666Y-84369747D02*
X184002142Y-84430223D01*
X184002142Y-84430223D02*
X184062619Y-84551175D01*
X184062619Y-84551175D02*
X184062619Y-84672128D01*
X184062619Y-84672128D02*
X184002142Y-84793080D01*
X184002142Y-84793080D02*
X183941666Y-84853556D01*
X183941666Y-84853556D02*
X183820714Y-84914033D01*
X183820714Y-84914033D02*
X183397380Y-84914033D01*
X184667380Y-85579271D02*
X184667380Y-84309271D01*
X184667380Y-84914033D02*
X185393095Y-84914033D01*
X185393095Y-85579271D02*
X185393095Y-84309271D01*
X186179285Y-84853556D02*
X186058333Y-84793080D01*
X186058333Y-84793080D02*
X185997856Y-84732604D01*
X185997856Y-84732604D02*
X185937380Y-84611652D01*
X185937380Y-84611652D02*
X185937380Y-84551175D01*
X185937380Y-84551175D02*
X185997856Y-84430223D01*
X185997856Y-84430223D02*
X186058333Y-84369747D01*
X186058333Y-84369747D02*
X186179285Y-84309271D01*
X186179285Y-84309271D02*
X186421190Y-84309271D01*
X186421190Y-84309271D02*
X186542142Y-84369747D01*
X186542142Y-84369747D02*
X186602618Y-84430223D01*
X186602618Y-84430223D02*
X186663095Y-84551175D01*
X186663095Y-84551175D02*
X186663095Y-84611652D01*
X186663095Y-84611652D02*
X186602618Y-84732604D01*
X186602618Y-84732604D02*
X186542142Y-84793080D01*
X186542142Y-84793080D02*
X186421190Y-84853556D01*
X186421190Y-84853556D02*
X186179285Y-84853556D01*
X186179285Y-84853556D02*
X186058333Y-84914033D01*
X186058333Y-84914033D02*
X185997856Y-84974509D01*
X185997856Y-84974509D02*
X185937380Y-85095461D01*
X185937380Y-85095461D02*
X185937380Y-85337366D01*
X185937380Y-85337366D02*
X185997856Y-85458318D01*
X185997856Y-85458318D02*
X186058333Y-85518795D01*
X186058333Y-85518795D02*
X186179285Y-85579271D01*
X186179285Y-85579271D02*
X186421190Y-85579271D01*
X186421190Y-85579271D02*
X186542142Y-85518795D01*
X186542142Y-85518795D02*
X186602618Y-85458318D01*
X186602618Y-85458318D02*
X186663095Y-85337366D01*
X186663095Y-85337366D02*
X186663095Y-85095461D01*
X186663095Y-85095461D02*
X186602618Y-84974509D01*
X186602618Y-84974509D02*
X186542142Y-84914033D01*
X186542142Y-84914033D02*
X186421190Y-84853556D01*
X157822856Y-119309271D02*
X157822856Y-120337366D01*
X157822856Y-120337366D02*
X157883333Y-120458318D01*
X157883333Y-120458318D02*
X157943809Y-120518795D01*
X157943809Y-120518795D02*
X158064761Y-120579271D01*
X158064761Y-120579271D02*
X158306666Y-120579271D01*
X158306666Y-120579271D02*
X158427618Y-120518795D01*
X158427618Y-120518795D02*
X158488095Y-120458318D01*
X158488095Y-120458318D02*
X158548571Y-120337366D01*
X158548571Y-120337366D02*
X158548571Y-119309271D01*
X159092856Y-119430223D02*
X159153332Y-119369747D01*
X159153332Y-119369747D02*
X159274285Y-119309271D01*
X159274285Y-119309271D02*
X159576666Y-119309271D01*
X159576666Y-119309271D02*
X159697618Y-119369747D01*
X159697618Y-119369747D02*
X159758094Y-119430223D01*
X159758094Y-119430223D02*
X159818571Y-119551175D01*
X159818571Y-119551175D02*
X159818571Y-119672128D01*
X159818571Y-119672128D02*
X159758094Y-119853556D01*
X159758094Y-119853556D02*
X159032380Y-120579271D01*
X159032380Y-120579271D02*
X159818571Y-120579271D01*
X160604761Y-119309271D02*
X160725714Y-119309271D01*
X160725714Y-119309271D02*
X160846666Y-119369747D01*
X160846666Y-119369747D02*
X160907142Y-119430223D01*
X160907142Y-119430223D02*
X160967618Y-119551175D01*
X160967618Y-119551175D02*
X161028095Y-119793080D01*
X161028095Y-119793080D02*
X161028095Y-120095461D01*
X161028095Y-120095461D02*
X160967618Y-120337366D01*
X160967618Y-120337366D02*
X160907142Y-120458318D01*
X160907142Y-120458318D02*
X160846666Y-120518795D01*
X160846666Y-120518795D02*
X160725714Y-120579271D01*
X160725714Y-120579271D02*
X160604761Y-120579271D01*
X160604761Y-120579271D02*
X160483809Y-120518795D01*
X160483809Y-120518795D02*
X160423333Y-120458318D01*
X160423333Y-120458318D02*
X160362856Y-120337366D01*
X160362856Y-120337366D02*
X160302380Y-120095461D01*
X160302380Y-120095461D02*
X160302380Y-119793080D01*
X160302380Y-119793080D02*
X160362856Y-119551175D01*
X160362856Y-119551175D02*
X160423333Y-119430223D01*
X160423333Y-119430223D02*
X160483809Y-119369747D01*
X160483809Y-119369747D02*
X160604761Y-119309271D01*
X161511904Y-119430223D02*
X161572380Y-119369747D01*
X161572380Y-119369747D02*
X161693333Y-119309271D01*
X161693333Y-119309271D02*
X161995714Y-119309271D01*
X161995714Y-119309271D02*
X162116666Y-119369747D01*
X162116666Y-119369747D02*
X162177142Y-119430223D01*
X162177142Y-119430223D02*
X162237619Y-119551175D01*
X162237619Y-119551175D02*
X162237619Y-119672128D01*
X162237619Y-119672128D02*
X162177142Y-119853556D01*
X162177142Y-119853556D02*
X161451428Y-120579271D01*
X161451428Y-120579271D02*
X162237619Y-120579271D01*
X93820714Y-84914033D02*
X94002142Y-84974509D01*
X94002142Y-84974509D02*
X94062619Y-85034985D01*
X94062619Y-85034985D02*
X94123095Y-85155937D01*
X94123095Y-85155937D02*
X94123095Y-85337366D01*
X94123095Y-85337366D02*
X94062619Y-85458318D01*
X94062619Y-85458318D02*
X94002142Y-85518795D01*
X94002142Y-85518795D02*
X93881190Y-85579271D01*
X93881190Y-85579271D02*
X93397380Y-85579271D01*
X93397380Y-85579271D02*
X93397380Y-84309271D01*
X93397380Y-84309271D02*
X93820714Y-84309271D01*
X93820714Y-84309271D02*
X93941666Y-84369747D01*
X93941666Y-84369747D02*
X94002142Y-84430223D01*
X94002142Y-84430223D02*
X94062619Y-84551175D01*
X94062619Y-84551175D02*
X94062619Y-84672128D01*
X94062619Y-84672128D02*
X94002142Y-84793080D01*
X94002142Y-84793080D02*
X93941666Y-84853556D01*
X93941666Y-84853556D02*
X93820714Y-84914033D01*
X93820714Y-84914033D02*
X93397380Y-84914033D01*
X94667380Y-85579271D02*
X94667380Y-84309271D01*
X94667380Y-84914033D02*
X95393095Y-84914033D01*
X95393095Y-85579271D02*
X95393095Y-84309271D01*
X96542142Y-84732604D02*
X96542142Y-85579271D01*
X96239761Y-84248795D02*
X95937380Y-85155937D01*
X95937380Y-85155937D02*
X96723571Y-85155937D01*
X157822856Y-59309271D02*
X157822856Y-60337366D01*
X157822856Y-60337366D02*
X157883333Y-60458318D01*
X157883333Y-60458318D02*
X157943809Y-60518795D01*
X157943809Y-60518795D02*
X158064761Y-60579271D01*
X158064761Y-60579271D02*
X158306666Y-60579271D01*
X158306666Y-60579271D02*
X158427618Y-60518795D01*
X158427618Y-60518795D02*
X158488095Y-60458318D01*
X158488095Y-60458318D02*
X158548571Y-60337366D01*
X158548571Y-60337366D02*
X158548571Y-59309271D01*
X159092856Y-59430223D02*
X159153332Y-59369747D01*
X159153332Y-59369747D02*
X159274285Y-59309271D01*
X159274285Y-59309271D02*
X159576666Y-59309271D01*
X159576666Y-59309271D02*
X159697618Y-59369747D01*
X159697618Y-59369747D02*
X159758094Y-59430223D01*
X159758094Y-59430223D02*
X159818571Y-59551175D01*
X159818571Y-59551175D02*
X159818571Y-59672128D01*
X159818571Y-59672128D02*
X159758094Y-59853556D01*
X159758094Y-59853556D02*
X159032380Y-60579271D01*
X159032380Y-60579271D02*
X159818571Y-60579271D01*
X160604761Y-59309271D02*
X160725714Y-59309271D01*
X160725714Y-59309271D02*
X160846666Y-59369747D01*
X160846666Y-59369747D02*
X160907142Y-59430223D01*
X160907142Y-59430223D02*
X160967618Y-59551175D01*
X160967618Y-59551175D02*
X161028095Y-59793080D01*
X161028095Y-59793080D02*
X161028095Y-60095461D01*
X161028095Y-60095461D02*
X160967618Y-60337366D01*
X160967618Y-60337366D02*
X160907142Y-60458318D01*
X160907142Y-60458318D02*
X160846666Y-60518795D01*
X160846666Y-60518795D02*
X160725714Y-60579271D01*
X160725714Y-60579271D02*
X160604761Y-60579271D01*
X160604761Y-60579271D02*
X160483809Y-60518795D01*
X160483809Y-60518795D02*
X160423333Y-60458318D01*
X160423333Y-60458318D02*
X160362856Y-60337366D01*
X160362856Y-60337366D02*
X160302380Y-60095461D01*
X160302380Y-60095461D02*
X160302380Y-59793080D01*
X160302380Y-59793080D02*
X160362856Y-59551175D01*
X160362856Y-59551175D02*
X160423333Y-59430223D01*
X160423333Y-59430223D02*
X160483809Y-59369747D01*
X160483809Y-59369747D02*
X160604761Y-59309271D01*
X162237619Y-60579271D02*
X161511904Y-60579271D01*
X161874761Y-60579271D02*
X161874761Y-59309271D01*
X161874761Y-59309271D02*
X161753809Y-59490699D01*
X161753809Y-59490699D02*
X161632857Y-59611652D01*
X161632857Y-59611652D02*
X161511904Y-59672128D01*
X93820714Y-34914033D02*
X94002142Y-34974509D01*
X94002142Y-34974509D02*
X94062619Y-35034985D01*
X94062619Y-35034985D02*
X94123095Y-35155937D01*
X94123095Y-35155937D02*
X94123095Y-35337366D01*
X94123095Y-35337366D02*
X94062619Y-35458318D01*
X94062619Y-35458318D02*
X94002142Y-35518795D01*
X94002142Y-35518795D02*
X93881190Y-35579271D01*
X93881190Y-35579271D02*
X93397380Y-35579271D01*
X93397380Y-35579271D02*
X93397380Y-34309271D01*
X93397380Y-34309271D02*
X93820714Y-34309271D01*
X93820714Y-34309271D02*
X93941666Y-34369747D01*
X93941666Y-34369747D02*
X94002142Y-34430223D01*
X94002142Y-34430223D02*
X94062619Y-34551175D01*
X94062619Y-34551175D02*
X94062619Y-34672128D01*
X94062619Y-34672128D02*
X94002142Y-34793080D01*
X94002142Y-34793080D02*
X93941666Y-34853556D01*
X93941666Y-34853556D02*
X93820714Y-34914033D01*
X93820714Y-34914033D02*
X93397380Y-34914033D01*
X94667380Y-35579271D02*
X94667380Y-34309271D01*
X94667380Y-34914033D02*
X95393095Y-34914033D01*
X95393095Y-35579271D02*
X95393095Y-34309271D01*
X95937380Y-34430223D02*
X95997856Y-34369747D01*
X95997856Y-34369747D02*
X96118809Y-34309271D01*
X96118809Y-34309271D02*
X96421190Y-34309271D01*
X96421190Y-34309271D02*
X96542142Y-34369747D01*
X96542142Y-34369747D02*
X96602618Y-34430223D01*
X96602618Y-34430223D02*
X96663095Y-34551175D01*
X96663095Y-34551175D02*
X96663095Y-34672128D01*
X96663095Y-34672128D02*
X96602618Y-34853556D01*
X96602618Y-34853556D02*
X95876904Y-35579271D01*
X95876904Y-35579271D02*
X96663095Y-35579271D01*
X133820714Y-84914033D02*
X134002142Y-84974509D01*
X134002142Y-84974509D02*
X134062619Y-85034985D01*
X134062619Y-85034985D02*
X134123095Y-85155937D01*
X134123095Y-85155937D02*
X134123095Y-85337366D01*
X134123095Y-85337366D02*
X134062619Y-85458318D01*
X134062619Y-85458318D02*
X134002142Y-85518795D01*
X134002142Y-85518795D02*
X133881190Y-85579271D01*
X133881190Y-85579271D02*
X133397380Y-85579271D01*
X133397380Y-85579271D02*
X133397380Y-84309271D01*
X133397380Y-84309271D02*
X133820714Y-84309271D01*
X133820714Y-84309271D02*
X133941666Y-84369747D01*
X133941666Y-84369747D02*
X134002142Y-84430223D01*
X134002142Y-84430223D02*
X134062619Y-84551175D01*
X134062619Y-84551175D02*
X134062619Y-84672128D01*
X134062619Y-84672128D02*
X134002142Y-84793080D01*
X134002142Y-84793080D02*
X133941666Y-84853556D01*
X133941666Y-84853556D02*
X133820714Y-84914033D01*
X133820714Y-84914033D02*
X133397380Y-84914033D01*
X134667380Y-85579271D02*
X134667380Y-84309271D01*
X134667380Y-84914033D02*
X135393095Y-84914033D01*
X135393095Y-85579271D02*
X135393095Y-84309271D01*
X135876904Y-84309271D02*
X136723571Y-84309271D01*
X136723571Y-84309271D02*
X136179285Y-85579271D01*
X67822856Y-59309271D02*
X67822856Y-60337366D01*
X67822856Y-60337366D02*
X67883333Y-60458318D01*
X67883333Y-60458318D02*
X67943809Y-60518795D01*
X67943809Y-60518795D02*
X68064761Y-60579271D01*
X68064761Y-60579271D02*
X68306666Y-60579271D01*
X68306666Y-60579271D02*
X68427618Y-60518795D01*
X68427618Y-60518795D02*
X68488095Y-60458318D01*
X68488095Y-60458318D02*
X68548571Y-60337366D01*
X68548571Y-60337366D02*
X68548571Y-59309271D01*
X69818571Y-60579271D02*
X69092856Y-60579271D01*
X69455713Y-60579271D02*
X69455713Y-59309271D01*
X69455713Y-59309271D02*
X69334761Y-59490699D01*
X69334761Y-59490699D02*
X69213809Y-59611652D01*
X69213809Y-59611652D02*
X69092856Y-59672128D01*
X70604761Y-59309271D02*
X70725714Y-59309271D01*
X70725714Y-59309271D02*
X70846666Y-59369747D01*
X70846666Y-59369747D02*
X70907142Y-59430223D01*
X70907142Y-59430223D02*
X70967618Y-59551175D01*
X70967618Y-59551175D02*
X71028095Y-59793080D01*
X71028095Y-59793080D02*
X71028095Y-60095461D01*
X71028095Y-60095461D02*
X70967618Y-60337366D01*
X70967618Y-60337366D02*
X70907142Y-60458318D01*
X70907142Y-60458318D02*
X70846666Y-60518795D01*
X70846666Y-60518795D02*
X70725714Y-60579271D01*
X70725714Y-60579271D02*
X70604761Y-60579271D01*
X70604761Y-60579271D02*
X70483809Y-60518795D01*
X70483809Y-60518795D02*
X70423333Y-60458318D01*
X70423333Y-60458318D02*
X70362856Y-60337366D01*
X70362856Y-60337366D02*
X70302380Y-60095461D01*
X70302380Y-60095461D02*
X70302380Y-59793080D01*
X70302380Y-59793080D02*
X70362856Y-59551175D01*
X70362856Y-59551175D02*
X70423333Y-59430223D01*
X70423333Y-59430223D02*
X70483809Y-59369747D01*
X70483809Y-59369747D02*
X70604761Y-59309271D01*
X72237619Y-60579271D02*
X71511904Y-60579271D01*
X71874761Y-60579271D02*
X71874761Y-59309271D01*
X71874761Y-59309271D02*
X71753809Y-59490699D01*
X71753809Y-59490699D02*
X71632857Y-59611652D01*
X71632857Y-59611652D02*
X71511904Y-59672128D01*
X43820714Y-34914033D02*
X44002142Y-34974509D01*
X44002142Y-34974509D02*
X44062619Y-35034985D01*
X44062619Y-35034985D02*
X44123095Y-35155937D01*
X44123095Y-35155937D02*
X44123095Y-35337366D01*
X44123095Y-35337366D02*
X44062619Y-35458318D01*
X44062619Y-35458318D02*
X44002142Y-35518795D01*
X44002142Y-35518795D02*
X43881190Y-35579271D01*
X43881190Y-35579271D02*
X43397380Y-35579271D01*
X43397380Y-35579271D02*
X43397380Y-34309271D01*
X43397380Y-34309271D02*
X43820714Y-34309271D01*
X43820714Y-34309271D02*
X43941666Y-34369747D01*
X43941666Y-34369747D02*
X44002142Y-34430223D01*
X44002142Y-34430223D02*
X44062619Y-34551175D01*
X44062619Y-34551175D02*
X44062619Y-34672128D01*
X44062619Y-34672128D02*
X44002142Y-34793080D01*
X44002142Y-34793080D02*
X43941666Y-34853556D01*
X43941666Y-34853556D02*
X43820714Y-34914033D01*
X43820714Y-34914033D02*
X43397380Y-34914033D01*
X44667380Y-35579271D02*
X44667380Y-34309271D01*
X44667380Y-34914033D02*
X45393095Y-34914033D01*
X45393095Y-35579271D02*
X45393095Y-34309271D01*
X46663095Y-35579271D02*
X45937380Y-35579271D01*
X46300237Y-35579271D02*
X46300237Y-34309271D01*
X46300237Y-34309271D02*
X46179285Y-34490699D01*
X46179285Y-34490699D02*
X46058333Y-34611652D01*
X46058333Y-34611652D02*
X45937380Y-34672128D01*
X43820714Y-84914033D02*
X44002142Y-84974509D01*
X44002142Y-84974509D02*
X44062619Y-85034985D01*
X44062619Y-85034985D02*
X44123095Y-85155937D01*
X44123095Y-85155937D02*
X44123095Y-85337366D01*
X44123095Y-85337366D02*
X44062619Y-85458318D01*
X44062619Y-85458318D02*
X44002142Y-85518795D01*
X44002142Y-85518795D02*
X43881190Y-85579271D01*
X43881190Y-85579271D02*
X43397380Y-85579271D01*
X43397380Y-85579271D02*
X43397380Y-84309271D01*
X43397380Y-84309271D02*
X43820714Y-84309271D01*
X43820714Y-84309271D02*
X43941666Y-84369747D01*
X43941666Y-84369747D02*
X44002142Y-84430223D01*
X44002142Y-84430223D02*
X44062619Y-84551175D01*
X44062619Y-84551175D02*
X44062619Y-84672128D01*
X44062619Y-84672128D02*
X44002142Y-84793080D01*
X44002142Y-84793080D02*
X43941666Y-84853556D01*
X43941666Y-84853556D02*
X43820714Y-84914033D01*
X43820714Y-84914033D02*
X43397380Y-84914033D01*
X44667380Y-85579271D02*
X44667380Y-84309271D01*
X44667380Y-84914033D02*
X45393095Y-84914033D01*
X45393095Y-85579271D02*
X45393095Y-84309271D01*
X45876904Y-84309271D02*
X46663095Y-84309271D01*
X46663095Y-84309271D02*
X46239761Y-84793080D01*
X46239761Y-84793080D02*
X46421190Y-84793080D01*
X46421190Y-84793080D02*
X46542142Y-84853556D01*
X46542142Y-84853556D02*
X46602618Y-84914033D01*
X46602618Y-84914033D02*
X46663095Y-85034985D01*
X46663095Y-85034985D02*
X46663095Y-85337366D01*
X46663095Y-85337366D02*
X46602618Y-85458318D01*
X46602618Y-85458318D02*
X46542142Y-85518795D01*
X46542142Y-85518795D02*
X46421190Y-85579271D01*
X46421190Y-85579271D02*
X46058333Y-85579271D01*
X46058333Y-85579271D02*
X45937380Y-85518795D01*
X45937380Y-85518795D02*
X45876904Y-85458318D01*
X133820714Y-34914033D02*
X134002142Y-34974509D01*
X134002142Y-34974509D02*
X134062619Y-35034985D01*
X134062619Y-35034985D02*
X134123095Y-35155937D01*
X134123095Y-35155937D02*
X134123095Y-35337366D01*
X134123095Y-35337366D02*
X134062619Y-35458318D01*
X134062619Y-35458318D02*
X134002142Y-35518795D01*
X134002142Y-35518795D02*
X133881190Y-35579271D01*
X133881190Y-35579271D02*
X133397380Y-35579271D01*
X133397380Y-35579271D02*
X133397380Y-34309271D01*
X133397380Y-34309271D02*
X133820714Y-34309271D01*
X133820714Y-34309271D02*
X133941666Y-34369747D01*
X133941666Y-34369747D02*
X134002142Y-34430223D01*
X134002142Y-34430223D02*
X134062619Y-34551175D01*
X134062619Y-34551175D02*
X134062619Y-34672128D01*
X134062619Y-34672128D02*
X134002142Y-34793080D01*
X134002142Y-34793080D02*
X133941666Y-34853556D01*
X133941666Y-34853556D02*
X133820714Y-34914033D01*
X133820714Y-34914033D02*
X133397380Y-34914033D01*
X134667380Y-35579271D02*
X134667380Y-34309271D01*
X134667380Y-34914033D02*
X135393095Y-34914033D01*
X135393095Y-35579271D02*
X135393095Y-34309271D01*
X136602618Y-34309271D02*
X135997856Y-34309271D01*
X135997856Y-34309271D02*
X135937380Y-34914033D01*
X135937380Y-34914033D02*
X135997856Y-34853556D01*
X135997856Y-34853556D02*
X136118809Y-34793080D01*
X136118809Y-34793080D02*
X136421190Y-34793080D01*
X136421190Y-34793080D02*
X136542142Y-34853556D01*
X136542142Y-34853556D02*
X136602618Y-34914033D01*
X136602618Y-34914033D02*
X136663095Y-35034985D01*
X136663095Y-35034985D02*
X136663095Y-35337366D01*
X136663095Y-35337366D02*
X136602618Y-35458318D01*
X136602618Y-35458318D02*
X136542142Y-35518795D01*
X136542142Y-35518795D02*
X136421190Y-35579271D01*
X136421190Y-35579271D02*
X136118809Y-35579271D01*
X136118809Y-35579271D02*
X135997856Y-35518795D01*
X135997856Y-35518795D02*
X135937380Y-35458318D01*
M02*
