M48
; DRILL file KiCad 10.0.3 date 2026-07-14T23:47:50
; FORMAT={-:-/ absolute / metric / decimal}
; #@! TF.CreationDate,2026-07-14T23:47:50-07:00
; #@! TF.GenerationSoftware,Kicad,Pcbnew,10.0.3
; #@! TF.FileFunction,Plated,1,16,PTH
FMAT,2
METRIC
; #@! TA.AperFunction,Plated,PTH,ViaDrill
T1C0.300
%
G90
G05
T1
X10.0Y-10.0
X10.0Y-25.0
X10.0Y-40.0
X10.0Y-55.0
X10.0Y-70.0
X10.0Y-85.0
X10.0Y-100.0
X10.0Y-115.0
X10.0Y-130.0
X25.0Y-10.0
X25.0Y-25.0
X25.0Y-40.0
X25.0Y-55.0
X25.0Y-70.0
X25.0Y-85.0
X25.0Y-100.0
X25.0Y-115.0
X25.0Y-130.0
X40.0Y-10.0
X40.0Y-25.0
X40.0Y-40.0
X40.0Y-55.0
X40.0Y-70.0
X40.0Y-85.0
X40.0Y-100.0
X40.0Y-115.0
X40.0Y-130.0
X50.4Y-76.4
X50.4Y-77.2
X50.4Y-78.0
X51.2Y-44.4
X51.2Y-76.4
X51.2Y-77.2
X51.2Y-78.0
X52.0Y-76.4
X52.0Y-77.2
X52.0Y-78.0
X52.8Y-76.4
X52.8Y-77.2
X52.8Y-78.0
X53.6Y-76.4
X53.6Y-77.2
X53.6Y-78.0
X54.4Y-43.6
X54.4Y-76.4
X54.4Y-77.2
X54.4Y-78.0
X55.0Y-10.0
X55.0Y-25.0
X55.0Y-100.0
X55.0Y-115.0
X55.0Y-130.0
X55.2Y-40.4
X55.2Y-41.2
X55.2Y-42.0
X55.2Y-43.6
X55.2Y-43.6
X55.2Y-76.4
X55.2Y-77.2
X55.2Y-78.0
X56.0Y-40.4
X56.0Y-41.2
X56.0Y-42.0
X56.0Y-76.4
X56.0Y-77.2
X56.0Y-78.0
X56.8Y-40.4
X56.8Y-41.2
X56.8Y-42.0
X56.8Y-76.4
X56.8Y-77.2
X56.8Y-78.0
X57.6Y-40.4
X57.6Y-41.2
X57.6Y-42.0
X57.6Y-43.6
X57.6Y-76.4
X57.6Y-77.2
X57.6Y-78.0
X58.4Y-40.4
X58.4Y-41.2
X58.4Y-42.0
X58.4Y-43.6
X58.4Y-76.4
X58.4Y-77.2
X58.4Y-78.0
X59.2Y-40.4
X59.2Y-41.2
X59.2Y-42.0
X59.2Y-76.4
X59.2Y-77.2
X59.2Y-78.0
X60.0Y-40.4
X60.0Y-41.2
X60.0Y-42.0
X60.0Y-76.4
X60.0Y-77.2
X60.0Y-78.0
X60.8Y-40.4
X60.8Y-41.2
X60.8Y-42.0
X60.8Y-76.4
X60.8Y-77.2
X60.8Y-78.0
X61.6Y-40.4
X61.6Y-41.2
X61.6Y-76.4
X61.6Y-77.2
X61.6Y-78.0
X62.4Y-40.4
X62.4Y-41.2
X62.4Y-76.4
X62.4Y-77.2
X62.4Y-78.0
X63.2Y-40.4
X63.2Y-41.2
X63.2Y-76.4
X63.2Y-77.2
X63.2Y-78.0
X64.0Y-40.4
X64.0Y-41.2
X64.0Y-76.4
X64.0Y-77.2
X64.0Y-78.0
X64.8Y-40.4
X64.8Y-41.2
X64.8Y-76.4
X64.8Y-77.2
X64.8Y-78.0
X65.6Y-40.4
X65.6Y-41.2
X65.6Y-76.4
X65.6Y-77.2
X65.6Y-78.0
X66.4Y-40.4
X66.4Y-41.2
X66.4Y-76.4
X66.4Y-77.2
X66.4Y-78.0
X67.2Y-40.4
X67.2Y-41.2
X67.2Y-76.4
X67.2Y-77.2
X67.2Y-78.0
X68.0Y-40.4
X68.0Y-41.2
X68.0Y-76.4
X68.0Y-77.2
X68.0Y-78.0
X68.8Y-40.4
X68.8Y-41.2
X68.8Y-42.8
X68.8Y-76.4
X68.8Y-77.2
X68.8Y-78.0
X69.6Y-40.4
X69.6Y-41.2
X69.6Y-42.8
X69.6Y-42.8
X69.6Y-76.4
X69.6Y-77.2
X69.6Y-78.0
X70.0Y-10.0
X70.0Y-25.0
X70.0Y-100.0
X70.4Y-40.4
X70.4Y-41.2
X70.4Y-42.8
X70.4Y-76.4
X70.4Y-77.2
X70.4Y-78.0
X71.2Y-40.4
X71.2Y-41.2
X71.2Y-76.4
X71.2Y-77.2
X71.2Y-78.0
X72.0Y-40.4
X72.0Y-41.2
X72.0Y-76.4
X72.0Y-77.2
X72.0Y-78.0
X72.8Y-40.4
X72.8Y-41.2
X72.8Y-76.4
X72.8Y-77.2
X72.8Y-78.0
X73.6Y-40.4
X73.6Y-41.2
X73.6Y-76.4
X73.6Y-77.2
X73.6Y-78.0
X74.4Y-40.4
X74.4Y-41.2
X74.4Y-76.4
X74.4Y-77.2
X74.4Y-78.0
X75.2Y-40.4
X75.2Y-41.2
X75.2Y-76.4
X75.2Y-77.2
X75.2Y-78.0
X76.0Y-40.4
X76.0Y-41.2
X76.0Y-76.4
X76.0Y-77.2
X76.0Y-78.0
X76.8Y-40.4
X76.8Y-41.2
X76.8Y-43.6
X76.8Y-76.4
X76.8Y-77.2
X76.8Y-78.0
X77.6Y-40.4
X77.6Y-41.2
X77.6Y-76.4
X77.6Y-77.2
X77.6Y-78.0
X78.4Y-40.4
X78.4Y-41.2
X78.4Y-76.4
X78.4Y-77.2
X78.4Y-78.0
X79.2Y-40.4
X79.2Y-41.2
X79.2Y-76.4
X79.2Y-77.2
X79.2Y-78.0
X80.0Y-40.4
X80.0Y-41.2
X80.0Y-76.4
X80.0Y-77.2
X80.0Y-78.0
X80.8Y-40.4
X80.8Y-41.2
X80.8Y-76.4
X80.8Y-77.2
X80.8Y-78.0
X81.6Y-40.4
X81.6Y-41.2
X81.6Y-76.4
X81.6Y-77.2
X81.6Y-78.0
X82.4Y-40.4
X82.4Y-41.2
X82.4Y-76.4
X82.4Y-77.2
X82.4Y-78.0
X83.2Y-40.4
X83.2Y-41.2
X83.2Y-76.4
X83.2Y-77.2
X83.2Y-78.0
X84.0Y-40.4
X84.0Y-41.2
X84.0Y-76.4
X84.0Y-77.2
X84.0Y-78.0
X84.8Y-40.4
X84.8Y-41.2
X84.8Y-76.4
X84.8Y-77.2
X84.8Y-78.0
X85.0Y-10.0
X85.0Y-25.0
X85.0Y-100.0
X85.0Y-115.0
X85.0Y-130.0
X85.6Y-40.4
X85.6Y-41.2
X85.6Y-76.4
X85.6Y-77.2
X86.4Y-40.4
X86.4Y-41.2
X86.4Y-50.0
X86.4Y-76.4
X86.4Y-77.2
X87.2Y-40.4
X87.2Y-41.2
X87.2Y-56.4
X87.2Y-58.0
X87.2Y-76.4
X87.2Y-77.2
X88.0Y-40.4
X88.0Y-41.2
X88.0Y-45.2
X88.0Y-76.4
X88.0Y-77.2
X88.8Y-40.4
X88.8Y-41.2
X88.8Y-76.4
X88.8Y-77.2
X89.6Y-40.4
X89.6Y-41.2
X89.6Y-76.4
X89.6Y-77.2
X100.0Y-10.0
X100.0Y-25.0
X100.0Y-40.0
X100.0Y-55.0
X100.0Y-70.0
X100.0Y-85.0
X100.0Y-100.0
X100.0Y-115.0
X100.0Y-130.0
X115.0Y-10.0
X115.0Y-25.0
X115.0Y-40.0
X115.0Y-55.0
X115.0Y-70.0
X115.0Y-85.0
X115.0Y-100.0
X115.0Y-115.0
X115.0Y-130.0
X130.0Y-10.0
X130.0Y-25.0
X130.0Y-40.0
X130.0Y-55.0
X130.0Y-70.0
X130.0Y-85.0
X130.0Y-100.0
X130.0Y-115.0
X130.0Y-130.0
X133.062Y-238.0
X137.938Y-238.0
X140.4Y-76.4
X140.4Y-77.2
X140.4Y-78.0
X141.2Y-44.4
X141.2Y-76.4
X141.2Y-77.2
X141.2Y-78.0
X142.0Y-76.4
X142.0Y-77.2
X142.0Y-78.0
X142.8Y-76.4
X142.8Y-77.2
X142.8Y-78.0
X143.6Y-76.4
X143.6Y-77.2
X143.6Y-78.0
X144.4Y-43.6
X144.4Y-76.4
X144.4Y-77.2
X144.4Y-78.0
X145.0Y-10.0
X145.0Y-25.0
X145.0Y-100.0
X145.0Y-115.0
X145.0Y-130.0
X145.2Y-40.4
X145.2Y-41.2
X145.2Y-42.0
X145.2Y-43.6
X145.2Y-43.6
X145.2Y-76.4
X145.2Y-77.2
X145.2Y-78.0
X146.0Y-40.4
X146.0Y-41.2
X146.0Y-42.0
X146.0Y-76.4
X146.0Y-77.2
X146.0Y-78.0
X146.8Y-40.4
X146.8Y-41.2
X146.8Y-42.0
X146.8Y-76.4
X146.8Y-77.2
X146.8Y-78.0
X147.6Y-40.4
X147.6Y-41.2
X147.6Y-42.0
X147.6Y-43.6
X147.6Y-76.4
X147.6Y-77.2
X147.6Y-78.0
X148.4Y-40.4
X148.4Y-41.2
X148.4Y-42.0
X148.4Y-43.6
X148.4Y-76.4
X148.4Y-77.2
X148.4Y-78.0
X149.2Y-40.4
X149.2Y-41.2
X149.2Y-42.0
X149.2Y-76.4
X149.2Y-77.2
X149.2Y-78.0
X150.0Y-40.4
X150.0Y-41.2
X150.0Y-42.0
X150.0Y-76.4
X150.0Y-77.2
X150.0Y-78.0
X150.8Y-40.4
X150.8Y-41.2
X150.8Y-42.0
X150.8Y-76.4
X150.8Y-77.2
X150.8Y-78.0
X151.6Y-40.4
X151.6Y-41.2
X151.6Y-76.4
X151.6Y-77.2
X151.6Y-78.0
X152.4Y-40.4
X152.4Y-41.2
X152.4Y-76.4
X152.4Y-77.2
X152.4Y-78.0
X153.2Y-40.4
X153.2Y-41.2
X153.2Y-76.4
X153.2Y-77.2
X153.2Y-78.0
X154.0Y-40.4
X154.0Y-41.2
X154.0Y-76.4
X154.0Y-77.2
X154.0Y-78.0
X154.8Y-40.4
X154.8Y-41.2
X154.8Y-76.4
X154.8Y-77.2
X154.8Y-78.0
X155.6Y-40.4
X155.6Y-41.2
X155.6Y-76.4
X155.6Y-77.2
X155.6Y-78.0
X156.4Y-40.4
X156.4Y-41.2
X156.4Y-76.4
X156.4Y-77.2
X156.4Y-78.0
X157.2Y-40.4
X157.2Y-41.2
X157.2Y-76.4
X157.2Y-77.2
X157.2Y-78.0
X158.0Y-40.4
X158.0Y-41.2
X158.0Y-76.4
X158.0Y-77.2
X158.0Y-78.0
X158.8Y-40.4
X158.8Y-41.2
X158.8Y-42.8
X158.8Y-76.4
X158.8Y-77.2
X158.8Y-78.0
X159.6Y-40.4
X159.6Y-41.2
X159.6Y-42.8
X159.6Y-42.8
X159.6Y-76.4
X159.6Y-77.2
X159.6Y-78.0
X160.0Y-10.0
X160.0Y-25.0
X160.0Y-100.0
X160.4Y-40.4
X160.4Y-41.2
X160.4Y-42.8
X160.4Y-76.4
X160.4Y-77.2
X160.4Y-78.0
X161.2Y-40.4
X161.2Y-41.2
X161.2Y-76.4
X161.2Y-77.2
X161.2Y-78.0
X162.0Y-40.4
X162.0Y-41.2
X162.0Y-76.4
X162.0Y-77.2
X162.0Y-78.0
X162.8Y-40.4
X162.8Y-41.2
X162.8Y-76.4
X162.8Y-77.2
X162.8Y-78.0
X163.6Y-40.4
X163.6Y-41.2
X163.6Y-76.4
X163.6Y-77.2
X163.6Y-78.0
X164.4Y-40.4
X164.4Y-41.2
X164.4Y-76.4
X164.4Y-77.2
X164.4Y-78.0
X165.2Y-40.4
X165.2Y-41.2
X165.2Y-76.4
X165.2Y-77.2
X165.2Y-78.0
X166.0Y-40.4
X166.0Y-41.2
X166.0Y-76.4
X166.0Y-77.2
X166.0Y-78.0
X166.8Y-40.4
X166.8Y-41.2
X166.8Y-43.6
X166.8Y-76.4
X166.8Y-77.2
X166.8Y-78.0
X167.6Y-40.4
X167.6Y-41.2
X167.6Y-76.4
X167.6Y-77.2
X167.6Y-78.0
X168.4Y-40.4
X168.4Y-41.2
X168.4Y-76.4
X168.4Y-77.2
X168.4Y-78.0
X169.2Y-40.4
X169.2Y-41.2
X169.2Y-76.4
X169.2Y-77.2
X169.2Y-78.0
X170.0Y-40.4
X170.0Y-41.2
X170.0Y-76.4
X170.0Y-77.2
X170.0Y-78.0
X170.8Y-40.4
X170.8Y-41.2
X170.8Y-76.4
X170.8Y-77.2
X170.8Y-78.0
X171.6Y-40.4
X171.6Y-41.2
X171.6Y-76.4
X171.6Y-77.2
X171.6Y-78.0
X172.4Y-40.4
X172.4Y-41.2
X172.4Y-76.4
X172.4Y-77.2
X172.4Y-78.0
X173.2Y-40.4
X173.2Y-41.2
X173.2Y-76.4
X173.2Y-77.2
X173.2Y-78.0
X174.0Y-40.4
X174.0Y-41.2
X174.0Y-76.4
X174.0Y-77.2
X174.0Y-78.0
X174.8Y-40.4
X174.8Y-41.2
X174.8Y-76.4
X174.8Y-77.2
X174.8Y-78.0
X175.0Y-10.0
X175.0Y-25.0
X175.0Y-100.0
X175.0Y-115.0
X175.0Y-130.0
X175.6Y-40.4
X175.6Y-41.2
X175.6Y-76.4
X175.6Y-77.2
X176.4Y-40.4
X176.4Y-41.2
X176.4Y-50.0
X176.4Y-76.4
X176.4Y-77.2
X177.2Y-40.4
X177.2Y-41.2
X177.2Y-56.4
X177.2Y-58.0
X177.2Y-76.4
X177.2Y-77.2
X178.0Y-40.4
X178.0Y-41.2
X178.0Y-45.2
X178.0Y-76.4
X178.0Y-77.2
X178.8Y-40.4
X178.8Y-41.2
X178.8Y-76.4
X178.8Y-77.2
X179.6Y-40.4
X179.6Y-41.2
X179.6Y-76.4
X179.6Y-77.2
X190.0Y-10.0
X190.0Y-25.0
X190.0Y-40.0
X190.0Y-55.0
X190.0Y-70.0
X190.0Y-85.0
X190.0Y-100.0
X190.0Y-115.0
X190.0Y-130.0
X205.0Y-10.0
X205.0Y-25.0
X205.0Y-40.0
X205.0Y-55.0
X205.0Y-70.0
X205.0Y-85.0
X205.0Y-100.0
X205.0Y-115.0
X205.0Y-130.0
X313.062Y-238.0
X317.938Y-238.0
M30
