M48
; DRILL file KiCad 10.0.3 date 2026-07-15T16:52:14
; FORMAT={-:-/ absolute / metric / decimal}
; #@! TF.CreationDate,2026-07-15T16:52:14-07:00
; #@! TF.GenerationSoftware,Kicad,Pcbnew,10.0.3
; #@! TF.FileFunction,MixedPlating,1,16
FMAT,2
METRIC
; #@! TA.AperFunction,Plated,PTH,ViaDrill
T1C0.300
; #@! TA.AperFunction,NonPlated,NPTH,ComponentDrill
T2C3.200
%
G90
G05
T1
X10.0Y-10.0
X10.0Y-25.0
X10.0Y-40.0
X10.0Y-55.0
X10.0Y-70.0
X10.0Y-85.0
X10.0Y-100.0
X10.0Y-115.0
X10.0Y-130.0
X25.0Y-10.0
X25.0Y-25.0
X25.0Y-40.0
X25.0Y-55.0
X25.0Y-70.0
X25.0Y-85.0
X25.0Y-100.0
X25.0Y-115.0
X25.0Y-130.0
X40.0Y-10.0
X40.0Y-25.0
X40.0Y-40.0
X40.0Y-55.0
X40.0Y-70.0
X40.0Y-85.0
X40.0Y-100.0
X40.0Y-115.0
X40.0Y-130.0
X50.4Y-45.2
X50.4Y-46.8
X50.4Y-48.4
X50.4Y-50.0
X50.4Y-51.6
X50.4Y-53.2
X50.4Y-54.8
X50.4Y-56.4
X50.4Y-58.0
X50.4Y-59.6
X50.4Y-61.2
X50.4Y-62.8
X50.4Y-64.4
X50.4Y-66.0
X50.4Y-67.6
X50.4Y-69.2
X50.4Y-70.8
X50.4Y-72.4
X50.4Y-74.0
X50.4Y-75.6
X50.4Y-76.4
X50.4Y-77.2
X50.4Y-78.0
X51.2Y-44.4
X51.2Y-46.0
X51.2Y-47.6
X51.2Y-49.2
X51.2Y-50.8
X51.2Y-52.4
X51.2Y-54.0
X51.2Y-55.6
X51.2Y-57.2
X51.2Y-58.8
X51.2Y-60.4
X51.2Y-62.0
X51.2Y-63.6
X51.2Y-65.2
X51.2Y-66.8
X51.2Y-68.4
X51.2Y-70.0
X51.2Y-71.6
X51.2Y-73.2
X51.2Y-74.8
X51.2Y-76.4
X51.2Y-77.2
X51.2Y-78.0
X52.0Y-45.2
X52.0Y-46.8
X52.0Y-48.4
X52.0Y-50.0
X52.0Y-51.6
X52.0Y-53.2
X52.0Y-54.8
X52.0Y-56.4
X52.0Y-58.0
X52.0Y-59.6
X52.0Y-61.2
X52.0Y-62.8
X52.0Y-64.4
X52.0Y-66.0
X52.0Y-67.6
X52.0Y-69.2
X52.0Y-70.8
X52.0Y-72.4
X52.0Y-74.0
X52.0Y-75.6
X52.0Y-76.4
X52.0Y-77.2
X52.0Y-78.0
X52.8Y-44.4
X52.8Y-46.0
X52.8Y-47.6
X52.8Y-49.2
X52.8Y-50.8
X52.8Y-52.4
X52.8Y-54.0
X52.8Y-55.6
X52.8Y-57.2
X52.8Y-58.8
X52.8Y-60.4
X52.8Y-62.0
X52.8Y-63.6
X52.8Y-65.2
X52.8Y-66.8
X52.8Y-68.4
X52.8Y-70.0
X52.8Y-71.6
X52.8Y-73.2
X52.8Y-74.8
X52.8Y-76.4
X52.8Y-77.2
X52.8Y-78.0
X53.6Y-45.2
X53.6Y-46.8
X53.6Y-48.4
X53.6Y-50.0
X53.6Y-51.6
X53.6Y-53.2
X53.6Y-54.8
X53.6Y-56.4
X53.6Y-58.0
X53.6Y-59.6
X53.6Y-61.2
X53.6Y-62.8
X53.6Y-64.4
X53.6Y-66.0
X53.6Y-67.6
X53.6Y-69.2
X53.6Y-70.8
X53.6Y-72.4
X53.6Y-74.0
X53.6Y-75.6
X53.6Y-76.4
X53.6Y-77.2
X53.6Y-78.0
X54.4Y-43.6
X54.4Y-44.4
X54.4Y-46.0
X54.4Y-47.6
X54.4Y-49.2
X54.4Y-50.8
X54.4Y-52.4
X54.4Y-54.0
X54.4Y-55.6
X54.4Y-57.2
X54.4Y-58.8
X54.4Y-60.4
X54.4Y-62.0
X54.4Y-63.6
X54.4Y-65.2
X54.4Y-66.8
X54.4Y-68.4
X54.4Y-70.0
X54.4Y-71.6
X54.4Y-73.2
X54.4Y-74.8
X54.4Y-76.4
X54.4Y-77.2
X54.4Y-78.0
X55.0Y-10.0
X55.0Y-25.0
X55.0Y-100.0
X55.0Y-115.0
X55.0Y-130.0
X55.2Y-40.4
X55.2Y-41.2
X55.2Y-42.0
X55.2Y-43.6
X55.2Y-45.2
X55.2Y-46.8
X55.2Y-48.4
X55.2Y-50.0
X55.2Y-51.6
X55.2Y-53.2
X55.2Y-54.8
X55.2Y-56.4
X55.2Y-58.0
X55.2Y-59.6
X55.2Y-61.2
X55.2Y-62.8
X55.2Y-64.4
X55.2Y-66.0
X55.2Y-67.6
X55.2Y-69.2
X55.2Y-70.8
X55.2Y-72.4
X55.2Y-74.0
X55.2Y-75.6
X55.2Y-76.4
X55.2Y-77.2
X55.2Y-78.0
X56.0Y-40.4
X56.0Y-41.2
X56.0Y-42.0
X56.0Y-44.4
X56.0Y-46.0
X56.0Y-47.6
X56.0Y-49.2
X56.0Y-50.8
X56.0Y-52.4
X56.0Y-54.0
X56.0Y-55.6
X56.0Y-57.2
X56.0Y-58.8
X56.0Y-60.4
X56.0Y-62.0
X56.0Y-63.6
X56.0Y-65.2
X56.0Y-66.8
X56.0Y-68.4
X56.0Y-70.0
X56.0Y-71.6
X56.0Y-73.2
X56.0Y-74.8
X56.0Y-76.4
X56.0Y-77.2
X56.0Y-78.0
X56.8Y-40.4
X56.8Y-41.2
X56.8Y-42.0
X56.8Y-45.2
X56.8Y-46.8
X56.8Y-48.4
X56.8Y-50.0
X56.8Y-51.6
X56.8Y-53.2
X56.8Y-54.8
X56.8Y-56.4
X56.8Y-58.0
X56.8Y-59.6
X56.8Y-61.2
X56.8Y-62.8
X56.8Y-64.4
X56.8Y-66.0
X56.8Y-67.6
X56.8Y-69.2
X56.8Y-70.8
X56.8Y-72.4
X56.8Y-74.0
X56.8Y-75.6
X56.8Y-76.4
X56.8Y-77.2
X56.8Y-78.0
X57.6Y-40.4
X57.6Y-41.2
X57.6Y-42.0
X57.6Y-43.6
X57.6Y-44.4
X57.6Y-46.0
X57.6Y-47.6
X57.6Y-49.2
X57.6Y-50.8
X57.6Y-52.4
X57.6Y-54.0
X57.6Y-55.6
X57.6Y-57.2
X57.6Y-58.8
X57.6Y-60.4
X57.6Y-62.0
X57.6Y-63.6
X57.6Y-65.2
X57.6Y-66.8
X57.6Y-68.4
X57.6Y-70.0
X57.6Y-71.6
X57.6Y-73.2
X57.6Y-74.8
X57.6Y-76.4
X57.6Y-77.2
X57.6Y-78.0
X58.4Y-40.4
X58.4Y-41.2
X58.4Y-42.0
X58.4Y-43.6
X58.4Y-45.2
X58.4Y-46.8
X58.4Y-47.6
X58.4Y-48.4
X58.4Y-49.2
X58.4Y-50.0
X58.4Y-50.8
X58.4Y-51.6
X58.4Y-52.4
X58.4Y-53.2
X58.4Y-54.0
X58.4Y-54.8
X58.4Y-55.6
X58.4Y-56.4
X58.4Y-57.2
X58.4Y-58.0
X58.4Y-58.8
X58.4Y-59.6
X58.4Y-60.4
X58.4Y-61.2
X58.4Y-62.0
X58.4Y-62.8
X58.4Y-64.4
X58.4Y-66.0
X58.4Y-67.6
X58.4Y-69.2
X58.4Y-70.8
X58.4Y-72.4
X58.4Y-74.0
X58.4Y-75.6
X58.4Y-76.4
X58.4Y-77.2
X58.4Y-78.0
X59.2Y-40.4
X59.2Y-41.2
X59.2Y-42.0
X59.2Y-44.4
X59.2Y-46.0
X59.2Y-47.6
X59.2Y-48.4
X59.2Y-49.2
X59.2Y-50.0
X59.2Y-50.8
X59.2Y-51.6
X59.2Y-52.4
X59.2Y-53.2
X59.2Y-54.0
X59.2Y-54.8
X59.2Y-55.6
X59.2Y-56.4
X59.2Y-57.2
X59.2Y-58.0
X59.2Y-58.8
X59.2Y-59.6
X59.2Y-60.4
X59.2Y-61.2
X59.2Y-62.0
X59.2Y-62.8
X59.2Y-63.6
X59.2Y-65.2
X59.2Y-66.8
X59.2Y-68.4
X59.2Y-70.0
X59.2Y-71.6
X59.2Y-73.2
X59.2Y-74.8
X59.2Y-76.4
X59.2Y-77.2
X59.2Y-78.0
X60.0Y-40.4
X60.0Y-41.2
X60.0Y-42.0
X60.0Y-45.2
X60.0Y-46.8
X60.0Y-47.6
X60.0Y-48.4
X60.0Y-49.2
X60.0Y-50.0
X60.0Y-50.8
X60.0Y-51.6
X60.0Y-52.4
X60.0Y-53.2
X60.0Y-54.0
X60.0Y-54.8
X60.0Y-55.6
X60.0Y-56.4
X60.0Y-57.2
X60.0Y-58.0
X60.0Y-58.8
X60.0Y-59.6
X60.0Y-60.4
X60.0Y-61.2
X60.0Y-62.0
X60.0Y-62.8
X60.0Y-64.4
X60.0Y-66.0
X60.0Y-67.6
X60.0Y-69.2
X60.0Y-70.8
X60.0Y-72.4
X60.0Y-74.0
X60.0Y-75.6
X60.0Y-76.4
X60.0Y-77.2
X60.0Y-78.0
X60.8Y-40.4
X60.8Y-41.2
X60.8Y-42.0
X60.8Y-44.4
X60.8Y-46.0
X60.8Y-47.6
X60.8Y-48.4
X60.8Y-49.2
X60.8Y-50.0
X60.8Y-50.8
X60.8Y-51.6
X60.8Y-52.4
X60.8Y-53.2
X60.8Y-54.0
X60.8Y-54.8
X60.8Y-55.6
X60.8Y-56.4
X60.8Y-57.2
X60.8Y-58.0
X60.8Y-58.8
X60.8Y-59.6
X60.8Y-60.4
X60.8Y-61.2
X60.8Y-62.0
X60.8Y-62.8
X60.8Y-63.6
X60.8Y-65.2
X60.8Y-66.8
X60.8Y-68.4
X60.8Y-70.0
X60.8Y-71.6
X60.8Y-73.2
X60.8Y-74.8
X60.8Y-76.4
X60.8Y-77.2
X60.8Y-78.0
X61.6Y-21.0
X61.6Y-40.4
X61.6Y-41.2
X61.6Y-45.2
X61.6Y-46.8
X61.6Y-47.6
X61.6Y-48.4
X61.6Y-49.2
X61.6Y-50.0
X61.6Y-50.8
X61.6Y-51.6
X61.6Y-52.4
X61.6Y-53.2
X61.6Y-54.0
X61.6Y-54.8
X61.6Y-55.6
X61.6Y-56.4
X61.6Y-57.2
X61.6Y-58.0
X61.6Y-58.8
X61.6Y-59.6
X61.6Y-60.4
X61.6Y-61.2
X61.6Y-62.0
X61.6Y-62.8
X61.6Y-64.4
X61.6Y-66.0
X61.6Y-67.6
X61.6Y-69.2
X61.6Y-70.8
X61.6Y-72.4
X61.6Y-74.0
X61.6Y-75.6
X61.6Y-76.4
X61.6Y-77.2
X61.6Y-78.0
X62.4Y-40.4
X62.4Y-41.2
X62.4Y-44.4
X62.4Y-46.0
X62.4Y-47.6
X62.4Y-48.4
X62.4Y-49.2
X62.4Y-50.0
X62.4Y-50.8
X62.4Y-51.6
X62.4Y-52.4
X62.4Y-53.2
X62.4Y-54.0
X62.4Y-54.8
X62.4Y-55.6
X62.4Y-56.4
X62.4Y-57.2
X62.4Y-58.0
X62.4Y-58.8
X62.4Y-59.6
X62.4Y-60.4
X62.4Y-61.2
X62.4Y-62.0
X62.4Y-62.8
X62.4Y-63.6
X62.4Y-65.2
X62.4Y-66.8
X62.4Y-68.4
X62.4Y-70.0
X62.4Y-71.6
X62.4Y-73.2
X62.4Y-74.8
X62.4Y-76.4
X62.4Y-77.2
X62.4Y-78.0
X62.688Y-122.0
X63.062Y-118.0
X63.062Y-122.0
X63.2Y-40.4
X63.2Y-41.2
X63.2Y-45.2
X63.2Y-46.8
X63.2Y-47.6
X63.2Y-48.4
X63.2Y-49.2
X63.2Y-50.0
X63.2Y-50.8
X63.2Y-51.6
X63.2Y-52.4
X63.2Y-53.2
X63.2Y-54.0
X63.2Y-54.8
X63.2Y-55.6
X63.2Y-56.4
X63.2Y-57.2
X63.2Y-58.0
X63.2Y-58.8
X63.2Y-59.6
X63.2Y-60.4
X63.2Y-61.2
X63.2Y-62.0
X63.2Y-62.8
X63.2Y-64.4
X63.2Y-66.0
X63.2Y-67.6
X63.2Y-69.2
X63.2Y-70.8
X63.2Y-72.4
X63.2Y-74.0
X63.2Y-75.6
X63.2Y-76.4
X63.2Y-77.2
X63.2Y-78.0
X63.438Y-122.0
X63.812Y-122.0
X64.0Y-40.4
X64.0Y-41.2
X64.0Y-44.4
X64.0Y-46.0
X64.0Y-47.6
X64.0Y-48.4
X64.0Y-49.2
X64.0Y-50.0
X64.0Y-50.8
X64.0Y-51.6
X64.0Y-52.4
X64.0Y-53.2
X64.0Y-54.0
X64.0Y-54.8
X64.0Y-55.6
X64.0Y-56.4
X64.0Y-57.2
X64.0Y-58.0
X64.0Y-58.8
X64.0Y-59.6
X64.0Y-60.4
X64.0Y-61.2
X64.0Y-62.0
X64.0Y-62.8
X64.0Y-63.6
X64.0Y-65.2
X64.0Y-66.8
X64.0Y-68.4
X64.0Y-70.0
X64.0Y-71.6
X64.0Y-73.2
X64.0Y-74.8
X64.0Y-76.4
X64.0Y-77.2
X64.0Y-78.0
X64.188Y-122.0
X64.562Y-122.0
X64.8Y-40.4
X64.8Y-41.2
X64.8Y-45.2
X64.8Y-46.8
X64.8Y-47.6
X64.8Y-48.4
X64.8Y-49.2
X64.8Y-50.0
X64.8Y-50.8
X64.8Y-51.6
X64.8Y-52.4
X64.8Y-53.2
X64.8Y-54.0
X64.8Y-54.8
X64.8Y-55.6
X64.8Y-56.4
X64.8Y-57.2
X64.8Y-58.0
X64.8Y-58.8
X64.8Y-59.6
X64.8Y-60.4
X64.8Y-61.2
X64.8Y-62.0
X64.8Y-62.8
X64.8Y-64.4
X64.8Y-66.0
X64.8Y-67.6
X64.8Y-69.2
X64.8Y-70.8
X64.8Y-72.4
X64.8Y-74.0
X64.8Y-75.6
X64.8Y-76.4
X64.8Y-77.2
X64.8Y-78.0
X64.938Y-122.0
X65.312Y-122.0
X65.6Y-40.4
X65.6Y-41.2
X65.6Y-44.4
X65.6Y-46.0
X65.6Y-47.6
X65.6Y-48.4
X65.6Y-49.2
X65.6Y-50.0
X65.6Y-50.8
X65.6Y-51.6
X65.6Y-52.4
X65.6Y-53.2
X65.6Y-54.0
X65.6Y-54.8
X65.6Y-55.6
X65.6Y-56.4
X65.6Y-57.2
X65.6Y-58.0
X65.6Y-58.8
X65.6Y-59.6
X65.6Y-60.4
X65.6Y-61.2
X65.6Y-62.0
X65.6Y-62.8
X65.6Y-63.6
X65.6Y-65.2
X65.6Y-66.8
X65.6Y-68.4
X65.6Y-70.0
X65.6Y-71.6
X65.6Y-73.2
X65.6Y-74.8
X65.6Y-76.4
X65.6Y-77.2
X65.6Y-78.0
X65.688Y-122.0
X66.062Y-122.0
X66.4Y-40.4
X66.4Y-41.2
X66.4Y-45.2
X66.4Y-46.8
X66.4Y-47.6
X66.4Y-48.4
X66.4Y-49.2
X66.4Y-50.0
X66.4Y-50.8
X66.4Y-51.6
X66.4Y-52.4
X66.4Y-53.2
X66.4Y-54.0
X66.4Y-54.8
X66.4Y-55.6
X66.4Y-56.4
X66.4Y-57.2
X66.4Y-58.0
X66.4Y-58.8
X66.4Y-59.6
X66.4Y-60.4
X66.4Y-61.2
X66.4Y-62.0
X66.4Y-62.8
X66.4Y-64.4
X66.4Y-66.0
X66.4Y-67.6
X66.4Y-69.2
X66.4Y-70.8
X66.4Y-72.4
X66.4Y-74.0
X66.4Y-75.6
X66.4Y-76.4
X66.4Y-77.2
X66.4Y-78.0
X66.438Y-122.0
X66.812Y-122.0
X67.188Y-122.0
X67.2Y-40.4
X67.2Y-41.2
X67.2Y-44.4
X67.2Y-46.0
X67.2Y-47.6
X67.2Y-48.4
X67.2Y-49.2
X67.2Y-50.0
X67.2Y-50.8
X67.2Y-51.6
X67.2Y-52.4
X67.2Y-53.2
X67.2Y-54.0
X67.2Y-54.8
X67.2Y-55.6
X67.2Y-56.4
X67.2Y-57.2
X67.2Y-58.0
X67.2Y-58.8
X67.2Y-59.6
X67.2Y-60.4
X67.2Y-61.2
X67.2Y-62.0
X67.2Y-62.8
X67.2Y-63.6
X67.2Y-65.2
X67.2Y-66.8
X67.2Y-68.4
X67.2Y-70.0
X67.2Y-71.6
X67.2Y-73.2
X67.2Y-74.8
X67.2Y-76.4
X67.2Y-77.2
X67.2Y-78.0
X67.562Y-122.0
X67.938Y-118.0
X67.938Y-122.0
X68.0Y-40.4
X68.0Y-41.2
X68.0Y-45.2
X68.0Y-46.8
X68.0Y-47.6
X68.0Y-48.4
X68.0Y-49.2
X68.0Y-50.0
X68.0Y-50.8
X68.0Y-51.6
X68.0Y-52.4
X68.0Y-53.2
X68.0Y-54.0
X68.0Y-54.8
X68.0Y-55.6
X68.0Y-56.4
X68.0Y-57.2
X68.0Y-58.0
X68.0Y-58.8
X68.0Y-59.6
X68.0Y-60.4
X68.0Y-61.2
X68.0Y-62.0
X68.0Y-62.8
X68.0Y-64.4
X68.0Y-66.0
X68.0Y-67.6
X68.0Y-69.2
X68.0Y-70.8
X68.0Y-72.4
X68.0Y-74.0
X68.0Y-75.6
X68.0Y-76.4
X68.0Y-77.2
X68.0Y-78.0
X68.312Y-122.0
X68.688Y-122.0
X68.8Y-40.4
X68.8Y-41.2
X68.8Y-42.8
X68.8Y-44.4
X68.8Y-46.0
X68.8Y-47.6
X68.8Y-48.4
X68.8Y-49.2
X68.8Y-50.0
X68.8Y-50.8
X68.8Y-51.6
X68.8Y-52.4
X68.8Y-53.2
X68.8Y-54.0
X68.8Y-54.8
X68.8Y-55.6
X68.8Y-56.4
X68.8Y-57.2
X68.8Y-58.0
X68.8Y-58.8
X68.8Y-60.4
X68.8Y-61.2
X68.8Y-62.0
X68.8Y-62.8
X68.8Y-63.6
X68.8Y-65.2
X68.8Y-66.8
X68.8Y-68.4
X68.8Y-70.0
X68.8Y-71.6
X68.8Y-73.2
X68.8Y-74.8
X68.8Y-76.4
X68.8Y-77.2
X68.8Y-78.0
X68.8Y-90.0
X69.062Y-122.0
X69.438Y-122.0
X69.6Y-40.4
X69.6Y-41.2
X69.6Y-42.8
X69.6Y-42.8
X69.6Y-45.2
X69.6Y-46.8
X69.6Y-47.6
X69.6Y-48.4
X69.6Y-49.2
X69.6Y-50.0
X69.6Y-50.8
X69.6Y-51.6
X69.6Y-52.4
X69.6Y-53.2
X69.6Y-54.0
X69.6Y-54.8
X69.6Y-55.6
X69.6Y-56.4
X69.6Y-57.2
X69.6Y-58.0
X69.6Y-58.8
X69.6Y-60.4
X69.6Y-61.2
X69.6Y-62.0
X69.6Y-62.8
X69.6Y-64.4
X69.6Y-66.0
X69.6Y-67.6
X69.6Y-69.2
X69.6Y-70.8
X69.6Y-72.4
X69.6Y-74.0
X69.6Y-75.6
X69.6Y-76.4
X69.6Y-77.2
X69.6Y-78.0
X69.812Y-122.0
X70.0Y-10.0
X70.0Y-25.0
X70.0Y-100.0
X70.188Y-122.0
X70.4Y-40.4
X70.4Y-41.2
X70.4Y-42.8
X70.4Y-44.4
X70.4Y-46.0
X70.4Y-47.6
X70.4Y-48.4
X70.4Y-49.2
X70.4Y-50.0
X70.4Y-50.8
X70.4Y-51.6
X70.4Y-52.4
X70.4Y-53.2
X70.4Y-54.0
X70.4Y-54.8
X70.4Y-55.6
X70.4Y-56.4
X70.4Y-57.2
X70.4Y-58.0
X70.4Y-58.8
X70.4Y-60.4
X70.4Y-61.2
X70.4Y-62.0
X70.4Y-62.8
X70.4Y-63.6
X70.4Y-65.2
X70.4Y-66.8
X70.4Y-68.4
X70.4Y-70.0
X70.4Y-71.6
X70.4Y-73.2
X70.4Y-74.8
X70.4Y-76.4
X70.4Y-77.2
X70.4Y-78.0
X70.562Y-122.0
X70.938Y-122.0
X71.2Y-40.4
X71.2Y-41.2
X71.2Y-45.2
X71.2Y-46.8
X71.2Y-47.6
X71.2Y-48.4
X71.2Y-49.2
X71.2Y-50.0
X71.2Y-50.8
X71.2Y-51.6
X71.2Y-52.4
X71.2Y-53.2
X71.2Y-54.0
X71.2Y-54.8
X71.2Y-55.6
X71.2Y-56.4
X71.2Y-57.2
X71.2Y-58.0
X71.2Y-58.8
X71.2Y-60.4
X71.2Y-61.2
X71.2Y-62.0
X71.2Y-62.8
X71.2Y-64.4
X71.2Y-66.0
X71.2Y-67.6
X71.2Y-69.2
X71.2Y-70.8
X71.2Y-72.4
X71.2Y-74.0
X71.2Y-75.6
X71.2Y-76.4
X71.2Y-77.2
X71.2Y-78.0
X71.312Y-122.0
X71.688Y-122.0
X72.0Y-40.4
X72.0Y-41.2
X72.0Y-44.4
X72.0Y-46.0
X72.0Y-47.6
X72.0Y-48.4
X72.0Y-49.2
X72.0Y-50.0
X72.0Y-50.8
X72.0Y-51.6
X72.0Y-52.4
X72.0Y-53.2
X72.0Y-54.0
X72.0Y-54.8
X72.0Y-55.6
X72.0Y-56.4
X72.0Y-57.2
X72.0Y-58.0
X72.0Y-58.8
X72.0Y-59.6
X72.0Y-60.4
X72.0Y-61.2
X72.0Y-62.0
X72.0Y-62.8
X72.0Y-63.6
X72.0Y-65.2
X72.0Y-66.8
X72.0Y-68.4
X72.0Y-70.0
X72.0Y-71.6
X72.0Y-73.2
X72.0Y-74.8
X72.0Y-76.4
X72.0Y-77.2
X72.0Y-78.0
X72.062Y-122.0
X72.438Y-122.0
X72.8Y-40.4
X72.8Y-41.2
X72.8Y-45.2
X72.8Y-46.8
X72.8Y-47.6
X72.8Y-48.4
X72.8Y-49.2
X72.8Y-50.0
X72.8Y-50.8
X72.8Y-51.6
X72.8Y-52.4
X72.8Y-53.2
X72.8Y-54.0
X72.8Y-54.8
X72.8Y-55.6
X72.8Y-56.4
X72.8Y-57.2
X72.8Y-58.0
X72.8Y-58.8
X72.8Y-59.6
X72.8Y-60.4
X72.8Y-61.2
X72.8Y-62.0
X72.8Y-62.8
X72.8Y-64.4
X72.8Y-66.0
X72.8Y-67.6
X72.8Y-69.2
X72.8Y-70.8
X72.8Y-72.4
X72.8Y-74.0
X72.8Y-75.6
X72.8Y-76.4
X72.8Y-77.2
X72.8Y-78.0
X72.812Y-122.0
X73.188Y-122.0
X73.562Y-122.0
X73.6Y-40.4
X73.6Y-41.2
X73.6Y-44.4
X73.6Y-46.0
X73.6Y-47.6
X73.6Y-48.4
X73.6Y-49.2
X73.6Y-50.0
X73.6Y-50.8
X73.6Y-51.6
X73.6Y-52.4
X73.6Y-53.2
X73.6Y-54.0
X73.6Y-54.8
X73.6Y-55.6
X73.6Y-56.4
X73.6Y-57.2
X73.6Y-58.0
X73.6Y-58.8
X73.6Y-59.6
X73.6Y-60.4
X73.6Y-61.2
X73.6Y-62.0
X73.6Y-62.8
X73.6Y-63.6
X73.6Y-65.2
X73.6Y-66.8
X73.6Y-68.4
X73.6Y-70.0
X73.6Y-71.6
X73.6Y-73.2
X73.6Y-74.8
X73.6Y-76.4
X73.6Y-77.2
X73.6Y-78.0
X73.938Y-122.0
X74.312Y-122.0
X74.4Y-40.4
X74.4Y-41.2
X74.4Y-45.2
X74.4Y-46.8
X74.4Y-47.6
X74.4Y-48.4
X74.4Y-49.2
X74.4Y-50.0
X74.4Y-50.8
X74.4Y-51.6
X74.4Y-52.4
X74.4Y-53.2
X74.4Y-54.0
X74.4Y-54.8
X74.4Y-55.6
X74.4Y-56.4
X74.4Y-57.2
X74.4Y-58.0
X74.4Y-58.8
X74.4Y-59.6
X74.4Y-60.4
X74.4Y-61.2
X74.4Y-62.0
X74.4Y-62.8
X74.4Y-64.4
X74.4Y-66.0
X74.4Y-67.6
X74.4Y-69.2
X74.4Y-70.8
X74.4Y-72.4
X74.4Y-74.0
X74.4Y-75.6
X74.4Y-76.4
X74.4Y-77.2
X74.4Y-78.0
X74.688Y-122.0
X75.062Y-122.0
X75.2Y-40.4
X75.2Y-41.2
X75.2Y-44.4
X75.2Y-46.0
X75.2Y-47.6
X75.2Y-48.4
X75.2Y-49.2
X75.2Y-50.0
X75.2Y-50.8
X75.2Y-51.6
X75.2Y-52.4
X75.2Y-53.2
X75.2Y-54.0
X75.2Y-54.8
X75.2Y-55.6
X75.2Y-56.4
X75.2Y-57.2
X75.2Y-58.0
X75.2Y-58.8
X75.2Y-59.6
X75.2Y-60.4
X75.2Y-61.2
X75.2Y-62.0
X75.2Y-62.8
X75.2Y-63.6
X75.2Y-65.2
X75.2Y-66.8
X75.2Y-68.4
X75.2Y-70.0
X75.2Y-71.6
X75.2Y-73.2
X75.2Y-74.8
X75.2Y-76.4
X75.2Y-77.2
X75.2Y-78.0
X75.438Y-33.0
X75.438Y-122.0
X75.812Y-122.0
X76.0Y-40.4
X76.0Y-41.2
X76.0Y-45.2
X76.0Y-46.8
X76.0Y-47.6
X76.0Y-48.4
X76.0Y-49.2
X76.0Y-50.0
X76.0Y-50.8
X76.0Y-51.6
X76.0Y-52.4
X76.0Y-53.2
X76.0Y-54.0
X76.0Y-54.8
X76.0Y-55.6
X76.0Y-56.4
X76.0Y-57.2
X76.0Y-58.0
X76.0Y-58.8
X76.0Y-59.6
X76.0Y-60.4
X76.0Y-61.2
X76.0Y-62.0
X76.0Y-62.8
X76.0Y-64.4
X76.0Y-66.0
X76.0Y-67.6
X76.0Y-69.2
X76.0Y-70.8
X76.0Y-72.4
X76.0Y-74.0
X76.0Y-75.6
X76.0Y-76.4
X76.0Y-77.2
X76.0Y-78.0
X76.188Y-122.0
X76.562Y-122.0
X76.8Y-40.4
X76.8Y-41.2
X76.8Y-43.6
X76.8Y-44.4
X76.8Y-46.0
X76.8Y-47.6
X76.8Y-48.4
X76.8Y-49.2
X76.8Y-50.0
X76.8Y-50.8
X76.8Y-51.6
X76.8Y-52.4
X76.8Y-53.2
X76.8Y-54.0
X76.8Y-54.8
X76.8Y-55.6
X76.8Y-56.4
X76.8Y-57.2
X76.8Y-58.0
X76.8Y-58.8
X76.8Y-59.6
X76.8Y-60.4
X76.8Y-61.2
X76.8Y-62.0
X76.8Y-62.8
X76.8Y-63.6
X76.8Y-65.2
X76.8Y-66.8
X76.8Y-68.4
X76.8Y-70.0
X76.8Y-71.6
X76.8Y-73.2
X76.8Y-74.8
X76.8Y-76.4
X76.8Y-77.2
X76.8Y-78.0
X76.938Y-87.0
X76.938Y-122.0
X77.312Y-122.0
X77.6Y-40.4
X77.6Y-41.2
X77.6Y-43.6
X77.6Y-45.2
X77.6Y-46.8
X77.6Y-47.6
X77.6Y-48.4
X77.6Y-49.2
X77.6Y-50.0
X77.6Y-50.8
X77.6Y-51.6
X77.6Y-52.4
X77.6Y-53.2
X77.6Y-54.0
X77.6Y-54.8
X77.6Y-55.6
X77.6Y-56.4
X77.6Y-57.2
X77.6Y-58.0
X77.6Y-58.8
X77.6Y-59.6
X77.6Y-60.4
X77.6Y-61.2
X77.6Y-62.0
X77.6Y-62.8
X77.6Y-64.4
X77.6Y-66.0
X77.6Y-67.6
X77.6Y-69.2
X77.6Y-70.8
X77.6Y-72.4
X77.6Y-74.0
X77.6Y-75.6
X77.6Y-76.4
X77.6Y-77.2
X77.6Y-78.0
X78.4Y-40.4
X78.4Y-41.2
X78.4Y-44.4
X78.4Y-46.0
X78.4Y-47.6
X78.4Y-48.4
X78.4Y-49.2
X78.4Y-50.0
X78.4Y-50.8
X78.4Y-51.6
X78.4Y-52.4
X78.4Y-53.2
X78.4Y-54.0
X78.4Y-54.8
X78.4Y-55.6
X78.4Y-56.4
X78.4Y-57.2
X78.4Y-58.0
X78.4Y-58.8
X78.4Y-59.6
X78.4Y-60.4
X78.4Y-61.2
X78.4Y-62.0
X78.4Y-62.8
X78.4Y-63.6
X78.4Y-65.2
X78.4Y-66.8
X78.4Y-68.4
X78.4Y-70.0
X78.4Y-71.6
X78.4Y-73.2
X78.4Y-74.8
X78.4Y-76.4
X78.4Y-77.2
X78.4Y-78.0
X79.2Y-40.4
X79.2Y-41.2
X79.2Y-43.6
X79.2Y-45.2
X79.2Y-46.8
X79.2Y-47.6
X79.2Y-48.4
X79.2Y-49.2
X79.2Y-50.0
X79.2Y-50.8
X79.2Y-51.6
X79.2Y-52.4
X79.2Y-53.2
X79.2Y-54.0
X79.2Y-54.8
X79.2Y-55.6
X79.2Y-56.4
X79.2Y-57.2
X79.2Y-58.0
X79.2Y-58.8
X79.2Y-59.6
X79.2Y-60.4
X79.2Y-61.2
X79.2Y-62.0
X79.2Y-62.8
X79.2Y-64.4
X79.2Y-66.0
X79.2Y-67.6
X79.2Y-69.2
X79.2Y-70.8
X79.2Y-72.4
X79.2Y-74.0
X79.2Y-75.6
X79.2Y-76.4
X79.2Y-77.2
X79.2Y-78.0
X80.0Y-40.4
X80.0Y-41.2
X80.0Y-44.4
X80.0Y-46.0
X80.0Y-47.6
X80.0Y-48.4
X80.0Y-49.2
X80.0Y-50.0
X80.0Y-50.8
X80.0Y-51.6
X80.0Y-52.4
X80.0Y-53.2
X80.0Y-54.0
X80.0Y-54.8
X80.0Y-55.6
X80.0Y-56.4
X80.0Y-57.2
X80.0Y-58.0
X80.0Y-58.8
X80.0Y-59.6
X80.0Y-60.4
X80.0Y-61.2
X80.0Y-62.0
X80.0Y-63.6
X80.0Y-65.2
X80.0Y-66.8
X80.0Y-68.4
X80.0Y-70.0
X80.0Y-71.6
X80.0Y-73.2
X80.0Y-74.8
X80.0Y-76.4
X80.0Y-77.2
X80.0Y-78.0
X80.8Y-40.4
X80.8Y-41.2
X80.8Y-43.6
X80.8Y-45.2
X80.8Y-46.8
X80.8Y-47.6
X80.8Y-48.4
X80.8Y-49.2
X80.8Y-50.0
X80.8Y-50.8
X80.8Y-51.6
X80.8Y-52.4
X80.8Y-53.2
X80.8Y-54.0
X80.8Y-54.8
X80.8Y-55.6
X80.8Y-56.4
X80.8Y-57.2
X80.8Y-58.0
X80.8Y-58.8
X80.8Y-59.6
X80.8Y-60.4
X80.8Y-61.2
X80.8Y-62.0
X80.8Y-62.8
X80.8Y-64.4
X80.8Y-66.0
X80.8Y-67.6
X80.8Y-69.2
X80.8Y-70.8
X80.8Y-72.4
X80.8Y-74.0
X80.8Y-75.6
X80.8Y-76.4
X80.8Y-77.2
X80.8Y-78.0
X81.6Y-40.4
X81.6Y-41.2
X81.6Y-44.4
X81.6Y-46.0
X81.6Y-47.6
X81.6Y-48.4
X81.6Y-49.2
X81.6Y-50.0
X81.6Y-50.8
X81.6Y-51.6
X81.6Y-52.4
X81.6Y-53.2
X81.6Y-54.0
X81.6Y-54.8
X81.6Y-55.6
X81.6Y-56.4
X81.6Y-57.2
X81.6Y-58.0
X81.6Y-58.8
X81.6Y-59.6
X81.6Y-60.4
X81.6Y-61.2
X81.6Y-62.0
X81.6Y-63.6
X81.6Y-65.2
X81.6Y-66.8
X81.6Y-68.4
X81.6Y-70.0
X81.6Y-71.6
X81.6Y-73.2
X81.6Y-74.8
X81.6Y-76.4
X81.6Y-77.2
X81.6Y-78.0
X82.4Y-40.4
X82.4Y-41.2
X82.4Y-43.6
X82.4Y-45.2
X82.4Y-46.8
X82.4Y-47.6
X82.4Y-48.4
X82.4Y-49.2
X82.4Y-50.0
X82.4Y-50.8
X82.4Y-51.6
X82.4Y-52.4
X82.4Y-53.2
X82.4Y-54.0
X82.4Y-54.8
X82.4Y-55.6
X82.4Y-56.4
X82.4Y-57.2
X82.4Y-58.0
X82.4Y-58.8
X82.4Y-59.6
X82.4Y-60.4
X82.4Y-61.2
X82.4Y-62.0
X82.4Y-62.8
X82.4Y-64.4
X82.4Y-66.0
X82.4Y-67.6
X82.4Y-69.2
X82.4Y-70.8
X82.4Y-72.4
X82.4Y-74.0
X82.4Y-75.6
X82.4Y-76.4
X82.4Y-77.2
X82.4Y-78.0
X83.2Y-40.4
X83.2Y-41.2
X83.2Y-44.4
X83.2Y-46.0
X83.2Y-47.6
X83.2Y-49.2
X83.2Y-50.8
X83.2Y-52.4
X83.2Y-54.0
X83.2Y-55.6
X83.2Y-57.2
X83.2Y-58.8
X83.2Y-60.4
X83.2Y-62.0
X83.2Y-63.6
X83.2Y-65.2
X83.2Y-66.8
X83.2Y-68.4
X83.2Y-70.0
X83.2Y-71.6
X83.2Y-73.2
X83.2Y-74.8
X83.2Y-76.4
X83.2Y-77.2
X83.2Y-78.0
X84.0Y-40.4
X84.0Y-41.2
X84.0Y-43.6
X84.0Y-45.2
X84.0Y-46.8
X84.0Y-48.4
X84.0Y-50.0
X84.0Y-51.6
X84.0Y-53.2
X84.0Y-54.8
X84.0Y-56.4
X84.0Y-58.0
X84.0Y-59.6
X84.0Y-61.2
X84.0Y-62.8
X84.0Y-64.4
X84.0Y-66.0
X84.0Y-67.6
X84.0Y-69.2
X84.0Y-70.8
X84.0Y-72.4
X84.0Y-74.0
X84.0Y-75.6
X84.0Y-76.4
X84.0Y-77.2
X84.0Y-78.0
X84.8Y-40.4
X84.8Y-41.2
X84.8Y-44.4
X84.8Y-46.0
X84.8Y-47.6
X84.8Y-49.2
X84.8Y-50.8
X84.8Y-52.4
X84.8Y-54.0
X84.8Y-55.6
X84.8Y-57.2
X84.8Y-58.8
X84.8Y-60.4
X84.8Y-62.0
X84.8Y-63.6
X84.8Y-65.2
X84.8Y-66.8
X84.8Y-68.4
X84.8Y-70.0
X84.8Y-71.6
X84.8Y-73.2
X84.8Y-74.8
X84.8Y-76.4
X84.8Y-77.2
X84.8Y-78.0
X85.0Y-10.0
X85.0Y-25.0
X85.0Y-100.0
X85.0Y-115.0
X85.0Y-130.0
X85.6Y-40.4
X85.6Y-41.2
X85.6Y-61.2
X85.6Y-62.8
X85.6Y-64.4
X85.6Y-66.0
X85.6Y-67.6
X85.6Y-69.2
X85.6Y-70.8
X85.6Y-72.4
X85.6Y-74.0
X85.6Y-75.6
X85.6Y-76.4
X85.6Y-77.2
X86.4Y-18.0
X86.4Y-40.4
X86.4Y-41.2
X86.4Y-62.0
X86.4Y-63.6
X86.4Y-65.2
X86.4Y-66.8
X86.4Y-68.4
X86.4Y-70.0
X86.4Y-71.6
X86.4Y-73.2
X86.4Y-74.8
X86.4Y-76.4
X86.4Y-77.2
X86.4Y-78.0
X87.2Y-12.0
X87.2Y-15.0
X87.2Y-40.4
X87.2Y-41.2
X87.2Y-66.0
X87.2Y-67.6
X87.2Y-69.2
X87.2Y-70.8
X87.2Y-72.4
X87.2Y-74.0
X87.2Y-75.6
X87.2Y-76.4
X87.2Y-77.2
X88.0Y-24.0
X88.0Y-40.4
X88.0Y-41.2
X88.0Y-66.8
X88.0Y-68.4
X88.0Y-70.0
X88.0Y-71.6
X88.0Y-73.2
X88.0Y-74.8
X88.0Y-76.4
X88.0Y-77.2
X88.0Y-78.0
X88.8Y-40.4
X88.8Y-41.2
X88.8Y-66.0
X88.8Y-67.6
X88.8Y-69.2
X88.8Y-70.8
X88.8Y-72.4
X88.8Y-74.0
X88.8Y-75.6
X88.8Y-76.4
X88.8Y-77.2
X89.6Y-40.4
X89.6Y-41.2
X89.6Y-66.8
X89.6Y-68.4
X89.6Y-70.0
X89.6Y-71.6
X89.6Y-73.2
X89.6Y-74.8
X89.6Y-76.4
X89.6Y-77.2
X89.6Y-78.0
X100.0Y-10.0
X100.0Y-25.0
X100.0Y-40.0
X100.0Y-55.0
X100.0Y-70.0
X100.0Y-85.0
X100.0Y-100.0
X100.0Y-115.0
X100.0Y-130.0
X115.0Y-10.0
X115.0Y-25.0
X115.0Y-40.0
X115.0Y-55.0
X115.0Y-70.0
X115.0Y-85.0
X115.0Y-100.0
X115.0Y-115.0
X115.0Y-130.0
X130.0Y-10.0
X130.0Y-25.0
X130.0Y-40.0
X130.0Y-55.0
X130.0Y-70.0
X130.0Y-85.0
X130.0Y-100.0
X130.0Y-115.0
X130.0Y-130.0
X140.4Y-45.2
X140.4Y-46.8
X140.4Y-48.4
X140.4Y-50.0
X140.4Y-51.6
X140.4Y-53.2
X140.4Y-54.8
X140.4Y-56.4
X140.4Y-58.0
X140.4Y-59.6
X140.4Y-61.2
X140.4Y-62.8
X140.4Y-64.4
X140.4Y-66.0
X140.4Y-67.6
X140.4Y-69.2
X140.4Y-70.8
X140.4Y-72.4
X140.4Y-74.0
X140.4Y-75.6
X140.4Y-76.4
X140.4Y-77.2
X140.4Y-78.0
X141.2Y-44.4
X141.2Y-46.0
X141.2Y-47.6
X141.2Y-49.2
X141.2Y-50.8
X141.2Y-52.4
X141.2Y-54.0
X141.2Y-55.6
X141.2Y-57.2
X141.2Y-58.8
X141.2Y-60.4
X141.2Y-62.0
X141.2Y-63.6
X141.2Y-65.2
X141.2Y-66.8
X141.2Y-68.4
X141.2Y-70.0
X141.2Y-71.6
X141.2Y-73.2
X141.2Y-74.8
X141.2Y-76.4
X141.2Y-77.2
X141.2Y-78.0
X142.0Y-45.2
X142.0Y-46.8
X142.0Y-48.4
X142.0Y-50.0
X142.0Y-51.6
X142.0Y-53.2
X142.0Y-54.8
X142.0Y-56.4
X142.0Y-58.0
X142.0Y-59.6
X142.0Y-61.2
X142.0Y-62.8
X142.0Y-64.4
X142.0Y-66.0
X142.0Y-67.6
X142.0Y-69.2
X142.0Y-70.8
X142.0Y-72.4
X142.0Y-74.0
X142.0Y-75.6
X142.0Y-76.4
X142.0Y-77.2
X142.0Y-78.0
X142.8Y-44.4
X142.8Y-46.0
X142.8Y-47.6
X142.8Y-49.2
X142.8Y-50.8
X142.8Y-52.4
X142.8Y-54.0
X142.8Y-55.6
X142.8Y-57.2
X142.8Y-58.8
X142.8Y-60.4
X142.8Y-62.0
X142.8Y-63.6
X142.8Y-65.2
X142.8Y-66.8
X142.8Y-68.4
X142.8Y-70.0
X142.8Y-71.6
X142.8Y-73.2
X142.8Y-74.8
X142.8Y-76.4
X142.8Y-77.2
X142.8Y-78.0
X143.6Y-45.2
X143.6Y-46.8
X143.6Y-48.4
X143.6Y-50.0
X143.6Y-51.6
X143.6Y-53.2
X143.6Y-54.8
X143.6Y-56.4
X143.6Y-58.0
X143.6Y-59.6
X143.6Y-61.2
X143.6Y-62.8
X143.6Y-64.4
X143.6Y-66.0
X143.6Y-67.6
X143.6Y-69.2
X143.6Y-70.8
X143.6Y-72.4
X143.6Y-74.0
X143.6Y-75.6
X143.6Y-76.4
X143.6Y-77.2
X143.6Y-78.0
X144.4Y-43.6
X144.4Y-44.4
X144.4Y-46.0
X144.4Y-47.6
X144.4Y-49.2
X144.4Y-50.8
X144.4Y-52.4
X144.4Y-54.0
X144.4Y-55.6
X144.4Y-57.2
X144.4Y-58.8
X144.4Y-60.4
X144.4Y-62.0
X144.4Y-63.6
X144.4Y-65.2
X144.4Y-66.8
X144.4Y-68.4
X144.4Y-70.0
X144.4Y-71.6
X144.4Y-73.2
X144.4Y-74.8
X144.4Y-76.4
X144.4Y-77.2
X144.4Y-78.0
X145.0Y-10.0
X145.0Y-25.0
X145.0Y-100.0
X145.0Y-115.0
X145.0Y-130.0
X145.2Y-40.4
X145.2Y-41.2
X145.2Y-42.0
X145.2Y-43.6
X145.2Y-45.2
X145.2Y-46.8
X145.2Y-48.4
X145.2Y-50.0
X145.2Y-51.6
X145.2Y-53.2
X145.2Y-54.8
X145.2Y-56.4
X145.2Y-58.0
X145.2Y-59.6
X145.2Y-61.2
X145.2Y-62.8
X145.2Y-64.4
X145.2Y-66.0
X145.2Y-67.6
X145.2Y-69.2
X145.2Y-70.8
X145.2Y-72.4
X145.2Y-74.0
X145.2Y-75.6
X145.2Y-76.4
X145.2Y-77.2
X145.2Y-78.0
X146.0Y-40.4
X146.0Y-41.2
X146.0Y-42.0
X146.0Y-44.4
X146.0Y-46.0
X146.0Y-47.6
X146.0Y-49.2
X146.0Y-50.8
X146.0Y-52.4
X146.0Y-54.0
X146.0Y-55.6
X146.0Y-57.2
X146.0Y-58.8
X146.0Y-60.4
X146.0Y-62.0
X146.0Y-63.6
X146.0Y-65.2
X146.0Y-66.8
X146.0Y-68.4
X146.0Y-70.0
X146.0Y-71.6
X146.0Y-73.2
X146.0Y-74.8
X146.0Y-76.4
X146.0Y-77.2
X146.0Y-78.0
X146.8Y-40.4
X146.8Y-41.2
X146.8Y-42.0
X146.8Y-45.2
X146.8Y-46.8
X146.8Y-48.4
X146.8Y-50.0
X146.8Y-51.6
X146.8Y-53.2
X146.8Y-54.8
X146.8Y-56.4
X146.8Y-58.0
X146.8Y-59.6
X146.8Y-61.2
X146.8Y-62.8
X146.8Y-64.4
X146.8Y-66.0
X146.8Y-67.6
X146.8Y-69.2
X146.8Y-70.8
X146.8Y-72.4
X146.8Y-74.0
X146.8Y-75.6
X146.8Y-76.4
X146.8Y-77.2
X146.8Y-78.0
X147.6Y-40.4
X147.6Y-41.2
X147.6Y-42.0
X147.6Y-43.6
X147.6Y-44.4
X147.6Y-46.0
X147.6Y-47.6
X147.6Y-49.2
X147.6Y-50.8
X147.6Y-52.4
X147.6Y-54.0
X147.6Y-55.6
X147.6Y-57.2
X147.6Y-58.8
X147.6Y-60.4
X147.6Y-62.0
X147.6Y-63.6
X147.6Y-65.2
X147.6Y-66.8
X147.6Y-68.4
X147.6Y-70.0
X147.6Y-71.6
X147.6Y-73.2
X147.6Y-74.8
X147.6Y-76.4
X147.6Y-77.2
X147.6Y-78.0
X148.4Y-40.4
X148.4Y-41.2
X148.4Y-42.0
X148.4Y-43.6
X148.4Y-45.2
X148.4Y-46.8
X148.4Y-47.6
X148.4Y-48.4
X148.4Y-49.2
X148.4Y-50.0
X148.4Y-50.8
X148.4Y-51.6
X148.4Y-52.4
X148.4Y-53.2
X148.4Y-54.0
X148.4Y-54.8
X148.4Y-55.6
X148.4Y-56.4
X148.4Y-57.2
X148.4Y-58.0
X148.4Y-58.8
X148.4Y-59.6
X148.4Y-60.4
X148.4Y-61.2
X148.4Y-62.0
X148.4Y-62.8
X148.4Y-64.4
X148.4Y-66.0
X148.4Y-67.6
X148.4Y-69.2
X148.4Y-70.8
X148.4Y-72.4
X148.4Y-74.0
X148.4Y-75.6
X148.4Y-76.4
X148.4Y-77.2
X148.4Y-78.0
X149.2Y-40.4
X149.2Y-41.2
X149.2Y-42.0
X149.2Y-44.4
X149.2Y-46.0
X149.2Y-47.6
X149.2Y-48.4
X149.2Y-49.2
X149.2Y-50.0
X149.2Y-50.8
X149.2Y-51.6
X149.2Y-52.4
X149.2Y-53.2
X149.2Y-54.0
X149.2Y-54.8
X149.2Y-55.6
X149.2Y-56.4
X149.2Y-57.2
X149.2Y-58.0
X149.2Y-58.8
X149.2Y-59.6
X149.2Y-60.4
X149.2Y-61.2
X149.2Y-62.0
X149.2Y-62.8
X149.2Y-63.6
X149.2Y-65.2
X149.2Y-66.8
X149.2Y-68.4
X149.2Y-70.0
X149.2Y-71.6
X149.2Y-73.2
X149.2Y-74.8
X149.2Y-76.4
X149.2Y-77.2
X149.2Y-78.0
X150.0Y-40.4
X150.0Y-41.2
X150.0Y-42.0
X150.0Y-45.2
X150.0Y-46.8
X150.0Y-47.6
X150.0Y-48.4
X150.0Y-49.2
X150.0Y-50.0
X150.0Y-50.8
X150.0Y-51.6
X150.0Y-52.4
X150.0Y-53.2
X150.0Y-54.0
X150.0Y-54.8
X150.0Y-55.6
X150.0Y-56.4
X150.0Y-57.2
X150.0Y-58.0
X150.0Y-58.8
X150.0Y-59.6
X150.0Y-60.4
X150.0Y-61.2
X150.0Y-62.0
X150.0Y-62.8
X150.0Y-64.4
X150.0Y-66.0
X150.0Y-67.6
X150.0Y-69.2
X150.0Y-70.8
X150.0Y-72.4
X150.0Y-74.0
X150.0Y-75.6
X150.0Y-76.4
X150.0Y-77.2
X150.0Y-78.0
X150.8Y-40.4
X150.8Y-41.2
X150.8Y-42.0
X150.8Y-44.4
X150.8Y-46.0
X150.8Y-47.6
X150.8Y-48.4
X150.8Y-49.2
X150.8Y-50.0
X150.8Y-50.8
X150.8Y-51.6
X150.8Y-52.4
X150.8Y-53.2
X150.8Y-54.0
X150.8Y-54.8
X150.8Y-55.6
X150.8Y-56.4
X150.8Y-57.2
X150.8Y-58.0
X150.8Y-58.8
X150.8Y-59.6
X150.8Y-60.4
X150.8Y-61.2
X150.8Y-62.0
X150.8Y-62.8
X150.8Y-63.6
X150.8Y-65.2
X150.8Y-66.8
X150.8Y-68.4
X150.8Y-70.0
X150.8Y-71.6
X150.8Y-73.2
X150.8Y-74.8
X150.8Y-76.4
X150.8Y-77.2
X150.8Y-78.0
X151.6Y-21.0
X151.6Y-40.4
X151.6Y-41.2
X151.6Y-45.2
X151.6Y-46.8
X151.6Y-47.6
X151.6Y-48.4
X151.6Y-49.2
X151.6Y-50.0
X151.6Y-50.8
X151.6Y-51.6
X151.6Y-52.4
X151.6Y-53.2
X151.6Y-54.0
X151.6Y-54.8
X151.6Y-55.6
X151.6Y-56.4
X151.6Y-57.2
X151.6Y-58.0
X151.6Y-58.8
X151.6Y-59.6
X151.6Y-60.4
X151.6Y-61.2
X151.6Y-62.0
X151.6Y-62.8
X151.6Y-64.4
X151.6Y-66.0
X151.6Y-67.6
X151.6Y-69.2
X151.6Y-70.8
X151.6Y-72.4
X151.6Y-74.0
X151.6Y-75.6
X151.6Y-76.4
X151.6Y-77.2
X151.6Y-78.0
X152.4Y-40.4
X152.4Y-41.2
X152.4Y-44.4
X152.4Y-46.0
X152.4Y-47.6
X152.4Y-48.4
X152.4Y-49.2
X152.4Y-50.0
X152.4Y-50.8
X152.4Y-51.6
X152.4Y-52.4
X152.4Y-53.2
X152.4Y-54.0
X152.4Y-54.8
X152.4Y-55.6
X152.4Y-56.4
X152.4Y-57.2
X152.4Y-58.0
X152.4Y-58.8
X152.4Y-59.6
X152.4Y-60.4
X152.4Y-61.2
X152.4Y-62.0
X152.4Y-62.8
X152.4Y-63.6
X152.4Y-65.2
X152.4Y-66.8
X152.4Y-68.4
X152.4Y-70.0
X152.4Y-71.6
X152.4Y-73.2
X152.4Y-74.8
X152.4Y-76.4
X152.4Y-77.2
X152.4Y-78.0
X152.688Y-122.0
X153.062Y-118.0
X153.062Y-122.0
X153.2Y-40.4
X153.2Y-41.2
X153.2Y-45.2
X153.2Y-46.8
X153.2Y-47.6
X153.2Y-48.4
X153.2Y-49.2
X153.2Y-50.0
X153.2Y-50.8
X153.2Y-51.6
X153.2Y-52.4
X153.2Y-53.2
X153.2Y-54.0
X153.2Y-54.8
X153.2Y-55.6
X153.2Y-56.4
X153.2Y-57.2
X153.2Y-58.0
X153.2Y-58.8
X153.2Y-59.6
X153.2Y-60.4
X153.2Y-61.2
X153.2Y-62.0
X153.2Y-62.8
X153.2Y-64.4
X153.2Y-66.0
X153.2Y-67.6
X153.2Y-69.2
X153.2Y-70.8
X153.2Y-72.4
X153.2Y-74.0
X153.2Y-75.6
X153.2Y-76.4
X153.2Y-77.2
X153.2Y-78.0
X153.438Y-122.0
X153.812Y-122.0
X154.0Y-40.4
X154.0Y-41.2
X154.0Y-44.4
X154.0Y-46.0
X154.0Y-47.6
X154.0Y-48.4
X154.0Y-49.2
X154.0Y-50.0
X154.0Y-50.8
X154.0Y-51.6
X154.0Y-52.4
X154.0Y-53.2
X154.0Y-54.0
X154.0Y-54.8
X154.0Y-55.6
X154.0Y-56.4
X154.0Y-57.2
X154.0Y-58.0
X154.0Y-58.8
X154.0Y-59.6
X154.0Y-60.4
X154.0Y-61.2
X154.0Y-62.0
X154.0Y-62.8
X154.0Y-63.6
X154.0Y-65.2
X154.0Y-66.8
X154.0Y-68.4
X154.0Y-70.0
X154.0Y-71.6
X154.0Y-73.2
X154.0Y-74.8
X154.0Y-76.4
X154.0Y-77.2
X154.0Y-78.0
X154.188Y-122.0
X154.562Y-122.0
X154.8Y-40.4
X154.8Y-41.2
X154.8Y-45.2
X154.8Y-46.8
X154.8Y-47.6
X154.8Y-48.4
X154.8Y-49.2
X154.8Y-50.0
X154.8Y-50.8
X154.8Y-51.6
X154.8Y-52.4
X154.8Y-53.2
X154.8Y-54.0
X154.8Y-54.8
X154.8Y-55.6
X154.8Y-56.4
X154.8Y-57.2
X154.8Y-58.0
X154.8Y-58.8
X154.8Y-59.6
X154.8Y-60.4
X154.8Y-61.2
X154.8Y-62.0
X154.8Y-62.8
X154.8Y-64.4
X154.8Y-66.0
X154.8Y-67.6
X154.8Y-69.2
X154.8Y-70.8
X154.8Y-72.4
X154.8Y-74.0
X154.8Y-75.6
X154.8Y-76.4
X154.8Y-77.2
X154.8Y-78.0
X154.938Y-122.0
X155.312Y-122.0
X155.6Y-40.4
X155.6Y-41.2
X155.6Y-44.4
X155.6Y-46.0
X155.6Y-47.6
X155.6Y-48.4
X155.6Y-49.2
X155.6Y-50.0
X155.6Y-50.8
X155.6Y-51.6
X155.6Y-52.4
X155.6Y-53.2
X155.6Y-54.0
X155.6Y-54.8
X155.6Y-55.6
X155.6Y-56.4
X155.6Y-57.2
X155.6Y-58.0
X155.6Y-58.8
X155.6Y-59.6
X155.6Y-60.4
X155.6Y-61.2
X155.6Y-62.0
X155.6Y-62.8
X155.6Y-63.6
X155.6Y-65.2
X155.6Y-66.8
X155.6Y-68.4
X155.6Y-70.0
X155.6Y-71.6
X155.6Y-73.2
X155.6Y-74.8
X155.6Y-76.4
X155.6Y-77.2
X155.6Y-78.0
X155.688Y-122.0
X156.062Y-122.0
X156.4Y-40.4
X156.4Y-41.2
X156.4Y-45.2
X156.4Y-46.8
X156.4Y-47.6
X156.4Y-48.4
X156.4Y-49.2
X156.4Y-50.0
X156.4Y-50.8
X156.4Y-51.6
X156.4Y-52.4
X156.4Y-53.2
X156.4Y-54.0
X156.4Y-54.8
X156.4Y-55.6
X156.4Y-56.4
X156.4Y-57.2
X156.4Y-58.0
X156.4Y-58.8
X156.4Y-59.6
X156.4Y-60.4
X156.4Y-61.2
X156.4Y-62.0
X156.4Y-62.8
X156.4Y-64.4
X156.4Y-66.0
X156.4Y-67.6
X156.4Y-69.2
X156.4Y-70.8
X156.4Y-72.4
X156.4Y-74.0
X156.4Y-75.6
X156.4Y-76.4
X156.4Y-77.2
X156.4Y-78.0
X156.438Y-122.0
X156.812Y-122.0
X157.188Y-122.0
X157.2Y-40.4
X157.2Y-41.2
X157.2Y-44.4
X157.2Y-46.0
X157.2Y-47.6
X157.2Y-48.4
X157.2Y-49.2
X157.2Y-50.0
X157.2Y-50.8
X157.2Y-51.6
X157.2Y-52.4
X157.2Y-53.2
X157.2Y-54.0
X157.2Y-54.8
X157.2Y-55.6
X157.2Y-56.4
X157.2Y-57.2
X157.2Y-58.0
X157.2Y-58.8
X157.2Y-59.6
X157.2Y-60.4
X157.2Y-61.2
X157.2Y-62.0
X157.2Y-62.8
X157.2Y-63.6
X157.2Y-65.2
X157.2Y-66.8
X157.2Y-68.4
X157.2Y-70.0
X157.2Y-71.6
X157.2Y-73.2
X157.2Y-74.8
X157.2Y-76.4
X157.2Y-77.2
X157.2Y-78.0
X157.562Y-122.0
X157.938Y-118.0
X157.938Y-122.0
X158.0Y-40.4
X158.0Y-41.2
X158.0Y-45.2
X158.0Y-46.8
X158.0Y-47.6
X158.0Y-48.4
X158.0Y-49.2
X158.0Y-50.0
X158.0Y-50.8
X158.0Y-51.6
X158.0Y-52.4
X158.0Y-53.2
X158.0Y-54.0
X158.0Y-54.8
X158.0Y-55.6
X158.0Y-56.4
X158.0Y-57.2
X158.0Y-58.0
X158.0Y-58.8
X158.0Y-59.6
X158.0Y-60.4
X158.0Y-61.2
X158.0Y-62.0
X158.0Y-62.8
X158.0Y-64.4
X158.0Y-66.0
X158.0Y-67.6
X158.0Y-69.2
X158.0Y-70.8
X158.0Y-72.4
X158.0Y-74.0
X158.0Y-75.6
X158.0Y-76.4
X158.0Y-77.2
X158.0Y-78.0
X158.312Y-122.0
X158.688Y-122.0
X158.8Y-40.4
X158.8Y-41.2
X158.8Y-42.8
X158.8Y-44.4
X158.8Y-46.0
X158.8Y-47.6
X158.8Y-48.4
X158.8Y-49.2
X158.8Y-50.0
X158.8Y-50.8
X158.8Y-51.6
X158.8Y-52.4
X158.8Y-53.2
X158.8Y-54.0
X158.8Y-54.8
X158.8Y-55.6
X158.8Y-56.4
X158.8Y-57.2
X158.8Y-58.0
X158.8Y-58.8
X158.8Y-60.4
X158.8Y-61.2
X158.8Y-62.0
X158.8Y-62.8
X158.8Y-63.6
X158.8Y-65.2
X158.8Y-66.8
X158.8Y-68.4
X158.8Y-70.0
X158.8Y-71.6
X158.8Y-73.2
X158.8Y-74.8
X158.8Y-76.4
X158.8Y-77.2
X158.8Y-78.0
X158.8Y-90.0
X159.062Y-122.0
X159.438Y-122.0
X159.6Y-40.4
X159.6Y-41.2
X159.6Y-42.8
X159.6Y-42.8
X159.6Y-45.2
X159.6Y-46.8
X159.6Y-47.6
X159.6Y-48.4
X159.6Y-49.2
X159.6Y-50.0
X159.6Y-50.8
X159.6Y-51.6
X159.6Y-52.4
X159.6Y-53.2
X159.6Y-54.0
X159.6Y-54.8
X159.6Y-55.6
X159.6Y-56.4
X159.6Y-57.2
X159.6Y-58.0
X159.6Y-58.8
X159.6Y-60.4
X159.6Y-61.2
X159.6Y-62.0
X159.6Y-62.8
X159.6Y-64.4
X159.6Y-66.0
X159.6Y-67.6
X159.6Y-69.2
X159.6Y-70.8
X159.6Y-72.4
X159.6Y-74.0
X159.6Y-75.6
X159.6Y-76.4
X159.6Y-77.2
X159.6Y-78.0
X159.812Y-122.0
X160.0Y-10.0
X160.0Y-25.0
X160.0Y-100.0
X160.188Y-122.0
X160.4Y-40.4
X160.4Y-41.2
X160.4Y-42.8
X160.4Y-44.4
X160.4Y-46.0
X160.4Y-47.6
X160.4Y-48.4
X160.4Y-49.2
X160.4Y-50.0
X160.4Y-50.8
X160.4Y-51.6
X160.4Y-52.4
X160.4Y-53.2
X160.4Y-54.0
X160.4Y-54.8
X160.4Y-55.6
X160.4Y-56.4
X160.4Y-57.2
X160.4Y-58.0
X160.4Y-58.8
X160.4Y-60.4
X160.4Y-61.2
X160.4Y-62.0
X160.4Y-62.8
X160.4Y-63.6
X160.4Y-65.2
X160.4Y-66.8
X160.4Y-68.4
X160.4Y-70.0
X160.4Y-71.6
X160.4Y-73.2
X160.4Y-74.8
X160.4Y-76.4
X160.4Y-77.2
X160.4Y-78.0
X160.562Y-122.0
X160.938Y-122.0
X161.2Y-40.4
X161.2Y-41.2
X161.2Y-45.2
X161.2Y-46.8
X161.2Y-47.6
X161.2Y-48.4
X161.2Y-49.2
X161.2Y-50.0
X161.2Y-50.8
X161.2Y-51.6
X161.2Y-52.4
X161.2Y-53.2
X161.2Y-54.0
X161.2Y-54.8
X161.2Y-55.6
X161.2Y-56.4
X161.2Y-57.2
X161.2Y-58.0
X161.2Y-58.8
X161.2Y-60.4
X161.2Y-61.2
X161.2Y-62.0
X161.2Y-62.8
X161.2Y-64.4
X161.2Y-66.0
X161.2Y-67.6
X161.2Y-69.2
X161.2Y-70.8
X161.2Y-72.4
X161.2Y-74.0
X161.2Y-75.6
X161.2Y-76.4
X161.2Y-77.2
X161.2Y-78.0
X161.312Y-122.0
X161.688Y-122.0
X162.0Y-40.4
X162.0Y-41.2
X162.0Y-44.4
X162.0Y-46.0
X162.0Y-47.6
X162.0Y-48.4
X162.0Y-49.2
X162.0Y-50.0
X162.0Y-50.8
X162.0Y-51.6
X162.0Y-52.4
X162.0Y-53.2
X162.0Y-54.0
X162.0Y-54.8
X162.0Y-55.6
X162.0Y-56.4
X162.0Y-57.2
X162.0Y-58.0
X162.0Y-58.8
X162.0Y-59.6
X162.0Y-60.4
X162.0Y-61.2
X162.0Y-62.0
X162.0Y-62.8
X162.0Y-63.6
X162.0Y-65.2
X162.0Y-66.8
X162.0Y-68.4
X162.0Y-70.0
X162.0Y-71.6
X162.0Y-73.2
X162.0Y-74.8
X162.0Y-76.4
X162.0Y-77.2
X162.0Y-78.0
X162.062Y-122.0
X162.438Y-122.0
X162.8Y-40.4
X162.8Y-41.2
X162.8Y-45.2
X162.8Y-46.8
X162.8Y-47.6
X162.8Y-48.4
X162.8Y-49.2
X162.8Y-50.0
X162.8Y-50.8
X162.8Y-51.6
X162.8Y-52.4
X162.8Y-53.2
X162.8Y-54.0
X162.8Y-54.8
X162.8Y-55.6
X162.8Y-56.4
X162.8Y-57.2
X162.8Y-58.0
X162.8Y-58.8
X162.8Y-59.6
X162.8Y-60.4
X162.8Y-61.2
X162.8Y-62.0
X162.8Y-62.8
X162.8Y-64.4
X162.8Y-66.0
X162.8Y-67.6
X162.8Y-69.2
X162.8Y-70.8
X162.8Y-72.4
X162.8Y-74.0
X162.8Y-75.6
X162.8Y-76.4
X162.8Y-77.2
X162.8Y-78.0
X162.812Y-122.0
X163.188Y-122.0
X163.562Y-122.0
X163.6Y-40.4
X163.6Y-41.2
X163.6Y-44.4
X163.6Y-46.0
X163.6Y-47.6
X163.6Y-48.4
X163.6Y-49.2
X163.6Y-50.0
X163.6Y-50.8
X163.6Y-51.6
X163.6Y-52.4
X163.6Y-53.2
X163.6Y-54.0
X163.6Y-54.8
X163.6Y-55.6
X163.6Y-56.4
X163.6Y-57.2
X163.6Y-58.0
X163.6Y-58.8
X163.6Y-59.6
X163.6Y-60.4
X163.6Y-61.2
X163.6Y-62.0
X163.6Y-62.8
X163.6Y-63.6
X163.6Y-65.2
X163.6Y-66.8
X163.6Y-68.4
X163.6Y-70.0
X163.6Y-71.6
X163.6Y-73.2
X163.6Y-74.8
X163.6Y-76.4
X163.6Y-77.2
X163.6Y-78.0
X163.938Y-122.0
X164.312Y-122.0
X164.4Y-40.4
X164.4Y-41.2
X164.4Y-45.2
X164.4Y-46.8
X164.4Y-47.6
X164.4Y-48.4
X164.4Y-49.2
X164.4Y-50.0
X164.4Y-50.8
X164.4Y-51.6
X164.4Y-52.4
X164.4Y-53.2
X164.4Y-54.0
X164.4Y-54.8
X164.4Y-55.6
X164.4Y-56.4
X164.4Y-57.2
X164.4Y-58.0
X164.4Y-58.8
X164.4Y-59.6
X164.4Y-60.4
X164.4Y-61.2
X164.4Y-62.0
X164.4Y-62.8
X164.4Y-64.4
X164.4Y-66.0
X164.4Y-67.6
X164.4Y-69.2
X164.4Y-70.8
X164.4Y-72.4
X164.4Y-74.0
X164.4Y-75.6
X164.4Y-76.4
X164.4Y-77.2
X164.4Y-78.0
X164.688Y-122.0
X165.062Y-122.0
X165.2Y-40.4
X165.2Y-41.2
X165.2Y-44.4
X165.2Y-46.0
X165.2Y-47.6
X165.2Y-48.4
X165.2Y-49.2
X165.2Y-50.0
X165.2Y-50.8
X165.2Y-51.6
X165.2Y-52.4
X165.2Y-53.2
X165.2Y-54.0
X165.2Y-54.8
X165.2Y-55.6
X165.2Y-56.4
X165.2Y-57.2
X165.2Y-58.0
X165.2Y-58.8
X165.2Y-59.6
X165.2Y-60.4
X165.2Y-61.2
X165.2Y-62.0
X165.2Y-62.8
X165.2Y-63.6
X165.2Y-65.2
X165.2Y-66.8
X165.2Y-68.4
X165.2Y-70.0
X165.2Y-71.6
X165.2Y-73.2
X165.2Y-74.8
X165.2Y-76.4
X165.2Y-77.2
X165.2Y-78.0
X165.438Y-33.0
X165.438Y-122.0
X165.812Y-122.0
X166.0Y-40.4
X166.0Y-41.2
X166.0Y-45.2
X166.0Y-46.8
X166.0Y-47.6
X166.0Y-48.4
X166.0Y-49.2
X166.0Y-50.0
X166.0Y-50.8
X166.0Y-51.6
X166.0Y-52.4
X166.0Y-53.2
X166.0Y-54.0
X166.0Y-54.8
X166.0Y-55.6
X166.0Y-56.4
X166.0Y-57.2
X166.0Y-58.0
X166.0Y-58.8
X166.0Y-59.6
X166.0Y-60.4
X166.0Y-61.2
X166.0Y-62.0
X166.0Y-62.8
X166.0Y-64.4
X166.0Y-66.0
X166.0Y-67.6
X166.0Y-69.2
X166.0Y-70.8
X166.0Y-72.4
X166.0Y-74.0
X166.0Y-75.6
X166.0Y-76.4
X166.0Y-77.2
X166.0Y-78.0
X166.188Y-122.0
X166.562Y-122.0
X166.8Y-40.4
X166.8Y-41.2
X166.8Y-43.6
X166.8Y-44.4
X166.8Y-46.0
X166.8Y-47.6
X166.8Y-48.4
X166.8Y-49.2
X166.8Y-50.0
X166.8Y-50.8
X166.8Y-51.6
X166.8Y-52.4
X166.8Y-53.2
X166.8Y-54.0
X166.8Y-54.8
X166.8Y-55.6
X166.8Y-56.4
X166.8Y-57.2
X166.8Y-58.0
X166.8Y-58.8
X166.8Y-59.6
X166.8Y-60.4
X166.8Y-61.2
X166.8Y-62.0
X166.8Y-62.8
X166.8Y-63.6
X166.8Y-65.2
X166.8Y-66.8
X166.8Y-68.4
X166.8Y-70.0
X166.8Y-71.6
X166.8Y-73.2
X166.8Y-74.8
X166.8Y-76.4
X166.8Y-77.2
X166.8Y-78.0
X166.938Y-87.0
X166.938Y-122.0
X167.312Y-122.0
X167.6Y-40.4
X167.6Y-41.2
X167.6Y-43.6
X167.6Y-45.2
X167.6Y-46.8
X167.6Y-47.6
X167.6Y-48.4
X167.6Y-49.2
X167.6Y-50.0
X167.6Y-50.8
X167.6Y-51.6
X167.6Y-52.4
X167.6Y-53.2
X167.6Y-54.0
X167.6Y-54.8
X167.6Y-55.6
X167.6Y-56.4
X167.6Y-57.2
X167.6Y-58.0
X167.6Y-58.8
X167.6Y-59.6
X167.6Y-60.4
X167.6Y-61.2
X167.6Y-62.0
X167.6Y-62.8
X167.6Y-64.4
X167.6Y-66.0
X167.6Y-67.6
X167.6Y-69.2
X167.6Y-70.8
X167.6Y-72.4
X167.6Y-74.0
X167.6Y-75.6
X167.6Y-76.4
X167.6Y-77.2
X167.6Y-78.0
X168.4Y-40.4
X168.4Y-41.2
X168.4Y-44.4
X168.4Y-46.0
X168.4Y-47.6
X168.4Y-48.4
X168.4Y-49.2
X168.4Y-50.0
X168.4Y-50.8
X168.4Y-51.6
X168.4Y-52.4
X168.4Y-53.2
X168.4Y-54.0
X168.4Y-54.8
X168.4Y-55.6
X168.4Y-56.4
X168.4Y-57.2
X168.4Y-58.0
X168.4Y-58.8
X168.4Y-59.6
X168.4Y-60.4
X168.4Y-61.2
X168.4Y-62.0
X168.4Y-62.8
X168.4Y-63.6
X168.4Y-65.2
X168.4Y-66.8
X168.4Y-68.4
X168.4Y-70.0
X168.4Y-71.6
X168.4Y-73.2
X168.4Y-74.8
X168.4Y-76.4
X168.4Y-77.2
X168.4Y-78.0
X169.2Y-40.4
X169.2Y-41.2
X169.2Y-43.6
X169.2Y-45.2
X169.2Y-46.8
X169.2Y-47.6
X169.2Y-48.4
X169.2Y-49.2
X169.2Y-50.0
X169.2Y-50.8
X169.2Y-51.6
X169.2Y-52.4
X169.2Y-53.2
X169.2Y-54.0
X169.2Y-54.8
X169.2Y-55.6
X169.2Y-56.4
X169.2Y-57.2
X169.2Y-58.0
X169.2Y-58.8
X169.2Y-59.6
X169.2Y-60.4
X169.2Y-61.2
X169.2Y-62.0
X169.2Y-62.8
X169.2Y-64.4
X169.2Y-66.0
X169.2Y-67.6
X169.2Y-69.2
X169.2Y-70.8
X169.2Y-72.4
X169.2Y-74.0
X169.2Y-75.6
X169.2Y-76.4
X169.2Y-77.2
X169.2Y-78.0
X170.0Y-40.4
X170.0Y-41.2
X170.0Y-44.4
X170.0Y-46.0
X170.0Y-47.6
X170.0Y-48.4
X170.0Y-49.2
X170.0Y-50.0
X170.0Y-50.8
X170.0Y-51.6
X170.0Y-52.4
X170.0Y-53.2
X170.0Y-54.0
X170.0Y-54.8
X170.0Y-55.6
X170.0Y-56.4
X170.0Y-57.2
X170.0Y-58.0
X170.0Y-58.8
X170.0Y-59.6
X170.0Y-60.4
X170.0Y-61.2
X170.0Y-62.0
X170.0Y-63.6
X170.0Y-65.2
X170.0Y-66.8
X170.0Y-68.4
X170.0Y-70.0
X170.0Y-71.6
X170.0Y-73.2
X170.0Y-74.8
X170.0Y-76.4
X170.0Y-77.2
X170.0Y-78.0
X170.8Y-40.4
X170.8Y-41.2
X170.8Y-43.6
X170.8Y-45.2
X170.8Y-46.8
X170.8Y-47.6
X170.8Y-48.4
X170.8Y-49.2
X170.8Y-50.0
X170.8Y-50.8
X170.8Y-51.6
X170.8Y-52.4
X170.8Y-53.2
X170.8Y-54.0
X170.8Y-54.8
X170.8Y-55.6
X170.8Y-56.4
X170.8Y-57.2
X170.8Y-58.0
X170.8Y-58.8
X170.8Y-59.6
X170.8Y-60.4
X170.8Y-61.2
X170.8Y-62.0
X170.8Y-62.8
X170.8Y-64.4
X170.8Y-66.0
X170.8Y-67.6
X170.8Y-69.2
X170.8Y-70.8
X170.8Y-72.4
X170.8Y-74.0
X170.8Y-75.6
X170.8Y-76.4
X170.8Y-77.2
X170.8Y-78.0
X171.6Y-40.4
X171.6Y-41.2
X171.6Y-44.4
X171.6Y-46.0
X171.6Y-47.6
X171.6Y-48.4
X171.6Y-49.2
X171.6Y-50.0
X171.6Y-50.8
X171.6Y-51.6
X171.6Y-52.4
X171.6Y-53.2
X171.6Y-54.0
X171.6Y-54.8
X171.6Y-55.6
X171.6Y-56.4
X171.6Y-57.2
X171.6Y-58.0
X171.6Y-58.8
X171.6Y-59.6
X171.6Y-60.4
X171.6Y-61.2
X171.6Y-62.0
X171.6Y-63.6
X171.6Y-65.2
X171.6Y-66.8
X171.6Y-68.4
X171.6Y-70.0
X171.6Y-71.6
X171.6Y-73.2
X171.6Y-74.8
X171.6Y-76.4
X171.6Y-77.2
X171.6Y-78.0
X172.4Y-40.4
X172.4Y-41.2
X172.4Y-43.6
X172.4Y-45.2
X172.4Y-46.8
X172.4Y-47.6
X172.4Y-48.4
X172.4Y-49.2
X172.4Y-50.0
X172.4Y-50.8
X172.4Y-51.6
X172.4Y-52.4
X172.4Y-53.2
X172.4Y-54.0
X172.4Y-54.8
X172.4Y-55.6
X172.4Y-56.4
X172.4Y-57.2
X172.4Y-58.0
X172.4Y-58.8
X172.4Y-59.6
X172.4Y-60.4
X172.4Y-61.2
X172.4Y-62.0
X172.4Y-62.8
X172.4Y-64.4
X172.4Y-66.0
X172.4Y-67.6
X172.4Y-69.2
X172.4Y-70.8
X172.4Y-72.4
X172.4Y-74.0
X172.4Y-75.6
X172.4Y-76.4
X172.4Y-77.2
X172.4Y-78.0
X173.2Y-40.4
X173.2Y-41.2
X173.2Y-44.4
X173.2Y-46.0
X173.2Y-47.6
X173.2Y-49.2
X173.2Y-50.8
X173.2Y-52.4
X173.2Y-54.0
X173.2Y-55.6
X173.2Y-57.2
X173.2Y-58.8
X173.2Y-60.4
X173.2Y-62.0
X173.2Y-63.6
X173.2Y-65.2
X173.2Y-66.8
X173.2Y-68.4
X173.2Y-70.0
X173.2Y-71.6
X173.2Y-73.2
X173.2Y-74.8
X173.2Y-76.4
X173.2Y-77.2
X173.2Y-78.0
X174.0Y-40.4
X174.0Y-41.2
X174.0Y-43.6
X174.0Y-45.2
X174.0Y-46.8
X174.0Y-48.4
X174.0Y-50.0
X174.0Y-51.6
X174.0Y-53.2
X174.0Y-54.8
X174.0Y-56.4
X174.0Y-58.0
X174.0Y-59.6
X174.0Y-61.2
X174.0Y-62.8
X174.0Y-64.4
X174.0Y-66.0
X174.0Y-67.6
X174.0Y-69.2
X174.0Y-70.8
X174.0Y-72.4
X174.0Y-74.0
X174.0Y-75.6
X174.0Y-76.4
X174.0Y-77.2
X174.0Y-78.0
X174.8Y-40.4
X174.8Y-41.2
X174.8Y-44.4
X174.8Y-46.0
X174.8Y-47.6
X174.8Y-49.2
X174.8Y-50.8
X174.8Y-52.4
X174.8Y-54.0
X174.8Y-55.6
X174.8Y-57.2
X174.8Y-58.8
X174.8Y-60.4
X174.8Y-62.0
X174.8Y-63.6
X174.8Y-65.2
X174.8Y-66.8
X174.8Y-68.4
X174.8Y-70.0
X174.8Y-71.6
X174.8Y-73.2
X174.8Y-74.8
X174.8Y-76.4
X174.8Y-77.2
X174.8Y-78.0
X175.0Y-10.0
X175.0Y-25.0
X175.0Y-100.0
X175.0Y-115.0
X175.0Y-130.0
X175.6Y-40.4
X175.6Y-41.2
X175.6Y-61.2
X175.6Y-62.8
X175.6Y-64.4
X175.6Y-66.0
X175.6Y-67.6
X175.6Y-69.2
X175.6Y-70.8
X175.6Y-72.4
X175.6Y-74.0
X175.6Y-75.6
X175.6Y-76.4
X175.6Y-77.2
X176.4Y-18.0
X176.4Y-40.4
X176.4Y-41.2
X176.4Y-62.0
X176.4Y-63.6
X176.4Y-65.2
X176.4Y-66.8
X176.4Y-68.4
X176.4Y-70.0
X176.4Y-71.6
X176.4Y-73.2
X176.4Y-74.8
X176.4Y-76.4
X176.4Y-77.2
X176.4Y-78.0
X177.2Y-12.0
X177.2Y-15.0
X177.2Y-40.4
X177.2Y-41.2
X177.2Y-66.0
X177.2Y-67.6
X177.2Y-69.2
X177.2Y-70.8
X177.2Y-72.4
X177.2Y-74.0
X177.2Y-75.6
X177.2Y-76.4
X177.2Y-77.2
X178.0Y-24.0
X178.0Y-40.4
X178.0Y-41.2
X178.0Y-66.8
X178.0Y-68.4
X178.0Y-70.0
X178.0Y-71.6
X178.0Y-73.2
X178.0Y-74.8
X178.0Y-76.4
X178.0Y-77.2
X178.0Y-78.0
X178.8Y-40.4
X178.8Y-41.2
X178.8Y-66.0
X178.8Y-67.6
X178.8Y-69.2
X178.8Y-70.8
X178.8Y-72.4
X178.8Y-74.0
X178.8Y-75.6
X178.8Y-76.4
X178.8Y-77.2
X179.6Y-40.4
X179.6Y-41.2
X179.6Y-66.8
X179.6Y-68.4
X179.6Y-70.0
X179.6Y-71.6
X179.6Y-73.2
X179.6Y-74.8
X179.6Y-76.4
X179.6Y-77.2
X179.6Y-78.0
X190.0Y-10.0
X190.0Y-25.0
X190.0Y-40.0
X190.0Y-55.0
X190.0Y-70.0
X190.0Y-85.0
X190.0Y-100.0
X190.0Y-115.0
X190.0Y-130.0
X205.0Y-10.0
X205.0Y-25.0
X205.0Y-40.0
X205.0Y-55.0
X205.0Y-70.0
X205.0Y-85.0
X205.0Y-100.0
X205.0Y-115.0
X205.0Y-130.0
T2
X45.0Y-35.0
X45.0Y-85.0
X95.0Y-35.0
X95.0Y-85.0
X135.0Y-35.0
X135.0Y-85.0
X185.0Y-35.0
X185.0Y-85.0
M30
