%TF.GenerationSoftware,KiCad,Pcbnew,10.0.3*%
%TF.CreationDate,2026-07-14T23:47:45-07:00*%
%TF.ProjectId,LR_P3A_DualNCE,4c525f50-3341-45f4-9475-616c4e43452e,rev?*%
%TF.SameCoordinates,Original*%
%TF.FileFunction,Soldermask,Top*%
%TF.FilePolarity,Negative*%
%FSLAX46Y46*%
G04 Gerber Fmt 4.6, Leading zero omitted, Abs format (unit mm)*
G04 Created by KiCad (PCBNEW 10.0.3) date 2026-07-14 23:47:45*
%MOMM*%
%LPD*%
G01*
G04 APERTURE LIST*
G04 Aperture macros list*
%AMRoundRect*
0 Rectangle with rounded corners*
0 $1 Rounding radius*
0 $2 $3 $4 $5 $6 $7 $8 $9 X,Y pos of 4 corners*
0 Add a 4 corners polygon primitive as box body*
4,1,4,$2,$3,$4,$5,$6,$7,$8,$9,$2,$3,0*
0 Add four circle primitives for the rounded corners*
1,1,$1+$1,$2,$3*
1,1,$1+$1,$4,$5*
1,1,$1+$1,$6,$7*
1,1,$1+$1,$8,$9*
0 Add four rect primitives between the rounded corners*
20,1,$1+$1,$2,$3,$4,$5,0*
20,1,$1+$1,$4,$5,$6,$7,0*
20,1,$1+$1,$6,$7,$8,$9,0*
20,1,$1+$1,$8,$9,$2,$3,0*%
G04 Aperture macros list end*
%ADD10C,3.200000*%
%ADD11RoundRect,0.075000X-0.075000X-0.525000X0.075000X-0.525000X0.075000X0.525000X-0.075000X0.525000X0*%
%ADD12C,0.500000*%
%ADD13C,0.350000*%
G04 APERTURE END LIST*
D10*
%TO.C,BH8*%
X185000000Y-85000000D03*
%TD*%
%TO.C,BH7*%
X135000000Y-85000000D03*
%TD*%
D11*
%TO.C,U202*%
X312687500Y-238000000D03*
X313062500Y-238000000D03*
X313437500Y-238000000D03*
X313812500Y-238000000D03*
X314187500Y-238000000D03*
X314562500Y-238000000D03*
X314937500Y-238000000D03*
X315312500Y-238000000D03*
X315687500Y-238000000D03*
X316062500Y-238000000D03*
X316437500Y-238000000D03*
X316812500Y-238000000D03*
X317187500Y-238000000D03*
X317562500Y-238000000D03*
X317937500Y-238000000D03*
X318312500Y-238000000D03*
X318687500Y-238000000D03*
X319062500Y-238000000D03*
X319437500Y-238000000D03*
X319812500Y-238000000D03*
X320187500Y-238000000D03*
X320562500Y-238000000D03*
X320937500Y-238000000D03*
X321312500Y-238000000D03*
X321687500Y-238000000D03*
X322062500Y-238000000D03*
X322437500Y-238000000D03*
X322812500Y-238000000D03*
X323187500Y-238000000D03*
X323562500Y-238000000D03*
X323937500Y-238000000D03*
X324312500Y-238000000D03*
X324687500Y-238000000D03*
X325062500Y-238000000D03*
X325437500Y-238000000D03*
X325812500Y-238000000D03*
X326187500Y-238000000D03*
X326562500Y-238000000D03*
X326937500Y-238000000D03*
X327312500Y-238000000D03*
X312687500Y-242000000D03*
X313062500Y-242000000D03*
X313437500Y-242000000D03*
X313812500Y-242000000D03*
X314187500Y-242000000D03*
X314562500Y-242000000D03*
X314937500Y-242000000D03*
X315312500Y-242000000D03*
X315687500Y-242000000D03*
X316062500Y-242000000D03*
X316437500Y-242000000D03*
X316812500Y-242000000D03*
X317187500Y-242000000D03*
X317562500Y-242000000D03*
X317937500Y-242000000D03*
X318312500Y-242000000D03*
X318687500Y-242000000D03*
X319062500Y-242000000D03*
X319437500Y-242000000D03*
X319812500Y-242000000D03*
X320187500Y-242000000D03*
X320562500Y-242000000D03*
X320937500Y-242000000D03*
X321312500Y-242000000D03*
X321687500Y-242000000D03*
X322062500Y-242000000D03*
X322437500Y-242000000D03*
X322812500Y-242000000D03*
X323187500Y-242000000D03*
X323562500Y-242000000D03*
X323937500Y-242000000D03*
X324312500Y-242000000D03*
X324687500Y-242000000D03*
X325062500Y-242000000D03*
X325437500Y-242000000D03*
X325812500Y-242000000D03*
X326187500Y-242000000D03*
X326562500Y-242000000D03*
X326937500Y-242000000D03*
X327312500Y-242000000D03*
%TD*%
D10*
%TO.C,BH6*%
X185000000Y-35000000D03*
%TD*%
D12*
%TO.C,U201*%
X140400000Y-40400000D03*
X141200000Y-40400000D03*
X142000000Y-40400000D03*
X142800000Y-40400000D03*
X143600000Y-40400000D03*
X144400000Y-40400000D03*
X145200000Y-40400000D03*
X146000000Y-40400000D03*
X146800000Y-40400000D03*
X147600000Y-40400000D03*
X148400000Y-40400000D03*
X149200000Y-40400000D03*
X150000000Y-40400000D03*
X150800000Y-40400000D03*
X151600000Y-40400000D03*
X152400000Y-40400000D03*
X153200000Y-40400000D03*
X154000000Y-40400000D03*
X154800000Y-40400000D03*
X155600000Y-40400000D03*
X156400000Y-40400000D03*
X157200000Y-40400000D03*
X158000000Y-40400000D03*
X158800000Y-40400000D03*
X159600000Y-40400000D03*
X160400000Y-40400000D03*
X161200000Y-40400000D03*
X162000000Y-40400000D03*
X162800000Y-40400000D03*
X163600000Y-40400000D03*
X164400000Y-40400000D03*
X165200000Y-40400000D03*
X166000000Y-40400000D03*
X166800000Y-40400000D03*
X167600000Y-40400000D03*
X168400000Y-40400000D03*
X169200000Y-40400000D03*
X170000000Y-40400000D03*
X170800000Y-40400000D03*
X171600000Y-40400000D03*
X172400000Y-40400000D03*
X173200000Y-40400000D03*
X174000000Y-40400000D03*
X174800000Y-40400000D03*
X175600000Y-40400000D03*
X176400000Y-40400000D03*
X177200000Y-40400000D03*
X178000000Y-40400000D03*
X178800000Y-40400000D03*
X179600000Y-40400000D03*
X140400000Y-56400000D03*
X141200000Y-56400000D03*
X142000000Y-56400000D03*
X142800000Y-56400000D03*
X143600000Y-56400000D03*
X144400000Y-56400000D03*
X145200000Y-56400000D03*
X146000000Y-56400000D03*
X146800000Y-56400000D03*
X147600000Y-56400000D03*
X148400000Y-56400000D03*
X149200000Y-56400000D03*
X150000000Y-56400000D03*
X150800000Y-56400000D03*
X151600000Y-56400000D03*
X152400000Y-56400000D03*
X153200000Y-56400000D03*
X154000000Y-56400000D03*
X154800000Y-56400000D03*
X155600000Y-56400000D03*
X156400000Y-56400000D03*
X157200000Y-56400000D03*
X158000000Y-56400000D03*
X158800000Y-56400000D03*
X159600000Y-56400000D03*
X160400000Y-56400000D03*
X161200000Y-56400000D03*
X162000000Y-56400000D03*
X162800000Y-56400000D03*
X163600000Y-56400000D03*
X164400000Y-56400000D03*
X165200000Y-56400000D03*
X166000000Y-56400000D03*
X166800000Y-56400000D03*
X167600000Y-56400000D03*
X168400000Y-56400000D03*
X169200000Y-56400000D03*
X170000000Y-56400000D03*
X170800000Y-56400000D03*
X171600000Y-56400000D03*
X172400000Y-56400000D03*
X173200000Y-56400000D03*
X174000000Y-56400000D03*
X174800000Y-56400000D03*
X175600000Y-56400000D03*
X176400000Y-56400000D03*
X177200000Y-56400000D03*
X178000000Y-56400000D03*
X178800000Y-56400000D03*
X179600000Y-56400000D03*
X140400000Y-57200000D03*
X141200000Y-57200000D03*
X142000000Y-57200000D03*
X142800000Y-57200000D03*
X143600000Y-57200000D03*
X144400000Y-57200000D03*
X145200000Y-57200000D03*
X146000000Y-57200000D03*
X146800000Y-57200000D03*
X147600000Y-57200000D03*
X148400000Y-57200000D03*
X149200000Y-57200000D03*
X150000000Y-57200000D03*
X150800000Y-57200000D03*
X151600000Y-57200000D03*
X152400000Y-57200000D03*
X153200000Y-57200000D03*
X154000000Y-57200000D03*
X154800000Y-57200000D03*
X155600000Y-57200000D03*
X156400000Y-57200000D03*
X157200000Y-57200000D03*
X158000000Y-57200000D03*
X158800000Y-57200000D03*
X159600000Y-57200000D03*
X160400000Y-57200000D03*
X161200000Y-57200000D03*
X162000000Y-57200000D03*
X162800000Y-57200000D03*
X163600000Y-57200000D03*
X164400000Y-57200000D03*
X165200000Y-57200000D03*
X166000000Y-57200000D03*
X166800000Y-57200000D03*
X167600000Y-57200000D03*
X168400000Y-57200000D03*
X169200000Y-57200000D03*
X170000000Y-57200000D03*
X170800000Y-57200000D03*
X171600000Y-57200000D03*
X172400000Y-57200000D03*
X173200000Y-57200000D03*
X174000000Y-57200000D03*
X174800000Y-57200000D03*
X175600000Y-57200000D03*
X176400000Y-57200000D03*
X177200000Y-57200000D03*
X178000000Y-57200000D03*
X178800000Y-57200000D03*
X179600000Y-57200000D03*
X140400000Y-58000000D03*
X141200000Y-58000000D03*
X142000000Y-58000000D03*
X142800000Y-58000000D03*
X143600000Y-58000000D03*
X144400000Y-58000000D03*
X145200000Y-58000000D03*
X146000000Y-58000000D03*
X146800000Y-58000000D03*
X147600000Y-58000000D03*
X148400000Y-58000000D03*
X149200000Y-58000000D03*
X150000000Y-58000000D03*
X150800000Y-58000000D03*
X151600000Y-58000000D03*
X152400000Y-58000000D03*
X153200000Y-58000000D03*
X154000000Y-58000000D03*
X154800000Y-58000000D03*
X155600000Y-58000000D03*
X156400000Y-58000000D03*
X157200000Y-58000000D03*
X158000000Y-58000000D03*
X158800000Y-58000000D03*
X159600000Y-58000000D03*
X160400000Y-58000000D03*
X161200000Y-58000000D03*
X162000000Y-58000000D03*
X162800000Y-58000000D03*
X163600000Y-58000000D03*
X164400000Y-58000000D03*
X165200000Y-58000000D03*
X166000000Y-58000000D03*
X166800000Y-58000000D03*
X167600000Y-58000000D03*
X168400000Y-58000000D03*
X169200000Y-58000000D03*
X170000000Y-58000000D03*
X170800000Y-58000000D03*
X171600000Y-58000000D03*
X172400000Y-58000000D03*
X173200000Y-58000000D03*
X174000000Y-58000000D03*
X174800000Y-58000000D03*
X175600000Y-58000000D03*
X176400000Y-58000000D03*
X177200000Y-58000000D03*
X178000000Y-58000000D03*
X178800000Y-58000000D03*
X179600000Y-58000000D03*
X140400000Y-58800000D03*
X141200000Y-58800000D03*
X142000000Y-58800000D03*
X142800000Y-58800000D03*
X143600000Y-58800000D03*
X144400000Y-58800000D03*
X145200000Y-58800000D03*
X146000000Y-58800000D03*
X146800000Y-58800000D03*
X147600000Y-58800000D03*
X148400000Y-58800000D03*
X149200000Y-58800000D03*
X150000000Y-58800000D03*
X150800000Y-58800000D03*
X151600000Y-58800000D03*
X152400000Y-58800000D03*
X153200000Y-58800000D03*
X154000000Y-58800000D03*
X154800000Y-58800000D03*
X155600000Y-58800000D03*
X156400000Y-58800000D03*
X157200000Y-58800000D03*
X158000000Y-58800000D03*
X158800000Y-58800000D03*
X159600000Y-58800000D03*
X160400000Y-58800000D03*
X161200000Y-58800000D03*
X162000000Y-58800000D03*
X162800000Y-58800000D03*
X163600000Y-58800000D03*
X164400000Y-58800000D03*
X165200000Y-58800000D03*
X166000000Y-58800000D03*
X166800000Y-58800000D03*
X167600000Y-58800000D03*
X168400000Y-58800000D03*
X169200000Y-58800000D03*
X170000000Y-58800000D03*
X170800000Y-58800000D03*
X171600000Y-58800000D03*
X172400000Y-58800000D03*
X173200000Y-58800000D03*
X174000000Y-58800000D03*
X174800000Y-58800000D03*
X175600000Y-58800000D03*
X176400000Y-58800000D03*
X177200000Y-58800000D03*
X178000000Y-58800000D03*
X178800000Y-58800000D03*
X179600000Y-58800000D03*
X140400000Y-59600000D03*
X141200000Y-59600000D03*
X142000000Y-59600000D03*
X142800000Y-59600000D03*
X143600000Y-59600000D03*
X144400000Y-59600000D03*
X145200000Y-59600000D03*
X146000000Y-59600000D03*
X146800000Y-59600000D03*
X147600000Y-59600000D03*
X148400000Y-59600000D03*
X149200000Y-59600000D03*
X150000000Y-59600000D03*
X150800000Y-59600000D03*
X151600000Y-59600000D03*
X152400000Y-59600000D03*
X153200000Y-59600000D03*
X154000000Y-59600000D03*
X154800000Y-59600000D03*
X155600000Y-59600000D03*
X156400000Y-59600000D03*
X157200000Y-59600000D03*
X158000000Y-59600000D03*
X158800000Y-59600000D03*
X159600000Y-59600000D03*
X160400000Y-59600000D03*
X161200000Y-59600000D03*
X162000000Y-59600000D03*
X162800000Y-59600000D03*
X163600000Y-59600000D03*
X164400000Y-59600000D03*
X165200000Y-59600000D03*
X166000000Y-59600000D03*
X166800000Y-59600000D03*
X167600000Y-59600000D03*
X168400000Y-59600000D03*
X169200000Y-59600000D03*
X170000000Y-59600000D03*
X170800000Y-59600000D03*
X171600000Y-59600000D03*
X172400000Y-59600000D03*
X173200000Y-59600000D03*
X174000000Y-59600000D03*
X174800000Y-59600000D03*
X175600000Y-59600000D03*
X176400000Y-59600000D03*
X177200000Y-59600000D03*
X178000000Y-59600000D03*
X178800000Y-59600000D03*
X179600000Y-59600000D03*
X140400000Y-60400000D03*
X141200000Y-60400000D03*
X142000000Y-60400000D03*
X142800000Y-60400000D03*
X143600000Y-60400000D03*
X144400000Y-60400000D03*
X145200000Y-60400000D03*
X146000000Y-60400000D03*
X146800000Y-60400000D03*
X147600000Y-60400000D03*
X148400000Y-60400000D03*
X149200000Y-60400000D03*
X150000000Y-60400000D03*
X150800000Y-60400000D03*
X151600000Y-60400000D03*
X152400000Y-60400000D03*
X153200000Y-60400000D03*
X154000000Y-60400000D03*
X154800000Y-60400000D03*
X155600000Y-60400000D03*
X156400000Y-60400000D03*
X157200000Y-60400000D03*
X158000000Y-60400000D03*
X158800000Y-60400000D03*
X159600000Y-60400000D03*
X160400000Y-60400000D03*
X161200000Y-60400000D03*
X162000000Y-60400000D03*
X162800000Y-60400000D03*
X163600000Y-60400000D03*
X164400000Y-60400000D03*
X165200000Y-60400000D03*
X166000000Y-60400000D03*
X166800000Y-60400000D03*
X167600000Y-60400000D03*
X168400000Y-60400000D03*
X169200000Y-60400000D03*
X170000000Y-60400000D03*
X170800000Y-60400000D03*
X171600000Y-60400000D03*
X172400000Y-60400000D03*
X173200000Y-60400000D03*
X174000000Y-60400000D03*
X174800000Y-60400000D03*
X175600000Y-60400000D03*
X176400000Y-60400000D03*
X177200000Y-60400000D03*
X178000000Y-60400000D03*
X178800000Y-60400000D03*
X179600000Y-60400000D03*
X140400000Y-61200000D03*
X141200000Y-61200000D03*
X142000000Y-61200000D03*
X142800000Y-61200000D03*
X143600000Y-61200000D03*
X144400000Y-61200000D03*
X145200000Y-61200000D03*
X146000000Y-61200000D03*
X146800000Y-61200000D03*
X147600000Y-61200000D03*
X148400000Y-61200000D03*
X149200000Y-61200000D03*
X150000000Y-61200000D03*
X150800000Y-61200000D03*
X151600000Y-61200000D03*
X152400000Y-61200000D03*
X153200000Y-61200000D03*
X154000000Y-61200000D03*
X154800000Y-61200000D03*
X155600000Y-61200000D03*
X156400000Y-61200000D03*
X157200000Y-61200000D03*
X158000000Y-61200000D03*
X158800000Y-61200000D03*
X159600000Y-61200000D03*
X160400000Y-61200000D03*
X161200000Y-61200000D03*
X162000000Y-61200000D03*
X162800000Y-61200000D03*
X163600000Y-61200000D03*
X164400000Y-61200000D03*
X165200000Y-61200000D03*
X166000000Y-61200000D03*
X166800000Y-61200000D03*
X167600000Y-61200000D03*
X168400000Y-61200000D03*
X169200000Y-61200000D03*
X170000000Y-61200000D03*
X170800000Y-61200000D03*
X171600000Y-61200000D03*
X172400000Y-61200000D03*
X173200000Y-61200000D03*
X174000000Y-61200000D03*
X174800000Y-61200000D03*
X175600000Y-61200000D03*
X176400000Y-61200000D03*
X177200000Y-61200000D03*
X178000000Y-61200000D03*
X178800000Y-61200000D03*
X179600000Y-61200000D03*
X140400000Y-62000000D03*
X141200000Y-62000000D03*
X142000000Y-62000000D03*
X142800000Y-62000000D03*
X143600000Y-62000000D03*
X144400000Y-62000000D03*
X145200000Y-62000000D03*
X146000000Y-62000000D03*
X146800000Y-62000000D03*
X147600000Y-62000000D03*
X148400000Y-62000000D03*
X149200000Y-62000000D03*
X150000000Y-62000000D03*
X150800000Y-62000000D03*
X151600000Y-62000000D03*
X152400000Y-62000000D03*
X153200000Y-62000000D03*
X154000000Y-62000000D03*
X154800000Y-62000000D03*
X155600000Y-62000000D03*
X156400000Y-62000000D03*
X157200000Y-62000000D03*
X158000000Y-62000000D03*
X158800000Y-62000000D03*
X159600000Y-62000000D03*
X160400000Y-62000000D03*
X161200000Y-62000000D03*
X162000000Y-62000000D03*
X162800000Y-62000000D03*
X163600000Y-62000000D03*
X164400000Y-62000000D03*
X165200000Y-62000000D03*
X166000000Y-62000000D03*
X166800000Y-62000000D03*
X167600000Y-62000000D03*
X168400000Y-62000000D03*
X169200000Y-62000000D03*
X170000000Y-62000000D03*
X170800000Y-62000000D03*
X171600000Y-62000000D03*
X172400000Y-62000000D03*
X173200000Y-62000000D03*
X174000000Y-62000000D03*
X174800000Y-62000000D03*
X175600000Y-62000000D03*
X176400000Y-62000000D03*
X177200000Y-62000000D03*
X178000000Y-62000000D03*
X178800000Y-62000000D03*
X179600000Y-62000000D03*
X140400000Y-62800000D03*
X141200000Y-62800000D03*
X142000000Y-62800000D03*
X142800000Y-62800000D03*
X143600000Y-62800000D03*
X144400000Y-62800000D03*
X145200000Y-62800000D03*
X146000000Y-62800000D03*
X146800000Y-62800000D03*
X147600000Y-62800000D03*
X148400000Y-62800000D03*
X149200000Y-62800000D03*
X150000000Y-62800000D03*
X150800000Y-62800000D03*
X151600000Y-62800000D03*
X152400000Y-62800000D03*
X153200000Y-62800000D03*
X154000000Y-62800000D03*
X154800000Y-62800000D03*
X155600000Y-62800000D03*
X156400000Y-62800000D03*
X157200000Y-62800000D03*
X158000000Y-62800000D03*
X158800000Y-62800000D03*
X159600000Y-62800000D03*
X160400000Y-62800000D03*
X161200000Y-62800000D03*
X162000000Y-62800000D03*
X162800000Y-62800000D03*
X163600000Y-62800000D03*
X164400000Y-62800000D03*
X165200000Y-62800000D03*
X166000000Y-62800000D03*
X166800000Y-62800000D03*
X167600000Y-62800000D03*
X168400000Y-62800000D03*
X169200000Y-62800000D03*
X170000000Y-62800000D03*
X170800000Y-62800000D03*
X171600000Y-62800000D03*
X172400000Y-62800000D03*
X173200000Y-62800000D03*
X174000000Y-62800000D03*
X174800000Y-62800000D03*
X175600000Y-62800000D03*
X176400000Y-62800000D03*
X177200000Y-62800000D03*
X178000000Y-62800000D03*
X178800000Y-62800000D03*
X179600000Y-62800000D03*
X140400000Y-63600000D03*
X141200000Y-63600000D03*
X142000000Y-63600000D03*
X142800000Y-63600000D03*
X143600000Y-63600000D03*
X144400000Y-63600000D03*
X145200000Y-63600000D03*
X146000000Y-63600000D03*
X146800000Y-63600000D03*
X147600000Y-63600000D03*
X148400000Y-63600000D03*
X149200000Y-63600000D03*
X150000000Y-63600000D03*
X150800000Y-63600000D03*
X151600000Y-63600000D03*
X152400000Y-63600000D03*
X153200000Y-63600000D03*
X154000000Y-63600000D03*
X154800000Y-63600000D03*
X155600000Y-63600000D03*
X156400000Y-63600000D03*
X157200000Y-63600000D03*
X158000000Y-63600000D03*
X158800000Y-63600000D03*
X159600000Y-63600000D03*
X160400000Y-63600000D03*
X161200000Y-63600000D03*
X162000000Y-63600000D03*
X162800000Y-63600000D03*
X163600000Y-63600000D03*
X164400000Y-63600000D03*
X165200000Y-63600000D03*
X166000000Y-63600000D03*
X166800000Y-63600000D03*
X167600000Y-63600000D03*
X168400000Y-63600000D03*
X169200000Y-63600000D03*
X170000000Y-63600000D03*
X170800000Y-63600000D03*
X171600000Y-63600000D03*
X172400000Y-63600000D03*
X173200000Y-63600000D03*
X174000000Y-63600000D03*
X174800000Y-63600000D03*
X175600000Y-63600000D03*
X176400000Y-63600000D03*
X177200000Y-63600000D03*
X178000000Y-63600000D03*
X178800000Y-63600000D03*
X179600000Y-63600000D03*
X140400000Y-64400000D03*
X141200000Y-64400000D03*
X142000000Y-64400000D03*
X142800000Y-64400000D03*
X143600000Y-64400000D03*
X144400000Y-64400000D03*
X145200000Y-64400000D03*
X146000000Y-64400000D03*
X146800000Y-64400000D03*
X147600000Y-64400000D03*
X148400000Y-64400000D03*
X149200000Y-64400000D03*
X150000000Y-64400000D03*
X150800000Y-64400000D03*
X151600000Y-64400000D03*
X152400000Y-64400000D03*
X153200000Y-64400000D03*
X154000000Y-64400000D03*
X154800000Y-64400000D03*
X155600000Y-64400000D03*
X156400000Y-64400000D03*
X157200000Y-64400000D03*
X158000000Y-64400000D03*
X158800000Y-64400000D03*
X159600000Y-64400000D03*
X160400000Y-64400000D03*
X161200000Y-64400000D03*
X162000000Y-64400000D03*
X162800000Y-64400000D03*
X163600000Y-64400000D03*
X164400000Y-64400000D03*
X165200000Y-64400000D03*
X166000000Y-64400000D03*
X166800000Y-64400000D03*
X167600000Y-64400000D03*
X168400000Y-64400000D03*
X169200000Y-64400000D03*
X170000000Y-64400000D03*
X170800000Y-64400000D03*
X171600000Y-64400000D03*
X172400000Y-64400000D03*
X173200000Y-64400000D03*
X174000000Y-64400000D03*
X174800000Y-64400000D03*
X175600000Y-64400000D03*
X176400000Y-64400000D03*
X177200000Y-64400000D03*
X178000000Y-64400000D03*
X178800000Y-64400000D03*
X179600000Y-64400000D03*
X140400000Y-65200000D03*
X141200000Y-65200000D03*
X142000000Y-65200000D03*
X142800000Y-65200000D03*
X143600000Y-65200000D03*
X144400000Y-65200000D03*
X145200000Y-65200000D03*
X146000000Y-65200000D03*
X146800000Y-65200000D03*
X147600000Y-65200000D03*
X148400000Y-65200000D03*
X149200000Y-65200000D03*
X150000000Y-65200000D03*
X150800000Y-65200000D03*
X151600000Y-65200000D03*
X152400000Y-65200000D03*
X153200000Y-65200000D03*
X154000000Y-65200000D03*
X154800000Y-65200000D03*
X155600000Y-65200000D03*
X156400000Y-65200000D03*
X157200000Y-65200000D03*
X158000000Y-65200000D03*
X158800000Y-65200000D03*
X159600000Y-65200000D03*
X160400000Y-65200000D03*
X161200000Y-65200000D03*
X162000000Y-65200000D03*
X162800000Y-65200000D03*
X163600000Y-65200000D03*
X164400000Y-65200000D03*
X165200000Y-65200000D03*
X166000000Y-65200000D03*
X166800000Y-65200000D03*
X167600000Y-65200000D03*
X168400000Y-65200000D03*
X169200000Y-65200000D03*
X170000000Y-65200000D03*
X170800000Y-65200000D03*
X171600000Y-65200000D03*
X172400000Y-65200000D03*
X173200000Y-65200000D03*
X174000000Y-65200000D03*
X174800000Y-65200000D03*
X175600000Y-65200000D03*
X176400000Y-65200000D03*
X177200000Y-65200000D03*
X178000000Y-65200000D03*
X178800000Y-65200000D03*
X179600000Y-65200000D03*
X140400000Y-66000000D03*
X141200000Y-66000000D03*
X142000000Y-66000000D03*
X142800000Y-66000000D03*
X143600000Y-66000000D03*
X144400000Y-66000000D03*
X145200000Y-66000000D03*
X146000000Y-66000000D03*
X146800000Y-66000000D03*
X147600000Y-66000000D03*
X148400000Y-66000000D03*
X149200000Y-66000000D03*
X150000000Y-66000000D03*
X150800000Y-66000000D03*
X151600000Y-66000000D03*
X152400000Y-66000000D03*
X153200000Y-66000000D03*
X154000000Y-66000000D03*
X154800000Y-66000000D03*
X155600000Y-66000000D03*
X156400000Y-66000000D03*
X157200000Y-66000000D03*
X158000000Y-66000000D03*
X158800000Y-66000000D03*
X159600000Y-66000000D03*
X160400000Y-66000000D03*
X161200000Y-66000000D03*
X162000000Y-66000000D03*
X162800000Y-66000000D03*
X163600000Y-66000000D03*
X164400000Y-66000000D03*
X165200000Y-66000000D03*
X166000000Y-66000000D03*
X166800000Y-66000000D03*
X167600000Y-66000000D03*
X168400000Y-66000000D03*
X169200000Y-66000000D03*
X170000000Y-66000000D03*
X170800000Y-66000000D03*
X171600000Y-66000000D03*
X172400000Y-66000000D03*
X173200000Y-66000000D03*
X174000000Y-66000000D03*
X174800000Y-66000000D03*
X175600000Y-66000000D03*
X176400000Y-66000000D03*
X177200000Y-66000000D03*
X178000000Y-66000000D03*
X178800000Y-66000000D03*
X179600000Y-66000000D03*
X140400000Y-66800000D03*
X141200000Y-66800000D03*
X142000000Y-66800000D03*
X142800000Y-66800000D03*
X143600000Y-66800000D03*
X144400000Y-66800000D03*
X145200000Y-66800000D03*
X146000000Y-66800000D03*
X146800000Y-66800000D03*
X147600000Y-66800000D03*
X148400000Y-66800000D03*
X149200000Y-66800000D03*
X150000000Y-66800000D03*
X150800000Y-66800000D03*
X151600000Y-66800000D03*
X152400000Y-66800000D03*
X153200000Y-66800000D03*
X154000000Y-66800000D03*
X154800000Y-66800000D03*
X155600000Y-66800000D03*
X156400000Y-66800000D03*
X157200000Y-66800000D03*
X158000000Y-66800000D03*
X158800000Y-66800000D03*
X159600000Y-66800000D03*
X160400000Y-66800000D03*
X161200000Y-66800000D03*
X162000000Y-66800000D03*
X162800000Y-66800000D03*
X163600000Y-66800000D03*
X164400000Y-66800000D03*
X165200000Y-66800000D03*
X166000000Y-66800000D03*
X166800000Y-66800000D03*
X167600000Y-66800000D03*
X168400000Y-66800000D03*
X169200000Y-66800000D03*
X170000000Y-66800000D03*
X170800000Y-66800000D03*
X171600000Y-66800000D03*
X172400000Y-66800000D03*
X173200000Y-66800000D03*
X174000000Y-66800000D03*
X174800000Y-66800000D03*
X175600000Y-66800000D03*
X176400000Y-66800000D03*
X177200000Y-66800000D03*
X178000000Y-66800000D03*
X178800000Y-66800000D03*
X179600000Y-66800000D03*
X140400000Y-67600000D03*
X141200000Y-67600000D03*
X142000000Y-67600000D03*
X142800000Y-67600000D03*
X143600000Y-67600000D03*
X144400000Y-67600000D03*
X145200000Y-67600000D03*
X146000000Y-67600000D03*
X146800000Y-67600000D03*
X147600000Y-67600000D03*
X148400000Y-67600000D03*
X149200000Y-67600000D03*
X150000000Y-67600000D03*
X150800000Y-67600000D03*
X151600000Y-67600000D03*
X152400000Y-67600000D03*
X153200000Y-67600000D03*
X154000000Y-67600000D03*
X154800000Y-67600000D03*
X155600000Y-67600000D03*
X156400000Y-67600000D03*
X157200000Y-67600000D03*
X158000000Y-67600000D03*
X158800000Y-67600000D03*
X159600000Y-67600000D03*
X160400000Y-67600000D03*
X161200000Y-67600000D03*
X162000000Y-67600000D03*
X162800000Y-67600000D03*
X163600000Y-67600000D03*
X164400000Y-67600000D03*
X165200000Y-67600000D03*
X166000000Y-67600000D03*
X166800000Y-67600000D03*
X167600000Y-67600000D03*
X168400000Y-67600000D03*
X169200000Y-67600000D03*
X170000000Y-67600000D03*
X170800000Y-67600000D03*
X171600000Y-67600000D03*
X172400000Y-67600000D03*
X173200000Y-67600000D03*
X174000000Y-67600000D03*
X174800000Y-67600000D03*
X175600000Y-67600000D03*
X176400000Y-67600000D03*
X177200000Y-67600000D03*
X178000000Y-67600000D03*
X178800000Y-67600000D03*
X179600000Y-67600000D03*
X140400000Y-68400000D03*
X141200000Y-68400000D03*
X142000000Y-68400000D03*
X142800000Y-68400000D03*
X143600000Y-68400000D03*
X144400000Y-68400000D03*
X145200000Y-68400000D03*
X146000000Y-68400000D03*
X146800000Y-68400000D03*
X147600000Y-68400000D03*
X148400000Y-68400000D03*
X149200000Y-68400000D03*
X150000000Y-68400000D03*
X150800000Y-68400000D03*
X151600000Y-68400000D03*
X152400000Y-68400000D03*
X153200000Y-68400000D03*
X154000000Y-68400000D03*
X154800000Y-68400000D03*
X155600000Y-68400000D03*
X156400000Y-68400000D03*
X157200000Y-68400000D03*
X158000000Y-68400000D03*
X158800000Y-68400000D03*
X159600000Y-68400000D03*
X160400000Y-68400000D03*
X161200000Y-68400000D03*
X162000000Y-68400000D03*
X162800000Y-68400000D03*
X163600000Y-68400000D03*
X164400000Y-68400000D03*
X165200000Y-68400000D03*
X166000000Y-68400000D03*
X166800000Y-68400000D03*
X167600000Y-68400000D03*
X168400000Y-68400000D03*
X169200000Y-68400000D03*
X170000000Y-68400000D03*
X170800000Y-68400000D03*
X171600000Y-68400000D03*
X172400000Y-68400000D03*
X173200000Y-68400000D03*
X174000000Y-68400000D03*
X174800000Y-68400000D03*
X175600000Y-68400000D03*
X176400000Y-68400000D03*
X177200000Y-68400000D03*
X178000000Y-68400000D03*
X178800000Y-68400000D03*
X179600000Y-68400000D03*
X140400000Y-69200000D03*
X141200000Y-69200000D03*
X142000000Y-69200000D03*
X142800000Y-69200000D03*
X143600000Y-69200000D03*
X144400000Y-69200000D03*
X145200000Y-69200000D03*
X146000000Y-69200000D03*
X146800000Y-69200000D03*
X147600000Y-69200000D03*
X148400000Y-69200000D03*
X149200000Y-69200000D03*
X150000000Y-69200000D03*
X150800000Y-69200000D03*
X151600000Y-69200000D03*
X152400000Y-69200000D03*
X153200000Y-69200000D03*
X154000000Y-69200000D03*
X154800000Y-69200000D03*
X155600000Y-69200000D03*
X156400000Y-69200000D03*
X157200000Y-69200000D03*
X158000000Y-69200000D03*
X158800000Y-69200000D03*
X159600000Y-69200000D03*
X160400000Y-69200000D03*
X161200000Y-69200000D03*
X162000000Y-69200000D03*
X162800000Y-69200000D03*
X163600000Y-69200000D03*
X164400000Y-69200000D03*
X165200000Y-69200000D03*
X166000000Y-69200000D03*
X166800000Y-69200000D03*
X167600000Y-69200000D03*
X168400000Y-69200000D03*
X169200000Y-69200000D03*
X170000000Y-69200000D03*
X170800000Y-69200000D03*
X171600000Y-69200000D03*
X172400000Y-69200000D03*
X173200000Y-69200000D03*
X174000000Y-69200000D03*
X174800000Y-69200000D03*
X175600000Y-69200000D03*
X176400000Y-69200000D03*
X177200000Y-69200000D03*
X178000000Y-69200000D03*
X178800000Y-69200000D03*
X179600000Y-69200000D03*
X140400000Y-70000000D03*
X141200000Y-70000000D03*
X142000000Y-70000000D03*
X142800000Y-70000000D03*
X143600000Y-70000000D03*
X144400000Y-70000000D03*
X145200000Y-70000000D03*
X146000000Y-70000000D03*
X146800000Y-70000000D03*
X147600000Y-70000000D03*
X148400000Y-70000000D03*
X149200000Y-70000000D03*
X150000000Y-70000000D03*
X150800000Y-70000000D03*
X151600000Y-70000000D03*
X152400000Y-70000000D03*
X153200000Y-70000000D03*
X154000000Y-70000000D03*
X154800000Y-70000000D03*
X155600000Y-70000000D03*
X156400000Y-70000000D03*
X157200000Y-70000000D03*
X158000000Y-70000000D03*
X158800000Y-70000000D03*
X159600000Y-70000000D03*
X160400000Y-70000000D03*
X161200000Y-70000000D03*
X162000000Y-70000000D03*
X162800000Y-70000000D03*
X163600000Y-70000000D03*
X164400000Y-70000000D03*
X165200000Y-70000000D03*
X166000000Y-70000000D03*
X166800000Y-70000000D03*
X167600000Y-70000000D03*
X168400000Y-70000000D03*
X169200000Y-70000000D03*
X170000000Y-70000000D03*
X170800000Y-70000000D03*
X171600000Y-70000000D03*
X172400000Y-70000000D03*
X173200000Y-70000000D03*
X174000000Y-70000000D03*
X174800000Y-70000000D03*
X175600000Y-70000000D03*
X176400000Y-70000000D03*
X177200000Y-70000000D03*
X178000000Y-70000000D03*
X178800000Y-70000000D03*
X179600000Y-70000000D03*
X140400000Y-70800000D03*
X141200000Y-70800000D03*
X142000000Y-70800000D03*
X142800000Y-70800000D03*
X143600000Y-70800000D03*
X144400000Y-70800000D03*
X145200000Y-70800000D03*
X146000000Y-70800000D03*
X146800000Y-70800000D03*
X147600000Y-70800000D03*
X148400000Y-70800000D03*
X149200000Y-70800000D03*
X150000000Y-70800000D03*
X150800000Y-70800000D03*
X151600000Y-70800000D03*
X152400000Y-70800000D03*
X153200000Y-70800000D03*
X154000000Y-70800000D03*
X154800000Y-70800000D03*
X155600000Y-70800000D03*
X156400000Y-70800000D03*
X157200000Y-70800000D03*
X158000000Y-70800000D03*
X158800000Y-70800000D03*
X159600000Y-70800000D03*
X160400000Y-70800000D03*
X161200000Y-70800000D03*
X162000000Y-70800000D03*
X162800000Y-70800000D03*
X163600000Y-70800000D03*
X164400000Y-70800000D03*
X165200000Y-70800000D03*
X166000000Y-70800000D03*
X166800000Y-70800000D03*
X167600000Y-70800000D03*
X168400000Y-70800000D03*
X169200000Y-70800000D03*
X170000000Y-70800000D03*
X170800000Y-70800000D03*
X171600000Y-70800000D03*
X172400000Y-70800000D03*
X173200000Y-70800000D03*
X174000000Y-70800000D03*
X174800000Y-70800000D03*
X175600000Y-70800000D03*
X176400000Y-70800000D03*
X177200000Y-70800000D03*
X178000000Y-70800000D03*
X178800000Y-70800000D03*
X179600000Y-70800000D03*
X140400000Y-71600000D03*
X141200000Y-71600000D03*
X142000000Y-71600000D03*
X142800000Y-71600000D03*
X143600000Y-71600000D03*
X144400000Y-71600000D03*
X145200000Y-71600000D03*
X146000000Y-71600000D03*
X146800000Y-71600000D03*
X147600000Y-71600000D03*
X148400000Y-71600000D03*
X149200000Y-71600000D03*
X150000000Y-71600000D03*
X150800000Y-71600000D03*
X151600000Y-71600000D03*
X152400000Y-71600000D03*
X153200000Y-71600000D03*
X154000000Y-71600000D03*
X154800000Y-71600000D03*
X155600000Y-71600000D03*
X156400000Y-71600000D03*
X157200000Y-71600000D03*
X158000000Y-71600000D03*
X158800000Y-71600000D03*
X159600000Y-71600000D03*
X160400000Y-71600000D03*
X161200000Y-71600000D03*
X162000000Y-71600000D03*
X162800000Y-71600000D03*
X163600000Y-71600000D03*
X164400000Y-71600000D03*
X165200000Y-71600000D03*
X166000000Y-71600000D03*
X166800000Y-71600000D03*
X167600000Y-71600000D03*
X168400000Y-71600000D03*
X169200000Y-71600000D03*
X170000000Y-71600000D03*
X170800000Y-71600000D03*
X171600000Y-71600000D03*
X172400000Y-71600000D03*
X173200000Y-71600000D03*
X174000000Y-71600000D03*
X174800000Y-71600000D03*
X175600000Y-71600000D03*
X176400000Y-71600000D03*
X177200000Y-71600000D03*
X178000000Y-71600000D03*
X178800000Y-71600000D03*
X179600000Y-71600000D03*
X140400000Y-41200000D03*
X141200000Y-41200000D03*
X142000000Y-41200000D03*
X142800000Y-41200000D03*
X143600000Y-41200000D03*
X144400000Y-41200000D03*
X145200000Y-41200000D03*
X146000000Y-41200000D03*
X146800000Y-41200000D03*
X147600000Y-41200000D03*
X148400000Y-41200000D03*
X149200000Y-41200000D03*
X150000000Y-41200000D03*
X150800000Y-41200000D03*
X151600000Y-41200000D03*
X152400000Y-41200000D03*
X153200000Y-41200000D03*
X154000000Y-41200000D03*
X154800000Y-41200000D03*
X155600000Y-41200000D03*
X156400000Y-41200000D03*
X157200000Y-41200000D03*
X158000000Y-41200000D03*
X158800000Y-41200000D03*
X159600000Y-41200000D03*
X160400000Y-41200000D03*
X161200000Y-41200000D03*
X162000000Y-41200000D03*
X162800000Y-41200000D03*
X163600000Y-41200000D03*
X164400000Y-41200000D03*
X165200000Y-41200000D03*
X166000000Y-41200000D03*
X166800000Y-41200000D03*
X167600000Y-41200000D03*
X168400000Y-41200000D03*
X169200000Y-41200000D03*
X170000000Y-41200000D03*
X170800000Y-41200000D03*
X171600000Y-41200000D03*
X172400000Y-41200000D03*
X173200000Y-41200000D03*
X174000000Y-41200000D03*
X174800000Y-41200000D03*
X175600000Y-41200000D03*
X176400000Y-41200000D03*
X177200000Y-41200000D03*
X178000000Y-41200000D03*
X178800000Y-41200000D03*
X179600000Y-41200000D03*
X140400000Y-72400000D03*
X141200000Y-72400000D03*
X142000000Y-72400000D03*
X142800000Y-72400000D03*
X143600000Y-72400000D03*
X144400000Y-72400000D03*
X145200000Y-72400000D03*
X146000000Y-72400000D03*
X146800000Y-72400000D03*
X147600000Y-72400000D03*
X148400000Y-72400000D03*
X149200000Y-72400000D03*
X150000000Y-72400000D03*
X150800000Y-72400000D03*
X151600000Y-72400000D03*
X152400000Y-72400000D03*
X153200000Y-72400000D03*
X154000000Y-72400000D03*
X154800000Y-72400000D03*
X155600000Y-72400000D03*
X156400000Y-72400000D03*
X157200000Y-72400000D03*
X158000000Y-72400000D03*
X158800000Y-72400000D03*
X159600000Y-72400000D03*
X160400000Y-72400000D03*
X161200000Y-72400000D03*
X162000000Y-72400000D03*
X162800000Y-72400000D03*
X163600000Y-72400000D03*
X164400000Y-72400000D03*
X165200000Y-72400000D03*
X166000000Y-72400000D03*
X166800000Y-72400000D03*
X167600000Y-72400000D03*
X168400000Y-72400000D03*
X169200000Y-72400000D03*
X170000000Y-72400000D03*
X170800000Y-72400000D03*
X171600000Y-72400000D03*
X172400000Y-72400000D03*
X173200000Y-72400000D03*
X174000000Y-72400000D03*
X174800000Y-72400000D03*
X175600000Y-72400000D03*
X176400000Y-72400000D03*
X177200000Y-72400000D03*
X178000000Y-72400000D03*
X178800000Y-72400000D03*
X179600000Y-72400000D03*
X140400000Y-73200000D03*
X141200000Y-73200000D03*
X142000000Y-73200000D03*
X142800000Y-73200000D03*
X143600000Y-73200000D03*
X144400000Y-73200000D03*
X145200000Y-73200000D03*
X146000000Y-73200000D03*
X146800000Y-73200000D03*
X147600000Y-73200000D03*
X148400000Y-73200000D03*
X149200000Y-73200000D03*
X150000000Y-73200000D03*
X150800000Y-73200000D03*
X151600000Y-73200000D03*
X152400000Y-73200000D03*
X153200000Y-73200000D03*
X154000000Y-73200000D03*
X154800000Y-73200000D03*
X155600000Y-73200000D03*
X156400000Y-73200000D03*
X157200000Y-73200000D03*
X158000000Y-73200000D03*
X158800000Y-73200000D03*
X159600000Y-73200000D03*
X160400000Y-73200000D03*
X161200000Y-73200000D03*
X162000000Y-73200000D03*
X162800000Y-73200000D03*
X163600000Y-73200000D03*
X164400000Y-73200000D03*
X165200000Y-73200000D03*
X166000000Y-73200000D03*
X166800000Y-73200000D03*
X167600000Y-73200000D03*
X168400000Y-73200000D03*
X169200000Y-73200000D03*
X170000000Y-73200000D03*
X170800000Y-73200000D03*
X171600000Y-73200000D03*
X172400000Y-73200000D03*
X173200000Y-73200000D03*
X174000000Y-73200000D03*
X174800000Y-73200000D03*
X175600000Y-73200000D03*
X176400000Y-73200000D03*
X177200000Y-73200000D03*
X178000000Y-73200000D03*
X178800000Y-73200000D03*
X179600000Y-73200000D03*
X140400000Y-74000000D03*
X141200000Y-74000000D03*
X142000000Y-74000000D03*
X142800000Y-74000000D03*
X143600000Y-74000000D03*
X144400000Y-74000000D03*
X145200000Y-74000000D03*
X146000000Y-74000000D03*
X146800000Y-74000000D03*
X147600000Y-74000000D03*
X148400000Y-74000000D03*
X149200000Y-74000000D03*
X150000000Y-74000000D03*
X150800000Y-74000000D03*
X151600000Y-74000000D03*
X152400000Y-74000000D03*
X153200000Y-74000000D03*
X154000000Y-74000000D03*
X154800000Y-74000000D03*
X155600000Y-74000000D03*
X156400000Y-74000000D03*
X157200000Y-74000000D03*
X158000000Y-74000000D03*
X158800000Y-74000000D03*
X159600000Y-74000000D03*
X160400000Y-74000000D03*
X161200000Y-74000000D03*
X162000000Y-74000000D03*
X162800000Y-74000000D03*
X163600000Y-74000000D03*
X164400000Y-74000000D03*
X165200000Y-74000000D03*
X166000000Y-74000000D03*
X166800000Y-74000000D03*
X167600000Y-74000000D03*
X168400000Y-74000000D03*
X169200000Y-74000000D03*
X170000000Y-74000000D03*
X170800000Y-74000000D03*
X171600000Y-74000000D03*
X172400000Y-74000000D03*
X173200000Y-74000000D03*
X174000000Y-74000000D03*
X174800000Y-74000000D03*
X175600000Y-74000000D03*
X176400000Y-74000000D03*
X177200000Y-74000000D03*
X178000000Y-74000000D03*
X178800000Y-74000000D03*
X179600000Y-74000000D03*
X140400000Y-74800000D03*
X141200000Y-74800000D03*
X142000000Y-74800000D03*
X142800000Y-74800000D03*
X143600000Y-74800000D03*
X144400000Y-74800000D03*
X145200000Y-74800000D03*
X146000000Y-74800000D03*
X146800000Y-74800000D03*
X147600000Y-74800000D03*
X148400000Y-74800000D03*
X149200000Y-74800000D03*
X150000000Y-74800000D03*
X150800000Y-74800000D03*
X151600000Y-74800000D03*
X152400000Y-74800000D03*
X153200000Y-74800000D03*
X154000000Y-74800000D03*
X154800000Y-74800000D03*
X155600000Y-74800000D03*
X156400000Y-74800000D03*
X157200000Y-74800000D03*
X158000000Y-74800000D03*
X158800000Y-74800000D03*
X159600000Y-74800000D03*
X160400000Y-74800000D03*
X161200000Y-74800000D03*
X162000000Y-74800000D03*
X162800000Y-74800000D03*
X163600000Y-74800000D03*
X164400000Y-74800000D03*
X165200000Y-74800000D03*
X166000000Y-74800000D03*
X166800000Y-74800000D03*
X167600000Y-74800000D03*
X168400000Y-74800000D03*
X169200000Y-74800000D03*
X170000000Y-74800000D03*
X170800000Y-74800000D03*
X171600000Y-74800000D03*
X172400000Y-74800000D03*
X173200000Y-74800000D03*
X174000000Y-74800000D03*
X174800000Y-74800000D03*
X175600000Y-74800000D03*
X176400000Y-74800000D03*
X177200000Y-74800000D03*
X178000000Y-74800000D03*
X178800000Y-74800000D03*
X179600000Y-74800000D03*
X140400000Y-75600000D03*
X141200000Y-75600000D03*
X142000000Y-75600000D03*
X142800000Y-75600000D03*
X143600000Y-75600000D03*
X144400000Y-75600000D03*
X145200000Y-75600000D03*
X146000000Y-75600000D03*
X146800000Y-75600000D03*
X147600000Y-75600000D03*
X148400000Y-75600000D03*
X149200000Y-75600000D03*
X150000000Y-75600000D03*
X150800000Y-75600000D03*
X151600000Y-75600000D03*
X152400000Y-75600000D03*
X153200000Y-75600000D03*
X154000000Y-75600000D03*
X154800000Y-75600000D03*
X155600000Y-75600000D03*
X156400000Y-75600000D03*
X157200000Y-75600000D03*
X158000000Y-75600000D03*
X158800000Y-75600000D03*
X159600000Y-75600000D03*
X160400000Y-75600000D03*
X161200000Y-75600000D03*
X162000000Y-75600000D03*
X162800000Y-75600000D03*
X163600000Y-75600000D03*
X164400000Y-75600000D03*
X165200000Y-75600000D03*
X166000000Y-75600000D03*
X166800000Y-75600000D03*
X167600000Y-75600000D03*
X168400000Y-75600000D03*
X169200000Y-75600000D03*
X170000000Y-75600000D03*
X170800000Y-75600000D03*
X171600000Y-75600000D03*
X172400000Y-75600000D03*
X173200000Y-75600000D03*
X174000000Y-75600000D03*
X174800000Y-75600000D03*
X175600000Y-75600000D03*
X176400000Y-75600000D03*
X177200000Y-75600000D03*
X178000000Y-75600000D03*
X178800000Y-75600000D03*
X179600000Y-75600000D03*
X140400000Y-76400000D03*
X141200000Y-76400000D03*
X142000000Y-76400000D03*
X142800000Y-76400000D03*
X143600000Y-76400000D03*
X144400000Y-76400000D03*
X145200000Y-76400000D03*
X146000000Y-76400000D03*
X146800000Y-76400000D03*
X147600000Y-76400000D03*
X148400000Y-76400000D03*
X149200000Y-76400000D03*
X150000000Y-76400000D03*
X150800000Y-76400000D03*
X151600000Y-76400000D03*
X152400000Y-76400000D03*
X153200000Y-76400000D03*
X154000000Y-76400000D03*
X154800000Y-76400000D03*
X155600000Y-76400000D03*
X156400000Y-76400000D03*
X157200000Y-76400000D03*
X158000000Y-76400000D03*
X158800000Y-76400000D03*
X159600000Y-76400000D03*
X160400000Y-76400000D03*
X161200000Y-76400000D03*
X162000000Y-76400000D03*
X162800000Y-76400000D03*
X163600000Y-76400000D03*
X164400000Y-76400000D03*
X165200000Y-76400000D03*
X166000000Y-76400000D03*
X166800000Y-76400000D03*
X167600000Y-76400000D03*
X168400000Y-76400000D03*
X169200000Y-76400000D03*
X170000000Y-76400000D03*
X170800000Y-76400000D03*
X171600000Y-76400000D03*
X172400000Y-76400000D03*
X173200000Y-76400000D03*
X174000000Y-76400000D03*
X174800000Y-76400000D03*
X175600000Y-76400000D03*
X176400000Y-76400000D03*
X177200000Y-76400000D03*
X178000000Y-76400000D03*
X178800000Y-76400000D03*
X179600000Y-76400000D03*
X140400000Y-77200000D03*
X141200000Y-77200000D03*
X142000000Y-77200000D03*
X142800000Y-77200000D03*
X143600000Y-77200000D03*
X144400000Y-77200000D03*
X145200000Y-77200000D03*
X146000000Y-77200000D03*
X146800000Y-77200000D03*
X147600000Y-77200000D03*
X148400000Y-77200000D03*
X149200000Y-77200000D03*
X150000000Y-77200000D03*
X150800000Y-77200000D03*
X151600000Y-77200000D03*
X152400000Y-77200000D03*
X153200000Y-77200000D03*
X154000000Y-77200000D03*
X154800000Y-77200000D03*
X155600000Y-77200000D03*
X156400000Y-77200000D03*
X157200000Y-77200000D03*
X158000000Y-77200000D03*
X158800000Y-77200000D03*
X159600000Y-77200000D03*
X160400000Y-77200000D03*
X161200000Y-77200000D03*
X162000000Y-77200000D03*
X162800000Y-77200000D03*
X163600000Y-77200000D03*
X164400000Y-77200000D03*
X165200000Y-77200000D03*
X166000000Y-77200000D03*
X166800000Y-77200000D03*
X167600000Y-77200000D03*
X168400000Y-77200000D03*
X169200000Y-77200000D03*
X170000000Y-77200000D03*
X170800000Y-77200000D03*
X171600000Y-77200000D03*
X172400000Y-77200000D03*
X173200000Y-77200000D03*
X174000000Y-77200000D03*
X174800000Y-77200000D03*
X175600000Y-77200000D03*
X176400000Y-77200000D03*
X177200000Y-77200000D03*
X178000000Y-77200000D03*
X178800000Y-77200000D03*
X179600000Y-77200000D03*
X140400000Y-78000000D03*
X141200000Y-78000000D03*
X142000000Y-78000000D03*
X142800000Y-78000000D03*
X143600000Y-78000000D03*
X144400000Y-78000000D03*
X145200000Y-78000000D03*
X146000000Y-78000000D03*
X146800000Y-78000000D03*
X147600000Y-78000000D03*
X148400000Y-78000000D03*
X149200000Y-78000000D03*
X150000000Y-78000000D03*
X150800000Y-78000000D03*
X151600000Y-78000000D03*
X152400000Y-78000000D03*
X153200000Y-78000000D03*
X154000000Y-78000000D03*
X154800000Y-78000000D03*
X155600000Y-78000000D03*
X156400000Y-78000000D03*
X157200000Y-78000000D03*
X158000000Y-78000000D03*
X158800000Y-78000000D03*
X159600000Y-78000000D03*
X160400000Y-78000000D03*
X161200000Y-78000000D03*
X162000000Y-78000000D03*
X162800000Y-78000000D03*
X163600000Y-78000000D03*
X164400000Y-78000000D03*
X165200000Y-78000000D03*
X166000000Y-78000000D03*
X166800000Y-78000000D03*
X167600000Y-78000000D03*
X168400000Y-78000000D03*
X169200000Y-78000000D03*
X170000000Y-78000000D03*
X170800000Y-78000000D03*
X171600000Y-78000000D03*
X172400000Y-78000000D03*
X173200000Y-78000000D03*
X174000000Y-78000000D03*
X174800000Y-78000000D03*
X175600000Y-78000000D03*
X176400000Y-78000000D03*
X177200000Y-78000000D03*
X178000000Y-78000000D03*
X178800000Y-78000000D03*
X179600000Y-78000000D03*
X140400000Y-78800000D03*
X141200000Y-78800000D03*
X142000000Y-78800000D03*
X142800000Y-78800000D03*
X143600000Y-78800000D03*
X144400000Y-78800000D03*
X145200000Y-78800000D03*
X146000000Y-78800000D03*
X146800000Y-78800000D03*
X147600000Y-78800000D03*
X148400000Y-78800000D03*
X149200000Y-78800000D03*
X150000000Y-78800000D03*
X150800000Y-78800000D03*
X151600000Y-78800000D03*
X152400000Y-78800000D03*
X153200000Y-78800000D03*
X154000000Y-78800000D03*
X154800000Y-78800000D03*
X155600000Y-78800000D03*
X156400000Y-78800000D03*
X157200000Y-78800000D03*
X158000000Y-78800000D03*
X158800000Y-78800000D03*
X159600000Y-78800000D03*
X160400000Y-78800000D03*
X161200000Y-78800000D03*
X162000000Y-78800000D03*
X162800000Y-78800000D03*
X163600000Y-78800000D03*
X164400000Y-78800000D03*
X165200000Y-78800000D03*
X166000000Y-78800000D03*
X166800000Y-78800000D03*
X167600000Y-78800000D03*
X168400000Y-78800000D03*
X169200000Y-78800000D03*
X170000000Y-78800000D03*
X170800000Y-78800000D03*
X171600000Y-78800000D03*
X172400000Y-78800000D03*
X173200000Y-78800000D03*
X174000000Y-78800000D03*
X174800000Y-78800000D03*
X175600000Y-78800000D03*
X176400000Y-78800000D03*
X177200000Y-78800000D03*
X178000000Y-78800000D03*
X178800000Y-78800000D03*
X179600000Y-78800000D03*
X140400000Y-79600000D03*
X141200000Y-79600000D03*
X142000000Y-79600000D03*
X142800000Y-79600000D03*
X143600000Y-79600000D03*
X144400000Y-79600000D03*
X145200000Y-79600000D03*
X146000000Y-79600000D03*
X146800000Y-79600000D03*
X147600000Y-79600000D03*
X148400000Y-79600000D03*
X149200000Y-79600000D03*
X150000000Y-79600000D03*
X150800000Y-79600000D03*
X151600000Y-79600000D03*
X152400000Y-79600000D03*
X153200000Y-79600000D03*
X154000000Y-79600000D03*
X154800000Y-79600000D03*
X155600000Y-79600000D03*
X156400000Y-79600000D03*
X157200000Y-79600000D03*
X158000000Y-79600000D03*
X158800000Y-79600000D03*
X159600000Y-79600000D03*
X160400000Y-79600000D03*
X161200000Y-79600000D03*
X162000000Y-79600000D03*
X162800000Y-79600000D03*
X163600000Y-79600000D03*
X164400000Y-79600000D03*
X165200000Y-79600000D03*
X166000000Y-79600000D03*
X166800000Y-79600000D03*
X167600000Y-79600000D03*
X168400000Y-79600000D03*
X169200000Y-79600000D03*
X170000000Y-79600000D03*
X170800000Y-79600000D03*
X171600000Y-79600000D03*
X172400000Y-79600000D03*
X173200000Y-79600000D03*
X174000000Y-79600000D03*
X174800000Y-79600000D03*
X175600000Y-79600000D03*
X176400000Y-79600000D03*
X177200000Y-79600000D03*
X178000000Y-79600000D03*
X178800000Y-79600000D03*
X179600000Y-79600000D03*
X140400000Y-42000000D03*
X141200000Y-42000000D03*
X142000000Y-42000000D03*
X142800000Y-42000000D03*
X143600000Y-42000000D03*
X144400000Y-42000000D03*
X145200000Y-42000000D03*
X146000000Y-42000000D03*
X146800000Y-42000000D03*
X147600000Y-42000000D03*
X148400000Y-42000000D03*
X149200000Y-42000000D03*
X150000000Y-42000000D03*
X150800000Y-42000000D03*
X151600000Y-42000000D03*
X152400000Y-42000000D03*
X153200000Y-42000000D03*
X154000000Y-42000000D03*
X154800000Y-42000000D03*
X155600000Y-42000000D03*
X156400000Y-42000000D03*
X157200000Y-42000000D03*
X158000000Y-42000000D03*
X158800000Y-42000000D03*
X159600000Y-42000000D03*
X160400000Y-42000000D03*
X161200000Y-42000000D03*
X162000000Y-42000000D03*
X162800000Y-42000000D03*
X163600000Y-42000000D03*
X164400000Y-42000000D03*
X165200000Y-42000000D03*
X166000000Y-42000000D03*
X166800000Y-42000000D03*
X167600000Y-42000000D03*
X168400000Y-42000000D03*
X169200000Y-42000000D03*
X170000000Y-42000000D03*
X170800000Y-42000000D03*
X171600000Y-42000000D03*
X172400000Y-42000000D03*
X173200000Y-42000000D03*
X174000000Y-42000000D03*
X174800000Y-42000000D03*
X175600000Y-42000000D03*
X176400000Y-42000000D03*
X177200000Y-42000000D03*
X178000000Y-42000000D03*
X178800000Y-42000000D03*
X179600000Y-42000000D03*
X140400000Y-42800000D03*
X141200000Y-42800000D03*
X142000000Y-42800000D03*
X142800000Y-42800000D03*
X143600000Y-42800000D03*
X144400000Y-42800000D03*
X145200000Y-42800000D03*
X146000000Y-42800000D03*
X146800000Y-42800000D03*
X147600000Y-42800000D03*
X148400000Y-42800000D03*
X149200000Y-42800000D03*
X150000000Y-42800000D03*
X150800000Y-42800000D03*
X151600000Y-42800000D03*
X152400000Y-42800000D03*
X153200000Y-42800000D03*
X154000000Y-42800000D03*
X154800000Y-42800000D03*
X155600000Y-42800000D03*
X156400000Y-42800000D03*
X157200000Y-42800000D03*
X158000000Y-42800000D03*
X158800000Y-42800000D03*
X159600000Y-42800000D03*
X160400000Y-42800000D03*
X161200000Y-42800000D03*
X162000000Y-42800000D03*
X162800000Y-42800000D03*
X163600000Y-42800000D03*
X164400000Y-42800000D03*
X165200000Y-42800000D03*
X166000000Y-42800000D03*
X166800000Y-42800000D03*
X167600000Y-42800000D03*
X168400000Y-42800000D03*
X169200000Y-42800000D03*
X170000000Y-42800000D03*
X170800000Y-42800000D03*
X171600000Y-42800000D03*
X172400000Y-42800000D03*
X173200000Y-42800000D03*
X174000000Y-42800000D03*
X174800000Y-42800000D03*
X175600000Y-42800000D03*
X176400000Y-42800000D03*
X177200000Y-42800000D03*
X178000000Y-42800000D03*
X178800000Y-42800000D03*
X179600000Y-42800000D03*
X140400000Y-43600000D03*
X141200000Y-43600000D03*
X142000000Y-43600000D03*
X142800000Y-43600000D03*
X143600000Y-43600000D03*
X144400000Y-43600000D03*
X145200000Y-43600000D03*
X146000000Y-43600000D03*
X146800000Y-43600000D03*
X147600000Y-43600000D03*
X148400000Y-43600000D03*
X149200000Y-43600000D03*
X150000000Y-43600000D03*
X150800000Y-43600000D03*
X151600000Y-43600000D03*
X152400000Y-43600000D03*
X153200000Y-43600000D03*
X154000000Y-43600000D03*
X154800000Y-43600000D03*
X155600000Y-43600000D03*
X156400000Y-43600000D03*
X157200000Y-43600000D03*
X158000000Y-43600000D03*
X158800000Y-43600000D03*
X159600000Y-43600000D03*
X160400000Y-43600000D03*
X161200000Y-43600000D03*
X162000000Y-43600000D03*
X162800000Y-43600000D03*
X163600000Y-43600000D03*
X164400000Y-43600000D03*
X165200000Y-43600000D03*
X166000000Y-43600000D03*
X166800000Y-43600000D03*
X167600000Y-43600000D03*
X168400000Y-43600000D03*
X169200000Y-43600000D03*
X170000000Y-43600000D03*
X170800000Y-43600000D03*
X171600000Y-43600000D03*
X172400000Y-43600000D03*
X173200000Y-43600000D03*
X174000000Y-43600000D03*
X174800000Y-43600000D03*
X175600000Y-43600000D03*
X176400000Y-43600000D03*
X177200000Y-43600000D03*
X178000000Y-43600000D03*
X178800000Y-43600000D03*
X179600000Y-43600000D03*
X140400000Y-44400000D03*
X141200000Y-44400000D03*
X142000000Y-44400000D03*
X142800000Y-44400000D03*
X143600000Y-44400000D03*
X144400000Y-44400000D03*
X145200000Y-44400000D03*
X146000000Y-44400000D03*
X146800000Y-44400000D03*
X147600000Y-44400000D03*
X148400000Y-44400000D03*
X149200000Y-44400000D03*
X150000000Y-44400000D03*
X150800000Y-44400000D03*
X151600000Y-44400000D03*
X152400000Y-44400000D03*
X153200000Y-44400000D03*
X154000000Y-44400000D03*
X154800000Y-44400000D03*
X155600000Y-44400000D03*
X156400000Y-44400000D03*
X157200000Y-44400000D03*
X158000000Y-44400000D03*
X158800000Y-44400000D03*
X159600000Y-44400000D03*
X160400000Y-44400000D03*
X161200000Y-44400000D03*
X162000000Y-44400000D03*
X162800000Y-44400000D03*
X163600000Y-44400000D03*
X164400000Y-44400000D03*
X165200000Y-44400000D03*
X166000000Y-44400000D03*
X166800000Y-44400000D03*
X167600000Y-44400000D03*
X168400000Y-44400000D03*
X169200000Y-44400000D03*
X170000000Y-44400000D03*
X170800000Y-44400000D03*
X171600000Y-44400000D03*
X172400000Y-44400000D03*
X173200000Y-44400000D03*
X174000000Y-44400000D03*
X174800000Y-44400000D03*
X175600000Y-44400000D03*
X176400000Y-44400000D03*
X177200000Y-44400000D03*
X178000000Y-44400000D03*
X178800000Y-44400000D03*
X179600000Y-44400000D03*
X140400000Y-45200000D03*
X141200000Y-45200000D03*
X142000000Y-45200000D03*
X142800000Y-45200000D03*
X143600000Y-45200000D03*
X144400000Y-45200000D03*
X145200000Y-45200000D03*
X146000000Y-45200000D03*
X146800000Y-45200000D03*
X147600000Y-45200000D03*
X148400000Y-45200000D03*
X149200000Y-45200000D03*
X150000000Y-45200000D03*
X150800000Y-45200000D03*
X151600000Y-45200000D03*
X152400000Y-45200000D03*
X153200000Y-45200000D03*
X154000000Y-45200000D03*
X154800000Y-45200000D03*
X155600000Y-45200000D03*
X156400000Y-45200000D03*
X157200000Y-45200000D03*
X158000000Y-45200000D03*
X158800000Y-45200000D03*
X159600000Y-45200000D03*
X160400000Y-45200000D03*
X161200000Y-45200000D03*
X162000000Y-45200000D03*
X162800000Y-45200000D03*
X163600000Y-45200000D03*
X164400000Y-45200000D03*
X165200000Y-45200000D03*
X166000000Y-45200000D03*
X166800000Y-45200000D03*
X167600000Y-45200000D03*
X168400000Y-45200000D03*
X169200000Y-45200000D03*
X170000000Y-45200000D03*
X170800000Y-45200000D03*
X171600000Y-45200000D03*
X172400000Y-45200000D03*
X173200000Y-45200000D03*
X174000000Y-45200000D03*
X174800000Y-45200000D03*
X175600000Y-45200000D03*
X176400000Y-45200000D03*
X177200000Y-45200000D03*
X178000000Y-45200000D03*
X178800000Y-45200000D03*
X179600000Y-45200000D03*
X140400000Y-46000000D03*
X141200000Y-46000000D03*
X142000000Y-46000000D03*
X142800000Y-46000000D03*
X143600000Y-46000000D03*
X144400000Y-46000000D03*
X145200000Y-46000000D03*
X146000000Y-46000000D03*
X146800000Y-46000000D03*
X147600000Y-46000000D03*
X148400000Y-46000000D03*
X149200000Y-46000000D03*
X150000000Y-46000000D03*
X150800000Y-46000000D03*
X151600000Y-46000000D03*
X152400000Y-46000000D03*
X153200000Y-46000000D03*
X154000000Y-46000000D03*
X154800000Y-46000000D03*
X155600000Y-46000000D03*
X156400000Y-46000000D03*
X157200000Y-46000000D03*
X158000000Y-46000000D03*
X158800000Y-46000000D03*
X159600000Y-46000000D03*
X160400000Y-46000000D03*
X161200000Y-46000000D03*
X162000000Y-46000000D03*
X162800000Y-46000000D03*
X163600000Y-46000000D03*
X164400000Y-46000000D03*
X165200000Y-46000000D03*
X166000000Y-46000000D03*
X166800000Y-46000000D03*
X167600000Y-46000000D03*
X168400000Y-46000000D03*
X169200000Y-46000000D03*
X170000000Y-46000000D03*
X170800000Y-46000000D03*
X171600000Y-46000000D03*
X172400000Y-46000000D03*
X173200000Y-46000000D03*
X174000000Y-46000000D03*
X174800000Y-46000000D03*
X175600000Y-46000000D03*
X176400000Y-46000000D03*
X177200000Y-46000000D03*
X178000000Y-46000000D03*
X178800000Y-46000000D03*
X179600000Y-46000000D03*
X140400000Y-46800000D03*
X141200000Y-46800000D03*
X142000000Y-46800000D03*
X142800000Y-46800000D03*
X143600000Y-46800000D03*
X144400000Y-46800000D03*
X145200000Y-46800000D03*
X146000000Y-46800000D03*
X146800000Y-46800000D03*
X147600000Y-46800000D03*
X148400000Y-46800000D03*
X149200000Y-46800000D03*
X150000000Y-46800000D03*
X150800000Y-46800000D03*
X151600000Y-46800000D03*
X152400000Y-46800000D03*
X153200000Y-46800000D03*
X154000000Y-46800000D03*
X154800000Y-46800000D03*
X155600000Y-46800000D03*
X156400000Y-46800000D03*
X157200000Y-46800000D03*
X158000000Y-46800000D03*
X158800000Y-46800000D03*
X159600000Y-46800000D03*
X160400000Y-46800000D03*
X161200000Y-46800000D03*
X162000000Y-46800000D03*
X162800000Y-46800000D03*
X163600000Y-46800000D03*
X164400000Y-46800000D03*
X165200000Y-46800000D03*
X166000000Y-46800000D03*
X166800000Y-46800000D03*
X167600000Y-46800000D03*
X168400000Y-46800000D03*
X169200000Y-46800000D03*
X170000000Y-46800000D03*
X170800000Y-46800000D03*
X171600000Y-46800000D03*
X172400000Y-46800000D03*
X173200000Y-46800000D03*
X174000000Y-46800000D03*
X174800000Y-46800000D03*
X175600000Y-46800000D03*
X176400000Y-46800000D03*
X177200000Y-46800000D03*
X178000000Y-46800000D03*
X178800000Y-46800000D03*
X179600000Y-46800000D03*
X140400000Y-47600000D03*
X141200000Y-47600000D03*
X142000000Y-47600000D03*
X142800000Y-47600000D03*
X143600000Y-47600000D03*
X144400000Y-47600000D03*
X145200000Y-47600000D03*
X146000000Y-47600000D03*
X146800000Y-47600000D03*
X147600000Y-47600000D03*
X148400000Y-47600000D03*
X149200000Y-47600000D03*
X150000000Y-47600000D03*
X150800000Y-47600000D03*
X151600000Y-47600000D03*
X152400000Y-47600000D03*
X153200000Y-47600000D03*
X154000000Y-47600000D03*
X154800000Y-47600000D03*
X155600000Y-47600000D03*
X156400000Y-47600000D03*
X157200000Y-47600000D03*
X158000000Y-47600000D03*
X158800000Y-47600000D03*
X159600000Y-47600000D03*
X160400000Y-47600000D03*
X161200000Y-47600000D03*
X162000000Y-47600000D03*
X162800000Y-47600000D03*
X163600000Y-47600000D03*
X164400000Y-47600000D03*
X165200000Y-47600000D03*
X166000000Y-47600000D03*
X166800000Y-47600000D03*
X167600000Y-47600000D03*
X168400000Y-47600000D03*
X169200000Y-47600000D03*
X170000000Y-47600000D03*
X170800000Y-47600000D03*
X171600000Y-47600000D03*
X172400000Y-47600000D03*
X173200000Y-47600000D03*
X174000000Y-47600000D03*
X174800000Y-47600000D03*
X175600000Y-47600000D03*
X176400000Y-47600000D03*
X177200000Y-47600000D03*
X178000000Y-47600000D03*
X178800000Y-47600000D03*
X179600000Y-47600000D03*
X140400000Y-48400000D03*
X141200000Y-48400000D03*
X142000000Y-48400000D03*
X142800000Y-48400000D03*
X143600000Y-48400000D03*
X144400000Y-48400000D03*
X145200000Y-48400000D03*
X146000000Y-48400000D03*
X146800000Y-48400000D03*
X147600000Y-48400000D03*
X148400000Y-48400000D03*
X149200000Y-48400000D03*
X150000000Y-48400000D03*
X150800000Y-48400000D03*
X151600000Y-48400000D03*
X152400000Y-48400000D03*
X153200000Y-48400000D03*
X154000000Y-48400000D03*
X154800000Y-48400000D03*
X155600000Y-48400000D03*
X156400000Y-48400000D03*
X157200000Y-48400000D03*
X158000000Y-48400000D03*
X158800000Y-48400000D03*
X159600000Y-48400000D03*
X160400000Y-48400000D03*
X161200000Y-48400000D03*
X162000000Y-48400000D03*
X162800000Y-48400000D03*
X163600000Y-48400000D03*
X164400000Y-48400000D03*
X165200000Y-48400000D03*
X166000000Y-48400000D03*
X166800000Y-48400000D03*
X167600000Y-48400000D03*
X168400000Y-48400000D03*
X169200000Y-48400000D03*
X170000000Y-48400000D03*
X170800000Y-48400000D03*
X171600000Y-48400000D03*
X172400000Y-48400000D03*
X173200000Y-48400000D03*
X174000000Y-48400000D03*
X174800000Y-48400000D03*
X175600000Y-48400000D03*
X176400000Y-48400000D03*
X177200000Y-48400000D03*
X178000000Y-48400000D03*
X178800000Y-48400000D03*
X179600000Y-48400000D03*
X140400000Y-49200000D03*
X141200000Y-49200000D03*
X142000000Y-49200000D03*
X142800000Y-49200000D03*
X143600000Y-49200000D03*
X144400000Y-49200000D03*
X145200000Y-49200000D03*
X146000000Y-49200000D03*
X146800000Y-49200000D03*
X147600000Y-49200000D03*
X148400000Y-49200000D03*
X149200000Y-49200000D03*
X150000000Y-49200000D03*
X150800000Y-49200000D03*
X151600000Y-49200000D03*
X152400000Y-49200000D03*
X153200000Y-49200000D03*
X154000000Y-49200000D03*
X154800000Y-49200000D03*
X155600000Y-49200000D03*
X156400000Y-49200000D03*
X157200000Y-49200000D03*
X158000000Y-49200000D03*
X158800000Y-49200000D03*
X159600000Y-49200000D03*
X160400000Y-49200000D03*
X161200000Y-49200000D03*
X162000000Y-49200000D03*
X162800000Y-49200000D03*
X163600000Y-49200000D03*
X164400000Y-49200000D03*
X165200000Y-49200000D03*
X166000000Y-49200000D03*
X166800000Y-49200000D03*
X167600000Y-49200000D03*
X168400000Y-49200000D03*
X169200000Y-49200000D03*
X170000000Y-49200000D03*
X170800000Y-49200000D03*
X171600000Y-49200000D03*
X172400000Y-49200000D03*
X173200000Y-49200000D03*
X174000000Y-49200000D03*
X174800000Y-49200000D03*
X175600000Y-49200000D03*
X176400000Y-49200000D03*
X177200000Y-49200000D03*
X178000000Y-49200000D03*
X178800000Y-49200000D03*
X179600000Y-49200000D03*
X140400000Y-50000000D03*
X141200000Y-50000000D03*
X142000000Y-50000000D03*
X142800000Y-50000000D03*
X143600000Y-50000000D03*
X144400000Y-50000000D03*
X145200000Y-50000000D03*
X146000000Y-50000000D03*
X146800000Y-50000000D03*
X147600000Y-50000000D03*
X148400000Y-50000000D03*
X149200000Y-50000000D03*
X150000000Y-50000000D03*
X150800000Y-50000000D03*
X151600000Y-50000000D03*
X152400000Y-50000000D03*
X153200000Y-50000000D03*
X154000000Y-50000000D03*
X154800000Y-50000000D03*
X155600000Y-50000000D03*
X156400000Y-50000000D03*
X157200000Y-50000000D03*
X158000000Y-50000000D03*
X158800000Y-50000000D03*
X159600000Y-50000000D03*
X160400000Y-50000000D03*
X161200000Y-50000000D03*
X162000000Y-50000000D03*
X162800000Y-50000000D03*
X163600000Y-50000000D03*
X164400000Y-50000000D03*
X165200000Y-50000000D03*
X166000000Y-50000000D03*
X166800000Y-50000000D03*
X167600000Y-50000000D03*
X168400000Y-50000000D03*
X169200000Y-50000000D03*
X170000000Y-50000000D03*
X170800000Y-50000000D03*
X171600000Y-50000000D03*
X172400000Y-50000000D03*
X173200000Y-50000000D03*
X174000000Y-50000000D03*
X174800000Y-50000000D03*
X175600000Y-50000000D03*
X176400000Y-50000000D03*
X177200000Y-50000000D03*
X178000000Y-50000000D03*
X178800000Y-50000000D03*
X179600000Y-50000000D03*
X140400000Y-50800000D03*
X141200000Y-50800000D03*
X142000000Y-50800000D03*
X142800000Y-50800000D03*
X143600000Y-50800000D03*
X144400000Y-50800000D03*
X145200000Y-50800000D03*
X146000000Y-50800000D03*
X146800000Y-50800000D03*
X147600000Y-50800000D03*
X148400000Y-50800000D03*
X149200000Y-50800000D03*
X150000000Y-50800000D03*
X150800000Y-50800000D03*
X151600000Y-50800000D03*
X152400000Y-50800000D03*
X153200000Y-50800000D03*
X154000000Y-50800000D03*
X154800000Y-50800000D03*
X155600000Y-50800000D03*
X156400000Y-50800000D03*
X157200000Y-50800000D03*
X158000000Y-50800000D03*
X158800000Y-50800000D03*
X159600000Y-50800000D03*
X160400000Y-50800000D03*
X161200000Y-50800000D03*
X162000000Y-50800000D03*
X162800000Y-50800000D03*
X163600000Y-50800000D03*
X164400000Y-50800000D03*
X165200000Y-50800000D03*
X166000000Y-50800000D03*
X166800000Y-50800000D03*
X167600000Y-50800000D03*
X168400000Y-50800000D03*
X169200000Y-50800000D03*
X170000000Y-50800000D03*
X170800000Y-50800000D03*
X171600000Y-50800000D03*
X172400000Y-50800000D03*
X173200000Y-50800000D03*
X174000000Y-50800000D03*
X174800000Y-50800000D03*
X175600000Y-50800000D03*
X176400000Y-50800000D03*
X177200000Y-50800000D03*
X178000000Y-50800000D03*
X178800000Y-50800000D03*
X179600000Y-50800000D03*
X140400000Y-51600000D03*
X141200000Y-51600000D03*
X142000000Y-51600000D03*
X142800000Y-51600000D03*
X143600000Y-51600000D03*
X144400000Y-51600000D03*
X145200000Y-51600000D03*
X146000000Y-51600000D03*
X146800000Y-51600000D03*
X147600000Y-51600000D03*
X148400000Y-51600000D03*
X149200000Y-51600000D03*
X150000000Y-51600000D03*
X150800000Y-51600000D03*
X151600000Y-51600000D03*
X152400000Y-51600000D03*
X153200000Y-51600000D03*
X154000000Y-51600000D03*
X154800000Y-51600000D03*
X155600000Y-51600000D03*
X156400000Y-51600000D03*
X157200000Y-51600000D03*
X158000000Y-51600000D03*
X158800000Y-51600000D03*
X159600000Y-51600000D03*
X160400000Y-51600000D03*
X161200000Y-51600000D03*
X162000000Y-51600000D03*
X162800000Y-51600000D03*
X163600000Y-51600000D03*
X164400000Y-51600000D03*
X165200000Y-51600000D03*
X166000000Y-51600000D03*
X166800000Y-51600000D03*
X167600000Y-51600000D03*
X168400000Y-51600000D03*
X169200000Y-51600000D03*
X170000000Y-51600000D03*
X170800000Y-51600000D03*
X171600000Y-51600000D03*
X172400000Y-51600000D03*
X173200000Y-51600000D03*
X174000000Y-51600000D03*
X174800000Y-51600000D03*
X175600000Y-51600000D03*
X176400000Y-51600000D03*
X177200000Y-51600000D03*
X178000000Y-51600000D03*
X178800000Y-51600000D03*
X179600000Y-51600000D03*
X140400000Y-52400000D03*
X141200000Y-52400000D03*
X142000000Y-52400000D03*
X142800000Y-52400000D03*
X143600000Y-52400000D03*
X144400000Y-52400000D03*
X145200000Y-52400000D03*
X146000000Y-52400000D03*
X146800000Y-52400000D03*
X147600000Y-52400000D03*
X148400000Y-52400000D03*
X149200000Y-52400000D03*
X150000000Y-52400000D03*
X150800000Y-52400000D03*
X151600000Y-52400000D03*
X152400000Y-52400000D03*
X153200000Y-52400000D03*
X154000000Y-52400000D03*
X154800000Y-52400000D03*
X155600000Y-52400000D03*
X156400000Y-52400000D03*
X157200000Y-52400000D03*
X158000000Y-52400000D03*
X158800000Y-52400000D03*
X159600000Y-52400000D03*
X160400000Y-52400000D03*
X161200000Y-52400000D03*
X162000000Y-52400000D03*
X162800000Y-52400000D03*
X163600000Y-52400000D03*
X164400000Y-52400000D03*
X165200000Y-52400000D03*
X166000000Y-52400000D03*
X166800000Y-52400000D03*
X167600000Y-52400000D03*
X168400000Y-52400000D03*
X169200000Y-52400000D03*
X170000000Y-52400000D03*
X170800000Y-52400000D03*
X171600000Y-52400000D03*
X172400000Y-52400000D03*
X173200000Y-52400000D03*
X174000000Y-52400000D03*
X174800000Y-52400000D03*
X175600000Y-52400000D03*
X176400000Y-52400000D03*
X177200000Y-52400000D03*
X178000000Y-52400000D03*
X178800000Y-52400000D03*
X179600000Y-52400000D03*
X140400000Y-53200000D03*
X141200000Y-53200000D03*
X142000000Y-53200000D03*
X142800000Y-53200000D03*
X143600000Y-53200000D03*
X144400000Y-53200000D03*
X145200000Y-53200000D03*
X146000000Y-53200000D03*
X146800000Y-53200000D03*
X147600000Y-53200000D03*
X148400000Y-53200000D03*
X149200000Y-53200000D03*
X150000000Y-53200000D03*
X150800000Y-53200000D03*
X151600000Y-53200000D03*
X152400000Y-53200000D03*
X153200000Y-53200000D03*
X154000000Y-53200000D03*
X154800000Y-53200000D03*
X155600000Y-53200000D03*
X156400000Y-53200000D03*
X157200000Y-53200000D03*
X158000000Y-53200000D03*
X158800000Y-53200000D03*
X159600000Y-53200000D03*
X160400000Y-53200000D03*
X161200000Y-53200000D03*
X162000000Y-53200000D03*
X162800000Y-53200000D03*
X163600000Y-53200000D03*
X164400000Y-53200000D03*
X165200000Y-53200000D03*
X166000000Y-53200000D03*
X166800000Y-53200000D03*
X167600000Y-53200000D03*
X168400000Y-53200000D03*
X169200000Y-53200000D03*
X170000000Y-53200000D03*
X170800000Y-53200000D03*
X171600000Y-53200000D03*
X172400000Y-53200000D03*
X173200000Y-53200000D03*
X174000000Y-53200000D03*
X174800000Y-53200000D03*
X175600000Y-53200000D03*
X176400000Y-53200000D03*
X177200000Y-53200000D03*
X178000000Y-53200000D03*
X178800000Y-53200000D03*
X179600000Y-53200000D03*
X140400000Y-54000000D03*
X141200000Y-54000000D03*
X142000000Y-54000000D03*
X142800000Y-54000000D03*
X143600000Y-54000000D03*
X144400000Y-54000000D03*
X145200000Y-54000000D03*
X146000000Y-54000000D03*
X146800000Y-54000000D03*
X147600000Y-54000000D03*
X148400000Y-54000000D03*
X149200000Y-54000000D03*
X150000000Y-54000000D03*
X150800000Y-54000000D03*
X151600000Y-54000000D03*
X152400000Y-54000000D03*
X153200000Y-54000000D03*
X154000000Y-54000000D03*
X154800000Y-54000000D03*
X155600000Y-54000000D03*
X156400000Y-54000000D03*
X157200000Y-54000000D03*
X158000000Y-54000000D03*
X158800000Y-54000000D03*
X159600000Y-54000000D03*
X160400000Y-54000000D03*
X161200000Y-54000000D03*
X162000000Y-54000000D03*
X162800000Y-54000000D03*
X163600000Y-54000000D03*
X164400000Y-54000000D03*
X165200000Y-54000000D03*
X166000000Y-54000000D03*
X166800000Y-54000000D03*
X167600000Y-54000000D03*
X168400000Y-54000000D03*
X169200000Y-54000000D03*
X170000000Y-54000000D03*
X170800000Y-54000000D03*
X171600000Y-54000000D03*
X172400000Y-54000000D03*
X173200000Y-54000000D03*
X174000000Y-54000000D03*
X174800000Y-54000000D03*
X175600000Y-54000000D03*
X176400000Y-54000000D03*
X177200000Y-54000000D03*
X178000000Y-54000000D03*
X178800000Y-54000000D03*
X179600000Y-54000000D03*
X140400000Y-54800000D03*
X141200000Y-54800000D03*
X142000000Y-54800000D03*
X142800000Y-54800000D03*
X143600000Y-54800000D03*
X144400000Y-54800000D03*
X145200000Y-54800000D03*
X146000000Y-54800000D03*
X146800000Y-54800000D03*
X147600000Y-54800000D03*
X148400000Y-54800000D03*
X149200000Y-54800000D03*
X150000000Y-54800000D03*
X150800000Y-54800000D03*
X151600000Y-54800000D03*
X152400000Y-54800000D03*
X153200000Y-54800000D03*
X154000000Y-54800000D03*
X154800000Y-54800000D03*
X155600000Y-54800000D03*
X156400000Y-54800000D03*
X157200000Y-54800000D03*
X158000000Y-54800000D03*
X158800000Y-54800000D03*
X159600000Y-54800000D03*
X160400000Y-54800000D03*
X161200000Y-54800000D03*
X162000000Y-54800000D03*
X162800000Y-54800000D03*
X163600000Y-54800000D03*
X164400000Y-54800000D03*
X165200000Y-54800000D03*
X166000000Y-54800000D03*
X166800000Y-54800000D03*
X167600000Y-54800000D03*
X168400000Y-54800000D03*
X169200000Y-54800000D03*
X170000000Y-54800000D03*
X170800000Y-54800000D03*
X171600000Y-54800000D03*
X172400000Y-54800000D03*
X173200000Y-54800000D03*
X174000000Y-54800000D03*
X174800000Y-54800000D03*
X175600000Y-54800000D03*
X176400000Y-54800000D03*
X177200000Y-54800000D03*
X178000000Y-54800000D03*
X178800000Y-54800000D03*
X179600000Y-54800000D03*
X140400000Y-55600000D03*
X141200000Y-55600000D03*
X142000000Y-55600000D03*
X142800000Y-55600000D03*
X143600000Y-55600000D03*
X144400000Y-55600000D03*
X145200000Y-55600000D03*
X146000000Y-55600000D03*
X146800000Y-55600000D03*
X147600000Y-55600000D03*
X148400000Y-55600000D03*
X149200000Y-55600000D03*
X150000000Y-55600000D03*
X150800000Y-55600000D03*
X151600000Y-55600000D03*
X152400000Y-55600000D03*
X153200000Y-55600000D03*
X154000000Y-55600000D03*
X154800000Y-55600000D03*
X155600000Y-55600000D03*
X156400000Y-55600000D03*
X157200000Y-55600000D03*
X158000000Y-55600000D03*
X158800000Y-55600000D03*
X159600000Y-55600000D03*
X160400000Y-55600000D03*
X161200000Y-55600000D03*
X162000000Y-55600000D03*
X162800000Y-55600000D03*
X163600000Y-55600000D03*
X164400000Y-55600000D03*
X165200000Y-55600000D03*
X166000000Y-55600000D03*
X166800000Y-55600000D03*
X167600000Y-55600000D03*
X168400000Y-55600000D03*
X169200000Y-55600000D03*
X170000000Y-55600000D03*
X170800000Y-55600000D03*
X171600000Y-55600000D03*
X172400000Y-55600000D03*
X173200000Y-55600000D03*
X174000000Y-55600000D03*
X174800000Y-55600000D03*
X175600000Y-55600000D03*
X176400000Y-55600000D03*
X177200000Y-55600000D03*
X178000000Y-55600000D03*
X178800000Y-55600000D03*
X179600000Y-55600000D03*
%TD*%
D10*
%TO.C,BH4*%
X95000000Y-85000000D03*
%TD*%
%TO.C,BH3*%
X45000000Y-85000000D03*
%TD*%
%TO.C,BH2*%
X95000000Y-35000000D03*
%TD*%
%TO.C,BH5*%
X135000000Y-35000000D03*
%TD*%
D12*
%TO.C,U101*%
X50400000Y-40400000D03*
X51200000Y-40400000D03*
X52000000Y-40400000D03*
X52800000Y-40400000D03*
X53600000Y-40400000D03*
X54400000Y-40400000D03*
X55200000Y-40400000D03*
X56000000Y-40400000D03*
X56800000Y-40400000D03*
X57600000Y-40400000D03*
X58400000Y-40400000D03*
X59200000Y-40400000D03*
X60000000Y-40400000D03*
X60800000Y-40400000D03*
X61600000Y-40400000D03*
X62400000Y-40400000D03*
X63200000Y-40400000D03*
X64000000Y-40400000D03*
X64800000Y-40400000D03*
X65600000Y-40400000D03*
X66400000Y-40400000D03*
X67200000Y-40400000D03*
X68000000Y-40400000D03*
X68800000Y-40400000D03*
X69600000Y-40400000D03*
X70400000Y-40400000D03*
X71200000Y-40400000D03*
X72000000Y-40400000D03*
X72800000Y-40400000D03*
X73600000Y-40400000D03*
X74400000Y-40400000D03*
X75200000Y-40400000D03*
X76000000Y-40400000D03*
X76800000Y-40400000D03*
X77600000Y-40400000D03*
X78400000Y-40400000D03*
X79200000Y-40400000D03*
X80000000Y-40400000D03*
X80800000Y-40400000D03*
X81600000Y-40400000D03*
X82400000Y-40400000D03*
X83200000Y-40400000D03*
X84000000Y-40400000D03*
X84800000Y-40400000D03*
X85600000Y-40400000D03*
X86400000Y-40400000D03*
X87200000Y-40400000D03*
X88000000Y-40400000D03*
X88800000Y-40400000D03*
X89600000Y-40400000D03*
X50400000Y-56400000D03*
X51200000Y-56400000D03*
X52000000Y-56400000D03*
X52800000Y-56400000D03*
X53600000Y-56400000D03*
X54400000Y-56400000D03*
X55200000Y-56400000D03*
X56000000Y-56400000D03*
X56800000Y-56400000D03*
X57600000Y-56400000D03*
X58400000Y-56400000D03*
X59200000Y-56400000D03*
X60000000Y-56400000D03*
X60800000Y-56400000D03*
X61600000Y-56400000D03*
X62400000Y-56400000D03*
X63200000Y-56400000D03*
X64000000Y-56400000D03*
X64800000Y-56400000D03*
X65600000Y-56400000D03*
X66400000Y-56400000D03*
X67200000Y-56400000D03*
X68000000Y-56400000D03*
X68800000Y-56400000D03*
X69600000Y-56400000D03*
X70400000Y-56400000D03*
X71200000Y-56400000D03*
X72000000Y-56400000D03*
X72800000Y-56400000D03*
X73600000Y-56400000D03*
X74400000Y-56400000D03*
X75200000Y-56400000D03*
X76000000Y-56400000D03*
X76800000Y-56400000D03*
X77600000Y-56400000D03*
X78400000Y-56400000D03*
X79200000Y-56400000D03*
X80000000Y-56400000D03*
X80800000Y-56400000D03*
X81600000Y-56400000D03*
X82400000Y-56400000D03*
X83200000Y-56400000D03*
X84000000Y-56400000D03*
X84800000Y-56400000D03*
X85600000Y-56400000D03*
X86400000Y-56400000D03*
X87200000Y-56400000D03*
X88000000Y-56400000D03*
X88800000Y-56400000D03*
X89600000Y-56400000D03*
X50400000Y-57200000D03*
X51200000Y-57200000D03*
X52000000Y-57200000D03*
X52800000Y-57200000D03*
X53600000Y-57200000D03*
X54400000Y-57200000D03*
X55200000Y-57200000D03*
X56000000Y-57200000D03*
X56800000Y-57200000D03*
X57600000Y-57200000D03*
X58400000Y-57200000D03*
X59200000Y-57200000D03*
X60000000Y-57200000D03*
X60800000Y-57200000D03*
X61600000Y-57200000D03*
X62400000Y-57200000D03*
X63200000Y-57200000D03*
X64000000Y-57200000D03*
X64800000Y-57200000D03*
X65600000Y-57200000D03*
X66400000Y-57200000D03*
X67200000Y-57200000D03*
X68000000Y-57200000D03*
X68800000Y-57200000D03*
X69600000Y-57200000D03*
X70400000Y-57200000D03*
X71200000Y-57200000D03*
X72000000Y-57200000D03*
X72800000Y-57200000D03*
X73600000Y-57200000D03*
X74400000Y-57200000D03*
X75200000Y-57200000D03*
X76000000Y-57200000D03*
X76800000Y-57200000D03*
X77600000Y-57200000D03*
X78400000Y-57200000D03*
X79200000Y-57200000D03*
X80000000Y-57200000D03*
X80800000Y-57200000D03*
X81600000Y-57200000D03*
X82400000Y-57200000D03*
X83200000Y-57200000D03*
X84000000Y-57200000D03*
X84800000Y-57200000D03*
X85600000Y-57200000D03*
X86400000Y-57200000D03*
X87200000Y-57200000D03*
X88000000Y-57200000D03*
X88800000Y-57200000D03*
X89600000Y-57200000D03*
X50400000Y-58000000D03*
X51200000Y-58000000D03*
X52000000Y-58000000D03*
X52800000Y-58000000D03*
X53600000Y-58000000D03*
X54400000Y-58000000D03*
X55200000Y-58000000D03*
X56000000Y-58000000D03*
X56800000Y-58000000D03*
X57600000Y-58000000D03*
X58400000Y-58000000D03*
X59200000Y-58000000D03*
X60000000Y-58000000D03*
X60800000Y-58000000D03*
X61600000Y-58000000D03*
X62400000Y-58000000D03*
X63200000Y-58000000D03*
X64000000Y-58000000D03*
X64800000Y-58000000D03*
X65600000Y-58000000D03*
X66400000Y-58000000D03*
X67200000Y-58000000D03*
X68000000Y-58000000D03*
X68800000Y-58000000D03*
X69600000Y-58000000D03*
X70400000Y-58000000D03*
X71200000Y-58000000D03*
X72000000Y-58000000D03*
X72800000Y-58000000D03*
X73600000Y-58000000D03*
X74400000Y-58000000D03*
X75200000Y-58000000D03*
X76000000Y-58000000D03*
X76800000Y-58000000D03*
X77600000Y-58000000D03*
X78400000Y-58000000D03*
X79200000Y-58000000D03*
X80000000Y-58000000D03*
X80800000Y-58000000D03*
X81600000Y-58000000D03*
X82400000Y-58000000D03*
X83200000Y-58000000D03*
X84000000Y-58000000D03*
X84800000Y-58000000D03*
X85600000Y-58000000D03*
X86400000Y-58000000D03*
X87200000Y-58000000D03*
X88000000Y-58000000D03*
X88800000Y-58000000D03*
X89600000Y-58000000D03*
X50400000Y-58800000D03*
X51200000Y-58800000D03*
X52000000Y-58800000D03*
X52800000Y-58800000D03*
X53600000Y-58800000D03*
X54400000Y-58800000D03*
X55200000Y-58800000D03*
X56000000Y-58800000D03*
X56800000Y-58800000D03*
X57600000Y-58800000D03*
X58400000Y-58800000D03*
X59200000Y-58800000D03*
X60000000Y-58800000D03*
X60800000Y-58800000D03*
X61600000Y-58800000D03*
X62400000Y-58800000D03*
X63200000Y-58800000D03*
X64000000Y-58800000D03*
X64800000Y-58800000D03*
X65600000Y-58800000D03*
X66400000Y-58800000D03*
X67200000Y-58800000D03*
X68000000Y-58800000D03*
X68800000Y-58800000D03*
X69600000Y-58800000D03*
X70400000Y-58800000D03*
X71200000Y-58800000D03*
X72000000Y-58800000D03*
X72800000Y-58800000D03*
X73600000Y-58800000D03*
X74400000Y-58800000D03*
X75200000Y-58800000D03*
X76000000Y-58800000D03*
X76800000Y-58800000D03*
X77600000Y-58800000D03*
X78400000Y-58800000D03*
X79200000Y-58800000D03*
X80000000Y-58800000D03*
X80800000Y-58800000D03*
X81600000Y-58800000D03*
X82400000Y-58800000D03*
X83200000Y-58800000D03*
X84000000Y-58800000D03*
X84800000Y-58800000D03*
X85600000Y-58800000D03*
X86400000Y-58800000D03*
X87200000Y-58800000D03*
X88000000Y-58800000D03*
X88800000Y-58800000D03*
X89600000Y-58800000D03*
X50400000Y-59600000D03*
X51200000Y-59600000D03*
X52000000Y-59600000D03*
X52800000Y-59600000D03*
X53600000Y-59600000D03*
X54400000Y-59600000D03*
X55200000Y-59600000D03*
X56000000Y-59600000D03*
X56800000Y-59600000D03*
X57600000Y-59600000D03*
X58400000Y-59600000D03*
X59200000Y-59600000D03*
X60000000Y-59600000D03*
X60800000Y-59600000D03*
X61600000Y-59600000D03*
X62400000Y-59600000D03*
X63200000Y-59600000D03*
X64000000Y-59600000D03*
X64800000Y-59600000D03*
X65600000Y-59600000D03*
X66400000Y-59600000D03*
X67200000Y-59600000D03*
X68000000Y-59600000D03*
X68800000Y-59600000D03*
X69600000Y-59600000D03*
X70400000Y-59600000D03*
X71200000Y-59600000D03*
X72000000Y-59600000D03*
X72800000Y-59600000D03*
X73600000Y-59600000D03*
X74400000Y-59600000D03*
X75200000Y-59600000D03*
X76000000Y-59600000D03*
X76800000Y-59600000D03*
X77600000Y-59600000D03*
X78400000Y-59600000D03*
X79200000Y-59600000D03*
X80000000Y-59600000D03*
X80800000Y-59600000D03*
X81600000Y-59600000D03*
X82400000Y-59600000D03*
X83200000Y-59600000D03*
X84000000Y-59600000D03*
X84800000Y-59600000D03*
X85600000Y-59600000D03*
X86400000Y-59600000D03*
X87200000Y-59600000D03*
X88000000Y-59600000D03*
X88800000Y-59600000D03*
X89600000Y-59600000D03*
X50400000Y-60400000D03*
X51200000Y-60400000D03*
X52000000Y-60400000D03*
X52800000Y-60400000D03*
X53600000Y-60400000D03*
X54400000Y-60400000D03*
X55200000Y-60400000D03*
X56000000Y-60400000D03*
X56800000Y-60400000D03*
X57600000Y-60400000D03*
X58400000Y-60400000D03*
X59200000Y-60400000D03*
X60000000Y-60400000D03*
X60800000Y-60400000D03*
X61600000Y-60400000D03*
X62400000Y-60400000D03*
X63200000Y-60400000D03*
X64000000Y-60400000D03*
X64800000Y-60400000D03*
X65600000Y-60400000D03*
X66400000Y-60400000D03*
X67200000Y-60400000D03*
X68000000Y-60400000D03*
X68800000Y-60400000D03*
X69600000Y-60400000D03*
X70400000Y-60400000D03*
X71200000Y-60400000D03*
X72000000Y-60400000D03*
X72800000Y-60400000D03*
X73600000Y-60400000D03*
X74400000Y-60400000D03*
X75200000Y-60400000D03*
X76000000Y-60400000D03*
X76800000Y-60400000D03*
X77600000Y-60400000D03*
X78400000Y-60400000D03*
X79200000Y-60400000D03*
X80000000Y-60400000D03*
X80800000Y-60400000D03*
X81600000Y-60400000D03*
X82400000Y-60400000D03*
X83200000Y-60400000D03*
X84000000Y-60400000D03*
X84800000Y-60400000D03*
X85600000Y-60400000D03*
X86400000Y-60400000D03*
X87200000Y-60400000D03*
X88000000Y-60400000D03*
X88800000Y-60400000D03*
X89600000Y-60400000D03*
X50400000Y-61200000D03*
X51200000Y-61200000D03*
X52000000Y-61200000D03*
X52800000Y-61200000D03*
X53600000Y-61200000D03*
X54400000Y-61200000D03*
X55200000Y-61200000D03*
X56000000Y-61200000D03*
X56800000Y-61200000D03*
X57600000Y-61200000D03*
X58400000Y-61200000D03*
X59200000Y-61200000D03*
X60000000Y-61200000D03*
X60800000Y-61200000D03*
X61600000Y-61200000D03*
X62400000Y-61200000D03*
X63200000Y-61200000D03*
X64000000Y-61200000D03*
X64800000Y-61200000D03*
X65600000Y-61200000D03*
X66400000Y-61200000D03*
X67200000Y-61200000D03*
X68000000Y-61200000D03*
X68800000Y-61200000D03*
X69600000Y-61200000D03*
X70400000Y-61200000D03*
X71200000Y-61200000D03*
X72000000Y-61200000D03*
X72800000Y-61200000D03*
X73600000Y-61200000D03*
X74400000Y-61200000D03*
X75200000Y-61200000D03*
X76000000Y-61200000D03*
X76800000Y-61200000D03*
X77600000Y-61200000D03*
X78400000Y-61200000D03*
X79200000Y-61200000D03*
X80000000Y-61200000D03*
X80800000Y-61200000D03*
X81600000Y-61200000D03*
X82400000Y-61200000D03*
X83200000Y-61200000D03*
X84000000Y-61200000D03*
X84800000Y-61200000D03*
X85600000Y-61200000D03*
X86400000Y-61200000D03*
X87200000Y-61200000D03*
X88000000Y-61200000D03*
X88800000Y-61200000D03*
X89600000Y-61200000D03*
X50400000Y-62000000D03*
X51200000Y-62000000D03*
X52000000Y-62000000D03*
X52800000Y-62000000D03*
X53600000Y-62000000D03*
X54400000Y-62000000D03*
X55200000Y-62000000D03*
X56000000Y-62000000D03*
X56800000Y-62000000D03*
X57600000Y-62000000D03*
X58400000Y-62000000D03*
X59200000Y-62000000D03*
X60000000Y-62000000D03*
X60800000Y-62000000D03*
X61600000Y-62000000D03*
X62400000Y-62000000D03*
X63200000Y-62000000D03*
X64000000Y-62000000D03*
X64800000Y-62000000D03*
X65600000Y-62000000D03*
X66400000Y-62000000D03*
X67200000Y-62000000D03*
X68000000Y-62000000D03*
X68800000Y-62000000D03*
X69600000Y-62000000D03*
X70400000Y-62000000D03*
X71200000Y-62000000D03*
X72000000Y-62000000D03*
X72800000Y-62000000D03*
X73600000Y-62000000D03*
X74400000Y-62000000D03*
X75200000Y-62000000D03*
X76000000Y-62000000D03*
X76800000Y-62000000D03*
X77600000Y-62000000D03*
X78400000Y-62000000D03*
X79200000Y-62000000D03*
X80000000Y-62000000D03*
X80800000Y-62000000D03*
X81600000Y-62000000D03*
X82400000Y-62000000D03*
X83200000Y-62000000D03*
X84000000Y-62000000D03*
X84800000Y-62000000D03*
X85600000Y-62000000D03*
X86400000Y-62000000D03*
X87200000Y-62000000D03*
X88000000Y-62000000D03*
X88800000Y-62000000D03*
X89600000Y-62000000D03*
X50400000Y-62800000D03*
X51200000Y-62800000D03*
X52000000Y-62800000D03*
X52800000Y-62800000D03*
X53600000Y-62800000D03*
X54400000Y-62800000D03*
X55200000Y-62800000D03*
X56000000Y-62800000D03*
X56800000Y-62800000D03*
X57600000Y-62800000D03*
X58400000Y-62800000D03*
X59200000Y-62800000D03*
X60000000Y-62800000D03*
X60800000Y-62800000D03*
X61600000Y-62800000D03*
X62400000Y-62800000D03*
X63200000Y-62800000D03*
X64000000Y-62800000D03*
X64800000Y-62800000D03*
X65600000Y-62800000D03*
X66400000Y-62800000D03*
X67200000Y-62800000D03*
X68000000Y-62800000D03*
X68800000Y-62800000D03*
X69600000Y-62800000D03*
X70400000Y-62800000D03*
X71200000Y-62800000D03*
X72000000Y-62800000D03*
X72800000Y-62800000D03*
X73600000Y-62800000D03*
X74400000Y-62800000D03*
X75200000Y-62800000D03*
X76000000Y-62800000D03*
X76800000Y-62800000D03*
X77600000Y-62800000D03*
X78400000Y-62800000D03*
X79200000Y-62800000D03*
X80000000Y-62800000D03*
X80800000Y-62800000D03*
X81600000Y-62800000D03*
X82400000Y-62800000D03*
X83200000Y-62800000D03*
X84000000Y-62800000D03*
X84800000Y-62800000D03*
X85600000Y-62800000D03*
X86400000Y-62800000D03*
X87200000Y-62800000D03*
X88000000Y-62800000D03*
X88800000Y-62800000D03*
X89600000Y-62800000D03*
X50400000Y-63600000D03*
X51200000Y-63600000D03*
X52000000Y-63600000D03*
X52800000Y-63600000D03*
X53600000Y-63600000D03*
X54400000Y-63600000D03*
X55200000Y-63600000D03*
X56000000Y-63600000D03*
X56800000Y-63600000D03*
X57600000Y-63600000D03*
X58400000Y-63600000D03*
X59200000Y-63600000D03*
X60000000Y-63600000D03*
X60800000Y-63600000D03*
X61600000Y-63600000D03*
X62400000Y-63600000D03*
X63200000Y-63600000D03*
X64000000Y-63600000D03*
X64800000Y-63600000D03*
X65600000Y-63600000D03*
X66400000Y-63600000D03*
X67200000Y-63600000D03*
X68000000Y-63600000D03*
X68800000Y-63600000D03*
X69600000Y-63600000D03*
X70400000Y-63600000D03*
X71200000Y-63600000D03*
X72000000Y-63600000D03*
X72800000Y-63600000D03*
X73600000Y-63600000D03*
X74400000Y-63600000D03*
X75200000Y-63600000D03*
X76000000Y-63600000D03*
X76800000Y-63600000D03*
X77600000Y-63600000D03*
X78400000Y-63600000D03*
X79200000Y-63600000D03*
X80000000Y-63600000D03*
X80800000Y-63600000D03*
X81600000Y-63600000D03*
X82400000Y-63600000D03*
X83200000Y-63600000D03*
X84000000Y-63600000D03*
X84800000Y-63600000D03*
X85600000Y-63600000D03*
X86400000Y-63600000D03*
X87200000Y-63600000D03*
X88000000Y-63600000D03*
X88800000Y-63600000D03*
X89600000Y-63600000D03*
X50400000Y-64400000D03*
X51200000Y-64400000D03*
X52000000Y-64400000D03*
X52800000Y-64400000D03*
X53600000Y-64400000D03*
X54400000Y-64400000D03*
X55200000Y-64400000D03*
X56000000Y-64400000D03*
X56800000Y-64400000D03*
X57600000Y-64400000D03*
X58400000Y-64400000D03*
X59200000Y-64400000D03*
X60000000Y-64400000D03*
X60800000Y-64400000D03*
X61600000Y-64400000D03*
X62400000Y-64400000D03*
X63200000Y-64400000D03*
X64000000Y-64400000D03*
X64800000Y-64400000D03*
X65600000Y-64400000D03*
X66400000Y-64400000D03*
X67200000Y-64400000D03*
X68000000Y-64400000D03*
X68800000Y-64400000D03*
X69600000Y-64400000D03*
X70400000Y-64400000D03*
X71200000Y-64400000D03*
X72000000Y-64400000D03*
X72800000Y-64400000D03*
X73600000Y-64400000D03*
X74400000Y-64400000D03*
X75200000Y-64400000D03*
X76000000Y-64400000D03*
X76800000Y-64400000D03*
X77600000Y-64400000D03*
X78400000Y-64400000D03*
X79200000Y-64400000D03*
X80000000Y-64400000D03*
X80800000Y-64400000D03*
X81600000Y-64400000D03*
X82400000Y-64400000D03*
X83200000Y-64400000D03*
X84000000Y-64400000D03*
X84800000Y-64400000D03*
X85600000Y-64400000D03*
X86400000Y-64400000D03*
X87200000Y-64400000D03*
X88000000Y-64400000D03*
X88800000Y-64400000D03*
X89600000Y-64400000D03*
X50400000Y-65200000D03*
X51200000Y-65200000D03*
X52000000Y-65200000D03*
X52800000Y-65200000D03*
X53600000Y-65200000D03*
X54400000Y-65200000D03*
X55200000Y-65200000D03*
X56000000Y-65200000D03*
X56800000Y-65200000D03*
X57600000Y-65200000D03*
X58400000Y-65200000D03*
X59200000Y-65200000D03*
X60000000Y-65200000D03*
X60800000Y-65200000D03*
X61600000Y-65200000D03*
X62400000Y-65200000D03*
X63200000Y-65200000D03*
X64000000Y-65200000D03*
X64800000Y-65200000D03*
X65600000Y-65200000D03*
X66400000Y-65200000D03*
X67200000Y-65200000D03*
X68000000Y-65200000D03*
X68800000Y-65200000D03*
X69600000Y-65200000D03*
X70400000Y-65200000D03*
X71200000Y-65200000D03*
X72000000Y-65200000D03*
X72800000Y-65200000D03*
X73600000Y-65200000D03*
X74400000Y-65200000D03*
X75200000Y-65200000D03*
X76000000Y-65200000D03*
X76800000Y-65200000D03*
X77600000Y-65200000D03*
X78400000Y-65200000D03*
X79200000Y-65200000D03*
X80000000Y-65200000D03*
X80800000Y-65200000D03*
X81600000Y-65200000D03*
X82400000Y-65200000D03*
X83200000Y-65200000D03*
X84000000Y-65200000D03*
X84800000Y-65200000D03*
X85600000Y-65200000D03*
X86400000Y-65200000D03*
X87200000Y-65200000D03*
X88000000Y-65200000D03*
X88800000Y-65200000D03*
X89600000Y-65200000D03*
X50400000Y-66000000D03*
X51200000Y-66000000D03*
X52000000Y-66000000D03*
X52800000Y-66000000D03*
X53600000Y-66000000D03*
X54400000Y-66000000D03*
X55200000Y-66000000D03*
X56000000Y-66000000D03*
X56800000Y-66000000D03*
X57600000Y-66000000D03*
X58400000Y-66000000D03*
X59200000Y-66000000D03*
X60000000Y-66000000D03*
X60800000Y-66000000D03*
X61600000Y-66000000D03*
X62400000Y-66000000D03*
X63200000Y-66000000D03*
X64000000Y-66000000D03*
X64800000Y-66000000D03*
X65600000Y-66000000D03*
X66400000Y-66000000D03*
X67200000Y-66000000D03*
X68000000Y-66000000D03*
X68800000Y-66000000D03*
X69600000Y-66000000D03*
X70400000Y-66000000D03*
X71200000Y-66000000D03*
X72000000Y-66000000D03*
X72800000Y-66000000D03*
X73600000Y-66000000D03*
X74400000Y-66000000D03*
X75200000Y-66000000D03*
X76000000Y-66000000D03*
X76800000Y-66000000D03*
X77600000Y-66000000D03*
X78400000Y-66000000D03*
X79200000Y-66000000D03*
X80000000Y-66000000D03*
X80800000Y-66000000D03*
X81600000Y-66000000D03*
X82400000Y-66000000D03*
X83200000Y-66000000D03*
X84000000Y-66000000D03*
X84800000Y-66000000D03*
X85600000Y-66000000D03*
X86400000Y-66000000D03*
X87200000Y-66000000D03*
X88000000Y-66000000D03*
X88800000Y-66000000D03*
X89600000Y-66000000D03*
X50400000Y-66800000D03*
X51200000Y-66800000D03*
X52000000Y-66800000D03*
X52800000Y-66800000D03*
X53600000Y-66800000D03*
X54400000Y-66800000D03*
X55200000Y-66800000D03*
X56000000Y-66800000D03*
X56800000Y-66800000D03*
X57600000Y-66800000D03*
X58400000Y-66800000D03*
X59200000Y-66800000D03*
X60000000Y-66800000D03*
X60800000Y-66800000D03*
X61600000Y-66800000D03*
X62400000Y-66800000D03*
X63200000Y-66800000D03*
X64000000Y-66800000D03*
X64800000Y-66800000D03*
X65600000Y-66800000D03*
X66400000Y-66800000D03*
X67200000Y-66800000D03*
X68000000Y-66800000D03*
X68800000Y-66800000D03*
X69600000Y-66800000D03*
X70400000Y-66800000D03*
X71200000Y-66800000D03*
X72000000Y-66800000D03*
X72800000Y-66800000D03*
X73600000Y-66800000D03*
X74400000Y-66800000D03*
X75200000Y-66800000D03*
X76000000Y-66800000D03*
X76800000Y-66800000D03*
X77600000Y-66800000D03*
X78400000Y-66800000D03*
X79200000Y-66800000D03*
X80000000Y-66800000D03*
X80800000Y-66800000D03*
X81600000Y-66800000D03*
X82400000Y-66800000D03*
X83200000Y-66800000D03*
X84000000Y-66800000D03*
X84800000Y-66800000D03*
X85600000Y-66800000D03*
X86400000Y-66800000D03*
X87200000Y-66800000D03*
X88000000Y-66800000D03*
X88800000Y-66800000D03*
X89600000Y-66800000D03*
X50400000Y-67600000D03*
X51200000Y-67600000D03*
X52000000Y-67600000D03*
X52800000Y-67600000D03*
X53600000Y-67600000D03*
X54400000Y-67600000D03*
X55200000Y-67600000D03*
X56000000Y-67600000D03*
X56800000Y-67600000D03*
X57600000Y-67600000D03*
X58400000Y-67600000D03*
X59200000Y-67600000D03*
X60000000Y-67600000D03*
X60800000Y-67600000D03*
X61600000Y-67600000D03*
X62400000Y-67600000D03*
X63200000Y-67600000D03*
X64000000Y-67600000D03*
X64800000Y-67600000D03*
X65600000Y-67600000D03*
X66400000Y-67600000D03*
X67200000Y-67600000D03*
X68000000Y-67600000D03*
X68800000Y-67600000D03*
X69600000Y-67600000D03*
X70400000Y-67600000D03*
X71200000Y-67600000D03*
X72000000Y-67600000D03*
X72800000Y-67600000D03*
X73600000Y-67600000D03*
X74400000Y-67600000D03*
X75200000Y-67600000D03*
X76000000Y-67600000D03*
X76800000Y-67600000D03*
X77600000Y-67600000D03*
X78400000Y-67600000D03*
X79200000Y-67600000D03*
X80000000Y-67600000D03*
X80800000Y-67600000D03*
X81600000Y-67600000D03*
X82400000Y-67600000D03*
X83200000Y-67600000D03*
X84000000Y-67600000D03*
X84800000Y-67600000D03*
X85600000Y-67600000D03*
X86400000Y-67600000D03*
X87200000Y-67600000D03*
X88000000Y-67600000D03*
X88800000Y-67600000D03*
X89600000Y-67600000D03*
X50400000Y-68400000D03*
X51200000Y-68400000D03*
X52000000Y-68400000D03*
X52800000Y-68400000D03*
X53600000Y-68400000D03*
X54400000Y-68400000D03*
X55200000Y-68400000D03*
X56000000Y-68400000D03*
X56800000Y-68400000D03*
X57600000Y-68400000D03*
X58400000Y-68400000D03*
X59200000Y-68400000D03*
X60000000Y-68400000D03*
X60800000Y-68400000D03*
X61600000Y-68400000D03*
X62400000Y-68400000D03*
X63200000Y-68400000D03*
X64000000Y-68400000D03*
X64800000Y-68400000D03*
X65600000Y-68400000D03*
X66400000Y-68400000D03*
X67200000Y-68400000D03*
X68000000Y-68400000D03*
X68800000Y-68400000D03*
X69600000Y-68400000D03*
X70400000Y-68400000D03*
X71200000Y-68400000D03*
X72000000Y-68400000D03*
X72800000Y-68400000D03*
X73600000Y-68400000D03*
X74400000Y-68400000D03*
X75200000Y-68400000D03*
X76000000Y-68400000D03*
X76800000Y-68400000D03*
X77600000Y-68400000D03*
X78400000Y-68400000D03*
X79200000Y-68400000D03*
X80000000Y-68400000D03*
X80800000Y-68400000D03*
X81600000Y-68400000D03*
X82400000Y-68400000D03*
X83200000Y-68400000D03*
X84000000Y-68400000D03*
X84800000Y-68400000D03*
X85600000Y-68400000D03*
X86400000Y-68400000D03*
X87200000Y-68400000D03*
X88000000Y-68400000D03*
X88800000Y-68400000D03*
X89600000Y-68400000D03*
X50400000Y-69200000D03*
X51200000Y-69200000D03*
X52000000Y-69200000D03*
X52800000Y-69200000D03*
X53600000Y-69200000D03*
X54400000Y-69200000D03*
X55200000Y-69200000D03*
X56000000Y-69200000D03*
X56800000Y-69200000D03*
X57600000Y-69200000D03*
X58400000Y-69200000D03*
X59200000Y-69200000D03*
X60000000Y-69200000D03*
X60800000Y-69200000D03*
X61600000Y-69200000D03*
X62400000Y-69200000D03*
X63200000Y-69200000D03*
X64000000Y-69200000D03*
X64800000Y-69200000D03*
X65600000Y-69200000D03*
X66400000Y-69200000D03*
X67200000Y-69200000D03*
X68000000Y-69200000D03*
X68800000Y-69200000D03*
X69600000Y-69200000D03*
X70400000Y-69200000D03*
X71200000Y-69200000D03*
X72000000Y-69200000D03*
X72800000Y-69200000D03*
X73600000Y-69200000D03*
X74400000Y-69200000D03*
X75200000Y-69200000D03*
X76000000Y-69200000D03*
X76800000Y-69200000D03*
X77600000Y-69200000D03*
X78400000Y-69200000D03*
X79200000Y-69200000D03*
X80000000Y-69200000D03*
X80800000Y-69200000D03*
X81600000Y-69200000D03*
X82400000Y-69200000D03*
X83200000Y-69200000D03*
X84000000Y-69200000D03*
X84800000Y-69200000D03*
X85600000Y-69200000D03*
X86400000Y-69200000D03*
X87200000Y-69200000D03*
X88000000Y-69200000D03*
X88800000Y-69200000D03*
X89600000Y-69200000D03*
X50400000Y-70000000D03*
X51200000Y-70000000D03*
X52000000Y-70000000D03*
X52800000Y-70000000D03*
X53600000Y-70000000D03*
X54400000Y-70000000D03*
X55200000Y-70000000D03*
X56000000Y-70000000D03*
X56800000Y-70000000D03*
X57600000Y-70000000D03*
X58400000Y-70000000D03*
X59200000Y-70000000D03*
X60000000Y-70000000D03*
X60800000Y-70000000D03*
X61600000Y-70000000D03*
X62400000Y-70000000D03*
X63200000Y-70000000D03*
X64000000Y-70000000D03*
X64800000Y-70000000D03*
X65600000Y-70000000D03*
X66400000Y-70000000D03*
X67200000Y-70000000D03*
X68000000Y-70000000D03*
X68800000Y-70000000D03*
X69600000Y-70000000D03*
X70400000Y-70000000D03*
X71200000Y-70000000D03*
X72000000Y-70000000D03*
X72800000Y-70000000D03*
X73600000Y-70000000D03*
X74400000Y-70000000D03*
X75200000Y-70000000D03*
X76000000Y-70000000D03*
X76800000Y-70000000D03*
X77600000Y-70000000D03*
X78400000Y-70000000D03*
X79200000Y-70000000D03*
X80000000Y-70000000D03*
X80800000Y-70000000D03*
X81600000Y-70000000D03*
X82400000Y-70000000D03*
X83200000Y-70000000D03*
X84000000Y-70000000D03*
X84800000Y-70000000D03*
X85600000Y-70000000D03*
X86400000Y-70000000D03*
X87200000Y-70000000D03*
X88000000Y-70000000D03*
X88800000Y-70000000D03*
X89600000Y-70000000D03*
X50400000Y-70800000D03*
X51200000Y-70800000D03*
X52000000Y-70800000D03*
X52800000Y-70800000D03*
X53600000Y-70800000D03*
X54400000Y-70800000D03*
X55200000Y-70800000D03*
X56000000Y-70800000D03*
X56800000Y-70800000D03*
X57600000Y-70800000D03*
X58400000Y-70800000D03*
X59200000Y-70800000D03*
X60000000Y-70800000D03*
X60800000Y-70800000D03*
X61600000Y-70800000D03*
X62400000Y-70800000D03*
X63200000Y-70800000D03*
X64000000Y-70800000D03*
X64800000Y-70800000D03*
X65600000Y-70800000D03*
X66400000Y-70800000D03*
X67200000Y-70800000D03*
X68000000Y-70800000D03*
X68800000Y-70800000D03*
X69600000Y-70800000D03*
X70400000Y-70800000D03*
X71200000Y-70800000D03*
X72000000Y-70800000D03*
X72800000Y-70800000D03*
X73600000Y-70800000D03*
X74400000Y-70800000D03*
X75200000Y-70800000D03*
X76000000Y-70800000D03*
X76800000Y-70800000D03*
X77600000Y-70800000D03*
X78400000Y-70800000D03*
X79200000Y-70800000D03*
X80000000Y-70800000D03*
X80800000Y-70800000D03*
X81600000Y-70800000D03*
X82400000Y-70800000D03*
X83200000Y-70800000D03*
X84000000Y-70800000D03*
X84800000Y-70800000D03*
X85600000Y-70800000D03*
X86400000Y-70800000D03*
X87200000Y-70800000D03*
X88000000Y-70800000D03*
X88800000Y-70800000D03*
X89600000Y-70800000D03*
X50400000Y-71600000D03*
X51200000Y-71600000D03*
X52000000Y-71600000D03*
X52800000Y-71600000D03*
X53600000Y-71600000D03*
X54400000Y-71600000D03*
X55200000Y-71600000D03*
X56000000Y-71600000D03*
X56800000Y-71600000D03*
X57600000Y-71600000D03*
X58400000Y-71600000D03*
X59200000Y-71600000D03*
X60000000Y-71600000D03*
X60800000Y-71600000D03*
X61600000Y-71600000D03*
X62400000Y-71600000D03*
X63200000Y-71600000D03*
X64000000Y-71600000D03*
X64800000Y-71600000D03*
X65600000Y-71600000D03*
X66400000Y-71600000D03*
X67200000Y-71600000D03*
X68000000Y-71600000D03*
X68800000Y-71600000D03*
X69600000Y-71600000D03*
X70400000Y-71600000D03*
X71200000Y-71600000D03*
X72000000Y-71600000D03*
X72800000Y-71600000D03*
X73600000Y-71600000D03*
X74400000Y-71600000D03*
X75200000Y-71600000D03*
X76000000Y-71600000D03*
X76800000Y-71600000D03*
X77600000Y-71600000D03*
X78400000Y-71600000D03*
X79200000Y-71600000D03*
X80000000Y-71600000D03*
X80800000Y-71600000D03*
X81600000Y-71600000D03*
X82400000Y-71600000D03*
X83200000Y-71600000D03*
X84000000Y-71600000D03*
X84800000Y-71600000D03*
X85600000Y-71600000D03*
X86400000Y-71600000D03*
X87200000Y-71600000D03*
X88000000Y-71600000D03*
X88800000Y-71600000D03*
X89600000Y-71600000D03*
X50400000Y-41200000D03*
X51200000Y-41200000D03*
X52000000Y-41200000D03*
X52800000Y-41200000D03*
X53600000Y-41200000D03*
X54400000Y-41200000D03*
X55200000Y-41200000D03*
X56000000Y-41200000D03*
X56800000Y-41200000D03*
X57600000Y-41200000D03*
X58400000Y-41200000D03*
X59200000Y-41200000D03*
X60000000Y-41200000D03*
X60800000Y-41200000D03*
X61600000Y-41200000D03*
X62400000Y-41200000D03*
X63200000Y-41200000D03*
X64000000Y-41200000D03*
X64800000Y-41200000D03*
X65600000Y-41200000D03*
X66400000Y-41200000D03*
X67200000Y-41200000D03*
X68000000Y-41200000D03*
X68800000Y-41200000D03*
X69600000Y-41200000D03*
X70400000Y-41200000D03*
X71200000Y-41200000D03*
X72000000Y-41200000D03*
X72800000Y-41200000D03*
X73600000Y-41200000D03*
X74400000Y-41200000D03*
X75200000Y-41200000D03*
X76000000Y-41200000D03*
X76800000Y-41200000D03*
X77600000Y-41200000D03*
X78400000Y-41200000D03*
X79200000Y-41200000D03*
X80000000Y-41200000D03*
X80800000Y-41200000D03*
X81600000Y-41200000D03*
X82400000Y-41200000D03*
X83200000Y-41200000D03*
X84000000Y-41200000D03*
X84800000Y-41200000D03*
X85600000Y-41200000D03*
X86400000Y-41200000D03*
X87200000Y-41200000D03*
X88000000Y-41200000D03*
X88800000Y-41200000D03*
X89600000Y-41200000D03*
X50400000Y-72400000D03*
X51200000Y-72400000D03*
X52000000Y-72400000D03*
X52800000Y-72400000D03*
X53600000Y-72400000D03*
X54400000Y-72400000D03*
X55200000Y-72400000D03*
X56000000Y-72400000D03*
X56800000Y-72400000D03*
X57600000Y-72400000D03*
X58400000Y-72400000D03*
X59200000Y-72400000D03*
X60000000Y-72400000D03*
X60800000Y-72400000D03*
X61600000Y-72400000D03*
X62400000Y-72400000D03*
X63200000Y-72400000D03*
X64000000Y-72400000D03*
X64800000Y-72400000D03*
X65600000Y-72400000D03*
X66400000Y-72400000D03*
X67200000Y-72400000D03*
X68000000Y-72400000D03*
X68800000Y-72400000D03*
X69600000Y-72400000D03*
X70400000Y-72400000D03*
X71200000Y-72400000D03*
X72000000Y-72400000D03*
X72800000Y-72400000D03*
X73600000Y-72400000D03*
X74400000Y-72400000D03*
X75200000Y-72400000D03*
X76000000Y-72400000D03*
X76800000Y-72400000D03*
X77600000Y-72400000D03*
X78400000Y-72400000D03*
X79200000Y-72400000D03*
X80000000Y-72400000D03*
X80800000Y-72400000D03*
X81600000Y-72400000D03*
X82400000Y-72400000D03*
X83200000Y-72400000D03*
X84000000Y-72400000D03*
X84800000Y-72400000D03*
X85600000Y-72400000D03*
X86400000Y-72400000D03*
X87200000Y-72400000D03*
X88000000Y-72400000D03*
X88800000Y-72400000D03*
X89600000Y-72400000D03*
X50400000Y-73200000D03*
X51200000Y-73200000D03*
X52000000Y-73200000D03*
X52800000Y-73200000D03*
X53600000Y-73200000D03*
X54400000Y-73200000D03*
X55200000Y-73200000D03*
X56000000Y-73200000D03*
X56800000Y-73200000D03*
X57600000Y-73200000D03*
X58400000Y-73200000D03*
X59200000Y-73200000D03*
X60000000Y-73200000D03*
X60800000Y-73200000D03*
X61600000Y-73200000D03*
X62400000Y-73200000D03*
X63200000Y-73200000D03*
X64000000Y-73200000D03*
X64800000Y-73200000D03*
X65600000Y-73200000D03*
X66400000Y-73200000D03*
X67200000Y-73200000D03*
X68000000Y-73200000D03*
X68800000Y-73200000D03*
X69600000Y-73200000D03*
X70400000Y-73200000D03*
X71200000Y-73200000D03*
X72000000Y-73200000D03*
X72800000Y-73200000D03*
X73600000Y-73200000D03*
X74400000Y-73200000D03*
X75200000Y-73200000D03*
X76000000Y-73200000D03*
X76800000Y-73200000D03*
X77600000Y-73200000D03*
X78400000Y-73200000D03*
X79200000Y-73200000D03*
X80000000Y-73200000D03*
X80800000Y-73200000D03*
X81600000Y-73200000D03*
X82400000Y-73200000D03*
X83200000Y-73200000D03*
X84000000Y-73200000D03*
X84800000Y-73200000D03*
X85600000Y-73200000D03*
X86400000Y-73200000D03*
X87200000Y-73200000D03*
X88000000Y-73200000D03*
X88800000Y-73200000D03*
X89600000Y-73200000D03*
X50400000Y-74000000D03*
X51200000Y-74000000D03*
X52000000Y-74000000D03*
X52800000Y-74000000D03*
X53600000Y-74000000D03*
X54400000Y-74000000D03*
X55200000Y-74000000D03*
X56000000Y-74000000D03*
X56800000Y-74000000D03*
X57600000Y-74000000D03*
X58400000Y-74000000D03*
X59200000Y-74000000D03*
X60000000Y-74000000D03*
X60800000Y-74000000D03*
X61600000Y-74000000D03*
X62400000Y-74000000D03*
X63200000Y-74000000D03*
X64000000Y-74000000D03*
X64800000Y-74000000D03*
X65600000Y-74000000D03*
X66400000Y-74000000D03*
X67200000Y-74000000D03*
X68000000Y-74000000D03*
X68800000Y-74000000D03*
X69600000Y-74000000D03*
X70400000Y-74000000D03*
X71200000Y-74000000D03*
X72000000Y-74000000D03*
X72800000Y-74000000D03*
X73600000Y-74000000D03*
X74400000Y-74000000D03*
X75200000Y-74000000D03*
X76000000Y-74000000D03*
X76800000Y-74000000D03*
X77600000Y-74000000D03*
X78400000Y-74000000D03*
X79200000Y-74000000D03*
X80000000Y-74000000D03*
X80800000Y-74000000D03*
X81600000Y-74000000D03*
X82400000Y-74000000D03*
X83200000Y-74000000D03*
X84000000Y-74000000D03*
X84800000Y-74000000D03*
X85600000Y-74000000D03*
X86400000Y-74000000D03*
X87200000Y-74000000D03*
X88000000Y-74000000D03*
X88800000Y-74000000D03*
X89600000Y-74000000D03*
X50400000Y-74800000D03*
X51200000Y-74800000D03*
X52000000Y-74800000D03*
X52800000Y-74800000D03*
X53600000Y-74800000D03*
X54400000Y-74800000D03*
X55200000Y-74800000D03*
X56000000Y-74800000D03*
X56800000Y-74800000D03*
X57600000Y-74800000D03*
X58400000Y-74800000D03*
X59200000Y-74800000D03*
X60000000Y-74800000D03*
X60800000Y-74800000D03*
X61600000Y-74800000D03*
X62400000Y-74800000D03*
X63200000Y-74800000D03*
X64000000Y-74800000D03*
X64800000Y-74800000D03*
X65600000Y-74800000D03*
X66400000Y-74800000D03*
X67200000Y-74800000D03*
X68000000Y-74800000D03*
X68800000Y-74800000D03*
X69600000Y-74800000D03*
X70400000Y-74800000D03*
X71200000Y-74800000D03*
X72000000Y-74800000D03*
X72800000Y-74800000D03*
X73600000Y-74800000D03*
X74400000Y-74800000D03*
X75200000Y-74800000D03*
X76000000Y-74800000D03*
X76800000Y-74800000D03*
X77600000Y-74800000D03*
X78400000Y-74800000D03*
X79200000Y-74800000D03*
X80000000Y-74800000D03*
X80800000Y-74800000D03*
X81600000Y-74800000D03*
X82400000Y-74800000D03*
X83200000Y-74800000D03*
X84000000Y-74800000D03*
X84800000Y-74800000D03*
X85600000Y-74800000D03*
X86400000Y-74800000D03*
X87200000Y-74800000D03*
X88000000Y-74800000D03*
X88800000Y-74800000D03*
X89600000Y-74800000D03*
X50400000Y-75600000D03*
X51200000Y-75600000D03*
X52000000Y-75600000D03*
X52800000Y-75600000D03*
X53600000Y-75600000D03*
X54400000Y-75600000D03*
X55200000Y-75600000D03*
X56000000Y-75600000D03*
X56800000Y-75600000D03*
X57600000Y-75600000D03*
X58400000Y-75600000D03*
X59200000Y-75600000D03*
X60000000Y-75600000D03*
X60800000Y-75600000D03*
X61600000Y-75600000D03*
X62400000Y-75600000D03*
X63200000Y-75600000D03*
X64000000Y-75600000D03*
X64800000Y-75600000D03*
X65600000Y-75600000D03*
X66400000Y-75600000D03*
X67200000Y-75600000D03*
X68000000Y-75600000D03*
X68800000Y-75600000D03*
X69600000Y-75600000D03*
X70400000Y-75600000D03*
X71200000Y-75600000D03*
X72000000Y-75600000D03*
X72800000Y-75600000D03*
X73600000Y-75600000D03*
X74400000Y-75600000D03*
X75200000Y-75600000D03*
X76000000Y-75600000D03*
X76800000Y-75600000D03*
X77600000Y-75600000D03*
X78400000Y-75600000D03*
X79200000Y-75600000D03*
X80000000Y-75600000D03*
X80800000Y-75600000D03*
X81600000Y-75600000D03*
X82400000Y-75600000D03*
X83200000Y-75600000D03*
X84000000Y-75600000D03*
X84800000Y-75600000D03*
X85600000Y-75600000D03*
X86400000Y-75600000D03*
X87200000Y-75600000D03*
X88000000Y-75600000D03*
X88800000Y-75600000D03*
X89600000Y-75600000D03*
X50400000Y-76400000D03*
X51200000Y-76400000D03*
X52000000Y-76400000D03*
X52800000Y-76400000D03*
X53600000Y-76400000D03*
X54400000Y-76400000D03*
X55200000Y-76400000D03*
X56000000Y-76400000D03*
X56800000Y-76400000D03*
X57600000Y-76400000D03*
X58400000Y-76400000D03*
X59200000Y-76400000D03*
X60000000Y-76400000D03*
X60800000Y-76400000D03*
X61600000Y-76400000D03*
X62400000Y-76400000D03*
X63200000Y-76400000D03*
X64000000Y-76400000D03*
X64800000Y-76400000D03*
X65600000Y-76400000D03*
X66400000Y-76400000D03*
X67200000Y-76400000D03*
X68000000Y-76400000D03*
X68800000Y-76400000D03*
X69600000Y-76400000D03*
X70400000Y-76400000D03*
X71200000Y-76400000D03*
X72000000Y-76400000D03*
X72800000Y-76400000D03*
X73600000Y-76400000D03*
X74400000Y-76400000D03*
X75200000Y-76400000D03*
X76000000Y-76400000D03*
X76800000Y-76400000D03*
X77600000Y-76400000D03*
X78400000Y-76400000D03*
X79200000Y-76400000D03*
X80000000Y-76400000D03*
X80800000Y-76400000D03*
X81600000Y-76400000D03*
X82400000Y-76400000D03*
X83200000Y-76400000D03*
X84000000Y-76400000D03*
X84800000Y-76400000D03*
X85600000Y-76400000D03*
X86400000Y-76400000D03*
X87200000Y-76400000D03*
X88000000Y-76400000D03*
X88800000Y-76400000D03*
X89600000Y-76400000D03*
X50400000Y-77200000D03*
X51200000Y-77200000D03*
X52000000Y-77200000D03*
X52800000Y-77200000D03*
X53600000Y-77200000D03*
X54400000Y-77200000D03*
X55200000Y-77200000D03*
X56000000Y-77200000D03*
X56800000Y-77200000D03*
X57600000Y-77200000D03*
X58400000Y-77200000D03*
X59200000Y-77200000D03*
X60000000Y-77200000D03*
X60800000Y-77200000D03*
X61600000Y-77200000D03*
X62400000Y-77200000D03*
X63200000Y-77200000D03*
X64000000Y-77200000D03*
X64800000Y-77200000D03*
X65600000Y-77200000D03*
X66400000Y-77200000D03*
X67200000Y-77200000D03*
X68000000Y-77200000D03*
X68800000Y-77200000D03*
X69600000Y-77200000D03*
X70400000Y-77200000D03*
X71200000Y-77200000D03*
X72000000Y-77200000D03*
X72800000Y-77200000D03*
X73600000Y-77200000D03*
X74400000Y-77200000D03*
X75200000Y-77200000D03*
X76000000Y-77200000D03*
X76800000Y-77200000D03*
X77600000Y-77200000D03*
X78400000Y-77200000D03*
X79200000Y-77200000D03*
X80000000Y-77200000D03*
X80800000Y-77200000D03*
X81600000Y-77200000D03*
X82400000Y-77200000D03*
X83200000Y-77200000D03*
X84000000Y-77200000D03*
X84800000Y-77200000D03*
X85600000Y-77200000D03*
X86400000Y-77200000D03*
X87200000Y-77200000D03*
X88000000Y-77200000D03*
X88800000Y-77200000D03*
X89600000Y-77200000D03*
X50400000Y-78000000D03*
X51200000Y-78000000D03*
X52000000Y-78000000D03*
X52800000Y-78000000D03*
X53600000Y-78000000D03*
X54400000Y-78000000D03*
X55200000Y-78000000D03*
X56000000Y-78000000D03*
X56800000Y-78000000D03*
X57600000Y-78000000D03*
X58400000Y-78000000D03*
X59200000Y-78000000D03*
X60000000Y-78000000D03*
X60800000Y-78000000D03*
X61600000Y-78000000D03*
X62400000Y-78000000D03*
X63200000Y-78000000D03*
X64000000Y-78000000D03*
X64800000Y-78000000D03*
X65600000Y-78000000D03*
X66400000Y-78000000D03*
X67200000Y-78000000D03*
X68000000Y-78000000D03*
X68800000Y-78000000D03*
X69600000Y-78000000D03*
X70400000Y-78000000D03*
X71200000Y-78000000D03*
X72000000Y-78000000D03*
X72800000Y-78000000D03*
X73600000Y-78000000D03*
X74400000Y-78000000D03*
X75200000Y-78000000D03*
X76000000Y-78000000D03*
X76800000Y-78000000D03*
X77600000Y-78000000D03*
X78400000Y-78000000D03*
X79200000Y-78000000D03*
X80000000Y-78000000D03*
X80800000Y-78000000D03*
X81600000Y-78000000D03*
X82400000Y-78000000D03*
X83200000Y-78000000D03*
X84000000Y-78000000D03*
X84800000Y-78000000D03*
X85600000Y-78000000D03*
X86400000Y-78000000D03*
X87200000Y-78000000D03*
X88000000Y-78000000D03*
X88800000Y-78000000D03*
X89600000Y-78000000D03*
X50400000Y-78800000D03*
X51200000Y-78800000D03*
X52000000Y-78800000D03*
X52800000Y-78800000D03*
X53600000Y-78800000D03*
X54400000Y-78800000D03*
X55200000Y-78800000D03*
X56000000Y-78800000D03*
X56800000Y-78800000D03*
X57600000Y-78800000D03*
X58400000Y-78800000D03*
X59200000Y-78800000D03*
X60000000Y-78800000D03*
X60800000Y-78800000D03*
X61600000Y-78800000D03*
X62400000Y-78800000D03*
X63200000Y-78800000D03*
X64000000Y-78800000D03*
X64800000Y-78800000D03*
X65600000Y-78800000D03*
X66400000Y-78800000D03*
X67200000Y-78800000D03*
X68000000Y-78800000D03*
X68800000Y-78800000D03*
X69600000Y-78800000D03*
X70400000Y-78800000D03*
X71200000Y-78800000D03*
X72000000Y-78800000D03*
X72800000Y-78800000D03*
X73600000Y-78800000D03*
X74400000Y-78800000D03*
X75200000Y-78800000D03*
X76000000Y-78800000D03*
X76800000Y-78800000D03*
X77600000Y-78800000D03*
X78400000Y-78800000D03*
X79200000Y-78800000D03*
X80000000Y-78800000D03*
X80800000Y-78800000D03*
X81600000Y-78800000D03*
X82400000Y-78800000D03*
X83200000Y-78800000D03*
X84000000Y-78800000D03*
X84800000Y-78800000D03*
X85600000Y-78800000D03*
X86400000Y-78800000D03*
X87200000Y-78800000D03*
X88000000Y-78800000D03*
X88800000Y-78800000D03*
X89600000Y-78800000D03*
X50400000Y-79600000D03*
X51200000Y-79600000D03*
X52000000Y-79600000D03*
X52800000Y-79600000D03*
X53600000Y-79600000D03*
X54400000Y-79600000D03*
X55200000Y-79600000D03*
X56000000Y-79600000D03*
X56800000Y-79600000D03*
X57600000Y-79600000D03*
X58400000Y-79600000D03*
X59200000Y-79600000D03*
X60000000Y-79600000D03*
X60800000Y-79600000D03*
X61600000Y-79600000D03*
X62400000Y-79600000D03*
X63200000Y-79600000D03*
X64000000Y-79600000D03*
X64800000Y-79600000D03*
X65600000Y-79600000D03*
X66400000Y-79600000D03*
X67200000Y-79600000D03*
X68000000Y-79600000D03*
X68800000Y-79600000D03*
X69600000Y-79600000D03*
X70400000Y-79600000D03*
X71200000Y-79600000D03*
X72000000Y-79600000D03*
X72800000Y-79600000D03*
X73600000Y-79600000D03*
X74400000Y-79600000D03*
X75200000Y-79600000D03*
X76000000Y-79600000D03*
X76800000Y-79600000D03*
X77600000Y-79600000D03*
X78400000Y-79600000D03*
X79200000Y-79600000D03*
X80000000Y-79600000D03*
X80800000Y-79600000D03*
X81600000Y-79600000D03*
X82400000Y-79600000D03*
X83200000Y-79600000D03*
X84000000Y-79600000D03*
X84800000Y-79600000D03*
X85600000Y-79600000D03*
X86400000Y-79600000D03*
X87200000Y-79600000D03*
X88000000Y-79600000D03*
X88800000Y-79600000D03*
X89600000Y-79600000D03*
X50400000Y-42000000D03*
X51200000Y-42000000D03*
X52000000Y-42000000D03*
X52800000Y-42000000D03*
X53600000Y-42000000D03*
X54400000Y-42000000D03*
X55200000Y-42000000D03*
X56000000Y-42000000D03*
X56800000Y-42000000D03*
X57600000Y-42000000D03*
X58400000Y-42000000D03*
X59200000Y-42000000D03*
X60000000Y-42000000D03*
X60800000Y-42000000D03*
X61600000Y-42000000D03*
X62400000Y-42000000D03*
X63200000Y-42000000D03*
X64000000Y-42000000D03*
X64800000Y-42000000D03*
X65600000Y-42000000D03*
X66400000Y-42000000D03*
X67200000Y-42000000D03*
X68000000Y-42000000D03*
X68800000Y-42000000D03*
X69600000Y-42000000D03*
X70400000Y-42000000D03*
X71200000Y-42000000D03*
X72000000Y-42000000D03*
X72800000Y-42000000D03*
X73600000Y-42000000D03*
X74400000Y-42000000D03*
X75200000Y-42000000D03*
X76000000Y-42000000D03*
X76800000Y-42000000D03*
X77600000Y-42000000D03*
X78400000Y-42000000D03*
X79200000Y-42000000D03*
X80000000Y-42000000D03*
X80800000Y-42000000D03*
X81600000Y-42000000D03*
X82400000Y-42000000D03*
X83200000Y-42000000D03*
X84000000Y-42000000D03*
X84800000Y-42000000D03*
X85600000Y-42000000D03*
X86400000Y-42000000D03*
X87200000Y-42000000D03*
X88000000Y-42000000D03*
X88800000Y-42000000D03*
X89600000Y-42000000D03*
X50400000Y-42800000D03*
X51200000Y-42800000D03*
X52000000Y-42800000D03*
X52800000Y-42800000D03*
X53600000Y-42800000D03*
X54400000Y-42800000D03*
X55200000Y-42800000D03*
X56000000Y-42800000D03*
X56800000Y-42800000D03*
X57600000Y-42800000D03*
X58400000Y-42800000D03*
X59200000Y-42800000D03*
X60000000Y-42800000D03*
X60800000Y-42800000D03*
X61600000Y-42800000D03*
X62400000Y-42800000D03*
X63200000Y-42800000D03*
X64000000Y-42800000D03*
X64800000Y-42800000D03*
X65600000Y-42800000D03*
X66400000Y-42800000D03*
X67200000Y-42800000D03*
X68000000Y-42800000D03*
X68800000Y-42800000D03*
X69600000Y-42800000D03*
X70400000Y-42800000D03*
X71200000Y-42800000D03*
X72000000Y-42800000D03*
X72800000Y-42800000D03*
X73600000Y-42800000D03*
X74400000Y-42800000D03*
X75200000Y-42800000D03*
X76000000Y-42800000D03*
X76800000Y-42800000D03*
X77600000Y-42800000D03*
X78400000Y-42800000D03*
X79200000Y-42800000D03*
X80000000Y-42800000D03*
X80800000Y-42800000D03*
X81600000Y-42800000D03*
X82400000Y-42800000D03*
X83200000Y-42800000D03*
X84000000Y-42800000D03*
X84800000Y-42800000D03*
X85600000Y-42800000D03*
X86400000Y-42800000D03*
X87200000Y-42800000D03*
X88000000Y-42800000D03*
X88800000Y-42800000D03*
X89600000Y-42800000D03*
X50400000Y-43600000D03*
X51200000Y-43600000D03*
X52000000Y-43600000D03*
X52800000Y-43600000D03*
X53600000Y-43600000D03*
X54400000Y-43600000D03*
X55200000Y-43600000D03*
X56000000Y-43600000D03*
X56800000Y-43600000D03*
X57600000Y-43600000D03*
X58400000Y-43600000D03*
X59200000Y-43600000D03*
X60000000Y-43600000D03*
X60800000Y-43600000D03*
X61600000Y-43600000D03*
X62400000Y-43600000D03*
X63200000Y-43600000D03*
X64000000Y-43600000D03*
X64800000Y-43600000D03*
X65600000Y-43600000D03*
X66400000Y-43600000D03*
X67200000Y-43600000D03*
X68000000Y-43600000D03*
X68800000Y-43600000D03*
X69600000Y-43600000D03*
X70400000Y-43600000D03*
X71200000Y-43600000D03*
X72000000Y-43600000D03*
X72800000Y-43600000D03*
X73600000Y-43600000D03*
X74400000Y-43600000D03*
X75200000Y-43600000D03*
X76000000Y-43600000D03*
X76800000Y-43600000D03*
X77600000Y-43600000D03*
X78400000Y-43600000D03*
X79200000Y-43600000D03*
X80000000Y-43600000D03*
X80800000Y-43600000D03*
X81600000Y-43600000D03*
X82400000Y-43600000D03*
X83200000Y-43600000D03*
X84000000Y-43600000D03*
X84800000Y-43600000D03*
X85600000Y-43600000D03*
X86400000Y-43600000D03*
X87200000Y-43600000D03*
X88000000Y-43600000D03*
X88800000Y-43600000D03*
X89600000Y-43600000D03*
X50400000Y-44400000D03*
X51200000Y-44400000D03*
X52000000Y-44400000D03*
X52800000Y-44400000D03*
X53600000Y-44400000D03*
X54400000Y-44400000D03*
X55200000Y-44400000D03*
X56000000Y-44400000D03*
X56800000Y-44400000D03*
X57600000Y-44400000D03*
X58400000Y-44400000D03*
X59200000Y-44400000D03*
X60000000Y-44400000D03*
X60800000Y-44400000D03*
X61600000Y-44400000D03*
X62400000Y-44400000D03*
X63200000Y-44400000D03*
X64000000Y-44400000D03*
X64800000Y-44400000D03*
X65600000Y-44400000D03*
X66400000Y-44400000D03*
X67200000Y-44400000D03*
X68000000Y-44400000D03*
X68800000Y-44400000D03*
X69600000Y-44400000D03*
X70400000Y-44400000D03*
X71200000Y-44400000D03*
X72000000Y-44400000D03*
X72800000Y-44400000D03*
X73600000Y-44400000D03*
X74400000Y-44400000D03*
X75200000Y-44400000D03*
X76000000Y-44400000D03*
X76800000Y-44400000D03*
X77600000Y-44400000D03*
X78400000Y-44400000D03*
X79200000Y-44400000D03*
X80000000Y-44400000D03*
X80800000Y-44400000D03*
X81600000Y-44400000D03*
X82400000Y-44400000D03*
X83200000Y-44400000D03*
X84000000Y-44400000D03*
X84800000Y-44400000D03*
X85600000Y-44400000D03*
X86400000Y-44400000D03*
X87200000Y-44400000D03*
X88000000Y-44400000D03*
X88800000Y-44400000D03*
X89600000Y-44400000D03*
X50400000Y-45200000D03*
X51200000Y-45200000D03*
X52000000Y-45200000D03*
X52800000Y-45200000D03*
X53600000Y-45200000D03*
X54400000Y-45200000D03*
X55200000Y-45200000D03*
X56000000Y-45200000D03*
X56800000Y-45200000D03*
X57600000Y-45200000D03*
X58400000Y-45200000D03*
X59200000Y-45200000D03*
X60000000Y-45200000D03*
X60800000Y-45200000D03*
X61600000Y-45200000D03*
X62400000Y-45200000D03*
X63200000Y-45200000D03*
X64000000Y-45200000D03*
X64800000Y-45200000D03*
X65600000Y-45200000D03*
X66400000Y-45200000D03*
X67200000Y-45200000D03*
X68000000Y-45200000D03*
X68800000Y-45200000D03*
X69600000Y-45200000D03*
X70400000Y-45200000D03*
X71200000Y-45200000D03*
X72000000Y-45200000D03*
X72800000Y-45200000D03*
X73600000Y-45200000D03*
X74400000Y-45200000D03*
X75200000Y-45200000D03*
X76000000Y-45200000D03*
X76800000Y-45200000D03*
X77600000Y-45200000D03*
X78400000Y-45200000D03*
X79200000Y-45200000D03*
X80000000Y-45200000D03*
X80800000Y-45200000D03*
X81600000Y-45200000D03*
X82400000Y-45200000D03*
X83200000Y-45200000D03*
X84000000Y-45200000D03*
X84800000Y-45200000D03*
X85600000Y-45200000D03*
X86400000Y-45200000D03*
X87200000Y-45200000D03*
X88000000Y-45200000D03*
X88800000Y-45200000D03*
X89600000Y-45200000D03*
X50400000Y-46000000D03*
X51200000Y-46000000D03*
X52000000Y-46000000D03*
X52800000Y-46000000D03*
X53600000Y-46000000D03*
X54400000Y-46000000D03*
X55200000Y-46000000D03*
X56000000Y-46000000D03*
X56800000Y-46000000D03*
X57600000Y-46000000D03*
X58400000Y-46000000D03*
X59200000Y-46000000D03*
X60000000Y-46000000D03*
X60800000Y-46000000D03*
X61600000Y-46000000D03*
X62400000Y-46000000D03*
X63200000Y-46000000D03*
X64000000Y-46000000D03*
X64800000Y-46000000D03*
X65600000Y-46000000D03*
X66400000Y-46000000D03*
X67200000Y-46000000D03*
X68000000Y-46000000D03*
X68800000Y-46000000D03*
X69600000Y-46000000D03*
X70400000Y-46000000D03*
X71200000Y-46000000D03*
X72000000Y-46000000D03*
X72800000Y-46000000D03*
X73600000Y-46000000D03*
X74400000Y-46000000D03*
X75200000Y-46000000D03*
X76000000Y-46000000D03*
X76800000Y-46000000D03*
X77600000Y-46000000D03*
X78400000Y-46000000D03*
X79200000Y-46000000D03*
X80000000Y-46000000D03*
X80800000Y-46000000D03*
X81600000Y-46000000D03*
X82400000Y-46000000D03*
X83200000Y-46000000D03*
X84000000Y-46000000D03*
X84800000Y-46000000D03*
X85600000Y-46000000D03*
X86400000Y-46000000D03*
X87200000Y-46000000D03*
X88000000Y-46000000D03*
X88800000Y-46000000D03*
X89600000Y-46000000D03*
X50400000Y-46800000D03*
X51200000Y-46800000D03*
X52000000Y-46800000D03*
X52800000Y-46800000D03*
X53600000Y-46800000D03*
X54400000Y-46800000D03*
X55200000Y-46800000D03*
X56000000Y-46800000D03*
X56800000Y-46800000D03*
X57600000Y-46800000D03*
X58400000Y-46800000D03*
X59200000Y-46800000D03*
X60000000Y-46800000D03*
X60800000Y-46800000D03*
X61600000Y-46800000D03*
X62400000Y-46800000D03*
X63200000Y-46800000D03*
X64000000Y-46800000D03*
X64800000Y-46800000D03*
X65600000Y-46800000D03*
X66400000Y-46800000D03*
X67200000Y-46800000D03*
X68000000Y-46800000D03*
X68800000Y-46800000D03*
X69600000Y-46800000D03*
X70400000Y-46800000D03*
X71200000Y-46800000D03*
X72000000Y-46800000D03*
X72800000Y-46800000D03*
X73600000Y-46800000D03*
X74400000Y-46800000D03*
X75200000Y-46800000D03*
X76000000Y-46800000D03*
X76800000Y-46800000D03*
X77600000Y-46800000D03*
X78400000Y-46800000D03*
X79200000Y-46800000D03*
X80000000Y-46800000D03*
X80800000Y-46800000D03*
X81600000Y-46800000D03*
X82400000Y-46800000D03*
X83200000Y-46800000D03*
X84000000Y-46800000D03*
X84800000Y-46800000D03*
X85600000Y-46800000D03*
X86400000Y-46800000D03*
X87200000Y-46800000D03*
X88000000Y-46800000D03*
X88800000Y-46800000D03*
X89600000Y-46800000D03*
X50400000Y-47600000D03*
X51200000Y-47600000D03*
X52000000Y-47600000D03*
X52800000Y-47600000D03*
X53600000Y-47600000D03*
X54400000Y-47600000D03*
X55200000Y-47600000D03*
X56000000Y-47600000D03*
X56800000Y-47600000D03*
X57600000Y-47600000D03*
X58400000Y-47600000D03*
X59200000Y-47600000D03*
X60000000Y-47600000D03*
X60800000Y-47600000D03*
X61600000Y-47600000D03*
X62400000Y-47600000D03*
X63200000Y-47600000D03*
X64000000Y-47600000D03*
X64800000Y-47600000D03*
X65600000Y-47600000D03*
X66400000Y-47600000D03*
X67200000Y-47600000D03*
X68000000Y-47600000D03*
X68800000Y-47600000D03*
X69600000Y-47600000D03*
X70400000Y-47600000D03*
X71200000Y-47600000D03*
X72000000Y-47600000D03*
X72800000Y-47600000D03*
X73600000Y-47600000D03*
X74400000Y-47600000D03*
X75200000Y-47600000D03*
X76000000Y-47600000D03*
X76800000Y-47600000D03*
X77600000Y-47600000D03*
X78400000Y-47600000D03*
X79200000Y-47600000D03*
X80000000Y-47600000D03*
X80800000Y-47600000D03*
X81600000Y-47600000D03*
X82400000Y-47600000D03*
X83200000Y-47600000D03*
X84000000Y-47600000D03*
X84800000Y-47600000D03*
X85600000Y-47600000D03*
X86400000Y-47600000D03*
X87200000Y-47600000D03*
X88000000Y-47600000D03*
X88800000Y-47600000D03*
X89600000Y-47600000D03*
X50400000Y-48400000D03*
X51200000Y-48400000D03*
X52000000Y-48400000D03*
X52800000Y-48400000D03*
X53600000Y-48400000D03*
X54400000Y-48400000D03*
X55200000Y-48400000D03*
X56000000Y-48400000D03*
X56800000Y-48400000D03*
X57600000Y-48400000D03*
X58400000Y-48400000D03*
X59200000Y-48400000D03*
X60000000Y-48400000D03*
X60800000Y-48400000D03*
X61600000Y-48400000D03*
X62400000Y-48400000D03*
X63200000Y-48400000D03*
X64000000Y-48400000D03*
X64800000Y-48400000D03*
X65600000Y-48400000D03*
X66400000Y-48400000D03*
X67200000Y-48400000D03*
X68000000Y-48400000D03*
X68800000Y-48400000D03*
X69600000Y-48400000D03*
X70400000Y-48400000D03*
X71200000Y-48400000D03*
X72000000Y-48400000D03*
X72800000Y-48400000D03*
X73600000Y-48400000D03*
X74400000Y-48400000D03*
X75200000Y-48400000D03*
X76000000Y-48400000D03*
X76800000Y-48400000D03*
X77600000Y-48400000D03*
X78400000Y-48400000D03*
X79200000Y-48400000D03*
X80000000Y-48400000D03*
X80800000Y-48400000D03*
X81600000Y-48400000D03*
X82400000Y-48400000D03*
X83200000Y-48400000D03*
X84000000Y-48400000D03*
X84800000Y-48400000D03*
X85600000Y-48400000D03*
X86400000Y-48400000D03*
X87200000Y-48400000D03*
X88000000Y-48400000D03*
X88800000Y-48400000D03*
X89600000Y-48400000D03*
X50400000Y-49200000D03*
X51200000Y-49200000D03*
X52000000Y-49200000D03*
X52800000Y-49200000D03*
X53600000Y-49200000D03*
X54400000Y-49200000D03*
X55200000Y-49200000D03*
X56000000Y-49200000D03*
X56800000Y-49200000D03*
X57600000Y-49200000D03*
X58400000Y-49200000D03*
X59200000Y-49200000D03*
X60000000Y-49200000D03*
X60800000Y-49200000D03*
X61600000Y-49200000D03*
X62400000Y-49200000D03*
X63200000Y-49200000D03*
X64000000Y-49200000D03*
X64800000Y-49200000D03*
X65600000Y-49200000D03*
X66400000Y-49200000D03*
X67200000Y-49200000D03*
X68000000Y-49200000D03*
X68800000Y-49200000D03*
X69600000Y-49200000D03*
X70400000Y-49200000D03*
X71200000Y-49200000D03*
X72000000Y-49200000D03*
X72800000Y-49200000D03*
X73600000Y-49200000D03*
X74400000Y-49200000D03*
X75200000Y-49200000D03*
X76000000Y-49200000D03*
X76800000Y-49200000D03*
X77600000Y-49200000D03*
X78400000Y-49200000D03*
X79200000Y-49200000D03*
X80000000Y-49200000D03*
X80800000Y-49200000D03*
X81600000Y-49200000D03*
X82400000Y-49200000D03*
X83200000Y-49200000D03*
X84000000Y-49200000D03*
X84800000Y-49200000D03*
X85600000Y-49200000D03*
X86400000Y-49200000D03*
X87200000Y-49200000D03*
X88000000Y-49200000D03*
X88800000Y-49200000D03*
X89600000Y-49200000D03*
X50400000Y-50000000D03*
X51200000Y-50000000D03*
X52000000Y-50000000D03*
X52800000Y-50000000D03*
X53600000Y-50000000D03*
X54400000Y-50000000D03*
X55200000Y-50000000D03*
X56000000Y-50000000D03*
X56800000Y-50000000D03*
X57600000Y-50000000D03*
X58400000Y-50000000D03*
X59200000Y-50000000D03*
X60000000Y-50000000D03*
X60800000Y-50000000D03*
X61600000Y-50000000D03*
X62400000Y-50000000D03*
X63200000Y-50000000D03*
X64000000Y-50000000D03*
X64800000Y-50000000D03*
X65600000Y-50000000D03*
X66400000Y-50000000D03*
X67200000Y-50000000D03*
X68000000Y-50000000D03*
X68800000Y-50000000D03*
X69600000Y-50000000D03*
X70400000Y-50000000D03*
X71200000Y-50000000D03*
X72000000Y-50000000D03*
X72800000Y-50000000D03*
X73600000Y-50000000D03*
X74400000Y-50000000D03*
X75200000Y-50000000D03*
X76000000Y-50000000D03*
X76800000Y-50000000D03*
X77600000Y-50000000D03*
X78400000Y-50000000D03*
X79200000Y-50000000D03*
X80000000Y-50000000D03*
X80800000Y-50000000D03*
X81600000Y-50000000D03*
X82400000Y-50000000D03*
X83200000Y-50000000D03*
X84000000Y-50000000D03*
X84800000Y-50000000D03*
X85600000Y-50000000D03*
X86400000Y-50000000D03*
X87200000Y-50000000D03*
X88000000Y-50000000D03*
X88800000Y-50000000D03*
X89600000Y-50000000D03*
X50400000Y-50800000D03*
X51200000Y-50800000D03*
X52000000Y-50800000D03*
X52800000Y-50800000D03*
X53600000Y-50800000D03*
X54400000Y-50800000D03*
X55200000Y-50800000D03*
X56000000Y-50800000D03*
X56800000Y-50800000D03*
X57600000Y-50800000D03*
X58400000Y-50800000D03*
X59200000Y-50800000D03*
X60000000Y-50800000D03*
X60800000Y-50800000D03*
X61600000Y-50800000D03*
X62400000Y-50800000D03*
X63200000Y-50800000D03*
X64000000Y-50800000D03*
X64800000Y-50800000D03*
X65600000Y-50800000D03*
X66400000Y-50800000D03*
X67200000Y-50800000D03*
X68000000Y-50800000D03*
X68800000Y-50800000D03*
X69600000Y-50800000D03*
X70400000Y-50800000D03*
X71200000Y-50800000D03*
X72000000Y-50800000D03*
X72800000Y-50800000D03*
X73600000Y-50800000D03*
X74400000Y-50800000D03*
X75200000Y-50800000D03*
X76000000Y-50800000D03*
X76800000Y-50800000D03*
X77600000Y-50800000D03*
X78400000Y-50800000D03*
X79200000Y-50800000D03*
X80000000Y-50800000D03*
X80800000Y-50800000D03*
X81600000Y-50800000D03*
X82400000Y-50800000D03*
X83200000Y-50800000D03*
X84000000Y-50800000D03*
X84800000Y-50800000D03*
X85600000Y-50800000D03*
X86400000Y-50800000D03*
X87200000Y-50800000D03*
X88000000Y-50800000D03*
X88800000Y-50800000D03*
X89600000Y-50800000D03*
X50400000Y-51600000D03*
X51200000Y-51600000D03*
X52000000Y-51600000D03*
X52800000Y-51600000D03*
X53600000Y-51600000D03*
X54400000Y-51600000D03*
X55200000Y-51600000D03*
X56000000Y-51600000D03*
X56800000Y-51600000D03*
X57600000Y-51600000D03*
X58400000Y-51600000D03*
X59200000Y-51600000D03*
X60000000Y-51600000D03*
X60800000Y-51600000D03*
X61600000Y-51600000D03*
X62400000Y-51600000D03*
X63200000Y-51600000D03*
X64000000Y-51600000D03*
X64800000Y-51600000D03*
X65600000Y-51600000D03*
X66400000Y-51600000D03*
X67200000Y-51600000D03*
X68000000Y-51600000D03*
X68800000Y-51600000D03*
X69600000Y-51600000D03*
X70400000Y-51600000D03*
X71200000Y-51600000D03*
X72000000Y-51600000D03*
X72800000Y-51600000D03*
X73600000Y-51600000D03*
X74400000Y-51600000D03*
X75200000Y-51600000D03*
X76000000Y-51600000D03*
X76800000Y-51600000D03*
X77600000Y-51600000D03*
X78400000Y-51600000D03*
X79200000Y-51600000D03*
X80000000Y-51600000D03*
X80800000Y-51600000D03*
X81600000Y-51600000D03*
X82400000Y-51600000D03*
X83200000Y-51600000D03*
X84000000Y-51600000D03*
X84800000Y-51600000D03*
X85600000Y-51600000D03*
X86400000Y-51600000D03*
X87200000Y-51600000D03*
X88000000Y-51600000D03*
X88800000Y-51600000D03*
X89600000Y-51600000D03*
X50400000Y-52400000D03*
X51200000Y-52400000D03*
X52000000Y-52400000D03*
X52800000Y-52400000D03*
X53600000Y-52400000D03*
X54400000Y-52400000D03*
X55200000Y-52400000D03*
X56000000Y-52400000D03*
X56800000Y-52400000D03*
X57600000Y-52400000D03*
X58400000Y-52400000D03*
X59200000Y-52400000D03*
X60000000Y-52400000D03*
X60800000Y-52400000D03*
X61600000Y-52400000D03*
X62400000Y-52400000D03*
X63200000Y-52400000D03*
X64000000Y-52400000D03*
X64800000Y-52400000D03*
X65600000Y-52400000D03*
X66400000Y-52400000D03*
X67200000Y-52400000D03*
X68000000Y-52400000D03*
X68800000Y-52400000D03*
X69600000Y-52400000D03*
X70400000Y-52400000D03*
X71200000Y-52400000D03*
X72000000Y-52400000D03*
X72800000Y-52400000D03*
X73600000Y-52400000D03*
X74400000Y-52400000D03*
X75200000Y-52400000D03*
X76000000Y-52400000D03*
X76800000Y-52400000D03*
X77600000Y-52400000D03*
X78400000Y-52400000D03*
X79200000Y-52400000D03*
X80000000Y-52400000D03*
X80800000Y-52400000D03*
X81600000Y-52400000D03*
X82400000Y-52400000D03*
X83200000Y-52400000D03*
X84000000Y-52400000D03*
X84800000Y-52400000D03*
X85600000Y-52400000D03*
X86400000Y-52400000D03*
X87200000Y-52400000D03*
X88000000Y-52400000D03*
X88800000Y-52400000D03*
X89600000Y-52400000D03*
X50400000Y-53200000D03*
X51200000Y-53200000D03*
X52000000Y-53200000D03*
X52800000Y-53200000D03*
X53600000Y-53200000D03*
X54400000Y-53200000D03*
X55200000Y-53200000D03*
X56000000Y-53200000D03*
X56800000Y-53200000D03*
X57600000Y-53200000D03*
X58400000Y-53200000D03*
X59200000Y-53200000D03*
X60000000Y-53200000D03*
X60800000Y-53200000D03*
X61600000Y-53200000D03*
X62400000Y-53200000D03*
X63200000Y-53200000D03*
X64000000Y-53200000D03*
X64800000Y-53200000D03*
X65600000Y-53200000D03*
X66400000Y-53200000D03*
X67200000Y-53200000D03*
X68000000Y-53200000D03*
X68800000Y-53200000D03*
X69600000Y-53200000D03*
X70400000Y-53200000D03*
X71200000Y-53200000D03*
X72000000Y-53200000D03*
X72800000Y-53200000D03*
X73600000Y-53200000D03*
X74400000Y-53200000D03*
X75200000Y-53200000D03*
X76000000Y-53200000D03*
X76800000Y-53200000D03*
X77600000Y-53200000D03*
X78400000Y-53200000D03*
X79200000Y-53200000D03*
X80000000Y-53200000D03*
X80800000Y-53200000D03*
X81600000Y-53200000D03*
X82400000Y-53200000D03*
X83200000Y-53200000D03*
X84000000Y-53200000D03*
X84800000Y-53200000D03*
X85600000Y-53200000D03*
X86400000Y-53200000D03*
X87200000Y-53200000D03*
X88000000Y-53200000D03*
X88800000Y-53200000D03*
X89600000Y-53200000D03*
X50400000Y-54000000D03*
X51200000Y-54000000D03*
X52000000Y-54000000D03*
X52800000Y-54000000D03*
X53600000Y-54000000D03*
X54400000Y-54000000D03*
X55200000Y-54000000D03*
X56000000Y-54000000D03*
X56800000Y-54000000D03*
X57600000Y-54000000D03*
X58400000Y-54000000D03*
X59200000Y-54000000D03*
X60000000Y-54000000D03*
X60800000Y-54000000D03*
X61600000Y-54000000D03*
X62400000Y-54000000D03*
X63200000Y-54000000D03*
X64000000Y-54000000D03*
X64800000Y-54000000D03*
X65600000Y-54000000D03*
X66400000Y-54000000D03*
X67200000Y-54000000D03*
X68000000Y-54000000D03*
X68800000Y-54000000D03*
X69600000Y-54000000D03*
X70400000Y-54000000D03*
X71200000Y-54000000D03*
X72000000Y-54000000D03*
X72800000Y-54000000D03*
X73600000Y-54000000D03*
X74400000Y-54000000D03*
X75200000Y-54000000D03*
X76000000Y-54000000D03*
X76800000Y-54000000D03*
X77600000Y-54000000D03*
X78400000Y-54000000D03*
X79200000Y-54000000D03*
X80000000Y-54000000D03*
X80800000Y-54000000D03*
X81600000Y-54000000D03*
X82400000Y-54000000D03*
X83200000Y-54000000D03*
X84000000Y-54000000D03*
X84800000Y-54000000D03*
X85600000Y-54000000D03*
X86400000Y-54000000D03*
X87200000Y-54000000D03*
X88000000Y-54000000D03*
X88800000Y-54000000D03*
X89600000Y-54000000D03*
X50400000Y-54800000D03*
X51200000Y-54800000D03*
X52000000Y-54800000D03*
X52800000Y-54800000D03*
X53600000Y-54800000D03*
X54400000Y-54800000D03*
X55200000Y-54800000D03*
X56000000Y-54800000D03*
X56800000Y-54800000D03*
X57600000Y-54800000D03*
X58400000Y-54800000D03*
X59200000Y-54800000D03*
X60000000Y-54800000D03*
X60800000Y-54800000D03*
X61600000Y-54800000D03*
X62400000Y-54800000D03*
X63200000Y-54800000D03*
X64000000Y-54800000D03*
X64800000Y-54800000D03*
X65600000Y-54800000D03*
X66400000Y-54800000D03*
X67200000Y-54800000D03*
X68000000Y-54800000D03*
X68800000Y-54800000D03*
X69600000Y-54800000D03*
X70400000Y-54800000D03*
X71200000Y-54800000D03*
X72000000Y-54800000D03*
X72800000Y-54800000D03*
X73600000Y-54800000D03*
X74400000Y-54800000D03*
X75200000Y-54800000D03*
X76000000Y-54800000D03*
X76800000Y-54800000D03*
X77600000Y-54800000D03*
X78400000Y-54800000D03*
X79200000Y-54800000D03*
X80000000Y-54800000D03*
X80800000Y-54800000D03*
X81600000Y-54800000D03*
X82400000Y-54800000D03*
X83200000Y-54800000D03*
X84000000Y-54800000D03*
X84800000Y-54800000D03*
X85600000Y-54800000D03*
X86400000Y-54800000D03*
X87200000Y-54800000D03*
X88000000Y-54800000D03*
X88800000Y-54800000D03*
X89600000Y-54800000D03*
X50400000Y-55600000D03*
X51200000Y-55600000D03*
X52000000Y-55600000D03*
X52800000Y-55600000D03*
X53600000Y-55600000D03*
X54400000Y-55600000D03*
X55200000Y-55600000D03*
X56000000Y-55600000D03*
X56800000Y-55600000D03*
X57600000Y-55600000D03*
X58400000Y-55600000D03*
X59200000Y-55600000D03*
X60000000Y-55600000D03*
X60800000Y-55600000D03*
X61600000Y-55600000D03*
X62400000Y-55600000D03*
X63200000Y-55600000D03*
X64000000Y-55600000D03*
X64800000Y-55600000D03*
X65600000Y-55600000D03*
X66400000Y-55600000D03*
X67200000Y-55600000D03*
X68000000Y-55600000D03*
X68800000Y-55600000D03*
X69600000Y-55600000D03*
X70400000Y-55600000D03*
X71200000Y-55600000D03*
X72000000Y-55600000D03*
X72800000Y-55600000D03*
X73600000Y-55600000D03*
X74400000Y-55600000D03*
X75200000Y-55600000D03*
X76000000Y-55600000D03*
X76800000Y-55600000D03*
X77600000Y-55600000D03*
X78400000Y-55600000D03*
X79200000Y-55600000D03*
X80000000Y-55600000D03*
X80800000Y-55600000D03*
X81600000Y-55600000D03*
X82400000Y-55600000D03*
X83200000Y-55600000D03*
X84000000Y-55600000D03*
X84800000Y-55600000D03*
X85600000Y-55600000D03*
X86400000Y-55600000D03*
X87200000Y-55600000D03*
X88000000Y-55600000D03*
X88800000Y-55600000D03*
X89600000Y-55600000D03*
%TD*%
D10*
%TO.C,BH1*%
X45000000Y-35000000D03*
%TD*%
D11*
%TO.C,U102*%
X132687500Y-238000000D03*
X133062500Y-238000000D03*
X133437500Y-238000000D03*
X133812500Y-238000000D03*
X134187500Y-238000000D03*
X134562500Y-238000000D03*
X134937500Y-238000000D03*
X135312500Y-238000000D03*
X135687500Y-238000000D03*
X136062500Y-238000000D03*
X136437500Y-238000000D03*
X136812500Y-238000000D03*
X137187500Y-238000000D03*
X137562500Y-238000000D03*
X137937500Y-238000000D03*
X138312500Y-238000000D03*
X138687500Y-238000000D03*
X139062500Y-238000000D03*
X139437500Y-238000000D03*
X139812500Y-238000000D03*
X140187500Y-238000000D03*
X140562500Y-238000000D03*
X140937500Y-238000000D03*
X141312500Y-238000000D03*
X141687500Y-238000000D03*
X142062500Y-238000000D03*
X142437500Y-238000000D03*
X142812500Y-238000000D03*
X143187500Y-238000000D03*
X143562500Y-238000000D03*
X143937500Y-238000000D03*
X144312500Y-238000000D03*
X144687500Y-238000000D03*
X145062500Y-238000000D03*
X145437500Y-238000000D03*
X145812500Y-238000000D03*
X146187500Y-238000000D03*
X146562500Y-238000000D03*
X146937500Y-238000000D03*
X147312500Y-238000000D03*
X132687500Y-242000000D03*
X133062500Y-242000000D03*
X133437500Y-242000000D03*
X133812500Y-242000000D03*
X134187500Y-242000000D03*
X134562500Y-242000000D03*
X134937500Y-242000000D03*
X135312500Y-242000000D03*
X135687500Y-242000000D03*
X136062500Y-242000000D03*
X136437500Y-242000000D03*
X136812500Y-242000000D03*
X137187500Y-242000000D03*
X137562500Y-242000000D03*
X137937500Y-242000000D03*
X138312500Y-242000000D03*
X138687500Y-242000000D03*
X139062500Y-242000000D03*
X139437500Y-242000000D03*
X139812500Y-242000000D03*
X140187500Y-242000000D03*
X140562500Y-242000000D03*
X140937500Y-242000000D03*
X141312500Y-242000000D03*
X141687500Y-242000000D03*
X142062500Y-242000000D03*
X142437500Y-242000000D03*
X142812500Y-242000000D03*
X143187500Y-242000000D03*
X143562500Y-242000000D03*
X143937500Y-242000000D03*
X144312500Y-242000000D03*
X144687500Y-242000000D03*
X145062500Y-242000000D03*
X145437500Y-242000000D03*
X145812500Y-242000000D03*
X146187500Y-242000000D03*
X146562500Y-242000000D03*
X146937500Y-242000000D03*
X147312500Y-242000000D03*
%TD*%
D13*
X185000000Y-85000000D03*
X135000000Y-85000000D03*
X185000000Y-35000000D03*
X95000000Y-85000000D03*
X45000000Y-85000000D03*
X95000000Y-35000000D03*
X135000000Y-35000000D03*
X45000000Y-35000000D03*
M02*
